<svg width="124" height="64" viewBox="0 0 124 64" fill="none" xmlns="http://www.w3.org/2000/svg">
<path d="M111.181 22.4777C110.026 22.6048 107.579 22.901 106.635 23.8731C105.753 24.7818 106.455 26.1276 107.283 27.2472C108.734 29.1961 110.431 30.984 111.972 32.8584C110.118 31.2971 108.347 29.5868 106.413 28.1233C105.309 27.2858 103.976 26.5758 103.075 27.4705C102.112 28.4225 101.819 30.894 101.692 32.0584C101.57 29.7078 101.419 27.4549 101.735 25.0966C101.791 24.6826 101.875 24.2671 102.038 23.9089C102.143 23.6794 102.295 23.4654 102.483 23.2762C102.67 23.0871 102.884 22.9351 103.109 22.8266C103.467 22.6638 103.878 22.5785 104.288 22.5196C106.62 22.2017 108.851 22.3553 111.181 22.4777" fill="white"/>
<path d="M85.2555 15.4646C86.4107 15.3375 88.8575 15.0382 89.8032 14.0707C90.6824 13.1621 89.9815 11.8163 89.1536 10.6968C87.707 8.74456 86.0091 6.95851 84.4648 5.08397C86.3192 6.64367 88.0898 8.35554 90.0204 9.81908C91.1304 10.6565 92.4623 11.3666 93.3618 10.4735C94.3247 9.5199 94.6175 7.04994 94.7448 5.88231C94.8672 8.23763 95.0176 10.4874 94.7013 12.8473C94.644 13.2551 94.5602 13.6738 94.3991 14.0319C94.2951 14.263 94.1385 14.4755 93.954 14.6645C93.7649 14.8553 93.5554 15.0088 93.3276 15.1158C92.9709 15.2786 92.5586 15.3654 92.1523 15.4197C89.8172 15.7438 87.5859 15.5917 85.2555 15.4646" fill="white"/>
<path d="M101.688 32.0586C101.002 31.1127 99.5229 29.1236 98.2205 28.7824C97.0002 28.4661 96.1954 29.7514 95.6542 31.0353C94.7039 33.2773 94.02 35.6543 93.1828 37.943C93.5937 35.5427 94.1766 33.1379 94.4619 30.7159C94.6295 29.3267 94.5705 27.8087 93.3565 27.466C92.0587 27.1031 89.7887 28.0816 88.7266 28.5545C90.6849 27.2676 92.5425 26.0116 94.7225 25.1108C95.1007 24.9511 95.5024 24.8177 95.8885 24.7805C96.1427 24.7557 96.4001 24.7836 96.6576 24.8519C96.9118 24.9231 97.1521 25.0332 97.3553 25.1758C97.6732 25.4069 97.9522 25.7248 98.2049 26.052C99.6454 27.9343 100.632 29.9593 101.688 32.0586" fill="white"/>
<path d="M94.7461 5.88254C95.4314 6.82844 96.9106 8.82247 98.213 9.16042C99.4364 9.47831 100.24 8.18984 100.782 6.90599C101.731 4.66396 102.418 2.29004 103.252 -1.40087e-05C102.844 2.40479 102.26 4.80803 101.971 7.23008C101.806 8.6146 101.863 10.1342 103.082 10.4753C104.381 10.8413 106.643 9.86283 107.705 9.38994C105.747 10.6752 103.896 11.9297 101.714 12.8351C101.331 12.9918 100.934 13.1236 100.543 13.1639C100.298 13.1871 100.036 13.1593 99.7822 13.0926C99.5216 13.0197 99.2844 12.9128 99.0782 12.7669C98.7619 12.539 98.4829 12.2196 98.2316 11.8909C96.7896 10.0102 95.8051 7.98366 94.7461 5.88254Z" fill="white"/>
<path d="M107.703 9.39007C107.236 10.4662 106.269 12.7532 106.626 14.0634C106.967 15.2899 108.471 15.3503 109.844 15.1813C112.245 14.8914 114.625 14.3006 117.003 13.8897C114.736 14.7317 112.383 15.4232 110.164 16.383C108.894 16.9319 107.619 17.7397 107.933 18.9754C108.269 20.2903 110.241 21.7866 111.178 22.4796C109.097 21.4097 107.092 20.4143 105.229 18.9584C104.9 18.7072 104.588 18.4235 104.362 18.0994C104.215 17.8948 104.112 17.6529 104.038 17.3954C103.971 17.138 103.945 16.8745 103.971 16.6233C104.005 16.2295 104.139 15.8279 104.297 15.4417C105.188 13.2415 106.433 11.3655 107.703 9.39007" fill="white"/>
<path d="M88.7281 28.5547C89.1979 27.4802 90.1685 25.1917 89.8041 23.8799C89.4661 22.6535 87.9621 22.5962 86.5884 22.7604C84.1944 23.0503 81.8142 23.6411 79.4297 24.0536C81.6949 23.2132 84.0487 22.5201 86.2705 21.5635C87.5436 21.013 88.8165 20.2006 88.5018 18.971C88.1653 17.6531 86.196 16.1583 85.2549 15.4653C87.3373 16.5336 89.3436 17.5305 91.2074 18.9849C91.5346 19.2361 91.8477 19.5214 92.0726 19.8425C92.2184 20.0501 92.3269 20.2889 92.3966 20.5495C92.4633 20.8099 92.4896 21.0688 92.4633 21.32C92.4292 21.7154 92.2959 22.117 92.1408 22.5032C91.2461 24.7017 89.9996 26.5747 88.7281 28.5547" fill="white"/>
<path d="M104.631 44.8229L103.248 50.0017H97.8071C94.5664 49.9614 92.529 47.2217 93.3757 44.0819C94.1541 41.1746 97.1171 38.8922 100.108 38.8922C103.373 38.8922 105.484 41.6461 104.631 44.8229ZM101.043 47.2232L101.899 44.0337C102.272 42.6508 101.514 41.6693 100.083 41.6693C98.3498 41.6693 96.486 43.105 96.0286 44.7828C95.6611 46.147 96.3945 47.2077 97.8071 47.2232H101.043" fill="white"/>
<path d="M40.2946 47.2229L40.9334 44.818C41.3815 43.1357 43.1723 41.6767 44.8624 41.669C45.3477 41.669 45.8347 41.7511 46.2331 42.0534C46.4315 42.2008 46.5804 42.3899 46.6827 42.6117L48.9357 40.9124C48.1278 39.6842 46.709 38.8904 44.9538 38.8904C44.7383 38.8935 44.5213 38.8997 44.3026 38.923C43.5568 38.999 42.8189 39.2098 42.1273 39.5369C41.1876 39.9773 40.321 40.6255 39.6372 41.424C38.7999 42.3993 38.3332 43.5636 38.0091 44.7947L35.1406 55.5601L38.8108 52.7862L39.5442 50.0015H40.6279L44.3026 47.2229H40.2946" fill="white"/>
<path d="M24.2369 35.2128C25.0106 35.2128 25.4727 35.8238 25.2741 36.5804C25.0695 37.3324 24.2788 37.9449 23.5082 37.9449C22.7328 37.9449 22.2709 37.3324 22.4739 36.5804C22.6756 35.8238 23.4662 35.2128 24.2369 35.2128ZM24.6477 38.8922L21.6909 50.0017H18.8906L21.8491 38.8922H24.6477Z" fill="white"/>
<path d="M59.5655 44.8229L58.1839 50.0017H52.74C49.501 49.9614 47.4636 47.2217 48.3087 44.0819C49.0933 41.1746 52.0547 38.8922 55.0426 38.8922C58.3095 38.8922 60.4198 41.6461 59.5655 44.8229V44.8229ZM55.9791 47.2232L56.8349 44.0337C57.2087 42.6508 56.4504 41.6693 55.0193 41.6693C53.289 41.6693 51.4189 43.105 50.9678 44.7828C50.5972 46.147 51.3306 47.2077 52.7431 47.2232H55.9791Z" fill="white"/>
<path d="M81.5178 50.0017H78.5579L79.9346 44.8059C80.3114 43.3855 80.4044 41.6693 78.3733 41.6693C76.68 41.6693 74.8459 43.1671 74.3978 44.8152L73.0147 50.0017H70.0625L71.447 44.809C71.8115 43.5561 72.2363 42.4088 73.1573 41.3699C74.4893 39.8768 76.4336 38.8922 78.3873 38.8922C80.0633 38.8922 81.4295 39.6163 82.2373 40.7606C83.524 39.6055 85.1971 38.8922 86.8749 38.8922C89.7557 38.8922 91.7141 41.0258 91.5326 43.7206C91.4954 44.3329 91.3233 44.9175 91.1714 45.5067L89.9713 50.0017H87.0237L88.4146 44.8229C88.7944 43.4073 88.9153 41.6693 86.8609 41.6693C85.1739 41.6693 83.3489 43.1561 82.9024 44.8027L81.5178 50.0017Z" fill="white"/>
<path d="M64.3051 44.8183C64.7548 43.136 66.5455 41.6771 68.2357 41.6693C68.7195 41.6693 69.2094 41.7515 69.6062 42.0553C69.8017 42.2027 69.9535 42.3902 70.0574 42.6135L72.3088 40.9126C71.501 39.6846 70.0822 38.8922 68.3272 38.8922C68.1085 38.8937 67.893 38.9031 67.6744 38.9232C66.9302 38.9976 66.1936 39.2117 65.5036 39.5388C64.5593 39.9792 63.6958 40.6288 63.0119 41.4258C62.1715 42.3995 61.7048 43.5656 61.3777 44.7935L59.9961 50.0017H62.9189L64.3051 44.8183Z" fill="white"/>
<path d="M12.9992 33.3351L11.52 38.8907H14.0195C17.2569 38.9326 19.2928 41.6707 18.4493 44.8153C17.6679 47.7193 14.7048 50.0017 11.7169 50.0017C8.51201 50.0017 6.41723 47.3503 7.14445 44.2493L9.31519 36.1138L12.9992 33.3351ZM10.7804 41.6693L9.923 44.8603C9.55241 46.2479 10.3075 47.2247 11.7371 47.2247C13.4721 47.2247 15.3405 45.7889 15.7933 44.1098C16.1607 42.7484 15.4289 41.6847 14.0148 41.6693H10.7804Z" fill="white"/>
<path d="M31.7954 38.8907C35.0686 38.8907 37.1494 41.6414 36.2826 44.8184C35.4872 47.7193 32.5117 50.0017 29.5192 50.0017C26.2492 50.0017 24.1684 47.2543 25.0382 44.0772C25.8306 41.173 28.806 38.8907 31.7954 38.8907ZM31.8155 41.6693C30.0541 41.6693 28.1532 43.1253 27.6881 44.8293C27.3004 46.2325 28.0555 47.2247 29.5068 47.2247C31.262 47.2247 33.163 45.7688 33.6312 44.068C34.0173 42.6615 33.2638 41.6693 31.8155 41.6693Z" fill="white"/>
</svg>
