<svg width="213" height="100" viewBox="0 0 213 100" fill="none" xmlns="http://www.w3.org/2000/svg">
<g clip-path="url(#clip0_2916_20414)">
<path d="M16.2628 44.9819C7.80774 44.9819 0.972656 51.7499 0.972656 60.073H16.2628V44.9819Z" fill="#00AEBF"/>
<path d="M16.2628 44.9819C7.80774 44.9819 0.972656 51.7499 0.972656 60.073H16.2628V44.9819Z" fill="url(#paint0_linear_2916_20414)" fill-opacity="0.2"/>
<path fill-rule="evenodd" clip-rule="evenodd" d="M31.4308 60.077C31.4308 51.7538 24.5957 44.9858 16.1406 44.9858V60.077H16.1451C16.2178 68.3647 23.0433 75.0423 31.4268 75.0423V60.077H31.4308Z" fill="url(#paint1_linear_2916_20414)"/>
<path d="M34.1758 55.5404C42.6308 55.5404 49.4659 48.7723 49.4659 40.4492H34.1758V55.5404Z" fill="#FF904D"/>
<path d="M34.1758 55.5404C42.6308 55.5404 49.4659 48.7723 49.4659 40.4492H34.1758V55.5404Z" fill="url(#paint2_linear_2916_20414)" fill-opacity="0.2"/>
<path fill-rule="evenodd" clip-rule="evenodd" d="M19.0078 40.4449C19.0078 48.7681 25.8429 55.5361 34.298 55.5361V40.4449H34.2935C34.2208 32.1573 27.3954 25.4795 19.0119 25.4795V40.4449H19.0078Z" fill="url(#paint3_linear_2916_20414)"/>
<path d="M69.1683 36.9405C70.3243 37.6061 70.9016 38.6109 70.9016 39.9549C70.9016 41.0727 70.5061 41.9895 69.7151 42.7055C68.9235 43.4214 67.9501 43.7794 66.7948 43.7794H61.1992V30.5914H66.3993C67.5293 30.5914 68.478 30.943 69.2437 31.6464C70.0229 32.3372 70.4119 33.2227 70.4119 34.3028C70.4119 35.3956 69.9976 36.2748 69.1683 36.9405ZM66.3993 33.0217H63.7991V35.9231H66.3993C66.8007 35.9231 67.1338 35.7849 67.3974 35.5086C67.6741 35.2323 67.8118 34.8869 67.8118 34.4724C67.8118 34.0579 67.6799 33.7125 67.4163 33.4362C67.1526 33.1598 66.8137 33.0217 66.3993 33.0217ZM66.7948 41.349C67.2345 41.349 67.5988 41.2046 67.8871 40.9157C68.1761 40.6143 68.3209 40.2374 68.3209 39.7853C68.3209 39.3457 68.1761 38.9814 67.8871 38.6926C67.5988 38.3911 67.2345 38.2404 66.7948 38.2404H63.7991V41.349H66.7948ZM73.4985 33.2289C73.0972 33.2289 72.7452 33.0845 72.4439 32.7957C72.1549 32.4942 72.0107 32.1425 72.0107 31.7406C72.0107 31.3387 72.1549 30.987 72.4439 30.6856C72.7452 30.3841 73.0972 30.2334 73.4985 30.2334C73.9134 30.2334 74.2648 30.3841 74.5537 30.6856C74.8551 30.987 75.0057 31.3387 75.0057 31.7406C75.0057 32.1425 74.8551 32.4942 74.5537 32.7957C74.2648 33.0845 73.9134 33.2289 73.4985 33.2289ZM72.2932 43.7794V34.3593H74.7232V43.7794H72.2932ZM84.7738 42.6113C83.8063 43.5659 82.6257 44.0431 81.2314 44.0431C79.8372 44.0431 78.6566 43.5659 77.6896 42.6113C76.735 41.6442 76.2577 40.4635 76.2577 39.0694C76.2577 37.6752 76.735 36.5008 77.6896 35.5463C78.6566 34.5792 79.8372 34.0956 81.2314 34.0956C82.6257 34.0956 83.8063 34.5792 84.7738 35.5463C85.7408 36.5008 86.2239 37.6752 86.2239 39.0694C86.2239 40.4635 85.7408 41.6442 84.7738 42.6113ZM79.404 40.9345C79.8937 41.4244 80.5028 41.6693 81.2314 41.6693C81.96 41.6693 82.5692 41.4244 83.0588 40.9345C83.5491 40.4447 83.7939 39.823 83.7939 39.0694C83.7939 38.3157 83.5491 37.694 83.0588 37.2042C82.5692 36.7144 81.96 36.4695 81.2314 36.4695C80.5028 36.4695 79.8937 36.7144 79.404 37.2042C78.9267 37.694 78.6884 38.3157 78.6884 39.0694C78.6884 39.823 78.9267 40.4447 79.404 40.9345ZM100.232 33.0782H94.9563V36.2057H100.081V38.6926H94.9563V43.7794H92.3568V30.5914H100.232V33.0782ZM108.972 34.3593H111.403V43.7794H108.972V42.6678C108.243 43.5847 107.22 44.0431 105.901 44.0431C104.645 44.0431 103.565 43.5659 102.661 42.6113C101.769 41.6442 101.323 40.4635 101.323 39.0694C101.323 37.6752 101.769 36.5008 102.661 35.5463C103.565 34.5792 104.645 34.0956 105.901 34.0956C107.22 34.0956 108.243 34.554 108.972 35.4709V34.3593ZM104.488 40.991C104.978 41.4809 105.6 41.7258 106.354 41.7258C107.107 41.7258 107.728 41.4809 108.219 40.991C108.721 40.4887 108.972 39.8481 108.972 39.0694C108.972 38.2906 108.721 37.6564 108.219 37.1665C107.728 36.6642 107.107 36.4129 106.354 36.4129C105.6 36.4129 104.978 36.6642 104.488 37.1665C103.998 37.6564 103.754 38.2906 103.754 39.0694C103.754 39.8481 103.998 40.4887 104.488 40.991ZM115.837 35.9796C116.063 35.3767 116.433 34.9246 116.948 34.6231C117.476 34.3217 118.06 34.1709 118.701 34.1709V36.8839C117.959 36.796 117.293 36.9467 116.703 37.3361C116.126 37.7255 115.837 38.3723 115.837 39.2766V43.7794H113.406V34.3593H115.837V35.9796ZM130.34 34.0956C131.42 34.0956 132.281 34.4473 132.921 35.1506C133.574 35.854 133.901 36.796 133.901 37.9766V43.7794H131.47V38.1462C131.47 37.581 131.333 37.1414 131.056 36.8274C130.78 36.5134 130.39 36.3564 129.888 36.3564C129.335 36.3564 128.902 36.5385 128.588 36.9027C128.286 37.267 128.136 37.7945 128.136 38.4853V43.7794H125.706V38.1462C125.706 37.581 125.567 37.1414 125.291 36.8274C125.015 36.5134 124.625 36.3564 124.123 36.3564C123.583 36.3564 123.15 36.5385 122.823 36.9027C122.509 37.267 122.352 37.7945 122.352 38.4853V43.7794H119.921V34.3593H122.352V35.3579C122.917 34.5164 123.79 34.0956 124.97 34.0956C126.126 34.0956 126.98 34.5478 127.533 35.4521C128.161 34.5478 129.097 34.0956 130.34 34.0956ZM142.924 34.3593H145.354V43.7794H142.924V42.6678C142.196 43.5847 141.172 44.0431 139.853 44.0431C138.597 44.0431 137.517 43.5659 136.613 42.6113C135.721 41.6442 135.275 40.4635 135.275 39.0694C135.275 37.6752 135.721 36.5008 136.613 35.5463C137.517 34.5792 138.597 34.0956 139.853 34.0956C141.172 34.0956 142.196 34.554 142.924 35.4709V34.3593ZM138.44 40.991C138.93 41.4809 139.552 41.7258 140.305 41.7258C141.059 41.7258 141.681 41.4809 142.17 40.991C142.673 40.4887 142.924 39.8481 142.924 39.0694C142.924 38.2906 142.673 37.6564 142.17 37.1665C141.681 36.6642 141.059 36.4129 140.305 36.4129C139.552 36.4129 138.93 36.6642 138.44 37.1665C137.95 37.6564 137.705 38.2906 137.705 39.0694C137.705 39.8481 137.95 40.4887 138.44 40.991ZM162.023 43.7794H159.065L156.502 39.4839L153.94 43.7794H151.001L155.033 37.0158L151.208 30.5914H154.148L156.502 34.5478L158.858 30.5914H161.797L157.972 36.997L162.023 43.7794ZM180.695 30.5914V43.7794H178.114V35.226L174.403 41.349H174.101L170.389 35.2448V43.7794H167.789V30.5914H170.465L174.252 36.8274L178.02 30.5914H180.695ZM182.952 30.5914H185.552V43.7794H182.952V30.5914ZM196.516 30.5914V33.0782H192.955V43.7794H190.356V33.0782H186.813V30.5914H196.516ZM68.6975 53.9694H71.2789V67.1574H68.6975V61.6938H63.7991V67.1574H61.1992V53.9694H63.7991V59.207H68.6975V53.9694ZM80.5742 57.7374H83.0049V67.1574H80.5742V66.0459C79.8463 66.9628 78.8222 67.4212 77.5039 67.4212C76.2473 67.4212 75.1674 66.9439 74.2635 65.9893C73.3712 65.0222 72.9257 63.8416 72.9257 62.4474C72.9257 61.0532 73.3712 59.8789 74.2635 58.9243C75.1674 57.9572 76.2473 57.4737 77.5039 57.4737C78.8222 57.4737 79.8463 57.9321 80.5742 58.8489V57.7374ZM76.0908 64.3691C76.5805 64.8589 77.2019 65.1039 77.9559 65.1039C78.7092 65.1039 79.3313 64.8589 79.8209 64.3691C80.3236 63.8667 80.5742 63.2262 80.5742 62.4474C80.5742 61.6687 80.3236 61.0344 79.8209 60.5446C79.3313 60.0422 78.7092 59.791 77.9559 59.791C77.2019 59.791 76.5805 60.0422 76.0908 60.5446C75.6005 61.0344 75.3557 61.6687 75.3557 62.4474C75.3557 63.2262 75.6005 63.8667 76.0908 64.3691ZM89.4923 67.4212C88.0734 67.4212 86.8863 66.9439 85.9317 65.9893C84.9894 65.0348 84.5186 63.8541 84.5186 62.4474C84.5186 61.0407 84.9894 59.86 85.9317 58.9055C86.8863 57.9509 88.0734 57.4737 89.4923 57.4737C90.4092 57.4737 91.2444 57.6934 91.9983 58.1331C92.7516 58.5726 93.3231 59.163 93.7127 59.904L91.6217 61.1286C91.4333 60.7393 91.1444 60.4315 90.7547 60.2055C90.3781 59.9793 89.9508 59.8663 89.4735 59.8663C88.7449 59.8663 88.1422 60.1112 87.6649 60.6011C87.1876 61.0784 86.9493 61.6938 86.9493 62.4474C86.9493 63.1884 87.1876 63.8039 87.6649 64.2938C88.1422 64.771 88.7449 65.0096 89.4735 65.0096C89.9638 65.0096 90.3969 64.9029 90.7736 64.6894C91.1632 64.4633 91.4522 64.1556 91.6405 63.7662L93.7504 64.972C93.3361 65.713 92.7516 66.3096 91.9983 66.7618C91.2444 67.2014 90.4092 67.4212 89.4923 67.4212ZM103.521 67.1574H100.695L97.2662 62.8807V67.1574H94.8355V53.9694H97.2662V61.8822L100.507 57.7374H103.408L99.6208 62.3909L103.521 67.1574ZM105.739 56.607C105.337 56.607 104.986 56.4626 104.685 56.1737C104.396 55.8723 104.251 55.5206 104.251 55.1187C104.251 54.7167 104.396 54.365 104.685 54.0636C104.986 53.7621 105.337 53.6114 105.739 53.6114C106.154 53.6114 106.506 53.7621 106.795 54.0636C107.096 54.365 107.247 54.7167 107.247 55.1187C107.247 55.5206 107.096 55.8723 106.795 56.1737C106.506 56.4626 106.154 56.607 105.739 56.607ZM104.533 67.1574V57.7374H106.964V67.1574H104.533ZM114.226 57.4737C115.256 57.4737 116.104 57.8191 116.769 58.5098C117.447 59.2007 117.787 60.1552 117.787 61.3735V67.1574H115.356V61.675C115.356 61.047 115.187 60.5697 114.848 60.2431C114.509 59.904 114.056 59.7345 113.491 59.7345C112.863 59.7345 112.361 59.9291 111.984 60.3185C111.607 60.7078 111.419 61.2919 111.419 62.0706V67.1574H108.988V57.7374H111.419V58.7925C112.009 57.9132 112.945 57.4737 114.226 57.4737ZM126.878 57.7374H129.251V66.7053C129.251 68.1622 128.767 69.2738 127.8 70.04C126.846 70.8061 125.691 71.1892 124.334 71.1892C123.316 71.1892 122.418 70.9945 121.64 70.6051C120.873 70.2158 120.283 69.6443 119.869 68.8907L121.941 67.7038C122.418 68.583 123.241 69.0226 124.409 69.0226C125.176 69.0226 125.778 68.8216 126.218 68.4197C126.658 68.0178 126.878 67.4463 126.878 66.7053V65.6879C126.161 66.6425 125.157 67.1197 123.863 67.1197C122.532 67.1197 121.414 66.655 120.51 65.7256C119.618 64.7836 119.172 63.6406 119.172 62.2967C119.172 60.9653 119.624 59.8287 120.529 58.8867C121.433 57.9447 122.544 57.4737 123.863 57.4737C125.157 57.4737 126.161 57.9509 126.878 58.9055V57.7374ZM122.337 64.1619C122.839 64.6391 123.474 64.8778 124.24 64.8778C125.006 64.8778 125.634 64.6391 126.124 64.1619C126.626 63.672 126.878 63.0503 126.878 62.2967C126.878 61.5557 126.626 60.9465 126.124 60.4692C125.634 59.9793 125.006 59.7345 124.24 59.7345C123.474 59.7345 122.839 59.9793 122.337 60.4692C121.847 60.9465 121.602 61.5557 121.602 62.2967C121.602 63.0503 121.847 63.672 122.337 64.1619ZM148.783 53.9694V67.1574H146.202V58.6041L142.49 64.727H142.189L138.478 58.6229V67.1574H135.878V53.9694H138.553L142.34 60.2055L146.108 53.9694H148.783ZM152.981 63.4459C153.307 64.6266 154.193 65.2169 155.637 65.2169C156.567 65.2169 157.27 64.9029 157.747 64.2749L159.707 65.4053C158.777 66.7492 157.408 67.4212 155.6 67.4212C154.042 67.4212 152.792 66.9502 151.851 66.0081C150.908 65.0662 150.438 63.8793 150.438 62.4474C150.438 61.0281 150.902 59.8475 151.832 58.9055C152.761 57.9509 153.954 57.4737 155.411 57.4737C156.793 57.4737 157.93 57.9509 158.821 58.9055C159.726 59.86 160.178 61.0407 160.178 62.4474C160.178 62.7614 160.147 63.0943 160.084 63.4459H152.981ZM152.943 61.5619H157.747C157.609 60.9213 157.32 60.4441 156.881 60.1301C156.454 59.8161 155.964 59.6591 155.411 59.6591C154.758 59.6591 154.218 59.8287 153.791 60.1678C153.364 60.4943 153.081 60.9591 152.943 61.5619ZM168.741 53.9694H171.171V67.1574H168.741V66.0459C168.025 66.9628 167.007 67.4212 165.689 67.4212C164.42 67.4212 163.334 66.9439 162.43 65.9893C161.538 65.0222 161.092 63.8416 161.092 62.4474C161.092 61.0532 161.538 59.8789 162.43 58.9243C163.334 57.9572 164.42 57.4737 165.689 57.4737C167.007 57.4737 168.025 57.9321 168.741 58.8489V53.9694ZM164.257 64.3691C164.759 64.8589 165.387 65.1039 166.141 65.1039C166.894 65.1039 167.517 64.8589 168.006 64.3691C168.496 63.8667 168.741 63.2262 168.741 62.4474C168.741 61.6687 168.496 61.0344 168.006 60.5446C167.517 60.0422 166.894 59.791 166.141 59.791C165.387 59.791 164.759 60.0422 164.257 60.5446C163.767 61.0344 163.522 61.6687 163.522 62.4474C163.522 63.2262 163.767 63.8667 164.257 64.3691ZM174.399 56.607C173.997 56.607 173.646 56.4626 173.345 56.1737C173.056 55.8723 172.911 55.5206 172.911 55.1187C172.911 54.7167 173.056 54.365 173.345 54.0636C173.646 53.7621 173.997 53.6114 174.399 53.6114C174.814 53.6114 175.166 53.7621 175.455 54.0636C175.756 54.365 175.907 54.7167 175.907 55.1187C175.907 55.5206 175.756 55.8723 175.455 56.1737C175.166 56.4626 174.814 56.607 174.399 56.607ZM173.194 67.1574V57.7374H175.624V67.1574H173.194ZM182.132 67.4212C180.713 67.4212 179.526 66.9439 178.572 65.9893C177.63 65.0348 177.159 63.8541 177.159 62.4474C177.159 61.0407 177.63 59.86 178.572 58.9055C179.526 57.9509 180.713 57.4737 182.132 57.4737C183.049 57.4737 183.884 57.6934 184.638 58.1331C185.392 58.5726 185.963 59.163 186.353 59.904L184.261 61.1286C184.073 60.7393 183.784 60.4315 183.395 60.2055C183.018 59.9793 182.591 59.8663 182.114 59.8663C181.385 59.8663 180.782 60.1112 180.305 60.6011C179.828 61.0784 179.589 61.6938 179.589 62.4474C179.589 63.1884 179.828 63.8039 180.305 64.2938C180.782 64.771 181.385 65.0096 182.114 65.0096C182.603 65.0096 183.037 64.9029 183.414 64.6894C183.803 64.4633 184.092 64.1556 184.28 63.7662L186.39 64.972C185.975 65.713 185.392 66.3096 184.638 66.7618C183.884 67.2014 183.049 67.4212 182.132 67.4212ZM188.681 56.607C188.279 56.607 187.928 56.4626 187.626 56.1737C187.337 55.8723 187.193 55.5206 187.193 55.1187C187.193 54.7167 187.337 54.365 187.626 54.0636C187.928 53.7621 188.279 53.6114 188.681 53.6114C189.096 53.6114 189.447 53.7621 189.736 54.0636C190.037 54.365 190.189 54.7167 190.189 55.1187C190.189 55.5206 190.037 55.8723 189.736 56.1737C189.447 56.4626 189.096 56.607 188.681 56.607ZM187.476 67.1574V57.7374H189.906V67.1574H187.476ZM197.168 57.4737C198.198 57.4737 199.045 57.8191 199.711 58.5098C200.389 59.2007 200.728 60.1552 200.728 61.3735V67.1574H198.298V61.675C198.298 61.047 198.128 60.5697 197.789 60.2431C197.45 59.904 196.998 59.7345 196.433 59.7345C195.805 59.7345 195.303 59.9291 194.925 60.3185C194.549 60.7078 194.36 61.2919 194.36 62.0706V67.1574H191.93V57.7374H194.36V58.7925C194.951 57.9132 195.886 57.4737 197.168 57.4737ZM204.657 63.4459C204.984 64.6266 205.869 65.2169 207.313 65.2169C208.243 65.2169 208.946 64.9029 209.424 64.2749L211.383 65.4053C210.454 66.7492 209.085 67.4212 207.275 67.4212C205.718 67.4212 204.469 66.9502 203.527 66.0081C202.584 65.0662 202.113 63.8793 202.113 62.4474C202.113 61.0281 202.578 59.8475 203.508 58.9055C204.437 57.9509 205.631 57.4737 207.087 57.4737C208.469 57.4737 209.605 57.9509 210.497 58.9055C211.402 59.86 211.854 61.0407 211.854 62.4474C211.854 62.7614 211.823 63.0943 211.76 63.4459H204.657ZM204.619 61.5619H209.424C209.285 60.9213 208.996 60.4441 208.557 60.1301C208.13 59.8161 207.64 59.6591 207.087 59.6591C206.435 59.6591 205.894 59.8287 205.467 60.1678C205.04 60.4943 204.758 60.9591 204.619 61.5619Z" fill="white"/>
</g>
<defs>
<linearGradient id="paint0_linear_2916_20414" x1="1.51524" y1="52.426" x2="24.418" y2="52.426" gradientUnits="userSpaceOnUse">
<stop stop-color="#00AEBF"/>
<stop offset="0.817533"/>
</linearGradient>
<linearGradient id="paint1_linear_2916_20414" x1="23.7012" y1="45.0757" x2="23.7836" y2="75.0423" gradientUnits="userSpaceOnUse">
<stop stop-color="#0099A8"/>
<stop offset="1" stop-color="#00AEBF"/>
</linearGradient>
<linearGradient id="paint2_linear_2916_20414" x1="48.9234" y1="48.0962" x2="26.0207" y2="48.0962" gradientUnits="userSpaceOnUse">
<stop stop-color="#FF904D"/>
<stop offset="0.817533"/>
</linearGradient>
<linearGradient id="paint3_linear_2916_20414" x1="26.7375" y1="55.4462" x2="26.655" y2="25.4795" gradientUnits="userSpaceOnUse">
<stop stop-color="#FF7B29"/>
<stop offset="1" stop-color="#FF914D"/>
</linearGradient>
<clipPath id="clip0_2916_20414">
<rect width="213" height="50.6524" fill="white" transform="translate(0 25)"/>
</clipPath>
</defs>
</svg>
