<svg width="822" height="192" viewBox="0 0 822 192" fill="none" xmlns="http://www.w3.org/2000/svg">
<path d="M61.6467 75.5876C29.0262 75.5876 2.65576 101.699 2.65576 133.811L61.6467 133.811L61.6467 75.5876Z" fill="#00AEBF"/>
<path d="M61.6467 75.5876C29.0262 75.5876 2.65576 101.699 2.65576 133.811L61.6467 133.811L61.6467 75.5876Z" fill="url(#paint0_linear_2957_19518)" fill-opacity="0.2"/>
<path fill-rule="evenodd" clip-rule="evenodd" d="M120.171 133.826C120.171 101.714 93.8007 75.6028 61.1802 75.6028V133.826H61.1972C61.4777 165.8 87.811 191.564 120.155 191.564V133.826H120.171Z" fill="url(#paint1_linear_2957_19518)"/>
<path d="M130.76 116.321C163.381 116.321 189.751 90.2096 189.751 58.0981L130.76 58.0981L130.76 116.321Z" fill="#FF904D"/>
<path d="M130.76 116.321C163.381 116.321 189.751 90.2096 189.751 58.0981L130.76 58.0981L130.76 116.321Z" fill="url(#paint2_linear_2957_19518)" fill-opacity="0.2"/>
<path fill-rule="evenodd" clip-rule="evenodd" d="M72.2366 58.083C72.2366 90.1944 98.607 116.306 131.228 116.306V58.083H131.21C130.929 26.1085 104.596 0.345253 72.2521 0.345253L72.2521 58.083H72.2366Z" fill="url(#paint3_linear_2957_19518)"/>
<path d="M255.698 54.9111H242.185L242.112 47.4678H253.458C255.457 47.4678 257.095 47.2148 258.372 46.709C259.649 46.179 260.6 45.4202 261.227 44.4326C261.877 43.4209 262.202 42.1924 262.202 40.7471C262.202 39.109 261.889 37.7842 261.263 36.7725C260.66 35.7607 259.709 35.026 258.408 34.5684C257.132 34.1107 255.481 33.8818 253.458 33.8818H245.942V78H235.103V25.3906H253.458C256.517 25.3906 259.251 25.6797 261.66 26.2578C264.093 26.8359 266.153 27.7152 267.839 28.8955C269.525 30.0758 270.814 31.5693 271.705 33.376C272.596 35.1585 273.042 37.2783 273.042 39.7354C273.042 41.9033 272.548 43.9027 271.561 45.7334C270.597 47.5641 269.067 49.0576 266.972 50.2139C264.9 51.3701 262.19 52.0085 258.842 52.1289L255.698 54.9111ZM255.229 78H239.222L243.449 69.5449H255.229C257.132 69.5449 258.685 69.2438 259.89 68.6416C261.094 68.0153 261.985 67.1722 262.563 66.1123C263.142 65.0524 263.431 63.8359 263.431 62.4629C263.431 60.9212 263.166 59.5843 262.636 58.4521C262.13 57.32 261.311 56.4528 260.179 55.8506C259.047 55.2243 257.553 54.9111 255.698 54.9111H245.256L245.328 47.4678H258.336L260.829 50.3945C264.033 50.3464 266.61 50.9124 268.562 52.0928C270.537 53.249 271.97 54.7546 272.861 56.6094C273.777 58.4642 274.234 60.4515 274.234 62.5713C274.234 65.9437 273.5 68.7861 272.03 71.0986C270.561 73.387 268.405 75.1094 265.562 76.2656C262.744 77.4219 259.299 78 255.229 78ZM291.924 38.9043V78H281.481V38.9043H291.924ZM280.831 28.7148C280.831 27.1973 281.361 25.9447 282.421 24.957C283.481 23.9694 284.902 23.4756 286.684 23.4756C288.443 23.4756 289.852 23.9694 290.912 24.957C291.996 25.9447 292.538 27.1973 292.538 28.7148C292.538 30.2324 291.996 31.485 290.912 32.4727C289.852 33.4603 288.443 33.9541 286.684 33.9541C284.902 33.9541 283.481 33.4603 282.421 32.4727C281.361 31.485 280.831 30.2324 280.831 28.7148ZM298.086 58.8496V58.0908C298.086 55.2243 298.496 52.5866 299.315 50.1777C300.134 47.7448 301.326 45.637 302.892 43.8545C304.458 42.0719 306.385 40.6868 308.673 39.6992C310.962 38.6875 313.587 38.1816 316.55 38.1816C319.513 38.1816 322.151 38.6875 324.463 39.6992C326.776 40.6868 328.715 42.0719 330.281 43.8545C331.871 45.637 333.075 47.7448 333.894 50.1777C334.713 52.5866 335.123 55.2243 335.123 58.0908V58.8496C335.123 61.6921 334.713 64.3298 333.894 66.7627C333.075 69.1715 331.871 71.2793 330.281 73.0859C328.715 74.8685 326.788 76.2536 324.499 77.2412C322.211 78.2288 319.585 78.7227 316.623 78.7227C313.66 78.7227 311.022 78.2288 308.709 77.2412C306.421 76.2536 304.482 74.8685 302.892 73.0859C301.326 71.2793 300.134 69.1715 299.315 66.7627C298.496 64.3298 298.086 61.6921 298.086 58.8496ZM308.493 58.0908V58.8496C308.493 60.4876 308.637 62.0173 308.926 63.4385C309.215 64.8597 309.673 66.1123 310.299 67.1963C310.95 68.2562 311.793 69.0872 312.829 69.6895C313.864 70.2917 315.129 70.5928 316.623 70.5928C318.068 70.5928 319.308 70.2917 320.344 69.6895C321.38 69.0872 322.211 68.2562 322.837 67.1963C323.464 66.1123 323.921 64.8597 324.21 63.4385C324.524 62.0173 324.68 60.4876 324.68 58.8496V58.0908C324.68 56.501 324.524 55.0075 324.21 53.6104C323.921 52.1891 323.452 50.9365 322.801 49.8525C322.175 48.7445 321.344 47.8773 320.308 47.251C319.272 46.6247 318.02 46.3115 316.55 46.3115C315.081 46.3115 313.828 46.6247 312.792 47.251C311.781 47.8773 310.95 48.7445 310.299 49.8525C309.673 50.9365 309.215 52.1891 308.926 53.6104C308.637 55.0075 308.493 56.501 308.493 58.0908ZM369.887 25.3906V78H359.047V25.3906H369.887ZM390.844 47.8652V56.3203H366.924V47.8652H390.844ZM393.373 25.3906V33.8818H366.924V25.3906H393.373ZM418.108 69.1836V51.7676C418.108 50.515 417.903 49.443 417.494 48.5518C417.084 47.6364 416.446 46.9258 415.579 46.4199C414.736 45.9141 413.64 45.6611 412.291 45.6611C411.134 45.6611 410.135 45.8659 409.292 46.2754C408.449 46.6608 407.798 47.2269 407.34 47.9736C406.883 48.6963 406.654 49.5514 406.654 50.5391H396.248C396.248 48.877 396.633 47.2992 397.404 45.8057C398.175 44.3122 399.295 42.9993 400.764 41.8672C402.234 40.7109 403.98 39.8076 406.004 39.1572C408.051 38.5068 410.339 38.1816 412.869 38.1816C415.904 38.1816 418.602 38.6875 420.963 39.6992C423.323 40.7109 425.178 42.2285 426.527 44.252C427.9 46.2754 428.587 48.8047 428.587 51.8398V68.5693C428.587 70.7132 428.719 72.4717 428.984 73.8447C429.249 75.1937 429.634 76.374 430.14 77.3857V78H419.626C419.12 76.9401 418.734 75.6152 418.469 74.0254C418.228 72.4115 418.108 70.7975 418.108 69.1836ZM419.481 54.1885L419.553 60.0781H413.736C412.363 60.0781 411.171 60.2347 410.159 60.5479C409.147 60.861 408.316 61.3066 407.666 61.8848C407.015 62.4388 406.533 63.0892 406.22 63.8359C405.931 64.5827 405.787 65.4017 405.787 66.293C405.787 67.1842 405.991 67.9912 406.401 68.7139C406.811 69.4124 407.401 69.9665 408.172 70.376C408.942 70.7614 409.846 70.9541 410.881 70.9541C412.447 70.9541 413.808 70.641 414.964 70.0146C416.121 69.3883 417.012 68.6175 417.638 67.7021C418.289 66.7868 418.626 65.9196 418.65 65.1006L421.396 69.5088C421.011 70.4964 420.481 71.5202 419.806 72.5801C419.156 73.64 418.325 74.6396 417.313 75.5791C416.301 76.4945 415.085 77.2533 413.664 77.8555C412.242 78.4336 410.556 78.7227 408.605 78.7227C406.124 78.7227 403.872 78.2288 401.848 77.2412C399.849 76.2295 398.259 74.8444 397.079 73.0859C395.922 71.3034 395.344 69.2799 395.344 67.0156C395.344 64.9681 395.73 63.1494 396.501 61.5596C397.271 59.9697 398.404 58.6328 399.897 57.5488C401.415 56.4408 403.306 55.6097 405.57 55.0557C407.834 54.4775 410.46 54.1885 413.447 54.1885H419.481ZM446.24 47.4316V78H435.833V38.9043H445.625L446.24 47.4316ZM458.019 38.6514L457.838 48.2988C457.332 48.2266 456.718 48.1663 455.995 48.1182C455.297 48.0459 454.659 48.0098 454.08 48.0098C452.611 48.0098 451.334 48.2025 450.25 48.5879C449.19 48.9492 448.299 49.4912 447.577 50.2139C446.878 50.9365 446.348 51.8158 445.987 52.8516C445.649 53.8874 445.457 55.0677 445.409 56.3926L443.313 55.7422C443.313 53.2129 443.566 50.8883 444.072 48.7686C444.577 46.6247 445.312 44.7578 446.276 43.168C447.263 41.5781 448.468 40.3496 449.889 39.4824C451.31 38.6152 452.936 38.1816 454.767 38.1816C455.345 38.1816 455.935 38.2298 456.537 38.3262C457.14 38.3984 457.633 38.5068 458.019 38.6514ZM472.565 46.998V78H462.122V38.9043H471.914L472.565 46.998ZM471.119 57.0791H468.229C468.229 54.3571 468.554 51.8519 469.204 49.5635C469.879 47.251 470.854 45.2516 472.131 43.5654C473.432 41.8551 475.034 40.5303 476.937 39.5908C478.84 38.6514 481.044 38.1816 483.549 38.1816C485.283 38.1816 486.873 38.4466 488.318 38.9766C489.764 39.4824 491.004 40.2894 492.04 41.3975C493.1 42.4814 493.919 43.9027 494.497 45.6611C495.075 47.3955 495.364 49.4792 495.364 51.9121V78H484.958V53.0684C484.958 51.2858 484.717 49.9128 484.235 48.9492C483.754 47.9857 483.067 47.3112 482.176 46.9258C481.309 46.5404 480.261 46.3477 479.032 46.3477C477.683 46.3477 476.503 46.6247 475.491 47.1787C474.504 47.7327 473.685 48.5036 473.034 49.4912C472.384 50.4548 471.902 51.5869 471.589 52.8877C471.276 54.1885 471.119 55.5856 471.119 57.0791ZM494.389 55.8867L490.667 56.3564C490.667 53.8031 490.98 51.4303 491.607 49.2383C492.257 47.0462 493.208 45.1191 494.461 43.457C495.738 41.7949 497.315 40.5062 499.194 39.5908C501.073 38.6514 503.241 38.1816 505.698 38.1816C507.577 38.1816 509.287 38.4587 510.829 39.0127C512.371 39.5426 513.684 40.3978 514.768 41.5781C515.876 42.7344 516.719 44.252 517.297 46.1309C517.899 48.0098 518.2 50.3102 518.2 53.0322V78H507.758V53.0322C507.758 51.2256 507.517 49.8525 507.035 48.9131C506.578 47.9495 505.903 47.2871 505.012 46.9258C504.145 46.5404 503.109 46.3477 501.904 46.3477C500.652 46.3477 499.556 46.6006 498.616 47.1064C497.677 47.5882 496.894 48.2627 496.268 49.1299C495.641 49.9971 495.172 51.0088 494.858 52.165C494.545 53.2972 494.389 54.5378 494.389 55.8867ZM546.585 69.1836V51.7676C546.585 50.515 546.38 49.443 545.97 48.5518C545.561 47.6364 544.923 46.9258 544.055 46.4199C543.212 45.9141 542.116 45.6611 540.767 45.6611C539.611 45.6611 538.611 45.8659 537.768 46.2754C536.925 46.6608 536.275 47.2269 535.817 47.9736C535.359 48.6963 535.131 49.5514 535.131 50.5391H524.724C524.724 48.877 525.11 47.2992 525.881 45.8057C526.651 44.3122 527.772 42.9993 529.241 41.8672C530.71 40.7109 532.457 39.8076 534.48 39.1572C536.528 38.5068 538.816 38.1816 541.345 38.1816C544.381 38.1816 547.079 38.6875 549.439 39.6992C551.8 40.7109 553.655 42.2285 555.004 44.252C556.377 46.2754 557.063 48.8047 557.063 51.8398V68.5693C557.063 70.7132 557.196 72.4717 557.461 73.8447C557.726 75.1937 558.111 76.374 558.617 77.3857V78H548.102C547.596 76.9401 547.211 75.6152 546.946 74.0254C546.705 72.4115 546.585 70.7975 546.585 69.1836ZM547.958 54.1885L548.03 60.0781H542.213C540.84 60.0781 539.647 60.2347 538.636 60.5479C537.624 60.861 536.793 61.3066 536.142 61.8848C535.492 62.4388 535.01 63.0892 534.697 63.8359C534.408 64.5827 534.263 65.4017 534.263 66.293C534.263 67.1842 534.468 67.9912 534.878 68.7139C535.287 69.4124 535.877 69.9665 536.648 70.376C537.419 70.7614 538.322 70.9541 539.358 70.9541C540.924 70.9541 542.285 70.641 543.441 70.0146C544.597 69.3883 545.489 68.6175 546.115 67.7021C546.765 66.7868 547.103 65.9196 547.127 65.1006L549.873 69.5088C549.487 70.4964 548.957 71.5202 548.283 72.5801C547.633 73.64 546.802 74.6396 545.79 75.5791C544.778 76.4945 543.562 77.2533 542.14 77.8555C540.719 78.4336 539.033 78.7227 537.082 78.7227C534.601 78.7227 532.348 78.2288 530.325 77.2412C528.326 76.2295 526.736 74.8444 525.555 73.0859C524.399 71.3034 523.821 69.2799 523.821 67.0156C523.821 64.9681 524.206 63.1494 524.977 61.5596C525.748 59.9697 526.88 58.6328 528.374 57.5488C529.891 56.4408 531.782 55.6097 534.047 55.0557C536.311 54.4775 538.937 54.1885 541.924 54.1885H547.958ZM591.538 25.3906L601.439 43.7461L611.339 25.3906H623.733L608.448 51.4785L624.13 78H611.628L601.439 59.2832L591.249 78H578.675L594.393 51.4785L579.073 25.3906H591.538ZM651.415 25.3906H660.592L674.106 64.0166L687.62 25.3906H696.798L677.792 78H670.421L651.415 25.3906ZM646.465 25.3906H655.606L657.268 63.041V78H646.465V25.3906ZM692.606 25.3906H701.784V78H690.944V63.041L692.606 25.3906ZM722.038 25.3906V78H711.235V25.3906H722.038ZM753.856 25.3906V78H743.052V25.3906H753.856ZM770.043 25.3906V33.8818H727.117V25.3906H770.043ZM270.188 133.817V142.272H242.727V133.817H270.188ZM245.942 112.391V165H235.103V112.391H245.942ZM277.92 112.391V165H267.116V112.391H277.92ZM307.027 156.184V138.768C307.027 137.515 306.822 136.443 306.413 135.552C306.003 134.636 305.365 133.926 304.498 133.42C303.655 132.914 302.559 132.661 301.21 132.661C300.053 132.661 299.054 132.866 298.211 133.275C297.368 133.661 296.717 134.227 296.259 134.974C295.802 135.696 295.573 136.551 295.573 137.539H285.167C285.167 135.877 285.552 134.299 286.323 132.806C287.094 131.312 288.214 129.999 289.683 128.867C291.153 127.711 292.899 126.808 294.923 126.157C296.97 125.507 299.259 125.182 301.788 125.182C304.823 125.182 307.521 125.688 309.882 126.699C312.242 127.711 314.097 129.229 315.446 131.252C316.819 133.275 317.506 135.805 317.506 138.84V155.569C317.506 157.713 317.638 159.472 317.903 160.845C318.168 162.194 318.553 163.374 319.059 164.386V165H308.545C308.039 163.94 307.653 162.615 307.388 161.025C307.148 159.411 307.027 157.798 307.027 156.184ZM308.4 141.188L308.472 147.078H302.655C301.282 147.078 300.09 147.235 299.078 147.548C298.066 147.861 297.235 148.307 296.585 148.885C295.934 149.439 295.453 150.089 295.139 150.836C294.85 151.583 294.706 152.402 294.706 153.293C294.706 154.184 294.911 154.991 295.32 155.714C295.73 156.412 296.32 156.966 297.091 157.376C297.861 157.761 298.765 157.954 299.801 157.954C301.366 157.954 302.727 157.641 303.884 157.015C305.04 156.388 305.931 155.618 306.557 154.702C307.208 153.787 307.545 152.92 307.569 152.101L310.315 156.509C309.93 157.496 309.4 158.52 308.725 159.58C308.075 160.64 307.244 161.64 306.232 162.579C305.22 163.494 304.004 164.253 302.583 164.855C301.162 165.434 299.475 165.723 297.524 165.723C295.043 165.723 292.791 165.229 290.767 164.241C288.768 163.229 287.178 161.844 285.998 160.086C284.842 158.303 284.263 156.28 284.263 154.016C284.263 151.968 284.649 150.149 285.42 148.56C286.19 146.97 287.323 145.633 288.816 144.549C290.334 143.441 292.225 142.61 294.489 142.056C296.753 141.478 299.379 141.188 302.366 141.188H308.4ZM340.904 157.593C342.18 157.593 343.313 157.352 344.3 156.87C345.288 156.364 346.059 155.666 346.613 154.774C347.191 153.859 347.492 152.787 347.516 151.559H357.308C357.284 154.305 356.549 156.75 355.104 158.894C353.659 161.013 351.72 162.688 349.287 163.916C346.854 165.12 344.132 165.723 341.121 165.723C338.085 165.723 335.436 165.217 333.171 164.205C330.931 163.193 329.064 161.796 327.571 160.014C326.077 158.207 324.957 156.111 324.21 153.727C323.464 151.318 323.09 148.74 323.09 145.994V144.946C323.09 142.176 323.464 139.599 324.21 137.214C324.957 134.805 326.077 132.709 327.571 130.927C329.064 129.12 330.931 127.711 333.171 126.699C335.412 125.688 338.037 125.182 341.048 125.182C344.252 125.182 347.058 125.796 349.467 127.024C351.9 128.253 353.803 130.011 355.176 132.3C356.573 134.564 357.284 137.25 357.308 140.357H347.516C347.492 139.057 347.215 137.876 346.685 136.816C346.179 135.757 345.432 134.913 344.445 134.287C343.481 133.637 342.289 133.312 340.868 133.312C339.35 133.312 338.109 133.637 337.146 134.287C336.182 134.913 335.436 135.781 334.906 136.889C334.376 137.973 334.002 139.213 333.786 140.61C333.593 141.983 333.497 143.429 333.497 144.946V145.994C333.497 147.512 333.593 148.969 333.786 150.366C333.978 151.763 334.34 153.004 334.87 154.088C335.424 155.172 336.182 156.027 337.146 156.653C338.109 157.28 339.362 157.593 340.904 157.593ZM372.974 109.464V165H362.568V109.464H372.974ZM397.616 125.904L380.634 145.271L371.528 154.485L367.735 146.97L374.961 137.792L385.114 125.904H397.616ZM386.813 165L375.25 146.934L382.441 140.646L398.809 165H386.813ZM412.307 125.904V165H401.864V125.904H412.307ZM401.214 115.715C401.214 114.197 401.744 112.945 402.804 111.957C403.863 110.969 405.285 110.476 407.067 110.476C408.826 110.476 410.235 110.969 411.295 111.957C412.379 112.945 412.921 114.197 412.921 115.715C412.921 117.232 412.379 118.485 411.295 119.473C410.235 120.46 408.826 120.954 407.067 120.954C405.285 120.954 403.863 120.46 402.804 119.473C401.744 118.485 401.214 117.232 401.214 115.715ZM430.321 134.251V165H419.915V125.904H429.671L430.321 134.251ZM428.803 144.079H425.985C425.985 141.188 426.358 138.587 427.105 136.274C427.852 133.938 428.9 131.951 430.249 130.312C431.598 128.65 433.2 127.386 435.054 126.519C436.933 125.627 439.029 125.182 441.341 125.182C443.172 125.182 444.846 125.447 446.364 125.977C447.881 126.507 449.182 127.35 450.266 128.506C451.374 129.662 452.217 131.192 452.796 133.095C453.398 134.998 453.699 137.322 453.699 140.068V165H443.22V140.032C443.22 138.298 442.979 136.949 442.498 135.985C442.016 135.022 441.305 134.347 440.366 133.962C439.45 133.552 438.318 133.348 436.969 133.348C435.572 133.348 434.356 133.625 433.32 134.179C432.308 134.733 431.465 135.504 430.791 136.491C430.14 137.455 429.646 138.587 429.309 139.888C428.972 141.188 428.803 142.586 428.803 144.079ZM485.588 125.904H495.019V163.699C495.019 167.264 494.224 170.287 492.634 172.769C491.068 175.274 488.876 177.165 486.058 178.441C483.24 179.742 479.964 180.393 476.23 180.393C474.592 180.393 472.857 180.176 471.027 179.742C469.22 179.309 467.486 178.634 465.824 177.719C464.186 176.803 462.813 175.647 461.704 174.25L466.293 168.107C467.498 169.505 468.895 170.589 470.485 171.359C472.075 172.154 473.833 172.552 475.76 172.552C477.639 172.552 479.229 172.202 480.53 171.504C481.83 170.829 482.83 169.83 483.529 168.505C484.227 167.204 484.577 165.626 484.577 163.771V134.938L485.588 125.904ZM459.284 145.922V145.163C459.284 142.176 459.645 139.466 460.368 137.033C461.114 134.576 462.162 132.468 463.511 130.71C464.884 128.951 466.546 127.59 468.497 126.627C470.449 125.663 472.653 125.182 475.11 125.182C477.711 125.182 479.891 125.663 481.65 126.627C483.408 127.59 484.854 128.964 485.986 130.746C487.118 132.505 487.997 134.588 488.623 136.997C489.274 139.382 489.78 141.995 490.141 144.838V146.5C489.78 149.222 489.238 151.751 488.515 154.088C487.792 156.424 486.841 158.472 485.66 160.23C484.48 161.965 483.011 163.314 481.252 164.277C479.518 165.241 477.446 165.723 475.037 165.723C472.629 165.723 470.449 165.229 468.497 164.241C466.57 163.254 464.92 161.868 463.547 160.086C462.174 158.303 461.114 156.208 460.368 153.799C459.645 151.39 459.284 148.764 459.284 145.922ZM469.69 145.163V145.922C469.69 147.536 469.846 149.041 470.16 150.438C470.473 151.836 470.954 153.076 471.605 154.16C472.279 155.22 473.11 156.051 474.098 156.653C475.11 157.231 476.302 157.521 477.675 157.521C479.578 157.521 481.132 157.123 482.336 156.328C483.541 155.509 484.444 154.389 485.046 152.968C485.648 151.547 485.998 149.909 486.094 148.054V143.32C486.046 141.803 485.841 140.442 485.48 139.237C485.118 138.009 484.613 136.961 483.962 136.094C483.312 135.227 482.469 134.552 481.433 134.07C480.397 133.589 479.169 133.348 477.747 133.348C476.374 133.348 475.182 133.661 474.17 134.287C473.183 134.889 472.352 135.72 471.677 136.78C471.027 137.84 470.533 139.093 470.196 140.538C469.858 141.959 469.69 143.501 469.69 145.163ZM525.592 112.391H534.769L548.283 151.017L561.797 112.391H570.974L551.969 165H544.597L525.592 112.391ZM520.641 112.391H529.783L531.445 150.041V165H520.641V112.391ZM566.783 112.391H575.961V165H565.121V150.041L566.783 112.391ZM602.033 165.723C598.998 165.723 596.276 165.241 593.867 164.277C591.458 163.29 589.41 161.929 587.724 160.194C586.062 158.46 584.785 156.449 583.894 154.16C583.003 151.848 582.557 149.391 582.557 146.789V145.344C582.557 142.381 582.979 139.671 583.822 137.214C584.665 134.757 585.869 132.625 587.435 130.818C589.025 129.012 590.952 127.627 593.216 126.663C595.481 125.675 598.034 125.182 600.876 125.182C603.647 125.182 606.104 125.639 608.248 126.555C610.391 127.47 612.186 128.771 613.631 130.457C615.101 132.143 616.209 134.167 616.956 136.527C617.702 138.864 618.076 141.465 618.076 144.332V148.668H587.001V141.73H607.85V140.936C607.85 139.49 607.585 138.201 607.055 137.069C606.549 135.913 605.779 134.998 604.743 134.323C603.707 133.649 602.382 133.312 600.768 133.312C599.395 133.312 598.215 133.613 597.227 134.215C596.239 134.817 595.432 135.66 594.806 136.744C594.204 137.828 593.746 139.105 593.433 140.574C593.144 142.02 593 143.609 593 145.344V146.789C593 148.355 593.216 149.8 593.65 151.125C594.108 152.45 594.746 153.594 595.565 154.558C596.408 155.521 597.42 156.268 598.6 156.798C599.805 157.328 601.166 157.593 602.683 157.593C604.562 157.593 606.308 157.231 607.922 156.509C609.56 155.762 610.97 154.642 612.15 153.148L617.209 158.641C616.39 159.821 615.269 160.953 613.848 162.037C612.451 163.121 610.765 164.012 608.79 164.711C606.814 165.385 604.562 165.723 602.033 165.723ZM646.316 156.473V109.5H656.794V165H647.364L646.316 156.473ZM621.601 145.922V145.163C621.601 142.176 621.938 139.466 622.613 137.033C623.287 134.576 624.275 132.468 625.575 130.71C626.876 128.951 628.478 127.59 630.381 126.627C632.284 125.663 634.452 125.182 636.885 125.182C639.173 125.182 641.173 125.663 642.883 126.627C644.617 127.59 646.087 128.964 647.291 130.746C648.52 132.505 649.507 134.588 650.254 136.997C651.001 139.382 651.543 141.995 651.88 144.838V146.5C651.543 149.222 651.001 151.751 650.254 154.088C649.507 156.424 648.52 158.472 647.291 160.23C646.087 161.965 644.617 163.314 642.883 164.277C641.149 165.241 639.125 165.723 636.813 165.723C634.38 165.723 632.212 165.229 630.309 164.241C628.43 163.254 626.84 161.868 625.539 160.086C624.263 158.303 623.287 156.208 622.613 153.799C621.938 151.39 621.601 148.764 621.601 145.922ZM632.007 145.163V145.922C632.007 147.536 632.128 149.041 632.368 150.438C632.633 151.836 633.055 153.076 633.633 154.16C634.235 155.22 635.006 156.051 635.946 156.653C636.909 157.231 638.077 157.521 639.45 157.521C641.233 157.521 642.702 157.123 643.859 156.328C645.015 155.509 645.894 154.389 646.496 152.968C647.123 151.547 647.484 149.909 647.58 148.054V143.32C647.508 141.803 647.291 140.442 646.93 139.237C646.593 138.009 646.087 136.961 645.412 136.094C644.762 135.227 643.943 134.552 642.955 134.07C641.992 133.589 640.848 133.348 639.523 133.348C638.174 133.348 637.017 133.661 636.054 134.287C635.09 134.889 634.308 135.72 633.705 136.78C633.127 137.84 632.694 139.093 632.405 140.538C632.14 141.959 632.007 143.501 632.007 145.163ZM675.134 125.904V165H664.691V125.904H675.134ZM664.041 115.715C664.041 114.197 664.571 112.945 665.631 111.957C666.691 110.969 668.112 110.476 669.895 110.476C671.653 110.476 673.062 110.969 674.122 111.957C675.206 112.945 675.748 114.197 675.748 115.715C675.748 117.232 675.206 118.485 674.122 119.473C673.062 120.46 671.653 120.954 669.895 120.954C668.112 120.954 666.691 120.46 665.631 119.473C664.571 118.485 664.041 117.232 664.041 115.715ZM699.11 157.593C700.387 157.593 701.519 157.352 702.507 156.87C703.494 156.364 704.265 155.666 704.819 154.774C705.397 153.859 705.698 152.787 705.722 151.559H715.514C715.49 154.305 714.756 156.75 713.31 158.894C711.865 161.013 709.926 162.688 707.493 163.916C705.06 165.12 702.338 165.723 699.327 165.723C696.292 165.723 693.642 165.217 691.378 164.205C689.137 163.193 687.271 161.796 685.777 160.014C684.284 158.207 683.163 156.111 682.417 153.727C681.67 151.318 681.297 148.74 681.297 145.994V144.946C681.297 142.176 681.67 139.599 682.417 137.214C683.163 134.805 684.284 132.709 685.777 130.927C687.271 129.12 689.137 127.711 691.378 126.699C693.618 125.688 696.244 125.182 699.255 125.182C702.458 125.182 705.265 125.796 707.674 127.024C710.106 128.253 712.009 130.011 713.383 132.3C714.78 134.564 715.49 137.25 715.514 140.357H705.722C705.698 139.057 705.421 137.876 704.891 136.816C704.385 135.757 703.639 134.913 702.651 134.287C701.688 133.637 700.495 133.312 699.074 133.312C697.556 133.312 696.316 133.637 695.352 134.287C694.389 134.913 693.642 135.781 693.112 136.889C692.582 137.973 692.209 139.213 691.992 140.61C691.799 141.983 691.703 143.429 691.703 144.946V145.994C691.703 147.512 691.799 148.969 691.992 150.366C692.185 151.763 692.546 153.004 693.076 154.088C693.63 155.172 694.389 156.027 695.352 156.653C696.316 157.28 697.568 157.593 699.11 157.593ZM731.758 125.904V165H721.316V125.904H731.758ZM720.665 115.715C720.665 114.197 721.195 112.945 722.255 111.957C723.315 110.969 724.736 110.476 726.519 110.476C728.277 110.476 729.687 110.969 730.746 111.957C731.83 112.945 732.372 114.197 732.372 115.715C732.372 117.232 731.83 118.485 730.746 119.473C729.687 120.46 728.277 120.954 726.519 120.954C724.736 120.954 723.315 120.46 722.255 119.473C721.195 118.485 720.665 117.232 720.665 115.715ZM749.773 134.251V165H739.366V125.904H749.122L749.773 134.251ZM748.255 144.079H745.437C745.437 141.188 745.81 138.587 746.557 136.274C747.304 133.938 748.351 131.951 749.7 130.312C751.049 128.65 752.651 127.386 754.506 126.519C756.385 125.627 758.481 125.182 760.793 125.182C762.624 125.182 764.298 125.447 765.816 125.977C767.333 126.507 768.634 127.35 769.718 128.506C770.826 129.662 771.669 131.192 772.247 133.095C772.849 134.998 773.151 137.322 773.151 140.068V165H762.672V140.032C762.672 138.298 762.431 136.949 761.949 135.985C761.468 135.022 760.757 134.347 759.818 133.962C758.902 133.552 757.77 133.348 756.421 133.348C755.024 133.348 753.807 133.625 752.772 134.179C751.76 134.733 750.917 135.504 750.242 136.491C749.592 137.455 749.098 138.587 748.761 139.888C748.424 141.188 748.255 142.586 748.255 144.079ZM798.283 165.723C795.248 165.723 792.526 165.241 790.117 164.277C787.708 163.29 785.661 161.929 783.974 160.194C782.312 158.46 781.036 156.449 780.144 154.16C779.253 151.848 778.807 149.391 778.807 146.789V145.344C778.807 142.381 779.229 139.671 780.072 137.214C780.915 134.757 782.12 132.625 783.685 130.818C785.275 129.012 787.202 127.627 789.467 126.663C791.731 125.675 794.284 125.182 797.127 125.182C799.897 125.182 802.354 125.639 804.498 126.555C806.642 127.47 808.436 128.771 809.882 130.457C811.351 132.143 812.459 134.167 813.206 136.527C813.953 138.864 814.326 141.465 814.326 144.332V148.668H783.252V141.73H804.1V140.936C804.1 139.49 803.835 138.201 803.306 137.069C802.8 135.913 802.029 134.998 800.993 134.323C799.957 133.649 798.632 133.312 797.018 133.312C795.645 133.312 794.465 133.613 793.477 134.215C792.49 134.817 791.683 135.66 791.057 136.744C790.454 137.828 789.997 139.105 789.683 140.574C789.394 142.02 789.25 143.609 789.25 145.344V146.789C789.25 148.355 789.467 149.8 789.9 151.125C790.358 152.45 790.996 153.594 791.815 154.558C792.658 155.521 793.67 156.268 794.85 156.798C796.055 157.328 797.416 157.593 798.933 157.593C800.812 157.593 802.559 157.231 804.173 156.509C805.811 155.762 807.22 154.642 808.4 153.148L813.459 158.641C812.64 159.821 811.52 160.953 810.099 162.037C808.701 163.121 807.015 164.012 805.04 164.711C803.065 165.385 800.812 165.723 798.283 165.723Z" fill="white"/>
<defs>
<linearGradient id="paint0_linear_2957_19518" x1="4.7491" y1="104.308" x2="93.11" y2="104.308" gradientUnits="userSpaceOnUse">
<stop stop-color="#00AEBF"/>
<stop offset="0.817533"/>
</linearGradient>
<linearGradient id="paint1_linear_2957_19518" x1="90.3493" y1="75.9495" x2="90.6676" y2="191.564" gradientUnits="userSpaceOnUse">
<stop stop-color="#0099A8"/>
<stop offset="1" stop-color="#00AEBF"/>
</linearGradient>
<linearGradient id="paint2_linear_2957_19518" x1="187.658" y1="87.6011" x2="99.2972" y2="87.6011" gradientUnits="userSpaceOnUse">
<stop stop-color="#FF904D"/>
<stop offset="0.817533"/>
</linearGradient>
<linearGradient id="paint3_linear_2957_19518" x1="102.058" y1="115.959" x2="101.74" y2="0.345227" gradientUnits="userSpaceOnUse">
<stop stop-color="#FF7B29"/>
<stop offset="1" stop-color="#FF914D"/>
</linearGradient>
</defs>
</svg>
