<svg width="290" height="292" viewBox="0 0 290 292" fill="none" xmlns="http://www.w3.org/2000/svg">
<path d="M92.9158 114.844C43.7489 114.844 4.00244 154.699 4.00244 203.711L92.9158 203.711L92.9158 114.844Z" fill="#00AEBF"/>
<path d="M92.9158 114.844C43.7489 114.844 4.00244 154.699 4.00244 203.711L92.9158 203.711L92.9158 114.844Z" fill="url(#paint0_linear_746_33723)" fill-opacity="0.2"/>
<path fill-rule="evenodd" clip-rule="evenodd" d="M181.125 203.734C181.125 154.722 141.378 114.867 92.2112 114.867V203.734H92.2374C92.6601 252.537 132.351 291.86 181.101 291.86V203.734H181.125Z" fill="url(#paint1_linear_746_33723)"/>
<path d="M197.087 177.017C246.254 177.017 286 137.162 286 88.1497L197.087 88.1497L197.087 177.017Z" fill="#FF904D"/>
<path d="M197.087 177.017C246.254 177.017 286 137.162 286 88.1497L197.087 88.1497L197.087 177.017Z" fill="url(#paint2_linear_746_33723)" fill-opacity="0.2"/>
<path fill-rule="evenodd" clip-rule="evenodd" d="M108.878 88.1262C108.878 137.138 148.624 176.993 197.791 176.993V88.1262H197.765C197.342 39.323 157.652 0.00012207 108.901 0.00012207L108.901 88.1262H108.878Z" fill="url(#paint3_linear_746_33723)"/>
<defs>
<linearGradient id="paint0_linear_746_33723" x1="7.15759" y1="158.68" x2="140.338" y2="158.68" gradientUnits="userSpaceOnUse">
<stop stop-color="#00AEBF"/>
<stop offset="0.817533"/>
</linearGradient>
<linearGradient id="paint1_linear_746_33723" x1="136.176" y1="115.396" x2="136.668" y2="291.86" gradientUnits="userSpaceOnUse">
<stop stop-color="#0099A8"/>
<stop offset="1" stop-color="#00AEBF"/>
</linearGradient>
<linearGradient id="paint2_linear_746_33723" x1="282.845" y1="133.181" x2="149.664" y2="133.181" gradientUnits="userSpaceOnUse">
<stop stop-color="#FF904D"/>
<stop offset="0.817533"/>
</linearGradient>
<linearGradient id="paint3_linear_746_33723" x1="153.826" y1="176.464" x2="153.334" y2="0.000116217" gradientUnits="userSpaceOnUse">
<stop stop-color="#FF7B29"/>
<stop offset="1" stop-color="#FF914D"/>
</linearGradient>
</defs>
</svg>
