<svg width="124" height="124" viewBox="0 0 124 124" fill="none" xmlns="http://www.w3.org/2000/svg">
<rect width="124" height="124" rx="14" fill="#FFA800" fill-opacity="0.1"/>
<path d="M87.332 46.1667H36.6654C33.1676 46.1667 30.332 49.0023 30.332 52.5001V84.1667C30.332 87.6646 33.1676 90.5001 36.6654 90.5001H87.332C90.8298 90.5001 93.6654 87.6646 93.6654 84.1667V52.5001C93.6654 49.0023 90.8298 46.1667 87.332 46.1667Z" stroke="#FFA800" stroke-width="6.33333" stroke-linecap="round" stroke-linejoin="round"/>
<path d="M74.6654 90.5V39.8333C74.6654 38.1536 73.9981 36.5427 72.8104 35.355C71.6226 34.1673 70.0117 33.5 68.332 33.5H55.6654C53.9857 33.5 52.3748 34.1673 51.187 35.355C49.9993 36.5427 49.332 38.1536 49.332 39.8333V90.5" stroke="#FFA800" stroke-width="6.33333" stroke-linecap="round" stroke-linejoin="round"/>
</svg>
