<svg width="71" height="71" viewBox="0 0 71 71" fill="none" xmlns="http://www.w3.org/2000/svg">
<path d="M24.5627 52.6875H46.4377V57.0625H24.5627V52.6875ZM28.9377 61.4375H42.0627V65.8125H28.9377V61.4375ZM35.5002 4.5625C29.6986 4.5625 24.1346 6.86718 20.0323 10.9695C15.9299 15.0719 13.6252 20.6359 13.6252 26.4375C13.4773 29.6167 14.0863 32.7855 15.4021 35.6834C16.718 38.5813 18.703 41.1253 21.194 43.1063C23.3815 45.1406 24.5627 46.3 24.5627 48.3125H28.9377C28.9377 44.2875 26.5096 42.0344 24.1471 39.8687C22.1026 38.3031 20.4732 36.26 19.4015 33.9184C18.3299 31.5768 17.8487 29.0082 18.0002 26.4375C18.0002 21.7962 19.844 17.345 23.1259 14.0631C26.4078 10.7812 30.859 8.9375 35.5002 8.9375C40.1415 8.9375 44.5927 10.7812 47.8746 14.0631C51.1565 17.345 53.0002 21.7962 53.0002 26.4375C53.1492 29.0101 52.6647 31.5799 51.5892 33.9217C50.5137 36.2634 48.88 38.3054 46.8315 39.8687C44.4909 42.0562 42.0627 44.2437 42.0627 48.3125H46.4377C46.4377 46.3 47.5971 45.1406 49.8065 43.0844C52.2957 41.1068 54.2799 38.5665 55.5957 35.6725C56.9115 32.7784 57.5214 29.6133 57.3752 26.4375C57.3752 23.5648 56.8094 20.7203 55.7101 18.0663C54.6108 15.4123 52.9995 13.0008 50.9682 10.9695C48.9369 8.93826 46.5254 7.32696 43.8714 6.22764C41.2174 5.12831 38.3729 4.5625 35.5002 4.5625V4.5625Z" fill="#FFA800"/>
</svg>
