<svg width="71" height="71" viewBox="0 0 71 71" fill="none" xmlns="http://www.w3.org/2000/svg">
<path d="M21.3393 65.3124H16.9107V58.6695H8.05357V65.3124H3.625V58.6695C3.62617 57.4954 4.09313 56.3696 4.92339 55.5394C5.75366 54.7091 6.8794 54.2421 8.05357 54.241H16.9107C18.0849 54.2421 19.2106 54.7091 20.0409 55.5394C20.8712 56.3696 21.3381 57.4954 21.3393 58.6695V65.3124ZM65.625 65.3124H61.1964V58.6695H52.3393V65.3124H47.9107V58.6695C47.9119 57.4954 48.3788 56.3696 49.2091 55.5394C50.0394 54.7091 51.1651 54.2421 52.3393 54.241H61.1964C62.3706 54.2421 63.4963 54.7091 64.3266 55.5394C65.1569 56.3696 65.6238 57.4954 65.625 58.6695V65.3124ZM43.4821 65.3124H39.0536V58.6695H30.1964V65.3124H25.7679V58.6695C25.769 57.4954 26.236 56.3696 27.0662 55.5394C27.8965 54.7091 29.0223 54.2421 30.1964 54.241H39.0536C40.2277 54.2421 41.3535 54.7091 42.1837 55.5394C43.014 56.3696 43.481 57.4954 43.4821 58.6695V65.3124Z" fill="#2D8DFE"/>
<path d="M34.6258 52.0268C37.0717 52.0268 39.0544 50.0441 39.0544 47.5982C39.0544 45.1524 37.0717 43.1697 34.6258 43.1697C32.18 43.1697 30.1973 45.1524 30.1973 47.5982C30.1973 50.0441 32.18 52.0268 34.6258 52.0268Z" fill="#2D8DFE"/>
<path d="M12.4813 52.0268C14.9271 52.0268 16.9099 50.0441 16.9099 47.5982C16.9099 45.1524 14.9271 43.1697 12.4813 43.1697C10.0355 43.1697 8.05273 45.1524 8.05273 47.5982C8.05273 50.0441 10.0355 52.0268 12.4813 52.0268Z" fill="#2D8DFE"/>
<path d="M56.7684 52.0268C59.2142 52.0268 61.197 50.0441 61.197 47.5982C61.197 45.1524 59.2142 43.1697 56.7684 43.1697C54.3226 43.1697 52.3398 45.1524 52.3398 47.5982C52.3398 50.0441 54.3226 52.0268 56.7684 52.0268Z" fill="#2D8DFE"/>
<path d="M45.6961 43.1696C48.142 43.1696 50.1247 41.1869 50.1247 38.7411C50.1247 36.2952 48.142 34.3125 45.6961 34.3125C43.2503 34.3125 41.2676 36.2952 41.2676 38.7411C41.2676 41.1869 43.2503 43.1696 45.6961 43.1696Z" fill="#2D8DFE"/>
<path d="M23.5536 43.1696C25.9994 43.1696 27.9821 41.1869 27.9821 38.7411C27.9821 36.2952 25.9994 34.3125 23.5536 34.3125C21.1077 34.3125 19.125 36.2952 19.125 38.7411C19.125 41.1869 21.1077 43.1696 23.5536 43.1696Z" fill="#2D8DFE"/>
<path d="M56.767 29.8839H12.4813C11.3071 29.8828 10.1814 29.4158 9.35113 28.5855C8.52086 27.7553 8.05391 26.6295 8.05273 25.4554V7.74107C8.05391 6.5669 8.52086 5.44116 9.35113 4.61089C10.1814 3.78063 11.3071 3.31367 12.4813 3.3125H56.767C57.9412 3.31367 59.0669 3.78063 59.8972 4.61089C60.7275 5.44116 61.1944 6.5669 61.1956 7.74107V25.4554C61.1944 26.6295 60.7275 27.7553 59.8972 28.5855C59.0669 29.4158 57.9412 29.8828 56.767 29.8839ZM12.4813 7.74107V25.4554H56.767V7.74107H12.4813Z" fill="#2D8DFE"/>
</svg>
