<svg width="71" height="71" viewBox="0 0 71 71" fill="none" xmlns="http://www.w3.org/2000/svg">
<path d="M13.625 46.125V43.9375H9.25V46.125C9.25 50.1861 10.8633 54.0809 13.7349 56.9526C16.6066 59.8242 20.5014 61.4375 24.5625 61.4375H31.125V57.0625H24.5625C21.6617 57.0625 18.8797 55.9102 16.8285 53.859C14.7773 51.8078 13.625 49.0258 13.625 46.125ZM53 24.25V26.4375H57.375V24.25C57.375 20.1889 55.7617 16.2941 52.8901 13.4224C50.0184 10.5508 46.1236 8.9375 42.0625 8.9375H35.5V13.3125H42.0625C43.4988 13.3125 44.9211 13.5954 46.2481 14.1451C47.5751 14.6947 48.7808 15.5004 49.7965 16.516C50.8121 17.5317 51.6178 18.7374 52.1674 20.0644C52.7171 21.3914 53 22.8137 53 24.25V24.25ZM24.5625 24.25H11.4375C9.69702 24.25 8.02782 24.9414 6.79711 26.1721C5.5664 27.4028 4.875 29.072 4.875 30.8125V35.1875H9.25V30.8125C9.25 30.2323 9.48047 29.6759 9.8907 29.2657C10.3009 28.8555 10.8573 28.625 11.4375 28.625H24.5625C25.1427 28.625 25.6991 28.8555 26.1093 29.2657C26.5195 29.6759 26.75 30.2323 26.75 30.8125V35.1875H31.125V30.8125C31.125 29.072 30.4336 27.4028 29.2029 26.1721C27.9722 24.9414 26.303 24.25 24.5625 24.25V24.25ZM18 22.0625C19.7306 22.0625 21.4223 21.5493 22.8612 20.5879C24.3002 19.6264 25.4217 18.2598 26.0839 16.661C26.7462 15.0621 26.9195 13.3028 26.5819 11.6055C26.2443 9.90813 25.4109 8.34903 24.1872 7.12532C22.9635 5.90161 21.4044 5.06825 19.707 4.73063C18.0097 4.39301 16.2504 4.56629 14.6515 5.22856C13.0527 5.89082 11.6861 7.01233 10.7246 8.45126C9.76318 9.89019 9.25 11.5819 9.25 13.3125C9.25 15.6331 10.1719 17.8587 11.8128 19.4997C13.4538 21.1406 15.6794 22.0625 18 22.0625ZM18 8.9375C18.8653 8.9375 19.7112 9.19409 20.4306 9.67482C21.1501 10.1556 21.7108 10.8388 22.042 11.6383C22.3731 12.4377 22.4597 13.3174 22.2909 14.166C22.1221 15.0147 21.7054 15.7942 21.0936 16.4061C20.4817 17.018 19.7022 17.4346 18.8535 17.6034C18.0049 17.7723 17.1252 17.6856 16.3258 17.3545C15.5263 17.0233 14.8431 16.4626 14.3623 15.7431C13.8816 15.0237 13.625 14.1778 13.625 13.3125C13.625 12.1522 14.0859 11.0394 14.9064 10.2189C15.7269 9.39844 16.8397 8.9375 18 8.9375V8.9375ZM59.5625 54.875H46.4375C44.697 54.875 43.0278 55.5664 41.7971 56.7971C40.5664 58.0278 39.875 59.697 39.875 61.4375V65.8125H44.25V61.4375C44.25 60.8573 44.4805 60.3009 44.8907 59.8907C45.3009 59.4805 45.8573 59.25 46.4375 59.25H59.5625C60.1427 59.25 60.6991 59.4805 61.1093 59.8907C61.5195 60.3009 61.75 60.8573 61.75 61.4375V65.8125H66.125V61.4375C66.125 59.697 65.4336 58.0278 64.2029 56.7971C62.9722 55.5664 61.303 54.875 59.5625 54.875ZM44.25 43.9375C44.25 45.6681 44.7632 47.3598 45.7246 48.7987C46.6861 50.2377 48.0527 51.3592 49.6515 52.0215C51.2504 52.6837 53.0097 52.857 54.707 52.5194C56.4044 52.1818 57.9635 51.3484 59.1872 50.1247C60.4109 48.901 61.2443 47.3419 61.5819 45.6445C61.9195 43.9472 61.7462 42.1879 61.0839 40.589C60.4217 38.9902 59.3002 37.6236 57.8612 36.6621C56.4223 35.7007 54.7306 35.1875 53 35.1875C50.6794 35.1875 48.4538 36.1094 46.8128 37.7503C45.1719 39.3913 44.25 41.6169 44.25 43.9375ZM57.375 43.9375C57.375 44.8028 57.1184 45.6487 56.6377 46.3681C56.1569 47.0876 55.4737 47.6483 54.6742 47.9795C53.8748 48.3106 52.9951 48.3973 52.1465 48.2284C51.2978 48.0596 50.5183 47.643 49.9064 47.0311C49.2946 46.4192 48.8779 45.6397 48.7091 44.791C48.5403 43.9424 48.6269 43.0627 48.958 42.2633C49.2892 41.4638 49.8499 40.7806 50.5694 40.2998C51.2888 39.8191 52.1347 39.5625 53 39.5625C54.1603 39.5625 55.2731 40.0234 56.0936 40.8439C56.9141 41.6644 57.375 42.7772 57.375 43.9375Z" fill="#F56262"/>
</svg>
