<svg width="71" height="71" viewBox="0 0 71 71" fill="none" xmlns="http://www.w3.org/2000/svg">
<path d="M39.875 68H44.25V63.625C44.25 63.0448 44.4805 62.4884 44.8907 62.0782C45.3009 61.668 45.8573 61.4375 46.4375 61.4375H59.5625C60.1427 61.4375 60.6991 61.668 61.1093 62.0782C61.5195 62.4884 61.75 63.0448 61.75 63.625V68H66.125V63.625C66.1233 61.8851 65.4313 60.2169 64.201 58.9865C62.9706 57.7562 61.3025 57.0642 59.5625 57.0625H46.4375C44.6975 57.0642 43.0294 57.7562 41.799 58.9865C40.5687 60.2169 39.8767 61.8851 39.875 63.625V68ZM53 54.875C51.2694 54.875 49.5777 54.3618 48.1388 53.4004C46.6998 52.4389 45.5783 51.0723 44.9161 49.4735C44.2538 47.8746 44.0805 46.1153 44.4181 44.418C44.7557 42.7206 45.5891 41.1615 46.8128 39.9378C48.0365 38.7141 49.5956 37.8808 51.293 37.5431C52.9903 37.2055 54.7496 37.3788 56.3485 38.0411C57.9473 38.7033 59.3139 39.8248 60.2754 41.2638C61.2368 42.7027 61.75 44.3944 61.75 46.125C61.7477 48.4449 60.8251 50.6692 59.1846 52.3096C57.5442 53.9501 55.3199 54.8727 53 54.875V54.875ZM53 41.75C52.1347 41.75 51.2888 42.0066 50.5694 42.4873C49.8499 42.9681 49.2892 43.6513 48.958 44.4508C48.6269 45.2502 48.5403 46.1299 48.7091 46.9785C48.8779 47.8272 49.2946 48.6067 49.9064 49.2186C50.5183 49.8305 51.2978 50.2471 52.1465 50.4159C52.9951 50.5848 53.8748 50.4981 54.6742 50.167C55.4737 49.8358 56.1569 49.2751 56.6377 48.5556C57.1184 47.8362 57.375 46.9903 57.375 46.125C57.3733 44.9652 56.9118 43.8534 56.0917 43.0333C55.2716 42.2132 54.1598 41.7517 53 41.75V41.75ZM4.875 68H9.25V63.625C9.25 63.0448 9.48047 62.4884 9.8907 62.0782C10.3009 61.668 10.8573 61.4375 11.4375 61.4375H24.5625C25.1427 61.4375 25.6991 61.668 26.1093 62.0782C26.5195 62.4884 26.75 63.0448 26.75 63.625V68H31.125V63.625C31.1233 61.8851 30.4313 60.2169 29.201 58.9865C27.9706 57.7562 26.3025 57.0642 24.5625 57.0625H11.4375C9.69755 57.0642 8.02936 57.7562 6.79903 58.9865C5.5687 60.2169 4.87674 61.8851 4.875 63.625V68ZM18 54.875C16.2694 54.875 14.5777 54.3618 13.1388 53.4004C11.6998 52.4389 10.5783 51.0723 9.91605 49.4735C9.25379 47.8746 9.08051 46.1153 9.41813 44.418C9.75575 42.7206 10.5891 41.1615 11.8128 39.9378C13.0365 38.7141 14.5956 37.8808 16.293 37.5431C17.9903 37.2055 19.7496 37.3788 21.3485 38.0411C22.9473 38.7033 24.3139 39.8248 25.2754 41.2638C26.2368 42.7027 26.75 44.3944 26.75 46.125C26.7477 48.4449 25.8251 50.6692 24.1846 52.3096C22.5442 53.9501 20.3199 54.8727 18 54.875V54.875ZM18 41.75C17.1347 41.75 16.2888 42.0066 15.5694 42.4873C14.8499 42.9681 14.2892 43.6513 13.958 44.4508C13.6269 45.2502 13.5403 46.1299 13.7091 46.9785C13.8779 47.8272 14.2946 48.6067 14.9064 49.2186C15.5183 49.8305 16.2978 50.2471 17.1465 50.4159C17.9951 50.5848 18.8748 50.4981 19.6742 50.167C20.4737 49.8358 21.1569 49.2751 21.6377 48.5556C22.1184 47.8362 22.375 46.9903 22.375 46.125C22.3738 44.965 21.9125 43.8529 21.0923 43.0327C20.2721 42.2125 19.16 41.7512 18 41.75V41.75ZM39.875 35.1875H44.25V30.8125C44.25 30.2323 44.4805 29.6759 44.8907 29.2657C45.3009 28.8555 45.8573 28.625 46.4375 28.625H59.5625C60.1427 28.625 60.6991 28.8555 61.1093 29.2657C61.5195 29.6759 61.75 30.2323 61.75 30.8125V35.1875H66.125V30.8125C66.1233 29.0726 65.4313 27.4044 64.201 26.174C62.9706 24.9437 61.3025 24.2517 59.5625 24.25H46.4375C44.6975 24.2517 43.0294 24.9437 41.799 26.174C40.5687 27.4044 39.8767 29.0726 39.875 30.8125V35.1875ZM53 22.0625C51.2694 22.0625 49.5777 21.5493 48.1388 20.5879C46.6998 19.6264 45.5783 18.2598 44.9161 16.661C44.2538 15.0621 44.0805 13.3028 44.4181 11.6055C44.7557 9.90813 45.5891 8.34903 46.8128 7.12532C48.0365 5.90161 49.5956 5.06825 51.293 4.73063C52.9903 4.39301 54.7496 4.56629 56.3485 5.22856C57.9473 5.89082 59.3139 7.01233 60.2754 8.45126C61.2368 9.89019 61.75 11.5819 61.75 13.3125C61.7477 15.6324 60.8251 17.8567 59.1846 19.4971C57.5442 21.1376 55.3199 22.0602 53 22.0625V22.0625ZM53 8.9375C52.1347 8.9375 51.2888 9.19409 50.5694 9.67482C49.8499 10.1556 49.2892 10.8388 48.958 11.6383C48.6269 12.4377 48.5403 13.3174 48.7091 14.166C48.8779 15.0147 49.2946 15.7942 49.9064 16.4061C50.5183 17.018 51.2978 17.4346 52.1465 17.6034C52.9951 17.7723 53.8748 17.6856 54.6742 17.3545C55.4737 17.0233 56.1569 16.4626 56.6377 15.7431C57.1184 15.0237 57.375 14.1778 57.375 13.3125C57.3738 12.1525 56.9125 11.0404 56.0923 10.2202C55.2721 9.39997 54.16 8.93866 53 8.9375V8.9375ZM4.875 35.1875H9.25V30.8125C9.25058 30.2325 9.48123 29.6765 9.89134 29.2663C10.3015 28.8562 10.8575 28.6256 11.4375 28.625H24.5625C25.1425 28.6256 25.6985 28.8562 26.1087 29.2663C26.5188 29.6765 26.7494 30.2325 26.75 30.8125V35.1875H31.125V30.8125C31.1233 29.0726 30.4313 27.4044 29.201 26.174C27.9706 24.9437 26.3025 24.2517 24.5625 24.25H11.4375C9.69755 24.2517 8.02936 24.9437 6.79903 26.174C5.5687 27.4044 4.87674 29.0726 4.875 30.8125V35.1875ZM18 22.0625C16.2694 22.0625 14.5777 21.5493 13.1388 20.5879C11.6998 19.6264 10.5783 18.2598 9.91605 16.661C9.25379 15.0621 9.08051 13.3028 9.41813 11.6055C9.75575 9.90813 10.5891 8.34903 11.8128 7.12532C13.0365 5.90161 14.5956 5.06825 16.293 4.73063C17.9903 4.39301 19.7496 4.56629 21.3485 5.22856C22.9473 5.89082 24.3139 7.01233 25.2754 8.45126C26.2368 9.89019 26.75 11.5819 26.75 13.3125C26.7471 15.6323 25.8243 17.8562 24.184 19.4965C22.5437 21.1368 20.3198 22.0596 18 22.0625V22.0625ZM18 8.9375C17.1347 8.9375 16.2888 9.19409 15.5694 9.67482C14.8499 10.1556 14.2892 10.8388 13.958 11.6383C13.6269 12.4377 13.5403 13.3174 13.7091 14.166C13.8779 15.0147 14.2946 15.7942 14.9064 16.4061C15.5183 17.018 16.2978 17.4346 17.1465 17.6034C17.9951 17.7723 18.8748 17.6856 19.6742 17.3545C20.4737 17.0233 21.1569 16.4626 21.6377 15.7431C22.1184 15.0237 22.375 14.1778 22.375 13.3125C22.3738 12.1525 21.9125 11.0404 21.0923 10.2202C20.2721 9.39997 19.16 8.93866 18 8.9375Z" fill="#57BFDF"/>
</svg>
