<svg width="29784" height="26350" viewBox="0 0 29784 26350" fill="none" xmlns="http://www.w3.org/2000/svg">
<path d="M27951.2 5365.31L27784.3 5099.71C26378 2859.71 23834.9 1515.71 21153.7 1675.71C20808.8 1696.77 20465.8 1742.33 20127.6 1812.03C17689.9 2316.35 15568.3 4096.19 14689.4 6376.51C14172.4 7717.31 14027.7 9260.99 13046.1 10325.3C11769.3 11710.3 9601.25 11753.8 7694.92 11696.8C5788.6 11639.9 3619.2 11687.9 2349.62 13078.6C1553.85 13949.6 1302.55 15190.6 1367.99 16354.7C1537.49 19442.7 2710.86 22162.7 5544.5 23535.5C8378.14 24908.3 12769.3 25071.5 15870.6 24467.4C20211.4 23621.9 24342.7 21301.3 26824.9 17712.2C29307.1 14123.1 29938 9237.31 27951.2 5365.31Z" fill="#E6FDFF"/>
<path d="M3688.41 19946.4C4023.77 19773.6 4418.01 19751.2 4789.85 19812.7C4989.53 19845.9 5197.53 19905.5 5333.85 20055.9C5470.17 20206.3 5495.13 20469.9 5338.97 20598.6C5246.17 20675.4 5116.89 20686.9 4996.57 20685.6C4705.37 20682.4 4382.17 20631.2 4149.85 20805.9C4016.73 20906.4 3928.41 21072.2 3770.33 21121.5C3612.25 21170.7 3439.45 21077.9 3357.53 20937.8C3281.83 20792 3265.1 20622.6 3310.81 20464.8C3329.55 20355.2 3373.39 20251.3 3438.89 20161.4C3504.39 20071.5 3589.79 19997.9 3688.41 19946.4V19946.4Z" fill="#FF914D"/>
<path d="M2921.05 18465.5C3125.85 18757.9 3523.93 18660.7 3708.89 18482.7C3893.85 18304.8 3971.29 18045 4042.33 17798.6C4204.25 17234.7 4368.09 16646.6 4247.13 16070.6C4218.29 15896.6 4141.87 15734 4026.33 15600.8C3967.95 15535 3893.28 15485.7 3809.82 15457.8C3726.35 15430 3637.03 15424.5 3550.81 15442.1C3349.85 15495.2 3225.69 15691.7 3135.45 15879.2C2869.64 16431.2 2730.36 17035.5 2727.77 17648.2C2727.77 17933 2760.41 18231.9 2919.77 18467.4" fill="#FF914D"/>
<path d="M2358.49 18885.3C2581.21 18621 2623.45 18236.3 2524.25 17905.5C2425.05 17574.6 2204.25 17293.6 1944.41 17063.9C1641.24 16794.2 1288.43 16586.1 905.694 16451.4C757.569 16391.3 598.142 16364.2 438.494 16372C358.759 16376.6 281.338 16400.5 212.963 16441.8C144.589 16483 87.333 16540.4 46.1743 16608.8C-63.2657 16817.5 41.6942 17070.3 154.974 17277C354.81 17640.6 582.926 17987.9 837.214 18315.7C1042.01 18579.4 1276.25 18839.2 1587.93 18955.7C1899.61 19072.2 2223.45 19061.3 2391.77 18847.5" fill="#FF914D"/>
<path d="M2907.61 22877.6C2918.25 22834.2 2924.47 22789.8 2926.17 22745.1C2935.13 22647.9 2947.29 22526.9 2961.37 22382.3C2979.24 22203.5 3006.37 22025.8 3042.65 21849.8C3090.04 21635.8 3154.24 21425.9 3234.65 21221.9C3314.09 21018.4 3421.81 20827.1 3554.65 20653.6C3663.09 20512.5 3801.73 20397.5 3960.41 20317C4068.52 20264.4 4184.32 20229.4 4303.45 20213.3C4348.16 20211.5 4392.55 20205.1 4435.93 20194.1C4391.27 20189.1 4346.19 20189.1 4301.53 20194.1C4178.18 20203.5 4057.48 20234.7 3945.05 20286.3C3778.31 20365.2 3632.01 20481.5 3517.53 20626.1C3378.89 20802 3266.96 20997.4 3185.37 21205.9C3102.9 21413.3 3038.66 21627.4 2993.37 21845.9C2958.93 22024 2935.21 22203.9 2922.33 22384.8C2910.81 22539.1 2906.97 22663.9 2904.41 22750.3C2900.89 22792.7 2901.96 22835.4 2907.61 22877.6V22877.6Z" fill="#455A64"/>
<path d="M2932.57 22598.6C2934.98 22577.3 2934.98 22555.9 2932.57 22534.6V22357.9C2932.57 22205 2932.57 21983.5 2940.25 21710.3C2953.69 21163.1 3004.25 20574.3 3091.93 19744.2C3177.69 18964 3293.53 18055.2 3415.77 17465.1C3441.37 17330.7 3468.25 17209.1 3492.57 17104.2C3516.89 16999.2 3536.73 16906.4 3556.57 16832.2C3576.41 16757.9 3587.29 16704.2 3598.17 16661.3C3604.5 16640.5 3608.16 16619 3609.05 16597.3C3599.24 16615.4 3591.92 16634.8 3587.29 16654.9C3573.85 16699.1 3557.21 16755.4 3536.09 16823.9C3514.97 16892.3 3490.01 16987.7 3463.77 17093.9C3437.53 17200.2 3406.81 17319.9 3378.01 17453.6C3227.31 18151.1 3113.66 18856.1 3037.53 19565.6C2946.65 20397.6 2905.69 21154.7 2901.85 21702.6C2901.85 21977.1 2901.85 22199.2 2911.45 22352.2C2915.93 22423.9 2919.77 22480.2 2922.33 22528.2C2922.54 22552 2925.98 22575.7 2932.57 22598.6V22598.6Z" fill="#455A64"/>
<path d="M2935.77 21138.1C2940.66 21076.8 2940.66 21015.1 2935.77 20953.8C2925.35 20786.6 2906.55 20619.9 2879.45 20454.6C2839.33 20209.4 2785.27 19966.6 2717.53 19727.5C2637.67 19434.1 2535.39 19147.1 2411.61 18869.3C2199.74 18355.2 1896.14 17884 1515.61 17478.6C1449.68 17409.3 1379.58 17344.1 1305.69 17283.4C1273.05 17256.5 1244.89 17229 1215.45 17207.9L1134.17 17151.5C1086.8 17113.7 1036.51 17079.7 983.774 17049.8C974.814 17061.3 1203.29 17196.3 1491.93 17502.9C1858.43 17912 2152.56 18380.6 2361.69 18888.5C2482.35 19165.6 2584.55 19450.4 2667.61 19741C2746.97 20008.5 2800.09 20253 2839.77 20461C2879.45 20669 2899.93 20837.9 2913.37 20955.7C2916.55 21017 2924.04 21077.9 2935.77 21138.1V21138.1Z" fill="#455A64"/>
<path d="M1524.57 23714.7L1670.49 25719.9H4246.49L4393.05 23714.7H1524.57Z" fill="#00AEBF"/>
<path d="M4700.25 22924.3H1275.61V23714.7H4700.25V22924.3Z" fill="#00AEBF"/>
<path d="M1275.61 25643.1V25861.9H1436.25H4643.93V25643.1H1275.61Z" fill="#455A64"/>
<path d="M1594.33 26247.9L1436.25 25861.9H4521.05L4336.73 26247.9H1594.33Z" fill="#455A64"/>
<path d="M4345.05 24373.3C4341.85 24379.8 4337.76 24385.8 4332.89 24391.2C4322.65 24405.3 4310.49 24421.9 4294.49 24442.4L4144.73 24634.4L4137.69 24643.4L4131.29 24634.4L3762.65 24122.4H3783.77L3420.89 24634.4L3409.37 24650.4L3396.57 24635.7L2966.49 24123.7H2991.45C2983.77 24132.7 2975.45 24142.9 2967.77 24153.1L2583.77 24635.7L2570.97 24651.7L2559.45 24635.1L2195.93 24123.1H2217.05C2038.49 24327.2 1886.17 24500 1769.05 24635.1L1761.37 24644L1755.61 24633.8C1696.09 24535.2 1649.37 24455.9 1615.45 24398.9C1600.73 24373.3 1588.57 24352.8 1579.61 24334.9C1574.75 24328 1570.87 24320.5 1568.09 24312.5C1568.09 24312.5 1573.85 24318.9 1583.45 24332.3L1623.13 24392.5L1770.33 24623.5H1756.25L2195.93 24107.7L2207.45 24094.9L2217.05 24109L2583.77 24621H2558.17L2942.17 24137.8L2965.85 24108.3L2978.65 24093L2990.81 24107.7C3141.85 24287.5 3286.49 24461 3420.25 24619.7H3395.93L3762.65 24107.7L3773.53 24093L3783.77 24107.7L4144.73 24623.5H4131.93L4288.09 24437.3L4329.69 24388.7C4339.51 24375.4 4344.63 24370.3 4345.05 24373.3Z" fill="#007681"/>
<path d="M4428.89 23701.3C4428.89 23710.3 3783.13 23717.3 2987.61 23717.3C2192.09 23717.3 1545.69 23710.3 1545.69 23701.3C1545.69 23692.3 2190.81 23685.3 2987.61 23685.3C3784.41 23685.3 4428.89 23692.3 4428.89 23701.3Z" fill="#007681"/>
<path d="M4558.81 25883.7C4558.81 25892.7 3854.81 25899.7 2992.09 25899.7C2129.37 25899.7 1425.37 25892.7 1425.37 25883.7C1425.37 25874.7 2129.37 25867.7 2992.09 25867.7C3854.81 25867.7 4558.81 25874.7 4558.81 25883.7Z" fill="#263238"/>
<path d="M22174.2 17788.3H28160.1C28416.9 17788.3 28663.2 17890.4 28844.8 18072C29026.4 18253.6 29128.4 18499.9 29128.4 18756.7V26284.3H21207.8V18756.7C21207.8 18500.2 21309.5 18254.2 21490.7 18072.6C21671.9 17891.1 21917.7 17788.9 22174.2 17788.3V17788.3Z" fill="#00AEBF"/>
<path d="M28461.5 17831.9C28471.1 17831.9 28478.2 19723.1 28478.2 22055.9C28478.2 24388.7 28471.1 26279.9 28461.5 26279.9C28451.9 26279.9 28444.9 24388.7 28444.9 22055.9C28444.9 19723.1 28452.6 17831.9 28461.5 17831.9Z" fill="#007681"/>
<path d="M24558.8 8565.31C25287.3 9608.19 25704.9 10836.3 25763.3 12107.1C25800.4 12958.3 25685.9 13865.1 26089.7 14615.2C26669.5 15691.7 27923.3 15655.2 28307.3 16815.5C28474.3 17320.5 28166.5 18430.9 28083.3 18956.3C27989.2 19552.8 28354 20053.9 28259.9 20651.1C28173.5 21198.3 27763.9 21588.7 27272.4 21843.4C26834.7 22069.9 26430.2 22076.3 25975.1 21887.5C25107.3 21528.5 24385.4 21149.6 23767.8 20443.1C22899.9 19451.1 22637.5 18075.1 22487.8 16767.5C22161 13875.9 22227.1 10953.4 22684.3 8079.55" fill="#263238"/>
<path d="M26414.2 22009.8C26423.2 22006.9 26432.4 22004.5 26441.7 22002.7C26460.3 21998.3 26488.4 21993.8 26524.3 21982.9C26794.2 21909.5 27036.2 21757.3 27219.3 21545.8C27288.2 21465.1 27340.8 21371.9 27374.2 21271.2C27406.1 21156.7 27424.4 21038.7 27428.6 20919.9C27433.2 20645.7 27405.3 20372 27345.4 20104.5C27289.7 19813.9 27217.4 19504.2 27195.6 19168.2C27185 18996.7 27197.3 18824.5 27232.1 18656.2C27272.2 18481.4 27326.6 18310.1 27394.7 18144.2C27464.4 17973.9 27525.4 17800.3 27577.7 17623.9C27632 17443.5 27647.2 17253.7 27622.5 17067.1C27592.7 16881.3 27521.6 16704.6 27414.5 16549.9C27309.8 16399.4 27188 16261.5 27051.6 16139.1C26787.3 15892 26501.2 15691.1 26256.7 15459.4C25820.6 15055.8 25468.7 14569.9 25221.2 14029.6C25125.3 13822.8 25045.7 13608.8 24983.1 13389.6C24952.4 13294.3 24934.5 13202.1 24912.7 13118.9C24891 13035.7 24881.4 12957.6 24867.3 12888.5C24847.5 12748.3 24832.1 12640.2 24828.3 12568.5C24828.3 12532.7 24823.1 12504.5 24821.9 12484C24820.6 12463.5 24821.9 12455.2 24821.9 12455.2C24821.9 12455.2 24821.9 12464.8 24826.3 12484C24830.8 12503.2 24832.1 12532 24836.6 12567.9C24842.3 12641.5 24859.6 12749.6 24881.4 12887.9C24896.1 12957 24912.1 13033.8 24929.4 13117.6C24946.7 13201.5 24970.3 13291.1 25002.3 13386.4C25066.6 13603.4 25147.2 13815.3 25243.6 14020C25492.8 14555.4 25844.4 15036.7 26278.5 15437C26521.7 15663.5 26808.4 15866.4 27075.3 16114.7C27213.5 16239 27337 16378.8 27443.3 16531.4C27553.2 16690.3 27626 16871.8 27656.4 17062.6C27682 17253.7 27666.5 17448.1 27611 17632.8C27561.1 17814.6 27491.3 17986.7 27426.7 18155.7C27359.1 18319.7 27304.8 18488.7 27264.1 18661.3C27229.5 18827.3 27217.3 18997.1 27227.6 19166.3C27244.9 19497.8 27319.1 19806.3 27374.2 20098.7C27433.1 20368.6 27459.7 20644.4 27453.5 20920.5C27448.1 21041.4 27428.8 21161.2 27395.9 21277.6C27360.4 21380.1 27305.9 21475 27235.3 21557.3C27122.4 21688.3 26985 21795.9 26830.8 21874.1C26734.7 21925.1 26632.6 21963.8 26526.8 21989.3C26489.8 21999 26452.2 22005.8 26414.2 22009.8V22009.8Z" fill="#455A64"/>
<path d="M14498 24296.5L17570 22837.9C17570 22837.9 18766.2 17029.9 18992.7 16594.1C19219.3 16158.3 20163.9 15781.3 20163.9 15781.3L20005.9 23645.6L19724.3 25461.3L15392.7 25871.5L14498 24296.5Z" fill="#FF914D"/>
<path d="M11877.2 25672.5C11859.9 25672.5 11774.8 25725 11845.9 25860C11916.9 25995.1 12437.9 26441.1 12590.8 26285.6C12743.8 26130.1 12510.2 25940.7 12510.2 25940.7L11877.2 25672.5Z" fill="#FFBE9D"/>
<path d="M12531.9 25946.4C12531.9 25946.4 13160.4 26025.8 13401.7 26117.9C13664.7 26217.8 13984.7 26149.3 14199.8 26004C14322 25922.7 14436 25829.6 14540.3 25726.3L15341.5 25713.5C15456.7 25578.6 15532.3 25414.4 15559.9 25239.2C15587.4 25064 15565.9 24884.6 15497.7 24720.8C15454.8 24606.9 15392.9 24501.1 15314.7 24407.9C15219.3 24304.8 15068.9 24221.6 14809.1 24176.8L13857.4 24382.3C13857.4 24382.3 12385.4 24276.7 12120.4 24400.8C12120.4 24400.8 11790.8 24596 11689.1 24677.9C11650.7 24709.3 11533.5 25084.3 11773.5 25279.5C11773.5 25279.5 11564.9 25445.3 11678.2 25594.4L11731.9 25658.4C11731.9 25658.4 11591.8 25840.2 11664.1 25919.5C11736.4 25998.9 12368.1 26367.5 12592.7 26280.5C12817.4 26193.5 12631.8 25982.9 12531.9 25944.5" fill="#FFBE9D"/>
<path d="M11931.6 24955.1C11958.2 24962.9 11984.3 24972.3 12009.7 24983.2C12059 25001.8 12131.3 25028.7 12222.2 25057.5C12267 25072.2 12316.9 25086.9 12371.3 25101C12425.7 25115.1 12483.9 25127.2 12544.7 25147.1C12610.9 25165.2 12670.7 25201.3 12717.5 25251.4C12743.4 25279.1 12761.3 25313.3 12769.4 25350.4C12777.5 25387.4 12775.5 25425.9 12763.6 25461.9C12748.6 25498.2 12721.1 25527.9 12686.2 25545.8C12653.3 25561.9 12617.7 25571.9 12581.2 25575.2C12514.2 25579.2 12447 25575.5 12380.9 25564.3C12270.1 25546.4 12161.3 25518.1 12055.8 25479.9C11965.5 25447.9 11894.5 25415.9 11845.2 25396.7C11819.1 25387.2 11794 25375.2 11770.3 25360.8C11797.1 25367.9 11823.4 25376.7 11849.1 25387.1C11899 25405 11971.3 25432.5 12061.5 25461.9C12165.7 25497.3 12272.8 25523.6 12381.5 25540.7C12445 25550.6 12509.4 25553.6 12573.5 25549.6C12606.7 25546.7 12639.1 25537.5 12668.9 25522.7C12697.9 25507.6 12720.6 25482.6 12732.9 25452.3C12743.2 25421.3 12745.3 25388 12738.7 25355.9C12732.2 25323.8 12717.4 25293.9 12695.8 25269.3C12652.2 25222.6 12596.6 25188.8 12535.1 25171.4C12476.3 25151.5 12417.4 25138.7 12363.6 25123.4C12309.9 25108 12259.3 25092 12214.5 25076.7C12123.6 25045.3 12052.6 25012.7 12003.9 24994.1C11978.7 24983.4 11954.4 24970.3 11931.6 24955.1V24955.1Z" fill="#EB996E"/>
<path d="M11987.9 24501.3C12014.4 24508.7 12040.3 24518.1 12065.4 24529.5C12115.3 24548.7 12187 24576.2 12276.6 24605.6C12366.2 24635.1 12474.3 24669.6 12596.6 24697.1C12663.6 24707.7 12727.4 24733.5 12782.8 24772.7C12812.2 24797.1 12831.6 24831.5 12837.2 24869.3C12842.8 24907.4 12837.3 24946.3 12821.2 24981.3C12805 25014.7 12781.9 25044.3 12753.6 25068.3C12725.3 25092.3 12692.3 25110.2 12656.7 25120.8C12592.1 25141.8 12523.5 25147.3 12456.4 25136.8C12347.2 25115 12240.2 25083.7 12136.4 25043.4L11924.6 24969.1C11898.3 24960.9 11872.6 24950.9 11847.8 24939.1C11875 24943.6 11901.7 24950.5 11927.8 24959.5L12142.2 25023.5C12246.5 25060.7 12353.5 25089.8 12462.2 25110.6C12525.6 25119.7 12590.2 25114 12651 25093.9C12683.3 25084.1 12713.3 25067.6 12738.9 25045.5C12764.6 25023.5 12785.4 24996.4 12800.1 24965.9C12815.2 24936.9 12820.3 24903.6 12814.7 24871.4C12809 24839.1 12792.9 24809.6 12768.7 24787.4C12716.4 24750.8 12656.4 24726.6 12593.4 24716.3C12471.1 24685.6 12363 24652.3 12273.4 24619.1C12183.8 24585.8 12113.4 24555.1 12064.7 24534.6C12038.3 24525.6 12012.6 24514.5 11987.9 24501.3V24501.3Z" fill="#EB996E"/>
<path d="M12290.7 24629.3C12277.6 24587.5 12267.9 24544.7 12261.9 24501.3C12247.4 24459.7 12236.9 24416.9 12230.5 24373.3C12261 24406.6 12280.9 24448.3 12287.5 24493C12303.5 24536.8 12304.6 24584.7 12290.7 24629.3V24629.3Z" fill="#EB996E"/>
<path d="M14507 24649.8L13947 24437.3C13947 24437.3 12392.4 23711.5 12366.2 23751.2C12339.9 23790.9 12255.5 23785.8 12274 23975.2C12292.6 24164.7 13198.2 24547.4 13227 24615.2C13255.8 24683.1 13207.8 25013.3 13542.5 25250.7C13877.2 25488.2 14118.5 25493.9 14118.5 25493.9" fill="#FFBE9D"/>
<path d="M14118.5 25488.2H14103.8L14065.4 25484.3C14016.1 25476.5 13967.5 25464.8 13920.1 25449.1C13745.6 25389.7 13584.3 25296.9 13445.2 25175.9C13351 25087.6 13284.4 24974.1 13253.2 24848.8C13237.2 24779.9 13226 24710 13219.9 24639.5C13218.8 24631.5 13216.9 24623.5 13214.2 24615.9C13210.5 24609.7 13205.5 24604.4 13199.5 24600.5C13184.8 24589.9 13169.7 24580.1 13154 24571.1C13122.7 24552.5 13090 24534.6 13055.5 24516.7C12921.1 24444.3 12777.1 24372 12632.4 24288.8C12558.3 24247.1 12486.3 24201.6 12416.7 24152.5C12380.7 24127.2 12346.9 24099 12315.6 24068C12299 24052.1 12284.5 24034 12272.7 24014.3C12266.4 24003.4 12262.1 23991.5 12259.9 23979.1C12258.7 23967.6 12258.7 23956 12259.9 23944.5C12254.8 23898.2 12263 23851.3 12283.6 23809.5C12296.3 23789.7 12313.1 23772.9 12332.9 23760.2C12340.9 23755 12348.2 23748.7 12354.7 23741.6C12354.7 23741.6 12354.7 23741.6 12359.8 23735.9C12362.9 23733.5 12366.8 23732.4 12370.7 23732.7C12374.3 23732.3 12377.9 23732.3 12381.5 23732.7L12398.8 23737.1C12482.7 23762.7 12560.1 23796.7 12637.5 23828.7C12791.1 23892.7 12937.7 23956.7 13077.2 24020.7C13356.9 24148.7 13606.5 24262.6 13816.4 24361.1C13868.9 24384.8 13918.2 24409.8 13965.5 24430.3L14102.5 24484L14322 24571.1L14460.3 24626.7L14495.5 24642.1C14503.8 24642.1 14507.6 24647.2 14507.6 24647.9C14507.6 24648.5 14503.1 24647.9 14494.8 24644L14458.3 24631.9L14318.2 24580L14096.7 24501.3L13958.5 24449.5C13909.9 24429.6 13860.6 24405.3 13808.1 24381.6L13067 24046.9C12926.8 23982.9 12780.3 23918.9 12626.7 23854.9C12549.9 23823.5 12471.8 23790.9 12391.1 23764.7L12377.1 23761.5H12371.9C12371.9 23761.5 12371.9 23757.6 12371.9 23755.1C12389.9 23766.6 12376.4 23758.9 12380.3 23761.5C12372.6 23770.9 12363.5 23779.1 12353.4 23785.8C12336.3 23796.2 12321.9 23810.5 12311.1 23827.4C12293.1 23865 12286 23906.9 12290.7 23948.3C12290.2 23968.4 12294.9 23988.2 12304.1 24005.9C12314.8 24023.7 12327.7 24040.1 12342.5 24054.6C12372.8 24084.4 12405.5 24111.6 12440.4 24135.9C12509.5 24185.8 12581.9 24229.3 12653.5 24270.9C12797.5 24354.1 12940.3 24427.1 13075.3 24499.4C13109.2 24517.9 13139.3 24535.9 13174.5 24555.7C13191 24565.1 13207 24575.4 13222.5 24586.4C13231.8 24592.7 13239.3 24601.3 13244.3 24611.4C13247.5 24620.7 13249.6 24630.4 13250.7 24640.2C13256.7 24709.9 13267.2 24779.2 13282 24847.5C13311.3 24969.5 13374.8 25080.5 13465.1 25167.5C13601.4 25288.2 13759.3 25382.2 13930.3 25444.7C13976.9 25461.1 14024.6 25474.1 14073.1 25483.7C14089.7 25487.5 14102.5 25488.8 14111.5 25490.1L14118.5 25488.2Z" fill="#EB996E"/>
<path d="M12403.9 25561.1C12424.6 25563.6 12444.7 25569.5 12463.5 25578.4C12516 25599.6 12565.4 25628 12610 25662.9C12641.1 25687.2 12669.5 25714.9 12694.5 25745.5C12710.2 25762.7 12722.4 25782.9 12730.2 25804.9C12738 25826.9 12741.3 25850.2 12739.9 25873.5C12734.8 25899.9 12722.4 25924.5 12704.1 25944.3C12685.7 25964 12662.3 25978.3 12636.3 25985.5C12582.8 26000.1 12526.1 25998.3 12473.7 25980.3C12295.7 25927.7 12123 25858.5 11957.9 25773.6C11908.1 25747.7 11859.8 25719.1 11813.2 25687.9C11795.3 25677.6 11778.7 25665.1 11763.9 25650.7C11783 25658.3 11801.2 25667.7 11818.3 25678.9C11852.9 25698.7 11902.8 25726.3 11966.2 25757C12131.6 25836 12302.7 25902.3 12478.2 25955.4C12526 25971.9 12577.7 25973.9 12626.7 25961.1C12648.2 25955.5 12667.8 25944 12683.2 25928C12698.7 25912 12709.4 25892 12714.3 25870.3C12715.7 25849.7 12713.1 25829 12706.5 25809.5C12699.9 25789.9 12689.5 25771.9 12675.9 25756.3C12652.5 25726.5 12625.8 25699.3 12596.6 25675.1C12537.4 25629.1 12472.7 25590.9 12403.9 25561.1V25561.1Z" fill="#EB996E"/>
<g opacity="0.3">
<path d="M19702.5 25461.3C19199.5 23764.7 18755.9 21579.7 18252.9 19883.1C18068.6 21449.1 18299 23517 18587 25067.1C18620.9 25248.8 18636.3 25426.7 18779 25546.4L19702.5 25461.3Z" fill="black"/>
</g>
<path d="M18878.8 24296.5C18871.8 24296.5 18850.7 24185.8 18782.2 24016.2C18741.9 23917.3 18693.8 23821.9 18638.2 23730.7C18568.8 23620.1 18489.5 23516 18401.4 23419.7C18311.9 23324.4 18213.8 23237.6 18108.3 23160.5C18021.7 23097.9 17930.1 23042.7 17834.3 22995.4C17670.5 22914.7 17560.4 22885.3 17562.3 22878.9C17589 22882 17615.2 22888.3 17640.4 22897.5C17670.7 22905.1 17700.5 22915 17729.4 22926.9C17768.6 22940.6 17807 22956.4 17844.6 22974.3C17943.1 23019.4 18037.4 23073.4 18126.2 23135.5C18234.5 23212.6 18335 23300.1 18426.3 23396.7C18515.8 23495.4 18595.5 23602.6 18664.4 23716.7C18719.7 23809.8 18766.6 23907.7 18804.6 24009.1C18821.9 24052 18832.1 24092.3 18843 24127.5C18852.8 24157.5 18860.5 24188 18866 24219.1C18872.8 24244.4 18877 24270.3 18878.8 24296.5V24296.5Z" fill="#263238"/>
<path d="M19837.5 15701.9C19837.5 15701.9 18229.2 19295.5 18229.2 19957.3C18229.2 20619.1 19434.3 25200.8 19434.3 25200.8C19422.8 25383.2 19376.1 26296.5 19376.1 26296.5L26133.9 26320.2L26236.9 24867.4L25709.5 23483.1L26236.3 19569.5C26236.3 19569.5 26590.8 17297.5 26620.3 16661.9C26659.9 15867.1 23966.8 14945.5 24040.4 14835.4L23575.8 14210.7L20912.7 16373.3L20386 14852.7L19755 15448.5L19837.5 15701.9Z" fill="#FF914D"/>
<path d="M24263.1 16658.1C23531.6 17895.2 22193.4 20149.3 22193.4 20149.3L19794.7 22884.7C19794.7 22884.7 19637.9 24274.1 19951.5 24700.3C20265.1 25126.6 20803.3 25417.8 20803.3 25417.8C20803.3 25417.8 21436.3 25417.8 22240.7 24745.1C23045.2 24072.5 25264.1 21293 25264.1 21293L26026.3 20373.3C26026.3 20373.3 26935.1 18141 26765.5 17005C26701.5 16566.6 26513.4 16384.8 26265.1 16183.9C25639.8 15680.2 24672.1 15966.3 24263.1 16658.1Z" fill="#FF914D"/>
<path d="M26308.6 19598.9C26305.3 19607.7 26301.5 19616.3 26297.1 19624.5C26288.7 19642.4 26276.6 19666.1 26261.9 19697.5C26229.9 19761.5 26181.2 19854.3 26114.7 19972C25982.2 20208.2 25776.1 20541.6 25507.3 20944.2C25372.3 21145.1 25221.9 21363.4 25056.1 21595.1C24890.3 21826.7 24702.2 22065.5 24547.3 22344.5C24392.4 22623.5 24251.6 22928.2 24082 23232.8C23907.8 23548.5 23703.5 23846.6 23472.1 24123.1C23240.6 24400.7 22968.3 24641.5 22664.4 24837.3C22379.7 25019 22061.6 25142.1 21728.7 25199.5C21427.5 25253 21118.2 25239.9 20822.5 25161.1C20688.7 25125 20559.8 25072.8 20438.5 25005.6C20325.6 24946.1 20219.6 24874.4 20122.3 24791.9C20033.1 24718 19953.2 24633.5 19884.3 24540.3C19822.2 24457.6 19769.4 24368.3 19726.8 24274.1C19661 24122.5 19617.9 23962.1 19598.8 23797.9C19587.8 23694.4 19584.2 23590.3 19587.9 23486.3C19587.9 23451.7 19591.8 23422.3 19593.1 23405C19592.4 23395.8 19592.4 23386.6 19593.1 23377.5C19593.7 23386.6 19593.7 23395.8 19593.1 23405C19593.1 23424.8 19593.1 23451.7 19593.1 23486.3C19591.8 23589.8 19597.4 23693.2 19609.7 23796C19631.2 23958.4 19676 24116.9 19742.8 24266.4C19785.8 24358.8 19838.6 24446.4 19900.3 24527.5C19968.8 24619 20048.4 24701.8 20137.1 24773.9C20233.5 24854.9 20338.4 24925 20450 24983.2C20569.6 25048.7 20696.6 25099.6 20828.3 25134.9C21120.9 25211.3 21426.6 25223.1 21724.3 25169.5C22052.7 25111.9 22366.4 24989.6 22647.1 24809.8C22948.3 24615.4 23218.2 24376.5 23447.8 24101.3C23677.9 23826.7 23880.8 23530.5 24053.9 23216.8C24223.5 22914.1 24360.4 22606.9 24521.1 22329.1C24677.9 22069.8 24848.9 21819.2 25033.1 21578.4C25199.5 21348 25353.1 21130.4 25486.8 20930.7C25758.2 20530.7 25966.8 20199.2 26102.5 19965.6C26171 19848.5 26221.5 19757 26254.8 19694.3L26293.9 19622.6C26297.9 19614.2 26302.8 19606.2 26308.6 19598.9V19598.9Z" fill="#263238"/>
<path d="M19671.8 22762.4C19671.8 22766.9 19637.9 22788 19593.7 22837.3C19534.9 22899.7 19498.7 22980 19490.8 23065.3C19482.9 23150.7 19503.8 23236.2 19550.2 23308.3C19584.1 23364.7 19614.2 23392.2 19614.2 23396C19614.2 23399.9 19573.9 23378.1 19531.6 23321.8C19476.4 23247.1 19450.7 23154.7 19459.3 23062.3C19467.9 22969.9 19510.3 22883.8 19578.3 22820.7C19603.1 22792.5 19635.6 22772.3 19671.8 22762.4V22762.4Z" fill="#263238"/>
<path d="M20115.3 23488.2C20128.1 23489.9 20140.8 23492.9 20153.1 23497.1L20197.9 23509.3L20261.9 23520.8C20394.8 23538.4 20530 23525.7 20657.4 23483.7C20846.9 23420.3 21021.2 23318.3 21169.4 23184.2C21345.5 23015.2 21505.1 22829.8 21646.2 22630.6C21789.5 22429.8 21954.5 22245.4 22138.3 22080.8C22225.4 22007.9 22310.5 21943.2 22381.5 21873.5C22449.2 21811.4 22503.6 21736.3 22541.5 21652.7C22567 21591.6 22576.9 21525.2 22570.6 21459.3C22564.2 21393.4 22541.7 21330.2 22505.1 21275.1C22474.1 21237.2 22434.4 21207.5 22389.2 21188.7C22401.9 21191.1 22414.3 21194.7 22426.3 21199.5C22460.8 21215 22491.3 21238.2 22515.3 21267.4C22555.8 21323.7 22581.6 21389.4 22590.1 21458.3C22598.6 21527.2 22589.6 21597.1 22563.9 21661.6C22525.8 21749 22470.5 21827.7 22401.4 21893.3C22329.1 21965 22243.3 22031.5 22158.2 22104.5C21977.4 22268.8 21814.8 22452.1 21673.1 22651.1C21530.3 22852 21368.3 23038.5 21189.2 23207.9C21037.9 23342.7 20860 23444.3 20667 23506.1C20536 23547.1 20397.2 23556.5 20261.9 23533.6L20197.9 23518.9C20179.9 23513.8 20165.2 23507.4 20153.7 23503.5C20140.3 23500 20127.4 23494.8 20115.3 23488.2V23488.2Z" fill="#263238"/>
<path d="M24588.9 16277.9C24580.8 16291.3 24571.8 16304.2 24562 16316.3C24540.9 16343.2 24514 16380.3 24480.1 16423.2C24407.1 16514.1 24306.7 16649.8 24183.8 16818.7C23870.6 17262.7 23585.6 17725.9 23330.7 18205.6C23028.6 18766.3 22779 19286.6 22587.6 19657.8C22492.9 19844 22414.8 19993.8 22357.9 20096.2L22295.8 20213.3C22288.8 20227.3 22280.4 20240.6 22270.8 20253C22275.6 20238.1 22281.9 20223.8 22289.4 20210.1L22349.5 20089.1L22569.1 19646.9C22754.7 19272.5 23001.7 18750.9 23303.8 18189C23559 17707.7 23847.7 17244.9 24167.8 16804C24295.8 16637 24396.3 16502.6 24472.4 16414.3L24559.5 16311.2C24568 16299.1 24577.9 16287.9 24588.9 16277.9V16277.9Z" fill="#263238"/>
<g opacity="0.3">
<path d="M19595 23377.5C19906.7 23546.4 20249.7 23528.5 20597.9 23460.7C20949.4 23390.4 21265.9 23201 21493.9 22924.3C21441.2 23232.4 21296.9 23517.5 21079.8 23742.3C20858.3 23959.2 20537.1 24084.7 20232.4 24029C19927.8 23973.3 19619.3 23686.6 19592.4 23377.5" fill="black"/>
</g>
<g opacity="0.3">
<path d="M22545.4 21530.4C22743.2 21835.4 22812.2 22206.4 22737.4 22562.1C23001.7 22157.6 23063.8 21645.6 22993.4 21167.5C22923 20689.5 22727.8 20238.3 22511.5 19806.3C22511.5 19806.3 22273.4 20209.5 22270.8 20254.3C22259.3 20487.2 22345.1 20925 22389.9 21153.5C22449.6 21210.8 22494.2 21282.2 22519.5 21361C22544.9 21439.9 22550.3 21523.9 22535.1 21605.3" fill="black"/>
</g>
<g opacity="0.3">
<path d="M20652.3 25051.7C21288.4 25547.7 22232.4 25570.7 22928.1 25163.7C23598.2 24771.4 24011 24064.8 24393.7 23389.6C24987 22343.9 25710.2 21050.4 26133.9 19925.3C26133.9 19925.3 24946.7 21545.1 24588.9 22243.4C24350.4 22715.4 24079.7 23170.5 23778.7 23605.3C23438 24095.3 22977.5 24489.8 22441.1 24751.2C21904.6 25012.6 21310.1 25132.1 20714.3 25098.4" fill="black"/>
</g>
<path d="M19376.1 26293.3C19375.1 26286.7 19375.1 26280 19376.1 26273.5C19376.1 26258.1 19376.1 26238.9 19376.1 26215.2C19376.1 26160.8 19380.6 26087.2 19384.4 25993.1C19393.4 25801.1 19405.5 25525.9 19420.9 25197.6V25205.3C19306.3 24821.3 19171.9 24355.4 19032.4 23852.3C18848.1 23185.5 18692.6 22578.7 18587.6 22137.8C18535.8 21917.6 18494.8 21738.4 18469.2 21614.3C18457.1 21554.7 18447.5 21506.7 18440.4 21471.5C18436.6 21454.9 18433.9 21438 18432.1 21421C18438.6 21436.7 18443.5 21453 18446.8 21469.6L18482 21611.7C18513.4 21739.7 18556.9 21915.1 18610 22132C18720.7 22571.7 18880.1 23177.1 19064.4 23843.4C19203.3 24346.4 19335.8 24812.3 19448.4 25197V25201.5C19428.6 25529.8 19411.9 25803.1 19399.8 25997.6C19393.4 26090.4 19388.3 26164.7 19384.4 26219.1C19384.4 26242.1 19380.6 26261.3 19379.3 26276.7C19378.9 26282.3 19377.9 26287.9 19376.1 26293.3V26293.3Z" fill="#263238"/>
<path d="M26135.8 16146.7C26135.8 16151.9 26066.7 16127.5 25955.9 16100C25811.5 16063.6 25663.8 16042.2 25515 16036C25366.1 16031.9 25217.2 16043.5 25070.8 16070.6C24958.2 16091.7 24889.7 16110.9 24888.4 16105.8C24902.6 16096.6 24918.2 16089.7 24934.5 16085.3C24977.5 16070.5 25021.3 16057.9 25065.7 16047.5C25212.5 16013.3 25363.1 15998.2 25513.7 16002.7C25665.5 16007.3 25816.1 16031.4 25961.7 16074.4C26005.3 16087.1 26048 16102.5 26089.7 16120.5C26121.7 16136.5 26135.8 16144.2 26135.8 16146.7Z" fill="#263238"/>
<path d="M23996.3 14965.3C23991.6 14976.9 23985.8 14988.1 23979 14998.6L23924.6 15090.1C23876.6 15169.5 23805.5 15282.1 23715.3 15422.3C23534.2 15699.4 23275 16077.6 22968.4 16479.5C22722 16804 22483.3 17095.2 22288.1 17323.1L22274 17339.1L22265.7 17319.9C22172.3 17116.3 22095.5 16947.4 22039.8 16825.1C22014.8 16768.8 21995 16722.7 21979 16687.5C21971.1 16671.8 21964.9 16655.3 21960.4 16638.3C21970.7 16652.7 21979.5 16668.1 21986.7 16684.3C22003.9 16718.9 22025.7 16763.7 22053.9 16818.7C22112.1 16939.7 22192.7 17106.7 22289.4 17309L22267.6 17305.8C22459.6 17075.4 22695.8 16783.5 22942.2 16459.7C23248.1 16057.8 23509.2 15682.7 23695.5 15408.8L23913.7 15083.1L23973.2 14994.7C23979.6 14984 23987.3 14974.1 23996.3 14965.3V14965.3Z" fill="#263238"/>
<path d="M25552.1 25286.6C25542.5 25286.6 25571.9 24953.1 25616.1 24544.2C25660.3 24135.2 25705.7 23805 25714.7 23806.3C25723.6 23807.5 25694.2 24139.1 25650.7 24548C25607.1 24957 25559.8 25287.2 25552.1 25286.6Z" fill="#263238"/>
<path d="M20919.8 25198.9C20956.1 25383.3 20981.6 25569.6 20995.9 25757C21021.8 25943 21036.2 26130.5 21038.8 26318.3C21002.8 26133.8 20977.4 25947.5 20962.7 25760.2C20937.5 25574.1 20923.2 25386.7 20919.8 25198.9V25198.9Z" fill="#263238"/>
<path d="M24338 17889.5C24334.9 17876.8 24328.8 17865 24320.2 17855.1C24311.6 17845.3 24300.8 17837.6 24288.7 17832.8C24276.5 17827.9 24263.4 17826.1 24250.4 17827.4C24237.3 17828.7 24224.8 17833.1 24213.9 17840.2L24209.4 17844C24199.3 17853 24191.8 17864.4 24187.5 17877.1C24183.2 17889.9 24182.3 17903.5 24184.9 17916.7C24187.5 17929.9 24193.5 17942.2 24202.3 17952.4C24211.1 17962.6 24222.3 17970.3 24235 17974.8C24247.7 17979.3 24261.3 17980.4 24274.6 17978C24287.8 17975.7 24300.2 17969.9 24310.5 17961.3C24320.8 17952.7 24328.7 17941.5 24333.5 17928.9C24338.2 17916.3 24339.5 17902.7 24337.4 17889.5H24338Z" fill="white"/>
<path d="M23670.5 16262.6C23667.4 16249.9 23661.3 16238.1 23652.7 16228.2C23644.1 16218.4 23633.3 16210.7 23621.1 16205.9C23609 16201.1 23595.8 16199.2 23582.8 16200.5C23569.8 16201.8 23557.3 16206.2 23546.3 16213.3L23542.5 16217.1C23532.5 16226.1 23524.9 16237.5 23520.6 16250.3C23516.4 16263 23515.5 16276.6 23518.1 16289.8C23520.6 16303 23526.6 16315.3 23535.4 16325.5C23544.2 16335.7 23555.5 16343.4 23568.1 16347.9C23580.8 16352.4 23594.4 16353.5 23607.7 16351.2C23620.9 16348.8 23633.3 16343 23643.6 16334.4C23654 16325.8 23661.9 16314.7 23666.6 16302.1C23671.3 16289.5 23672.6 16275.9 23670.5 16262.6Z" fill="white"/>
<path d="M22139 17572.7C22135.9 17560 22129.8 17548.2 22121.2 17538.3C22112.6 17528.5 22101.8 17520.8 22089.6 17516C22077.5 17511.1 22064.3 17509.3 22051.3 17510.6C22038.3 17511.9 22025.8 17516.3 22014.8 17523.4H22011C22000.9 17532.3 21993.4 17543.7 21989.1 17556.4C21984.8 17569.1 21983.9 17582.7 21986.4 17595.9C21988.9 17609.1 21994.9 17621.4 22003.6 17631.6C22012.3 17641.8 22023.6 17649.6 22036.2 17654.1C22048.8 17658.7 22062.4 17659.9 22075.7 17657.6C22088.9 17655.3 22101.3 17649.6 22111.7 17641C22122 17632.5 22130 17621.4 22134.8 17608.9C22139.6 17596.3 22141 17582.7 22139 17569.5V17572.7Z" fill="white"/>
<path d="M20483.3 16914.7C20480.3 16902.1 20474.3 16890.3 20465.7 16880.4C20457.2 16870.5 20446.4 16862.9 20434.3 16858C20422.2 16853.2 20409.1 16851.3 20396.1 16852.6C20383.2 16853.9 20370.7 16858.3 20359.8 16865.5L20355.3 16869.3C20345.3 16878.3 20337.7 16889.7 20333.4 16902.4C20329.2 16915.2 20328.3 16928.8 20330.9 16942C20333.4 16955.2 20339.4 16967.5 20348.2 16977.7C20357 16987.9 20368.3 16995.6 20380.9 17000.1C20393.6 17004.6 20407.2 17005.7 20420.5 17003.3C20433.7 17001 20446.1 16995.2 20456.4 16986.6C20466.8 16978 20474.7 16966.8 20479.4 16954.2C20484.1 16941.6 20485.4 16928 20483.3 16914.7V16914.7Z" fill="white"/>
<path d="M20190.8 16266.4C20187.7 16253.7 20181.6 16241.9 20173 16232.1C20164.4 16222.2 20153.6 16214.6 20141.5 16209.7C20129.3 16204.9 20116.2 16203.1 20103.2 16204.4C20090.1 16205.6 20077.6 16210 20066.7 16217.1L20062.2 16221C20051.9 16229.9 20044.1 16241.4 20039.6 16254.3C20035.1 16267.2 20034 16281.1 20036.6 16294.5C20039.1 16307.9 20045.1 16320.4 20054 16330.8C20062.9 16341.2 20074.3 16349 20087.2 16353.6C20100 16358.2 20113.9 16359.3 20127.3 16356.8C20140.7 16354.4 20153.3 16348.4 20163.7 16339.6C20174.1 16330.8 20182.1 16319.4 20186.7 16306.6C20191.4 16293.7 20192.6 16279.9 20190.2 16266.4H20190.8Z" fill="white"/>
<path d="M20318.2 15517.6C20315.1 15504.9 20309 15493.1 20300.4 15483.3C20291.8 15473.4 20281 15465.8 20268.8 15460.9C20256.7 15456.1 20243.5 15454.3 20230.5 15455.6C20217.5 15456.8 20205 15461.2 20194 15468.3L20189.5 15471.5C20179.5 15480.5 20172 15491.8 20167.7 15504.6C20163.3 15517.3 20162.4 15530.9 20165 15544.1C20167.5 15557.3 20173.4 15569.6 20182.2 15579.8C20190.9 15590 20202.1 15597.7 20214.8 15602.3C20227.4 15606.8 20241 15608 20254.2 15605.7C20267.5 15603.4 20279.9 15597.7 20290.2 15589.2C20300.6 15580.6 20308.6 15569.6 20313.4 15557C20318.1 15544.5 20319.6 15530.9 20317.5 15517.6H20318.2Z" fill="white"/>
<path d="M19401.1 16548C19397.9 16535.3 19391.8 16523.5 19383.3 16513.7C19374.7 16503.8 19363.9 16496.2 19351.7 16491.3C19339.5 16486.5 19326.4 16484.7 19313.4 16486C19300.4 16487.2 19287.9 16491.6 19276.9 16498.7L19272.4 16501.9C19262.4 16510.9 19254.8 16522.2 19250.5 16535C19246.2 16547.7 19245.3 16561.3 19247.8 16574.5C19250.4 16587.7 19256.3 16600 19265 16610.2C19273.8 16620.4 19285 16628.1 19297.6 16632.7C19310.3 16637.2 19323.9 16638.4 19337.1 16636.1C19350.3 16633.8 19362.7 16628.1 19373.1 16619.6C19383.5 16611.1 19391.4 16600 19396.2 16587.4C19401 16574.9 19402.5 16561.3 19400.4 16548H19401.1Z" fill="white"/>
<path d="M21527.8 16845C21524.8 16832.3 21518.7 16820.5 21510.2 16810.7C21501.7 16800.8 21490.9 16793.1 21478.8 16788.3C21466.7 16783.4 21453.6 16781.6 21440.6 16782.9C21427.7 16784.2 21415.2 16788.6 21404.3 16795.7L21399.8 16799.5C21389.7 16808.5 21382.2 16819.9 21377.9 16832.7C21373.6 16845.4 21372.7 16859 21375.3 16872.2C21377.9 16885.4 21383.9 16897.7 21392.7 16907.9C21401.5 16918.1 21412.7 16925.8 21425.4 16930.3C21438.1 16934.8 21451.7 16935.9 21465 16933.6C21478.2 16931.2 21490.6 16925.4 21500.9 16916.8C21511.2 16908.2 21519.1 16897.1 21523.9 16884.5C21528.6 16871.9 21529.9 16858.3 21527.8 16845V16845Z" fill="white"/>
<path d="M19726.8 18180.7C19723.7 18168 19717.6 18156.2 19709 18146.3C19700.4 18136.5 19689.6 18128.8 19677.5 18124C19665.3 18119.1 19652.2 18117.3 19639.2 18118.6C19626.1 18119.9 19613.6 18124.3 19602.7 18131.4H19598.2C19588.1 18140.3 19580.6 18151.7 19576.3 18164.4C19572 18177.1 19571.1 18190.7 19573.6 18203.9C19576.1 18217.1 19582.1 18229.4 19590.8 18239.6C19599.5 18249.8 19610.8 18257.6 19623.4 18262.1C19636 18266.7 19649.6 18267.9 19662.9 18265.6C19676.1 18263.3 19688.5 18257.6 19698.9 18249C19709.2 18240.5 19717.2 18229.4 19722 18216.9C19726.8 18204.3 19728.2 18190.7 19726.2 18177.5L19726.8 18180.7Z" fill="white"/>
<path d="M18080.7 22021.9C18077.6 22009.2 18071.5 21997.5 18062.9 21987.6C18054.4 21977.7 18043.5 21970.1 18031.4 21965.3C18019.2 21960.4 18006.1 21958.6 17993.1 21959.9C17980.1 21961.2 17967.5 21965.5 17956.6 21972.7L17952.7 21975.9C17942.7 21984.8 17935.2 21996.2 17930.9 22008.9C17926.5 22021.6 17925.6 22035.2 17928.2 22048.4C17930.7 22061.6 17936.6 22073.9 17945.4 22084.1C17954.1 22094.3 17965.3 22102 17978 22106.6C17990.6 22111.1 18004.2 22112.3 18017.4 22110C18030.7 22107.7 18043.1 22102 18053.4 22093.5C18063.8 22085 18071.8 22073.9 18076.6 22061.3C18081.3 22048.8 18082.8 22035.2 18080.7 22021.9V22021.9Z" fill="white"/>
<path d="M18668.3 19806.3C18665.2 19793.6 18659.1 19781.8 18650.5 19771.9C18641.9 19762.1 18631.1 19754.4 18618.9 19749.6C18606.7 19744.7 18593.6 19742.9 18580.6 19744.2C18567.6 19745.5 18555.1 19749.9 18544.1 19757L18539.6 19760.8C18529.6 19769.8 18522 19781.2 18517.8 19793.9C18513.5 19806.7 18512.6 19820.3 18515.2 19833.5C18517.8 19846.7 18523.7 19859 18532.5 19869.2C18541.3 19879.4 18552.6 19887.1 18565.3 19891.6C18577.9 19896.1 18591.6 19897.2 18604.8 19894.8C18618 19892.5 18630.4 19886.7 18640.8 19878.1C18651.1 19869.5 18659 19858.3 18663.7 19845.7C18668.4 19833.1 18669.8 19819.5 18667.6 19806.3H18668.3Z" fill="white"/>
<path d="M22999.8 15916.3C22996.7 15903.6 22990.6 15891.9 22982 15882C22973.4 15872.1 22962.6 15864.5 22950.4 15859.7C22938.3 15854.8 22925.1 15853 22912.1 15854.3C22899.1 15855.6 22886.6 15860 22875.6 15867.1L22871.1 15870.3C22861.1 15879.2 22853.6 15890.6 22849.3 15903.3C22844.9 15916 22844 15929.6 22846.6 15942.8C22849.1 15956 22855 15968.3 22863.8 15978.5C22872.5 15988.7 22883.7 15996.4 22896.4 16001C22909 16005.5 22922.6 16006.7 22935.8 16004.4C22949.1 16002.1 22961.5 15996.4 22971.8 15987.9C22982.2 15979.4 22990.2 15968.3 22995 15955.7C22999.7 15943.2 23001.2 15929.6 22999.1 15916.3H22999.8Z" fill="white"/>
<path d="M25063.1 20327.2C25060 20314.5 25053.9 20302.7 25045.3 20292.9C25036.8 20283 25025.9 20275.4 25013.8 20270.5C25001.6 20265.7 24988.5 20263.9 24975.5 20265.2C24962.5 20266.4 24949.9 20270.8 24939 20277.9L24934.5 20281.8C24924.2 20290.7 24916.4 20302.2 24911.9 20315.1C24907.4 20328 24906.3 20341.9 24908.9 20355.3C24911.4 20368.7 24917.4 20381.2 24926.3 20391.6C24935.2 20402 24946.6 20409.8 24959.5 20414.4C24972.4 20419 24986.2 20420.1 24999.6 20417.6C25013.1 20415.2 25025.6 20409.2 25036 20400.4C25046.5 20391.6 25054.4 20380.2 25059 20367.4C25063.7 20354.5 25064.9 20340.7 25062.5 20327.2H25063.1Z" fill="white"/>
<path d="M25867.6 16531.4C25864.6 16518.7 25858.6 16506.9 25850.1 16497C25841.5 16487.2 25830.8 16479.5 25818.7 16474.7C25806.5 16469.8 25793.4 16468 25780.5 16469.3C25767.5 16470.6 25755 16475 25744.1 16482.1L25739.6 16485.3C25729.6 16494.2 25722 16505.6 25717.7 16518.3C25713.4 16531 25712.5 16544.7 25715 16557.8C25717.6 16571 25723.5 16583.3 25732.2 16593.5C25741 16603.7 25752.2 16611.5 25764.8 16616C25777.5 16620.6 25791.1 16621.8 25804.3 16619.5C25817.5 16617.2 25829.9 16611.5 25840.3 16602.9C25850.7 16594.4 25858.6 16583.3 25863.4 16570.8C25868.2 16558.2 25869.7 16544.7 25867.6 16531.4V16531.4Z" fill="white"/>
<path d="M25552.1 19017.1C25549 19004.4 25542.9 18992.7 25534.3 18982.8C25525.7 18972.9 25514.9 18965.3 25502.7 18960.5C25490.6 18955.6 25477.4 18953.8 25464.4 18955.1C25451.4 18956.4 25438.9 18960.7 25427.9 18967.9L25423.5 18971.7C25413.1 18980.6 25405.3 18992.1 25400.8 19005C25396.3 19017.9 25395.3 19031.8 25397.8 19045.2C25400.4 19058.6 25406.4 19071.1 25415.2 19081.5C25424.1 19091.9 25435.6 19099.7 25448.4 19104.3C25461.3 19108.9 25475.2 19110 25488.6 19107.5C25502 19105.1 25514.6 19099.2 25525 19090.3C25535.4 19081.5 25543.4 19070.1 25548 19057.3C25552.6 19044.4 25553.8 19030.6 25551.5 19017.1H25552.1Z" fill="white"/>
<path d="M23746.7 20812.3C23743.6 20799.6 23737.4 20787.9 23728.9 20778C23720.3 20768.1 23709.5 20760.5 23697.3 20755.7C23685.1 20750.8 23672 20749 23659 20750.3C23646 20751.6 23633.5 20756 23622.5 20763.1L23618 20766.9C23608 20775.9 23600.4 20787.3 23596.2 20800C23591.9 20812.8 23591 20826.4 23593.6 20839.6C23596.2 20852.8 23602.1 20865.1 23610.9 20875.3C23619.7 20885.5 23631 20893.2 23643.7 20897.7C23656.3 20902.2 23670 20903.3 23683.2 20900.9C23696.4 20898.6 23708.8 20892.8 23719.2 20884.2C23729.5 20875.6 23737.4 20864.4 23742.1 20851.8C23746.8 20839.2 23748.2 20825.6 23746 20812.3H23746.7Z" fill="white"/>
<path d="M23822.8 19317.3C23819.7 19304.6 23813.6 19292.8 23805 19283C23796.4 19273.1 23785.6 19265.4 23773.5 19260.6C23761.3 19255.8 23748.2 19253.9 23735.2 19255.2C23722.1 19256.5 23709.6 19260.9 23698.7 19268L23694.2 19271.9C23683.9 19280.8 23676.1 19292.3 23671.6 19305.2C23667.1 19318.1 23666 19331.9 23668.6 19345.4C23671.1 19358.8 23677.1 19371.3 23686 19381.7C23694.9 19392 23706.3 19399.9 23719.2 19404.5C23732 19409 23745.9 19410.2 23759.3 19407.7C23772.7 19405.2 23785.3 19399.3 23795.7 19390.5C23806.1 19381.7 23814.1 19370.3 23818.7 19357.4C23823.4 19344.6 23824.6 19330.8 23822.2 19317.3H23822.8Z" fill="white"/>
<path d="M24911.5 16544.2C24908.4 16531.5 24902.4 16519.7 24893.9 16509.9C24885.4 16500 24874.6 16492.3 24862.5 16487.5C24850.4 16482.6 24837.3 16480.8 24824.3 16482.1C24811.3 16483.4 24798.9 16487.8 24787.9 16494.9L24783.5 16498.7C24773.4 16507.7 24765.9 16519.1 24761.6 16531.9C24757.3 16544.6 24756.4 16558.2 24759 16571.4C24761.6 16584.6 24767.6 16596.9 24776.4 16607.1C24785.1 16617.3 24796.4 16625 24809.1 16629.5C24821.8 16634 24835.4 16635.1 24848.6 16632.8C24861.9 16630.4 24874.3 16624.6 24884.6 16616C24894.9 16607.4 24902.8 16596.3 24907.5 16583.7C24912.2 16571.1 24913.6 16557.5 24911.5 16544.2V16544.2Z" fill="white"/>
<path d="M23447.8 15096.5C23444.8 15083.8 23438.7 15072 23430.2 15062.2C23421.7 15052.3 23410.9 15044.6 23398.8 15039.8C23386.7 15035 23373.6 15033.1 23360.6 15034.4C23347.6 15035.7 23335.2 15040.1 23324.3 15047.2L23319.8 15050.4C23309.7 15059.4 23302.2 15070.7 23297.9 15083.4C23293.6 15096.2 23292.7 15109.8 23295.2 15123C23297.7 15136.2 23303.7 15148.5 23312.4 15158.7C23321.1 15168.9 23332.4 15176.6 23345 15181.2C23357.6 15185.7 23371.2 15186.9 23384.5 15184.6C23397.7 15182.3 23410.1 15176.6 23420.5 15168.1C23430.8 15159.5 23438.8 15148.4 23443.6 15135.9C23448.4 15123.4 23449.8 15109.8 23447.8 15096.5V15096.5Z" fill="white"/>
<path d="M23392.1 17430.6C23389.1 17417.8 23383.1 17405.9 23374.5 17396C23366 17386 23355.1 17378.3 23342.9 17373.5C23330.7 17368.6 23317.5 17366.8 23304.5 17368.2C23291.4 17369.5 23278.9 17374 23267.9 17381.3L23264.1 17384.5C23254.1 17393.4 23246.5 17404.8 23242.2 17417.5C23237.9 17430.2 23237 17443.9 23239.5 17457C23242.1 17470.2 23248 17482.5 23256.7 17492.7C23265.5 17502.9 23276.7 17510.7 23289.3 17515.2C23302 17519.8 23315.6 17521 23328.8 17518.7C23342 17516.4 23354.4 17510.7 23364.8 17502.1C23375.2 17493.6 23383.1 17482.5 23387.9 17470C23392.7 17457.4 23394.1 17443.9 23392.1 17430.6V17430.6Z" fill="white"/>
<path d="M21520.7 24550.6C21517.6 24538.3 21511.6 24526.9 21503.2 24517.3C21494.9 24507.8 21484.4 24500.3 21472.7 24495.5C21460.9 24490.7 21448.2 24488.7 21435.5 24489.7C21422.9 24490.7 21410.6 24494.7 21399.8 24501.3L21395.3 24504.5C21385.3 24513.4 21377.7 24524.8 21373.4 24537.5C21369.1 24550.2 21368.2 24563.9 21370.7 24577C21373.3 24590.2 21379.2 24602.5 21387.9 24612.7C21396.7 24622.9 21407.9 24630.7 21420.5 24635.2C21433.2 24639.8 21446.8 24641 21460 24638.7C21473.2 24636.4 21485.6 24630.7 21496 24622.1C21506.4 24613.6 21514.3 24602.5 21519.1 24590C21523.9 24577.4 21525.3 24563.9 21523.3 24550.6H21520.7Z" fill="white"/>
<path d="M19373.5 23379.4C19370.4 23366.7 19364.3 23354.9 19355.7 23345C19347.2 23335.2 19336.3 23327.5 19324.2 23322.7C19312 23317.9 19298.9 23316 19285.9 23317.3C19272.9 23318.6 19260.3 23323 19249.4 23330.1L19244.9 23333.9C19234.9 23342.9 19227.3 23354.3 19223 23367.1C19218.8 23379.8 19217.9 23393.4 19220.5 23406.6C19223 23419.8 19229 23432.1 19237.8 23442.3C19246.6 23452.5 19257.9 23460.2 19270.5 23464.7C19283.2 23469.2 19296.8 23470.3 19310.1 23468C19323.3 23465.6 19335.7 23459.8 19346 23451.2C19356.4 23442.6 19364.3 23431.5 19369 23418.9C19373.7 23406.3 19375 23392.7 19372.9 23379.4H19373.5Z" fill="white"/>
<path d="M17637.2 23953.5C17634.1 23940.8 17628 23929 17619.4 23919.1C17610.8 23909.3 17600 23901.6 17587.9 23896.8C17575.7 23891.9 17562.6 23890.1 17549.6 23891.4C17536.5 23892.7 17524 23897.1 17513.1 23904.2L17509.2 23907.4C17499.2 23916.3 17491.6 23927.7 17487.3 23940.4C17483 23953.1 17482.1 23966.7 17484.6 23979.9C17487.2 23993.1 17493.1 24005.4 17501.8 24015.6C17510.6 24025.8 17521.8 24033.6 17534.4 24038.1C17547.1 24042.7 17560.7 24043.8 17573.9 24041.6C17587.1 24039.3 17599.5 24033.6 17609.9 24025C17620.3 24016.5 17628.2 24005.4 17633 23992.9C17637.8 23980.3 17639.3 23966.7 17637.2 23953.5V23953.5Z" fill="white"/>
<path d="M17451.6 24942.3C17448.5 24929.6 17442.4 24917.8 17433.8 24907.9C17425.2 24898.1 17414.4 24890.4 17402.3 24885.6C17390.1 24880.7 17377 24878.9 17364 24880.2C17350.9 24881.5 17338.4 24885.9 17327.5 24893L17323 24896.2C17312.9 24905.1 17305.4 24916.5 17301.1 24929.2C17296.8 24941.9 17295.9 24955.5 17298.4 24968.7C17300.9 24981.9 17306.9 24994.2 17315.6 25004.4C17324.3 25014.6 17335.6 25022.4 17348.2 25026.9C17360.8 25031.5 17374.4 25032.6 17387.7 25030.4C17400.9 25028.1 17413.3 25022.4 17423.7 25013.8C17434 25005.3 17442 24994.2 17446.8 24981.7C17451.6 24969.1 17453 24955.5 17451 24942.3H17451.6Z" fill="white"/>
<path d="M19079.1 25273.1C19076 25260.4 19069.9 25248.7 19061.3 25238.8C19052.8 25228.9 19041.9 25221.3 19029.8 25216.4C19017.6 25211.6 19004.5 25209.8 18991.5 25211.1C18978.5 25212.4 18965.9 25216.7 18955 25223.9L18951.1 25227.7C18941.1 25236.7 18933.6 25248.1 18929.3 25260.8C18925 25273.6 18924.1 25287.2 18926.7 25300.4C18929.3 25313.6 18935.3 25325.9 18944 25336.1C18952.8 25346.3 18964.1 25354 18976.8 25358.5C18989.5 25363 19003.1 25364.1 19016.3 25361.7C19029.5 25359.4 19041.9 25353.6 19052.3 25345C19062.6 25336.4 19070.5 25325.2 19075.2 25312.6C19079.9 25300 19081.3 25286.4 19079.1 25273.1Z" fill="white"/>
<path d="M18535.1 23058.7C18532 23046 18525.9 23034.3 18517.3 23024.4C18508.8 23014.5 18497.9 23006.9 18485.8 23002.1C18473.6 22997.2 18460.5 22995.4 18447.5 22996.7C18434.5 22998 18421.9 23002.3 18411 23009.5L18406.5 23013.3C18396.2 23022.2 18388.4 23033.7 18383.9 23046.6C18379.4 23059.5 18378.3 23073.4 18380.9 23086.8C18383.4 23100.2 18389.4 23112.7 18398.3 23123.1C18407.2 23133.5 18418.6 23141.3 18431.5 23145.9C18444.4 23150.5 18458.2 23151.6 18471.6 23149.1C18485.1 23146.7 18497.6 23140.8 18508 23131.9C18518.5 23123.1 18526.4 23111.7 18531 23098.9C18535.7 23086 18536.9 23072.2 18534.5 23058.7H18535.1Z" fill="white"/>
<path d="M20531.9 23621.9C20529 23609.2 20522.9 23597.3 20514.4 23587.3C20505.8 23577.4 20495 23569.7 20482.8 23564.8C20470.5 23560 20457.4 23558.2 20444.3 23559.5C20431.2 23560.9 20418.7 23565.4 20407.8 23572.7L20403.9 23575.9C20393.9 23584.8 20386.4 23596.2 20382.1 23608.9C20377.7 23621.6 20376.8 23635.2 20379.4 23648.4C20381.9 23661.6 20387.8 23673.9 20396.6 23684.1C20405.3 23694.3 20416.5 23702 20429.2 23706.6C20441.8 23711.1 20455.4 23712.3 20468.6 23710C20481.9 23707.7 20494.3 23702 20504.6 23693.5C20515 23685 20523 23673.9 20527.7 23661.3C20532.5 23648.8 20534 23635.2 20531.9 23621.9V23621.9Z" fill="white"/>
<path d="M25278.8 23055.5C25275.9 23042.8 25270 23030.9 25261.5 23020.9C25253 23011 25242.2 23003.2 25230 22998.4C25217.9 22993.5 25204.7 22991.7 25191.7 22993.1C25178.7 22994.5 25166.2 22999 25155.3 23006.3L25150.8 23009.5C25140.8 23018.4 25133.2 23029.8 25128.9 23042.5C25124.6 23055.2 25123.7 23068.8 25126.2 23082C25128.8 23095.2 25134.7 23107.5 25143.4 23117.7C25152.2 23127.9 25163.4 23135.6 25176 23140.2C25188.7 23144.7 25202.3 23145.9 25215.5 23143.6C25228.7 23141.3 25241.1 23135.6 25251.5 23127.1C25261.9 23118.6 25269.8 23107.5 25274.6 23094.9C25279.4 23082.4 25280.9 23068.8 25278.8 23055.5V23055.5Z" fill="white"/>
<path d="M22341.9 25869.6C22338.7 25856.9 22332.6 25845.1 22324.1 25835.3C22315.5 25825.4 22304.7 25817.8 22292.5 25812.9C22280.3 25808.1 22267.2 25806.3 22254.2 25807.5C22241.2 25808.8 22228.7 25813.2 22217.7 25820.3L22213.2 25824.2C22203.2 25833.1 22195.6 25844.5 22191.4 25857.3C22187.1 25870 22186.2 25883.7 22188.8 25896.9C22191.4 25910.1 22197.3 25922.4 22206.1 25932.5C22214.9 25942.7 22226.2 25950.5 22238.9 25955C22251.5 25959.4 22265.2 25960.6 22278.4 25958.2C22291.6 25955.8 22304 25950.1 22314.3 25941.5C22324.7 25932.8 22332.6 25921.7 22337.3 25909.1C22342 25896.5 22343.4 25882.9 22341.2 25869.6H22341.9Z" fill="white"/>
<path d="M23594.3 24302.9C23591.3 24290.2 23585.3 24278.4 23576.8 24268.6C23568.3 24258.7 23557.5 24251 23545.4 24246.2C23533.3 24241.4 23520.2 24239.5 23507.2 24240.8C23494.2 24242.1 23481.7 24246.5 23470.8 24253.6L23466.3 24257.5C23456.3 24266.4 23448.8 24277.8 23444.5 24290.6C23440.2 24303.3 23439.3 24317 23441.9 24330.2C23444.5 24343.3 23450.5 24355.6 23459.2 24365.8C23468 24376 23479.3 24383.7 23492 24388.2C23504.6 24392.7 23518.3 24393.8 23531.5 24391.5C23544.7 24389.1 23557.1 24383.3 23567.5 24374.7C23577.8 24366.1 23585.7 24355 23590.4 24342.4C23595.1 24329.8 23596.5 24316.2 23594.3 24302.9V24302.9Z" fill="white"/>
<path d="M24338.7 25577.1C24335.8 25564.4 24329.9 25552.6 24321.6 25542.5C24313.2 25532.5 24302.6 25524.7 24290.6 25519.6C24278.5 25514.5 24265.5 25512.4 24252.5 25513.4C24239.5 25514.4 24226.9 25518.5 24215.8 25525.3L24211.9 25529.1C24201.9 25538.1 24194.4 25549.5 24190.1 25562.3C24185.8 25575 24184.9 25588.6 24187.5 25601.8C24190.1 25615 24196.1 25627.3 24204.8 25637.5C24213.6 25647.7 24224.9 25655.4 24237.6 25659.9C24250.3 25664.4 24263.9 25665.5 24277.1 25663.2C24290.4 25660.8 24302.7 25655 24313.1 25646.4C24323.4 25637.8 24331.3 25626.7 24336 25614.1C24340.7 25601.5 24342.1 25587.9 24339.9 25574.6L24338.7 25577.1Z" fill="white"/>
<path d="M22268.3 18904.5C22265.2 18891.8 22259.1 18880 22250.5 18870.2C22241.9 18860.3 22231.1 18852.6 22218.9 18847.8C22206.7 18843 22193.6 18841.1 22180.6 18842.4C22167.6 18843.7 22155.1 18848.1 22144.1 18855.2L22139.6 18859.1C22129.6 18868 22122 18879.4 22117.8 18892.2C22113.5 18904.9 22112.6 18918.6 22115.2 18931.8C22117.8 18945 22123.7 18957.2 22132.5 18967.4C22141.3 18977.6 22152.6 18985.3 22165.3 18989.8C22177.9 18994.3 22191.6 18995.5 22204.8 18993.1C22218 18990.7 22230.4 18984.9 22240.8 18976.3C22251.1 18967.7 22259 18956.6 22263.7 18944C22268.4 18931.4 22269.8 18917.8 22267.6 18904.5H22268.3Z" fill="white"/>
<path d="M23953.4 22157.6C23950.3 22144.9 23944.2 22133.1 23935.6 22123.3C23927 22113.4 23916.2 22105.8 23904 22100.9C23891.9 22096.1 23878.7 22094.3 23865.7 22095.6C23852.7 22096.8 23840.2 22101.2 23829.2 22108.3L23824.7 22111.5C23814.7 22120.5 23807.2 22131.8 23802.9 22144.6C23798.5 22157.3 23797.6 22170.9 23800.2 22184.1C23802.7 22197.3 23808.6 22209.6 23817.4 22219.8C23826.1 22230 23837.3 22237.7 23850 22242.3C23862.6 22246.8 23876.2 22248 23889.4 22245.7C23902.7 22243.4 23915.1 22237.7 23925.4 22229.2C23935.8 22220.6 23943.8 22209.6 23948.6 22197C23953.3 22184.5 23954.8 22170.9 23952.7 22157.6H23953.4Z" fill="white"/>
<path d="M23406.8 23389.6C23403.7 23376.9 23397.6 23365.1 23389 23355.3C23380.4 23345.4 23369.6 23337.8 23357.5 23332.9C23345.3 23328.1 23332.2 23326.3 23319.2 23327.6C23306.1 23328.8 23293.6 23333.2 23282.7 23340.3L23278.2 23343.5C23268.1 23352.5 23260.6 23363.8 23256.3 23376.6C23252 23389.3 23251.1 23402.9 23253.6 23416.1C23256.1 23429.3 23262.1 23441.6 23270.8 23451.8C23279.5 23462 23290.8 23469.7 23303.4 23474.3C23316 23478.8 23329.6 23480 23342.9 23477.7C23356.1 23475.4 23368.5 23469.7 23378.9 23461.2C23389.2 23452.6 23397.2 23441.6 23402 23429C23406.8 23416.5 23408.2 23402.9 23406.2 23389.6H23406.8Z" fill="white"/>
<path d="M25203.3 24379.1C25200.2 24366.4 25194.1 24354.6 25185.5 24344.7C25176.9 24334.9 25166.1 24327.2 25153.9 24322.4C25141.8 24317.5 25128.7 24315.7 25115.6 24317C25102.6 24318.3 25090.1 24322.7 25079.1 24329.8L25074.7 24333.6C25064.6 24342.6 25057.1 24354 25052.8 24366.7C25048.5 24379.5 25047.6 24393.1 25050.2 24406.3C25052.8 24419.5 25058.8 24431.8 25067.6 24442C25076.3 24452.2 25087.6 24459.9 25100.3 24464.4C25113 24468.9 25126.6 24470 25139.8 24467.6C25153.1 24465.3 25165.5 24459.5 25175.8 24450.9C25186.1 24442.3 25194 24431.1 25198.7 24418.5C25203.5 24405.9 25204.8 24392.3 25202.7 24379.1H25203.3Z" fill="white"/>
<path d="M20287.5 25808.2C20284.5 25795.4 20278.5 25783.5 20269.9 25773.6C20261.3 25763.6 20250.5 25755.9 20238.3 25751C20226.1 25746.2 20212.9 25744.4 20199.8 25745.8C20186.8 25747.1 20174.2 25751.6 20163.3 25758.9L20158.8 25762.1C20148.8 25771 20141.2 25782.4 20136.9 25795.1C20132.6 25807.8 20131.7 25821.5 20134.2 25834.6C20136.8 25847.8 20142.7 25860.1 20151.4 25870.3C20160.2 25880.5 20171.4 25888.3 20184 25892.8C20196.7 25897.4 20210.3 25898.6 20223.5 25896.3C20236.7 25894 20249.1 25888.3 20259.5 25879.7C20269.9 25871.2 20277.8 25860.1 20282.6 25847.6C20287.4 25835 20288.9 25821.5 20286.8 25808.2H20287.5Z" fill="white"/>
<path d="M16191.5 25433.8C16188.4 25421.1 16182.3 25409.3 16173.7 25399.4C16165.1 25389.6 16154.3 25381.9 16142.1 25377.1C16129.9 25372.3 16116.8 25370.4 16103.8 25371.7C16090.8 25373 16078.3 25377.4 16067.3 25384.5L16062.8 25388.3C16052.5 25397.3 16044.7 25408.8 16040.2 25421.7C16035.7 25434.6 16034.7 25448.4 16037.2 25461.8C16039.7 25475.2 16045.7 25487.8 16054.6 25498.1C16063.5 25508.5 16074.9 25516.4 16087.8 25521C16100.7 25525.5 16114.5 25526.6 16127.9 25524.2C16141.4 25521.7 16153.9 25515.8 16164.4 25507C16174.8 25498.2 16182.7 25486.8 16187.4 25473.9C16192 25461.1 16193.2 25447.2 16190.8 25433.8H16191.5Z" fill="white"/>
<path d="M19799.8 24761.1C19796.7 24748.4 19790.6 24736.7 19782 24726.8C19773.4 24716.9 19762.6 24709.3 19750.4 24704.4C19738.3 24699.6 19725.1 24697.8 19712.1 24699.1C19699.1 24700.4 19686.6 24704.7 19675.6 24711.9L19671.1 24715.7C19660.8 24724.6 19653 24736.1 19648.5 24749C19644 24761.9 19643 24775.8 19645.5 24789.2C19648 24802.6 19654 24815.1 19662.9 24825.5C19671.8 24835.9 19683.3 24843.7 19696.1 24848.3C19709 24852.9 19722.8 24854 19736.3 24851.5C19749.7 24849.1 19762.3 24843.2 19772.7 24834.3C19783.1 24825.5 19791 24814.1 19795.7 24801.3C19800.3 24788.4 19801.5 24774.6 19799.1 24761.1H19799.8Z" fill="white"/>
<path d="M16343.8 24029.6C16340.8 24016.8 16334.8 24005 16326.2 23995C16317.6 23985.1 16306.8 23977.3 16294.6 23972.5C16282.4 23967.6 16269.2 23965.8 16256.1 23967.2C16243.1 23968.6 16230.5 23973.1 16219.6 23980.3L16215.8 23983.5C16205.7 23992.5 16198.2 24003.8 16193.9 24016.6C16189.6 24029.3 16188.7 24042.9 16191.2 24056.1C16193.7 24069.3 16199.7 24081.6 16208.4 24091.8C16217.1 24102 16228.4 24109.7 16241 24114.3C16253.6 24118.8 16267.2 24120 16280.5 24117.7C16293.7 24115.4 16306.1 24109.7 16316.5 24101.2C16326.8 24092.6 16334.8 24081.6 16339.6 24069C16344.4 24056.5 16345.8 24042.9 16343.8 24029.6V24029.6Z" fill="white"/>
<path d="M22116.6 21706.4C22113.5 21693.7 22107.4 21681.9 22098.8 21672.1C22090.2 21662.2 22079.4 21654.6 22067.2 21649.7C22055.1 21644.9 22041.9 21643.1 22028.9 21644.4C22015.9 21645.6 22003.4 21650 21992.4 21657.1L21987.9 21660.3C21977.9 21669.3 21970.4 21680.6 21966.1 21693.4C21961.7 21706.1 21960.8 21719.7 21963.4 21732.9C21965.9 21746.1 21971.8 21758.4 21980.6 21768.6C21989.3 21778.8 22000.5 21786.5 22013.2 21791.1C22025.8 21795.6 22039.4 21796.8 22052.6 21794.5C22065.9 21792.2 22078.3 21786.5 22088.6 21778C22099 21769.4 22107 21758.4 22111.7 21745.8C22116.5 21733.3 22118 21719.7 22115.9 21706.4H22116.6Z" fill="white"/>
<path d="M20908.3 18180.7C20905.2 18168 20899 18156.2 20890.5 18146.3C20881.9 18136.5 20871.1 18128.8 20858.9 18124C20846.7 18119.1 20833.6 18117.3 20820.6 18118.6C20807.6 18119.9 20795.1 18124.3 20784.1 18131.4H20779.6C20769.6 18140.3 20762 18151.7 20757.7 18164.4C20753.4 18177.1 20752.5 18190.7 20755 18203.9C20757.6 18217.1 20763.5 18229.4 20772.2 18239.6C20781 18249.8 20792.2 18257.6 20804.8 18262.1C20817.5 18266.7 20831.1 18267.9 20844.3 18265.6C20857.5 18263.3 20869.9 18257.6 20880.3 18249C20890.7 18240.5 20898.6 18229.4 20903.4 18216.9C20908.2 18204.3 20909.7 18190.7 20907.6 18177.5L20908.3 18180.7Z" fill="white"/>
<path d="M20606.2 21237.3C20603.1 21224.6 20597 21212.8 20588.4 21203C20579.8 21193.1 20569 21185.4 20556.8 21180.6C20544.7 21175.8 20531.5 21173.9 20518.5 21175.2C20505.5 21176.5 20493 21180.9 20482 21188L20478.2 21191.9C20468.1 21200.8 20460.6 21212.2 20456.3 21225C20452 21237.7 20451.1 21251.4 20453.7 21264.6C20456.3 21277.8 20462.3 21290 20471.1 21300.2C20479.9 21310.4 20491.1 21318.1 20503.8 21322.6C20516.5 21327.1 20530.1 21328.3 20543.4 21325.9C20556.6 21323.5 20569 21317.7 20579.3 21309.1C20589.6 21300.5 20597.5 21289.4 20602.3 21276.8C20607 21264.2 20608.3 21250.6 20606.2 21237.3V21237.3Z" fill="white"/>
<path d="M20114.7 20240.8C20111.6 20228.1 20105.4 20216.3 20096.9 20206.5C20088.3 20196.6 20077.5 20189 20065.3 20184.1C20053.1 20179.3 20040 20177.5 20027 20178.8C20014 20180 20001.5 20184.4 19990.5 20191.5H19986.7C19976.6 20200.5 19969.1 20211.8 19964.8 20224.6C19960.5 20237.3 19959.5 20250.9 19962.1 20264.1C19964.6 20277.3 19970.6 20289.6 19979.3 20299.8C19988 20310 19999.3 20317.7 20011.9 20322.3C20024.5 20326.8 20038.1 20328 20051.4 20325.7C20064.6 20323.4 20077 20317.7 20087.4 20309.2C20097.7 20300.6 20105.7 20289.6 20110.5 20277C20115.3 20264.5 20116.7 20250.9 20114.7 20237.6V20240.8Z" fill="white"/>
<path d="M22288.7 23375.5C22285.6 23362.8 22279.5 23351.1 22270.9 23341.2C22262.4 23331.3 22251.5 23323.7 22239.4 23318.9C22227.2 23314 22214.1 23312.2 22201.1 23313.5C22188.1 23314.8 22175.5 23319.2 22164.6 23326.3L22160.1 23330.1C22149.8 23339 22142 23350.5 22137.5 23363.4C22133 23376.3 22131.9 23390.2 22134.5 23403.6C22137 23417 22143 23429.5 22151.9 23439.9C22160.8 23450.3 22172.2 23458.1 22185.1 23462.7C22198 23467.3 22211.8 23468.4 22225.2 23465.9C22238.7 23463.5 22251.2 23457.6 22261.6 23448.7C22272.1 23439.9 22280 23428.5 22284.6 23415.7C22289.3 23402.8 22290.5 23389 22288.1 23375.5H22288.7Z" fill="white"/>
<path d="M20755.9 22760.5C20753.2 22747.6 20747.4 22735.5 20738.9 22725.3C20730.4 22715.1 20719.6 22707.1 20707.4 22702.1C20695.1 22697.1 20681.9 22695.1 20668.7 22696.3C20655.5 22697.6 20642.8 22702 20631.8 22709.3L20627.3 22713.1C20617.3 22722.1 20609.7 22733.5 20605.4 22746.3C20601.2 22759 20600.3 22772.6 20602.9 22785.8C20605.4 22799 20611.4 22811.3 20620.2 22821.5C20629 22831.7 20640.3 22839.4 20652.9 22843.9C20665.6 22848.4 20679.2 22849.5 20692.5 22847.2C20705.7 22844.8 20718.1 22839 20728.4 22830.4C20738.8 22821.8 20746.7 22810.7 20751.4 22798.1C20756.1 22785.5 20757.4 22771.9 20755.3 22758.6L20755.9 22760.5Z" fill="white"/>
<path d="M21411.9 19384.5C21408.9 19371.8 21402.9 19360 21394.4 19350.2C21385.9 19340.3 21375.1 19332.6 21363 19327.8C21350.9 19323 21337.8 19321.1 21324.8 19322.4C21311.8 19323.7 21299.3 19328.1 21288.4 19335.2L21283.9 19338.4C21273.9 19347.4 21266.4 19358.7 21262.1 19371.4C21257.7 19384.2 21256.8 19397.8 21259.4 19411C21261.9 19424.2 21267.8 19436.5 21276.6 19446.7C21285.3 19456.9 21296.5 19464.6 21309.2 19469.2C21321.8 19473.7 21335.4 19474.9 21348.6 19472.6C21361.9 19470.3 21374.3 19464.6 21384.6 19456.1C21395 19447.5 21403 19436.4 21407.7 19423.9C21412.5 19411.4 21414 19397.8 21411.9 19384.5V19384.5Z" fill="white"/>
<path d="M19079.1 21774.9C19076 21762.2 19069.9 21750.4 19061.3 21740.6C19052.8 21730.7 19041.9 21723 19029.8 21718.2C19017.6 21713.4 19004.5 21711.5 18991.5 21712.8C18978.5 21714.1 18965.9 21718.5 18955 21725.6L18951.1 21729.5C18941.1 21738.4 18933.6 21749.8 18929.3 21762.6C18925 21775.3 18924.1 21789 18926.7 21802.2C18929.3 21815.4 18935.3 21827.6 18944 21837.8C18952.8 21848 18964.1 21855.7 18976.8 21860.2C18989.5 21864.7 19003.1 21865.9 19016.3 21863.5C19029.5 21861.1 19041.9 21855.3 19052.3 21846.7C19062.6 21838.1 19070.5 21827 19075.2 21814.4C19079.9 21801.8 19081.3 21788.2 19079.1 21774.9Z" fill="white"/>
<path d="M22679.8 20677.9C22676.7 20665.2 22670.6 20653.5 22662 20643.6C22653.4 20633.7 22642.6 20626.1 22630.4 20621.3C22618.3 20616.4 22605.1 20614.6 22592.1 20615.9C22579.1 20617.2 22566.6 20621.5 22555.6 20628.7L22551.1 20631.9C22541.1 20640.8 22533.6 20652.2 22529.3 20664.9C22524.9 20677.6 22524 20691.2 22526.6 20704.4C22529.1 20717.6 22535 20729.9 22543.8 20740.1C22552.5 20750.3 22563.7 20758 22576.4 20762.6C22589 20767.1 22602.6 20768.3 22615.8 20766C22629.1 20763.7 22641.5 20758 22651.8 20749.5C22662.2 20741 22670.2 20729.9 22675 20717.3C22679.7 20704.8 22681.2 20691.2 22679.1 20677.9H22679.8Z" fill="white"/>
<path d="M26019.9 17813.3C26016.8 17800.6 26010.7 17788.8 26002.1 17779C25993.6 17769.1 25982.7 17761.4 25970.6 17756.6C25958.4 17751.8 25945.3 17749.9 25932.3 17751.2C25919.3 17752.5 25906.7 17756.9 25895.8 17764L25891.3 17767.9C25881.3 17776.8 25873.7 17788.2 25869.4 17801C25865.2 17813.7 25864.3 17827.4 25866.9 17840.6C25869.4 17853.8 25875.4 17866 25884.2 17876.2C25893 17886.4 25904.3 17894.1 25916.9 17898.6C25929.6 17903.1 25943.2 17904.3 25956.5 17901.9C25969.7 17899.5 25982.1 17893.7 25992.4 17885.1C26002.8 17876.5 26010.7 17865.4 26015.4 17852.8C26020.1 17840.2 26021.4 17826.6 26019.3 17813.3H26019.9Z" fill="white"/>
<path d="M24663.8 15644.3C24660.7 15631.6 24654.6 15619.9 24646 15610C24637.4 15600.1 24626.6 15592.5 24614.4 15587.7C24602.3 15582.8 24589.1 15581 24576.1 15582.3C24563.1 15583.6 24550.6 15588 24539.6 15595.1L24535.1 15598.9C24525.1 15607.9 24517.6 15619.3 24513.3 15632C24509 15644.8 24508.1 15658.4 24510.7 15671.6C24513.3 15684.8 24519.3 15697.1 24528 15707.3C24536.8 15717.5 24548.1 15725.2 24560.8 15729.7C24573.5 15734.2 24587.1 15735.3 24600.3 15732.9C24613.5 15730.6 24625.9 15724.8 24636.3 15716.2C24646.6 15707.6 24654.5 15696.4 24659.2 15683.8C24663.9 15671.2 24665.3 15657.6 24663.1 15644.3H24663.8Z" fill="white"/>
<path d="M22035.9 15916.3C22032.8 15903.6 22026.7 15891.9 22018.1 15882C22009.6 15872.1 21998.7 15864.5 21986.6 15859.7C21974.4 15854.8 21961.3 15853 21948.3 15854.3C21935.3 15855.6 21922.7 15860 21911.8 15867.1L21907.3 15870.3C21897.3 15879.2 21889.7 15890.6 21885.4 15903.3C21881.1 15916 21880.2 15929.6 21882.7 15942.8C21885.3 15956 21891.2 15968.3 21899.9 15978.5C21908.7 15988.7 21919.9 15996.4 21932.5 16001C21945.2 16005.5 21958.8 16006.7 21972 16004.4C21985.2 16002.1 21997.6 15996.4 22008 15987.9C22018.4 15979.4 22026.3 15968.3 22031.1 15955.7C22035.9 15943.2 22037.3 15929.6 22035.3 15916.3H22035.9Z" fill="white"/>
<path d="M19355 8130.75C18851.3 8450.75 18651 9123.39 18745.7 9520.83C18794.3 9721.15 18885.2 9922.75 18845.5 10124.3C18811.6 10299.1 18685.5 10439.2 18589.5 10590.3C18431.4 10844.5 18358.7 11142.7 18382.2 11441.2C18405.6 11739.7 18524 12022.9 18720 12249.3C18915.9 12475.8 19179.2 12633.5 19471.2 12699.6C19763.3 12765.7 20068.8 12736.5 20343.1 12616.5" fill="#263238"/>
<path d="M19056.7 10754.1C17830.5 8057.15 20747.6 6702.27 22338.7 7151.55C23834.3 7573.95 24472.4 8318.27 24718.8 9318.59C24965.2 10318.9 24953.1 11403.7 24560.7 12356.7C24368.7 12826.4 24019.3 13303.9 23514.3 13362.7" fill="#263238"/>
<path d="M20493.5 17340.3C20472.4 16051.4 20457.1 14281.8 20457.1 14288.8C20457.1 14295.9 19351.8 14105.1 19119.5 12661.3C19005.5 11942.6 19042 10764.3 19102.2 9801.15C19157.2 8933.95 19731.3 7870.27 20595.3 7961.79L23292.9 8643.39C23419.5 8656.69 23536.6 8717.1 23620.7 8812.66C23704.9 8908.21 23750.1 9031.92 23747.3 9159.23L23571.9 14738.1" fill="#FFBE9D"/>
<path d="M19584.7 10682.4C19583.7 10730.4 19601.4 10776.9 19634.2 10811.9C19667 10847 19712.2 10867.8 19760.1 10869.9C19783.5 10872.1 19807.2 10869.6 19829.6 10862.5C19852 10855.4 19872.8 10843.9 19890.7 10828.6C19908.6 10813.3 19923.3 10794.6 19933.8 10773.6C19944.4 10752.5 19950.6 10729.6 19952.1 10706.1C19953 10658.1 19935.2 10611.7 19902.5 10576.6C19869.8 10541.4 19824.7 10520.4 19776.7 10517.9C19753.3 10515.8 19729.6 10518.5 19707.2 10525.6C19684.7 10532.8 19664 10544.4 19646.1 10559.7C19628.2 10575.1 19613.5 10593.8 19603 10614.9C19592.5 10636 19586.3 10658.9 19584.7 10682.4V10682.4Z" fill="#263238"/>
<path d="M21499.6 10682.4C21498.7 10730.3 21516.6 10776.6 21549.3 10811.5C21582.1 10846.4 21627.2 10867.1 21675 10869.3C21698.4 10871.5 21722 10869 21744.5 10861.9C21766.9 10854.8 21787.7 10843.2 21805.6 10828C21823.5 10812.7 21838.1 10794 21848.7 10772.9C21859.2 10751.9 21865.4 10729 21867 10705.5C21868 10657.5 21850.3 10611 21817.5 10576C21784.7 10540.9 21739.5 10520.1 21691.6 10517.9C21668.1 10515.8 21644.5 10518.3 21622 10525.5C21599.5 10532.6 21578.7 10544.2 21560.8 10559.5C21542.9 10574.9 21528.2 10593.7 21517.7 10614.8C21507.2 10635.9 21501.1 10658.9 21499.6 10682.4V10682.4Z" fill="#263238"/>
<path d="M19385.1 10345.8C19407.5 10370.7 19551.5 10271.5 19750.5 10281.8C19949.5 10292 20092.3 10393.1 20115.3 10369.5C20126.2 10359.2 20103.8 10315.1 20041.7 10266.4C19957.6 10203.6 19856.1 10168.5 19751.1 10165.9C19647.4 10162.3 19545.2 10191.7 19459.3 10249.8C19396.6 10293.3 19374.2 10334.3 19385.1 10345.8Z" fill="#263238"/>
<path d="M21278.2 10393.1C21301.2 10417.5 21441.4 10312.5 21640.4 10312.5C21839.5 10312.5 21986.7 10411.1 22007.8 10386.7C22018.7 10375.9 21995 10332.3 21931 10286.3C21844.5 10226.5 21741.6 10195.2 21636.6 10196.7C21532.9 10196.7 21432 10229.9 21348.6 10291.4C21287.1 10338.7 21266.7 10382.3 21278.2 10393.1Z" fill="#263238"/>
<path d="M20594.7 11929.1C20594.7 11917.6 20471.8 11896.5 20270.8 11870.3C20219.6 11865.1 20171.6 11854.9 20163.3 11820.3C20158.7 11767.7 20170.6 11714.9 20197.2 11669.3C20244.6 11546.4 20295.1 11417.1 20347.6 11281.5C20556.9 10729.8 20707.9 10275.4 20685.5 10267.1C20663.1 10258.7 20475.6 10699.7 20267 11252L20122.3 11642.4C20090.3 11703.8 20081 11774.5 20096.1 11842.1C20103.5 11860 20114.9 11876 20129.5 11888.9C20144 11901.7 20161.2 11911.1 20179.9 11916.3C20208.1 11924.3 20237.1 11928.4 20266.3 11928.5C20468.6 11939.4 20594 11940 20594.7 11929.1Z" fill="#263238"/>
<path d="M20457.1 14288.8C21137.5 14299.2 21807.4 14120.7 22392.4 13773C22392.4 13773 21903.5 14777.8 20457.1 14642.7V14288.8Z" fill="#EB996E"/>
<path d="M21228.9 10109.6C21248.1 10164 21447.8 10137.8 21681.4 10166.6C21915 10195.4 22104.4 10258.1 22135.8 10209.5C22149.9 10186.4 22116.6 10135.2 22040.4 10081.5C21938.5 10017.2 21823.3 9976.92 21703.6 9963.72C21583.8 9950.53 21462.7 9964.75 21349.2 10005.3C21263.5 10041.1 21219.9 10084 21228.9 10109.6Z" fill="#263238"/>
<path d="M19431.1 9845.31C19466.3 9890.75 19603.9 9845.31 19769.1 9841.47C19934.2 9837.63 20074.3 9872.19 20106.3 9824.83C20120.4 9801.79 20098.7 9756.35 20037.2 9713.47C19955.6 9660.79 19859.7 9634.84 19762.7 9639.23C19665.6 9641.12 19571.6 9672.86 19493.2 9730.11C19435 9775.55 19415.8 9822.27 19431.1 9845.31Z" fill="#263238"/>
<path d="M23499.6 11061.3C23520.7 11051.1 24273.4 10718.3 24282.3 11583.5C24291.3 12448.8 23420.3 12279.2 23418.3 12254.3C23416.4 12229.3 23499.6 11061.3 23499.6 11061.3Z" fill="#FFBE9D"/>
<path d="M23679.5 11922.7C23683.3 11922.7 23694.8 11933 23720.4 11944.5C23756.6 11958.9 23796.9 11958.9 23833.1 11944.5C23923.9 11909.9 23999.5 11764 24002 11607.9C24003.9 11533.8 23988.8 11460.2 23957.9 11392.8C23949.6 11365.8 23934.8 11341.3 23914.8 11321.3C23894.9 11301.3 23870.3 11286.5 23843.3 11278.3C23826 11273.8 23807.6 11275.6 23791.4 11283.3C23775.3 11291 23762.4 11304.2 23755 11320.5C23743.5 11344.8 23749.2 11362.1 23744.7 11363.4C23740.3 11364.7 23725.5 11349.3 23732.6 11313.5C23737.1 11292.1 23748.8 11272.8 23765.9 11259.1C23777.5 11249.9 23790.9 11243.2 23805.2 11239.3C23819.4 11235.3 23834.4 11234.2 23849.1 11236C23884.6 11242.7 23917.9 11258.4 23945.7 11281.6C23973.5 11304.8 23994.8 11334.7 24007.8 11368.5C24045.5 11443 24064.4 11525.6 24062.8 11609.1C24059 11783.2 23971.3 11947.7 23846.5 11984.8C23823.3 11991.8 23798.9 11993.5 23775 11989.9C23751.1 11986.2 23728.3 11977.3 23708.3 11963.7C23681.4 11943.9 23676.9 11924 23679.5 11922.7Z" fill="#EB996E"/>
<path d="M20307.3 7533.63C19826 7782.59 19627.6 8766.91 19826.7 9271.23C20025.7 9775.55 20562.7 10021.3 21091.9 10137.1C21621.2 10253 22140.3 10265.1 22662.5 10121.8C22698.3 10472.5 22908.9 10832.8 23249.4 10925.6C23700.6 11047.9 24155 10635.1 24255.5 10178.7C24355.9 9722.43 24204.9 9252.67 24056.4 8809.15" fill="#263238"/>
<path d="M24124.9 10672.8C24124.9 10672.8 24103.1 10698.4 24057.7 10736.8C23994.2 10790.6 23927.7 10840.8 23858.7 10887.2C23755.4 10958.5 23641.9 11013.5 23522 11050.4C23372.3 11097.6 23211.3 11095.2 23063.1 11043.4C22917.2 10984.6 22795 10879 22715.6 10743.2C22651.3 10634.8 22608.9 10514.7 22590.8 10389.9C22578.2 10307 22573.7 10222.9 22577.4 10139.1C22576 10108.4 22579.7 10077.7 22588.3 10048.2C22597.9 10048.2 22588.3 10179.4 22625.4 10383.5C22647.3 10502.2 22690.7 10615.8 22753.4 10718.9C22829.4 10844 22943.6 10941.4 23079.1 10996.7C23217.8 11044.6 23368 11047.7 23508.6 11005.6C23624.8 10972 23735.8 10922.2 23838.2 10857.8C24016.1 10746.4 24119.8 10665.8 24124.9 10672.8Z" fill="#263238"/>
<path d="M20653.5 12484.7C20679 12559.7 20715.2 12630.6 20761.1 12695.2C20784.1 12727.6 20813.7 12754.7 20848.1 12774.6C20882.4 12794.6 20920.6 12807 20960.1 12811.1C21002.3 12810.8 21043.8 12800.1 21080.9 12779.8C21118 12759.6 21149.5 12730.6 21172.6 12695.2C21217.2 12622.8 21237.8 12538.1 21231.5 12453.3C21228.3 12377.1 21193.1 12286.3 21117.5 12277.3C21085.8 12276.2 21054.3 12283.2 21026 12297.8L20627.9 12459.1" fill="#EB996E"/>
<path d="M20812.3 12811.7C20812.3 12799.5 20901.9 12834.7 21024.7 12785.5C21094.4 12758.6 21151.6 12706.8 21185.4 12640.2C21204.4 12599.6 21214.8 12555.4 21215.6 12510.5C21216.5 12465.6 21208 12421.1 21190.5 12379.7C21181.3 12358.6 21169.7 12338.6 21155.9 12320.2C21139.9 12303.5 21142.5 12304.2 21125.9 12306.7C21109.2 12309.3 21083 12323.4 21061.9 12331.7L20997.9 12358.6C20912.7 12393.1 20835.3 12422.6 20770.7 12447.5C20642.7 12496.2 20557.5 12521.8 20553.7 12511.5C20549.9 12501.3 20625.4 12460.3 20750.8 12400.2C20814.8 12370.1 20888.4 12336.2 20972.3 12297.1L21036.3 12268.3C21059.9 12258.7 21077.2 12248.5 21109.2 12238.3C21128.3 12231.9 21149 12231.9 21168.1 12238.3C21185.6 12245.7 21200.8 12257.6 21212.3 12272.8C21255 12328.3 21280.8 12395 21286.6 12464.8C21292.4 12534.6 21277.9 12604.6 21244.9 12666.4C21223.7 12705.7 21194.8 12740.3 21160.1 12768.3C21125.4 12796.3 21085.5 12817.2 21042.7 12829.6C20987 12847.9 20927.4 12850.3 20870.5 12836.7C20829.5 12829.6 20811 12816.2 20812.3 12811.7Z" fill="#263238"/>
<path d="M24471.8 10468C24383.5 10461.6 23668.6 10554.4 23724.9 11882.4C23777.4 13123.4 24647.8 12850.1 24925.5 12382.9C25186.7 11940.7 25339 10528.8 24471.8 10468Z" fill="#00AEBF"/>
<path d="M24911.5 10624.8C24909.5 10613.4 24908.4 10601.9 24908.3 10590.3C24908.3 10564 24908.3 10530.7 24904.4 10488.5C24904.4 10397 24898 10269 24893.5 10110.3C24887.1 9784.51 24878.2 9330.75 24867.3 8807.87L24883.3 8823.23H24515.3L24531.9 8806.59C24531.9 8905.15 24537.1 9009.47 24540.3 9115.71C24552.4 9613.63 24563.9 10075.7 24573.5 10466.7V10478.3H24562.7C24411.6 10513.1 24277.3 10599.6 24183.1 10722.7C24111.8 10818.3 24060.2 10927.1 24031.5 11042.7C24012.3 11117.3 23999.2 11193.3 23992.4 11269.9C23992.4 11296.2 23989.2 11316.7 23988.6 11330.1C23987.9 11343.5 23988.6 11351.2 23988.6 11351.2C23987.7 11344.2 23987.7 11337.1 23988.6 11330.1C23988.6 11316.7 23988.6 11296.2 23988.6 11269.3C23991.7 11191.6 24002.4 11114.5 24020.6 11038.9C24047.3 10919.8 24098 10807.4 24169.7 10708.7C24266.3 10580.4 24404.6 10489.9 24560.7 10452.7L24549.9 10466.7C24539 10078.3 24525.5 9614.27 24511.5 9115.71C24508.3 9010.11 24505.7 8905.79 24503.1 8806.59V8789.31H24904.4V8805.31C24910.2 9328.83 24915.3 9781.95 24919.1 10108.3C24919.1 10267.1 24919.1 10395.1 24919.1 10486.6C24919.1 10528.8 24919.1 10562.1 24919.1 10587.7C24918.3 10600.4 24915.7 10612.9 24911.5 10624.8V10624.8Z" fill="#00AEBF"/>
<path d="M24471.8 8807.23C24471.8 8807.23 24098 7932.99 23207.8 7500.99C22867.3 7331.41 22509.6 7198.81 22140.9 7105.47C22140.9 7105.47 22660.6 6982.59 23500.9 7356.35C23884.9 7526.59 24268.9 7747.39 24524.9 8079.55C24686.2 8290.11 24888.4 8701.63 24887.8 8807.23H24471.8Z" fill="#00AEBF"/>
<path d="M22167.8 19397.3C22167.8 19397.3 22172.9 19390.9 22183.8 19380C22194.7 19369.1 22211.3 19352.5 22231.8 19330.1C22293.2 19265.1 22350.9 19196.8 22404.6 19125.3C22490 19010.9 22568 18891.2 22638.2 18766.9C22721.4 18621.6 22808.4 18450.1 22902.5 18258.7C23091.3 17874.7 23309.5 17412.7 23536.1 16881.5C23648.7 16615.9 23763.9 16333.6 23879.1 16036L23964.9 15810.7C23991.9 15731.9 24026.4 15655.8 24067.9 15583.5C24112.2 15508.6 24176.5 15447.5 24253.5 15406.9C24292.7 15385.3 24336.8 15374.1 24381.5 15374.3C24406 15376 24429.4 15384.4 24449.4 15398.6C24468.3 15413.9 24483 15433.7 24492.3 15456.2V15460.7V15465.8C24486.8 15496.3 24475 15525.3 24457.7 15550.9C24438.4 15577.6 24409.9 15596.3 24377.7 15603.4C24316.2 15611.9 24253.6 15600.5 24199.1 15570.7C24141.9 15544.1 24095.3 15499 24066.7 15442.8C24038 15386.5 24029 15322.3 24041.1 15260.3C24054.1 15196.7 24091.5 15140.6 24145.4 15104.2C24198.5 15067.1 24262.5 15048.9 24327.1 15052.3C24360.6 15052.6 24393.5 15061.2 24422.8 15077.4C24452.1 15093.6 24476.8 15116.9 24494.8 15145.1C24503.9 15161.3 24508.1 15179.8 24506.9 15198.2C24505.8 15216.7 24499.4 15234.5 24488.4 15249.5C24467.3 15276.2 24439.2 15296.6 24407.1 15308.3C24353.5 15328.7 24294.7 15331.3 24239.4 15315.6C24184.2 15299.9 24135.5 15266.9 24100.6 15221.3C24066.6 15174.9 24051.7 15117.1 24059 15060C24064.6 15004.4 24086.9 14951.7 24123 14909C24159.7 14865.8 24210.9 14837.6 24267 14829.6C24295.3 14825.9 24324.1 14828.9 24351.1 14838.2C24378.1 14847.5 24402.5 14863 24422.5 14883.4C24443 14905.4 24454 14934.6 24453.2 14964.7C24452.9 14979.7 24449.4 14994.4 24443 15008C24436.6 15021.5 24427.4 15033.6 24416.1 15043.4C24395.2 15062.2 24370.2 15075.8 24343.1 15083.1C24315.9 15090.5 24287.5 15091.3 24259.9 15085.6C24233.3 15078.7 24208.4 15066.2 24186.9 15049C24165.4 15031.8 24147.8 15010.2 24135.1 14985.8C24110.3 14939.9 24094.5 14889.7 24088.4 14837.9C24070.4 14737.4 24082.2 14633.7 24122.3 14539.7C24144.8 14491.8 24183.6 14453.4 24231.8 14431.5C24281 14413.3 24335.5 14415.1 24383.5 14436.7C24408.6 14445.7 24430.7 14461.6 24447.3 14482.5C24463.9 14503.4 24474.4 14528.5 24477.5 14555.1C24478.8 14582.2 24471.7 14609 24457.1 14631.9C24442.6 14654.8 24421.3 14672.7 24396.3 14683.1C24373.5 14694.7 24348.3 14700.8 24322.7 14700.8C24297.1 14700.8 24271.8 14694.7 24249.1 14683.1C24205.7 14658 24173.2 14617.9 24157.5 14570.4C24143.1 14525.4 24140.2 14477.4 24149.2 14430.9C24154.2 14385.6 24164.1 14341 24178.7 14297.8C24193.1 14253.4 24220 14214.1 24256.1 14184.5C24291.6 14156 24332.9 14135.7 24377.1 14125C24400.1 14118.4 24424.4 14118.4 24447.5 14125C24469.5 14132.6 24489.5 14145.3 24505.7 14162.1C24522 14178.1 24534.8 14197.3 24543.5 14218.4C24552.7 14241.2 24552.7 14266.7 24543.5 14289.5C24533.1 14310.5 24516.6 14327.9 24496.2 14339.4C24475.7 14350.8 24452.2 14355.7 24428.9 14353.5C24385.6 14352.8 24343.5 14338.8 24308.6 14313.1C24242.3 14264.3 24196.6 14192.4 24180.6 14111.5C24163.8 14031.8 24176.3 13948.6 24215.8 13877.3C24233.1 13843.1 24257.8 13813.1 24288.1 13789.6C24318 13767 24352.9 13751.8 24389.9 13745.5C24426.8 13738 24465.2 13743.4 24498.7 13760.8C24515.2 13769.8 24529.2 13782.7 24539.5 13798.5C24549.8 13814.3 24556 13832.3 24557.5 13851.1C24557.3 13886.4 24545.4 13920.6 24523.6 13948.4C24501.9 13976.2 24471.5 13996 24437.2 14004.7C24405.1 14011.5 24371.7 14009.1 24340.9 13997.8C24310.1 13986.5 24283.2 13966.7 24263.1 13940.7C24224.7 13894.4 24202.2 13836.9 24199.1 13776.8C24204.7 13672.2 24226.3 13569 24263.1 13470.9C24289.4 13378.7 24313.1 13294.3 24334.8 13218.7C24377.7 13068.3 24411 12951.2 24434.7 12870.6C24445.5 12831.5 24454.5 12801.5 24460.9 12780.3C24467.3 12759.2 24471.1 12749.6 24471.1 12749.6C24471.1 12749.6 24471.1 12760.5 24464.1 12781C24457.1 12801.5 24450.7 12833.5 24441.1 12872.5C24419.3 12953.8 24387.3 13071.5 24347 13221.9L24278.5 13474.7C24256.7 13567.5 24214.5 13666.7 24219 13775.5C24223.6 13831.8 24246 13885.2 24283 13927.9C24300.7 13950.8 24324.4 13968.4 24351.6 13978.6C24378.7 13988.7 24408.1 13991.1 24436.6 13985.5C24465.3 13978.1 24490.9 13961.6 24509.6 13938.6C24528.2 13915.5 24539 13887.1 24540.3 13857.5C24538.9 13842.4 24533.9 13828 24525.7 13815.4C24517.4 13802.7 24506.1 13792.4 24492.9 13785.1C24464 13770.8 24431.1 13766.5 24399.5 13773C24365.9 13778.7 24334.3 13792.6 24307.3 13813.3C24280.5 13835.1 24258.6 13862.4 24243.3 13893.3C24211.6 13959 24203.2 14033.5 24219.6 14104.5C24235 14178.8 24277.4 14244.7 24338.7 14289.5C24369.3 14311.5 24405.9 14323.8 24443.6 14324.7C24461.3 14326.8 24479.3 14323.5 24495.1 14315.1C24510.9 14306.8 24523.7 14293.8 24531.9 14277.9C24535.9 14260.2 24534.8 14241.7 24528.8 14224.5C24522.8 14207.3 24512.1 14192.1 24498 14180.7C24484.8 14167.3 24468.9 14157.1 24451.3 14150.6C24433 14145.8 24413.9 14145.8 24395.6 14150.6C24355.3 14159.3 24317.9 14178.2 24286.9 14205.4C24255.8 14232.6 24232.3 14267.3 24218.3 14306.1C24204.4 14347.6 24195.1 14390.5 24190.8 14434.1C24182.2 14476.7 24184.8 14520.8 24198.5 14562.1C24211.2 14602.4 24238.6 14636.4 24275.3 14657.5C24293.9 14666.8 24314.4 14671.6 24335.1 14671.6C24355.9 14671.6 24376.4 14666.8 24395 14657.5C24414.1 14650 24430.5 14636.9 24441.9 14619.8C24453.4 14602.8 24459.3 14582.6 24459 14562.1C24456.1 14541.4 24447.6 14522 24434.4 14505.8C24421.2 14489.7 24403.8 14477.5 24384.1 14470.6C24343.5 14452.9 24297.8 14451.3 24256.1 14466.1C24215.2 14485.2 24182.4 14518 24163.3 14558.9C24126.6 14647.3 24116.1 14744.4 24133.2 14838.6C24138.9 14886.3 24153.4 14932.6 24176.1 14974.9C24186.5 14995.3 24201.1 15013.2 24218.8 15027.6C24236.5 15042.1 24257.1 15052.7 24279.1 15058.7C24301.6 15063.6 24325 15063 24347.2 15057.1C24369.4 15051.2 24390 15040.2 24407.1 15024.8C24415.2 15017.7 24421.7 15009.1 24426.2 14999.4C24430.8 14989.7 24433.4 14979.2 24433.8 14968.5C24434.3 14957.8 24432.5 14947.1 24428.7 14937.1C24424.9 14927.1 24419.1 14918 24411.6 14910.3C24395 14893.8 24374.8 14881.4 24352.6 14873.9C24330.4 14866.5 24306.8 14864.3 24283.6 14867.4C24235.5 14874.4 24191.7 14899.1 24160.7 14936.5C24127.2 14972.6 24106.6 15018.8 24102.5 15067.9C24098.3 15117 24110.7 15166 24137.7 15207.2C24168.4 15246.6 24211 15275.2 24259.1 15288.8C24307.2 15302.4 24358.4 15300.3 24405.2 15282.7C24430.3 15272.4 24452.3 15255.9 24469.2 15234.7C24476.4 15224.8 24480.6 15213 24481.3 15200.8C24482 15188.5 24479.1 15176.3 24473.1 15165.6C24457.7 15142.6 24436.8 15123.7 24412.4 15110.6C24387.9 15097.5 24360.6 15090.7 24332.9 15090.7C24276.3 15086.3 24220 15102.1 24174 15135.3C24127.9 15168.4 24095.1 15216.8 24081.4 15271.9C24070.9 15325.3 24078.5 15380.7 24102.8 15429.4C24127.1 15478.2 24166.8 15517.5 24215.8 15541.3C24263.3 15568.3 24318.4 15579.1 24372.6 15572C24397 15564.4 24418.6 15549.7 24434.5 15529.8C24450.5 15509.8 24460.1 15485.5 24462.2 15460V15469.6C24456 15451.9 24444.7 15436.5 24429.8 15425.1C24414.9 15413.7 24397 15406.9 24378.3 15405.6C24338.7 15405.4 24299.6 15415.6 24265.1 15435.1C24192.9 15472.8 24132.8 15530 24091.6 15600.2C24051 15670.4 24017.4 15744.3 23991.1 15821L23904.1 16046.9C23788.9 16343.9 23672.4 16622.9 23558.5 16891.7C23330.7 17422.9 23110.5 17886.3 22918.5 18267.7C22823.1 18459.7 22734.8 18629.3 22649.7 18774.6C22578 18898.5 22498.2 19017.6 22411 19131.1C22339.7 19228.3 22258.1 19317.5 22167.8 19397.3V19397.3Z" fill="white"/>
<path d="M25245.5 9845.31C25237.7 9763.96 25218.1 9684.19 25187.3 9608.51C25094.3 9404.95 24931.2 9241.62 24727.8 9148.35C24588.1 9085.25 24437.9 9048.58 24284.9 9040.19C24108.8 9031.13 23932.2 9044.46 23759.5 9079.87C23392.7 9147.71 23007.5 9305.79 22576.1 9371.07C22365.8 9398.92 22152.8 9398.92 21942.5 9371.07C21747.3 9341.67 21556.1 9289.69 21372.9 9216.19C21061.8 9090.9 20778.9 8904.63 20540.9 8668.35C20380.7 8510.35 20245.2 8329.12 20139 8130.75C20121 8100.52 20105.2 8069.08 20091.6 8036.67L20060.9 7965.63C20053.2 7948.35 20047.5 7933.63 20042.3 7922.11C20039.9 7917.27 20038.2 7912.09 20037.2 7906.75C20040.6 7911.07 20043.4 7915.8 20045.5 7920.83L20066.7 7963.07L20100.6 8032.19C20115.2 8064.18 20131.8 8095.18 20150.5 8124.99C20260.3 8319.14 20397.3 8496.52 20557.5 8651.71C20935.4 9021.77 21421 9262.24 21944.4 9338.43C22151.7 9365.96 22361.8 9365.96 22569.1 9338.43C22994.7 9274.43 23380.6 9116.99 23751.8 9050.43C23927 9015.42 24105.9 9002.94 24284.3 9013.31C24440.5 9022.78 24593.6 9061.65 24735.5 9127.87C24942.3 9224.79 25106.5 9394.2 25196.9 9604.03C25219.4 9661.14 25234.2 9720.96 25241.1 9781.95V9829.31C25243.3 9834.38 25244.9 9839.78 25245.5 9845.31Z" fill="#455A64"/>
<path d="M24279.8 8466.11C24264.6 8469.82 24249.2 8472.38 24233.7 8473.79C24203.6 8478.27 24158.8 8484.67 24101.9 8494.91C23987.9 8513.47 23824.7 8549.95 23623.8 8599.87C23388.7 8663.24 23149.4 8709.65 22907.6 8738.75C22610.6 8769.17 22310.9 8762.51 22015.5 8718.91C21719.9 8676.04 21430.6 8598.27 21153.4 8487.23C20926.1 8397.27 20708.5 8284.7 20503.8 8151.23C20418 8092.99 20341.2 8039.23 20275.9 7988.03C20210.7 7936.83 20155.6 7892.67 20113.4 7852.99L20016.1 7761.47C19994.3 7740.35 19982.8 7728.83 19984.1 7727.55C19997.1 7736 20009.3 7745.64 20020.6 7756.35L20121.7 7842.75C20165.2 7881.15 20223.5 7922.11 20287.5 7970.75C20351.5 8019.39 20430.8 8072.51 20516.6 8128.83C20972.8 8416.64 21484.3 8605.66 22018 8683.71C22311.1 8726.63 22608.3 8733.93 22903.1 8705.47C23143.5 8679.34 23381.7 8636.57 23616.1 8577.47C23817.7 8530.75 23982.8 8497.47 24098 8482.11C24155.6 8474.43 24200.4 8469.95 24231.1 8468.03C24247.2 8465.71 24263.5 8465.07 24279.8 8466.11V8466.11Z" fill="#455A64"/>
<path d="M24374.5 12754.1C24365.9 12752.4 24357.6 12749.9 24349.5 12746.4C24327.2 12737 24305.8 12725.7 24285.5 12712.5C24208.2 12661.7 24143.9 12593.2 24098 12512.8C24032.4 12392.6 23993.1 12259.7 23982.8 12123.1C23968.1 11957.8 23968.1 11791.6 23982.8 11626.4C23996.7 11461.3 24024.1 11297.5 24064.7 11136.8C24093.8 11004.1 24141.9 10876.3 24207.5 10757.3C24254.7 10676.6 24320.5 10608.4 24399.5 10558.3C24419.6 10545 24441 10533.9 24463.5 10525C24479.5 10519.2 24488.4 10516.7 24488.4 10517.9C24488.4 10519.2 24455.8 10532.7 24403.9 10569.1C24331.6 10622.1 24271.7 10690.3 24228.6 10768.8C24167 10887.3 24122.2 11013.7 24095.5 11144.5C24056.6 11303.9 24030.1 11466.1 24016.1 11629.6C24002.7 11792.8 24002.7 11956.7 24016.1 12119.9C24024.3 12253.7 24060 12384.5 24121.1 12503.9C24163.3 12583 24222.8 12651.7 24295.1 12704.8C24343.8 12738.7 24376.4 12750.9 24374.5 12754.1Z" fill="#007681"/>
<path d="M21496 12556.4L20839.1 12685.3C20740.2 12704.7 20675.8 12800.5 20695.2 12899.4L20700 12923.9C20719.4 13022.7 20815.3 13087.1 20914.1 13067.7L21571 12938.9C21669.9 12919.5 21734.3 12823.6 21714.9 12724.7L21710.1 12700.3C21690.7 12601.4 21594.8 12537 21496 12556.4Z" fill="#00AEBF"/>
<path d="M21621.9 12653.6L24658.7 11701.3C24694.7 11690 24733.8 11693.5 24767.3 11710.8C24800.9 11728.2 24826.2 11758.1 24837.9 11794.1V11794.1C24843.7 11812.6 24845.8 11832.1 24843.9 11851.4C24842.1 11870.7 24836.4 11889.4 24827.1 11906.4C24817.8 11923.5 24805.2 11938.4 24790 11950.5C24774.8 11962.5 24757.4 11971.4 24738.7 11976.5L21633.4 12814.9L21621.9 12653.6Z" fill="#00AEBF"/>
<path d="M23866.3 12235.1C23898.9 12220.7 23932.5 12209 23966.8 12199.9L24244.6 12115.4C24361.1 12079.5 24504.4 12041.1 24655.5 11991.9C24692.8 11978 24726.6 11956.1 24754.7 11927.9C24782.3 11899.7 24797.7 11861.7 24797.5 11822.3C24797.4 11802.9 24791.1 11784 24779.6 11768.4C24768.1 11752.8 24752 11741.2 24733.5 11735.2C24691.3 11724.5 24647 11725.8 24605.5 11739.1L23694.8 12032.2L23417.7 12117.9C23386 12131 23353.2 12141.5 23319.8 12149.3C23351.8 12133.7 23384.9 12120.7 23419 12110.3L23692.9 12014.3C23925.2 11935.5 24243.9 11826.1 24602.3 11711.5C24650 11697.8 24700.6 11697.8 24748.3 11711.5C24772.6 11720.3 24793.7 11736.3 24808.8 11757.3C24823.8 11778.3 24832.2 11803.4 24832.7 11829.3C24832.8 11877.2 24813.9 11923.2 24780.3 11957.3C24746.6 11986.9 24706.8 12008.7 24663.8 12021.3C24507 12070.6 24366.8 12105.1 24248.4 12138.4L23970.7 12213.3C23936.6 12223.8 23901.7 12231.1 23866.3 12235.1Z" fill="#007681"/>
<path d="M18903.8 9909.31C19007.5 10274.1 18636.9 10587.1 18506.3 10943.5C18378.3 11287.9 18487.1 11673.8 18642.7 12006.6C18798.2 12339.4 19003 12654.3 19082.3 13012C19278.8 13895.2 18480.1 14846.9 18634.3 15738.4C18689.4 16063.5 18820.6 16402.7 18933.9 16711.9C19043.3 17003.4 19043.3 17324.7 18933.9 17616.2C18761.1 18128.2 18467.9 18368.2 18261.9 18866.1C18156.3 19122.1 18164.6 19406.3 18169.7 19681.5C18174.8 19956.7 18173.5 20244.7 18050.7 20491.7C17927.8 20738.7 17647.5 20929.5 17381.2 20857.8C17524.9 21018.8 17717.6 21127.9 17929.6 21168.3C18141.5 21208.6 18360.9 21178 18553.7 21081.1C18903.8 20894.3 19099.6 20515.4 19267.3 20155.7C20078.8 18414.3 20508.3 18267.1 20483.3 16345.8C20483.3 16222.3 20459 14297.8 20459 14297.8C20290.8 14252.6 20129.5 14184.8 19979.6 14096.2C19073.4 13470.3 19040.1 12355.4 19047.1 11490.7" fill="#263238"/>
<path d="M20715 15738.4V16463.5C20715 16463.5 20157.5 19308.3 19989.9 20888.5C19822.2 22468.7 19794.7 22885.9 19794.7 22885.9C19794.7 22885.9 20194.7 23509.9 21031.1 22450.1C21867.6 21390.3 22016.7 21223.2 22351.5 21204.7C22351.5 21204.7 21942.5 16761.1 21961.1 16596.7C21981.8 16480 22033 16370.9 22109.5 16280.5L20715 15738.4Z" fill="#FFBE9D"/>
<path d="M21811.9 14102.6C21811.9 14102.6 20901.2 15310.9 20827 15477.3C20752.7 15643.7 20715 15737.1 20715 15737.1L22109.5 16276.7L23467 14789.3L23968.7 13469L23819.6 11907.4C23819.6 11907.4 23522.7 11888.8 23467 12149.3C23432.8 12314.2 23420.1 12482.9 23429.2 12651.1L23013.2 12316.3L22341.9 12112.2C22341.9 12112.2 22183.8 12372 22444.3 12502.6C22704.7 12633.1 22779 12630.6 22779 12630.6L23013.2 13039.5L22910.8 13497.8L22435.9 13049.8C22389.9 13006.4 22330.2 12980.4 22267.1 12976.4C22203.9 12972.4 22141.4 12990.7 22090.3 13028L21783.1 13250.7L21495.8 13122.7L20938.3 13621.3L20715 13825.5C20715 13825.5 20864.1 14104.5 21163 13974.6L21460.6 13846.6L21811.9 14102.6Z" fill="#FFBE9D"/>
<path d="M20715 15983.5C20714.1 15970.5 20714.1 15957.5 20715 15944.5C20715 15918.9 20718.2 15880.5 20723.9 15831.2C20731.4 15769.7 20743.2 15708.7 20759.1 15648.8C20779 15566.1 20811.9 15487.1 20856.4 15414.6C21065.1 15094.6 21393.4 14646.6 21803 14095.5V14112.2L21449.7 13852.3H21461.9L21278.2 13933.6C21215.1 13964.4 21149.6 13989.8 21082.3 14009.8C21009.1 14027.3 20932.1 14018.5 20864.7 13984.8C20796.2 13949.6 20739.4 13895.4 20700.9 13828.7L20695.8 13819.7L20704.1 13812C20943.5 13586.7 21210.3 13359.5 21484.3 13116.3L21492.6 13109.3L21501.5 13114.4L21749.2 13261H21733.2L22022.5 13069C22073.1 13036.3 22118.5 13005 22172.9 12971.7C22202.5 12957 22235.6 12950.7 22268.6 12953.5C22301.5 12956.3 22333.1 12968.2 22359.8 12987.7L22923.6 13464.5L22897.4 13473.5C22928.1 13335.9 22961.4 13186.7 22994.7 13036.3V13047.9L22760.4 12638.9L22775.1 12647.2C22735.3 12641.8 22696.4 12631.3 22659.3 12615.9C22622.8 12602.4 22586.3 12587.1 22549.9 12571.1C22513.4 12555.1 22477.5 12537.1 22441.7 12519.9C22423.1 12510.9 22405.2 12498.7 22387.3 12488.5C22369.8 12476 22353.5 12461.9 22338.7 12446.3C22317.2 12423.5 22300.4 12396.6 22289.4 12367.3C22278.4 12337.9 22273.4 12306.7 22274.7 12275.4C22276.7 12214.2 22293.6 12154.5 22323.9 12101.3L22330.3 12090.4L22343.1 12094.3L23013.9 12299.1H23017.1L23433.1 12633.8L23406.8 12647.9C23397.8 12482.1 23409.7 12315.9 23442 12153.1C23448.8 12111.2 23464.4 12071.1 23487.8 12035.6C23511.2 12000.1 23541.8 11969.9 23577.7 11947.1C23649.2 11904.8 23731.5 11884.2 23814.5 11887.5H23831.8V11901.6C23884.3 12456.5 23933.5 12980 23979 13463.2V13466.4C23793.4 13952.8 23624.4 14394.4 23474.7 14785.5L22423.8 15945.1L22138.3 16254.3C22105.7 16288.2 22080.7 16315.1 22063.5 16333.6L22037.2 16359.9C22037.2 16359.9 22044.9 16349.6 22060.9 16331.1L22133.2 16249.8L22414.8 15936.8L23460.6 14784.8V14788L23959.8 13467.1V13473.5C23913.1 12990.3 23863.1 12467.4 23809.4 11911.9L23824.1 11926.6C23747.8 11923.5 23672.2 11942.6 23606.5 11981.6C23574.2 12002.1 23546.8 12029.3 23525.9 12061.3C23505 12093.3 23491.3 12129.4 23485.5 12167.2C23453.4 12327 23441.8 12490.3 23451 12653V12690.1L23422.2 12667.1L22999.8 12330.4H23005.5L22334.8 12126.3L22353.4 12118.6C22326.4 12166.8 22311.2 12220.8 22309.2 12276C22308.1 12303.1 22312.3 12330.1 22321.8 12355.5C22331.2 12380.9 22345.7 12404.1 22364.3 12423.9C22377.5 12437.4 22391.8 12449.8 22407.1 12461C22424.4 12470.6 22439.8 12480.8 22457.7 12489.8C22493.5 12507.1 22528.7 12525 22564.6 12540.3C22632 12573.2 22703.1 12598 22776.4 12613.9H22786.7L22790.5 12620.3L23024.7 13029.3L23027.9 13035.1V13041.5C22994 13191.9 22963.9 13341 22930 13478.6L22924.3 13505.5L22903.1 13487.5L22341.2 13012C22319.4 12995.8 22293.5 12985.9 22266.4 12983.4C22239.3 12980.9 22212 12985.9 22187.6 12997.9C22140.3 13026.1 22089.1 13061.9 22040.4 13093.3L21750.5 13285.3L21742.8 13290.4L21734.5 13285.9L21486.8 13138.7H21504.7C21230.8 13380.7 20963.3 13607.9 20723.3 13831.9L20726.5 13815.2C20761.9 13877 20814.3 13927.2 20877.5 13959.9C20939.2 13991.2 21010 13999.4 21077.2 13982.9C21143.1 13963.6 21207.3 13939 21269.2 13909.3L21452.9 13828.7H21459.9L21465.7 13832.5L21818.3 14093.6L21827.9 14100.7L21820.9 14110.3C21409.4 14661.3 21077.9 15105.5 20866.7 15422.3C20822.2 15493.4 20788.7 15570.9 20767.5 15652C20751.1 15711.3 20738.5 15771.6 20729.7 15832.5C20722.7 15881.8 20719.5 15920.2 20717.5 15945.1C20715.6 15970.1 20715 15983.5 20715 15983.5Z" fill="#EB996E"/>
<path d="M22440.4 14382.3C22434 14382.3 22458.3 14283.7 22468.6 14126.3C22475.3 14034.5 22460.4 13942.4 22425.1 13857.5C22371.7 13758 22295.6 13672.5 22203 13607.9C22037.6 13481.1 21865.2 13363.8 21686.5 13256.5L21523.3 13160.5C21502.3 13150.2 21482.6 13137.5 21464.4 13122.7C21486.9 13128.2 21508.5 13137.1 21528.4 13149C21569.4 13167.5 21627.6 13197 21698 13236C21881.2 13338.2 22056.6 13453.7 22222.8 13581.6C22319.6 13649.2 22398.3 13739.5 22451.9 13844.7C22488.7 13934.1 22502.3 14031.4 22491.6 14127.5C22486.2 14191 22475.7 14253.9 22460.3 14315.7C22456.8 14338.7 22450.1 14361.1 22440.4 14382.3V14382.3Z" fill="#EB996E"/>
<path d="M23416.4 13802.4C23420.5 13746.1 23428.4 13690 23440.1 13634.7C23460 13501.3 23469.7 13366.5 23468.9 13231.5C23467.2 13096.2 23455.2 12961.2 23433.1 12827.7C23420.7 12772.9 23412 12717.3 23406.8 12661.3C23430.3 12712.9 23446.9 12767.3 23456.1 12823.2C23515.2 13091.8 23517.6 13369.7 23463.1 13639.2C23454.9 13695.5 23439.2 13750.3 23416.4 13802.4V13802.4Z" fill="#EB996E"/>
<path d="M17201.4 9060.03L16535.8 7884.35C16948 7214.84 17094.8 6415.36 16947.5 5643.06C16800.2 4870.76 16369.4 4181.48 15739.6 3710.72C15109.9 3239.95 14326.9 3021.74 13544.5 3098.98C12762.1 3176.21 12036.8 3543.3 11511.3 4128.1C10985.8 4712.89 10698 5473.1 10704.5 6259.3C10711.1 7045.5 11011.4 7800.83 11546.5 8376.83C12081.7 8952.83 12812.9 9307.85 13596.5 9372.09C14380.1 9436.34 15159.4 9205.17 15781.2 8724.03V8724.03L17201.4 9060.03Z" fill="white"/>
<path d="M17201.4 9060.03L15776.7 8733.63H15764.6L15772.3 8723.39L15783.8 8734.91C15584.2 8889.86 15367 9020.68 15136.7 9124.67C14862.6 9247.34 14572.3 9330.1 14274.7 9370.43C14109.7 9393.4 13943.1 9401.75 13776.7 9395.39C13691.6 9390.91 13603.9 9388.35 13516.3 9381.31L13250.7 9340.99C12459.1 9184.29 11757 8731.54 11287.8 8075.07C11025.8 7712.37 10844.7 7297.72 10756.6 6859.07C10665.7 6395.9 10678.3 5918.36 10793.7 5460.67C10912.3 4982.27 11143.4 4539.07 11467.6 4167.87L11595.6 4026.43C11637.9 3979.07 11688.4 3940.03 11733.9 3898.43C11779.2 3853.36 11826.9 3810.64 11876.6 3770.43L12027.6 3657.79C12077.3 3620.95 12129.5 3587.59 12183.8 3557.95L12343.1 3461.31L12510.2 3381.31C12564.5 3352.58 12620.8 3327.56 12678.5 3306.43C13125.7 3129.76 13606.8 3055.62 14086.5 3089.47C14540.3 3121.28 14981.7 3252.36 15379.3 3473.47C16094.1 3871.23 16628.4 4528.67 16871.8 5309.63C16969.5 5641.95 17015.7 5987.3 17008.7 6333.63C17000.4 6633.69 16948.7 6930.95 16855.1 7216.19C16777 7453.53 16671.1 7680.81 16539.6 7893.31V7884.99L17199.5 9064.51C17171.3 9015.23 16957.5 8644.67 16525.5 7892.67V7888.83V7884.99C16654.9 7672.97 16759.1 7446.59 16835.9 7210.43C16927.2 6926.54 16977.4 6631.08 16985.1 6332.99C16990.6 5989.76 16943.8 5647.69 16846.2 5318.59C16603.1 4545.39 16072.6 3895 15363.9 3501.63C14969.9 3284 14533 3155.33 14083.9 3124.67C13608.8 3091.2 13132.2 3164.9 12689.4 3340.35C12632.3 3361.27 12576.7 3386.07 12523 3414.59L12357.9 3494.59L12199.8 3590.59C12145.7 3620.6 12094.2 3654.84 12045.5 3692.99L11895.8 3804.35C11845.2 3840.19 11802.3 3886.91 11755 3927.23C11707.6 3967.55 11660.3 4009.15 11618 4055.23L11490 4194.75C11169.2 4562.4 10940.6 5001.17 10823.1 5474.75C10708.9 5927.8 10696 6400.46 10785.4 6859.07C10872.6 7292.73 11051.6 7702.74 11310.2 8061.63C11776.1 8710.75 12471 9158.84 13254.5 9315.39L13517.5 9355.71C13604.6 9363.39 13691.6 9365.31 13773.5 9370.43C13938.6 9377.1 14103.9 9369.39 14267.6 9347.39C14814.8 9274.93 15333 9058.99 15769.7 8721.47L15819.6 8683.07L15781.2 8733.63L15776.1 8720.19L17201.4 9060.03Z" fill="#263238"/>
<path d="M13173.9 6237.63C13173.9 6288.26 13158.8 6337.75 13130.7 6379.85C13102.6 6421.95 13062.6 6454.76 13015.8 6474.14C12969 6493.52 12917.6 6498.59 12867.9 6488.71C12818.3 6478.83 12772.6 6454.45 12736.8 6418.65C12701 6382.84 12676.7 6337.23 12666.8 6287.57C12656.9 6237.91 12662 6186.44 12681.3 6139.66C12700.7 6092.88 12733.5 6052.9 12775.6 6024.77C12817.7 5996.64 12867.2 5981.63 12917.9 5981.63C12985.8 5981.63 13050.9 6008.6 13098.9 6056.61C13146.9 6104.62 13173.9 6169.73 13173.9 6237.63Z" fill="#263238"/>
<path d="M14195.3 6237.63C14195.3 6288.26 14180.3 6337.75 14152.2 6379.85C14124 6421.95 14084 6454.76 14037.3 6474.14C13990.5 6493.52 13939 6498.59 13889.4 6488.71C13839.7 6478.83 13794.1 6454.45 13758.3 6418.65C13722.5 6382.84 13698.1 6337.23 13688.2 6287.57C13678.3 6237.91 13683.4 6186.44 13702.8 6139.66C13722.2 6092.88 13755 6052.9 13797.1 6024.77C13839.2 5996.64 13888.7 5981.63 13939.3 5981.63C14007.2 5981.63 14072.3 6008.6 14120.3 6056.61C14168.3 6104.62 14195.3 6169.73 14195.3 6237.63Z" fill="#263238"/>
<path d="M15214.8 6109.63C15240.3 6153.46 15252.2 6203.86 15248.9 6254.45C15245.7 6305.03 15227.6 6353.53 15196.8 6393.78C15166 6434.04 15123.9 6464.24 15075.9 6480.57C15027.9 6496.9 14976.2 6498.61 14927.2 6485.49C14878.2 6472.38 14834.3 6445.02 14800.9 6406.89C14767.5 6368.76 14746.2 6321.58 14739.6 6271.31C14733 6221.05 14741.6 6169.97 14764.1 6124.55C14786.6 6079.14 14822.1 6041.42 14866 6016.19C14924.7 5982.5 14994.3 5973.42 15059.7 5990.93C15125.1 6008.44 15180.8 6051.12 15214.8 6109.63Z" fill="#263238"/>
<path d="M29783.8 26302.3C29783.8 26311.9 23277.5 26318.9 15255.8 26318.9C7234.01 26318.9 727.774 26311.9 727.774 26302.3C727.774 26292.7 7232.09 26285.6 15259 26285.6C23285.9 26285.6 29783.8 26293.3 29783.8 26302.3Z" fill="#455A64"/>
<path d="M21563 26318.3C21713.1 26089.7 21915.7 25900.4 22153.8 25765.9C22391.9 25631.4 22658.7 25555.7 22931.9 25545.1C23867 25513.1 24334.2 26318.3 24334.2 26318.3H21563Z" fill="#00AEBF"/>
<path d="M23355 26293.3C23342.6 26247.5 23333.4 26200.9 23327.5 26153.8C23277.2 25931.8 23144.8 25737 22956.9 25608.5C22915.5 25585.3 22875.5 25559.7 22837.2 25531.7C22885.5 25539.1 22931.6 25557 22972.3 25584.2C23074.3 25643.7 23161.7 25725.3 23228.1 25823C23294.5 25920.6 23338.3 26031.9 23356.3 26148.7C23366.3 26196.4 23365.9 26245.8 23355 26293.3Z" fill="#007681"/>
<path d="M20984.4 26284.3V26277.9C20982.9 26183.8 20944.4 26094 20877.2 26028C20810 25962 20719.5 25925.1 20625.4 25925.3H12667.6C12572.4 25925.3 12481.1 25963.1 12413.7 26030.5C12346.4 26097.8 12308.6 26189.1 12308.6 26284.3H20984.4Z" fill="#00AEBF"/>
<path d="M5749.85 12341.3C5749.85 12509 5877.85 22503.2 5877.85 22503.2L13301.9 24289.5H13911.8L13521.4 10337.5H12963.3L5749.85 12341.3Z" fill="#455A64"/>
<path d="M7319.77 22087.9L5018.97 26304.2H7122.01C6745.69 26267.1 10450 26304.2 10450 26304.2L7122.01 25421.6L8163.29 23056.8L8074.33 22087.9H7319.77Z" fill="#455A64"/>
<path d="M7370.97 22866.1L7122.01 15006.9L9382.49 14790.6L9660.89 23181.6L8853.85 23222.6L7370.97 22866.1Z" fill="#455A64"/>
<path d="M9977.05 23492.7C9977.05 23492.7 9977.05 23480.5 9977.05 23456.2C9977.05 23431.9 9977.05 23395.4 9977.05 23348.7C9977.05 23252.7 9977.05 23112.5 9977.05 22931.4C9977.05 22565.9 9973.85 22035.4 9971.93 21367.9C9971.93 20032.2 9968.73 18152.5 9966.17 15972.7L9982.17 15988.7H7310.17L7326.81 15972V16334.3C7326.81 18460.3 7326.81 20438.6 7323.61 22087.2V22090.4C6631.13 23359.5 6057.05 24413 5655.13 25149C5454.17 25516.3 5296.09 25804.3 5187.93 26001.5C5134.17 26098.7 5092.57 26173 5064.41 26224.8C5036.25 26276.7 5020.25 26300.3 5020.25 26300.3C5020.25 26300.3 5033.69 26273.5 5060.57 26222.9C5087.45 26172.3 5128.41 26094.9 5180.25 25997C5287.13 25799.2 5442.65 25509.9 5641.05 25141.3L7298.65 22077V22084C7298.65 20435.4 7298.65 18457.1 7298.65 16331.1V15952.2H9998.17V15968.2C9998.17 18148 9993.69 20027.7 9992.41 21363.4C9992.41 22030.3 9988.57 22561.5 9987.29 22926.9C9987.29 23108 9987.29 23246.9 9987.29 23344.2C9987.29 23390.9 9987.29 23426.7 9987.29 23451.7C9987.29 23476.7 9977.05 23492.7 9977.05 23492.7Z" fill="#1F292D"/>
<path d="M8163.29 23056.8C8171.61 23060 7851.61 23800.5 7448.41 24709.3C7045.21 25618.1 6711.13 26352.8 6702.81 26349C6694.49 26345.1 7014.49 25605.3 7417.69 24695.9C7820.89 23786.4 8154.97 23053 8163.29 23056.8Z" fill="#1F292D"/>
<path d="M13298.7 24292C13298.7 24292 13298.7 24279.9 13298.7 24256.2C13298.7 24232.5 13298.7 24196 13298.7 24150.6C13298.7 24056.5 13295.5 23920.2 13293.5 23744.8C13293.5 23392.8 13282.7 22883.4 13270.5 22253.6C13246.8 20994.1 13189.9 19255.2 13120.1 17334.6C13050.3 15413.9 12997.2 13673.1 12979.3 12413.6C12969.7 11783.9 12965.2 11273.8 12967.1 10921.8C12967.1 10746.4 12967.1 10610.1 12967.1 10516C12967.1 10470.6 12967.1 10436 12967.1 10410.4C12967.1 10384.8 12967.1 10374.6 12967.1 10374.6C12967.1 10374.6 12967.1 10386.7 12967.1 10410.4C12967.1 10434.1 12967.1 10470.6 12967.1 10516C12967.1 10610.1 12967.1 10746.4 12972.3 10921.8C12972.3 11273.8 12982.5 11783.2 12995.3 12413C13022.8 13672.5 13079.8 15413.3 13149.5 17333.3C13219.3 19253.3 13272.4 20993.5 13290.3 22253C13299.9 22882.7 13303.8 23392.8 13302.5 23744.8C13302.5 23920.2 13302.5 24056.5 13302.5 24150.6C13302.5 24196 13302.5 24231.2 13302.5 24256.2C13302.5 24281.1 13298.7 24292 13298.7 24292Z" fill="#1F292D"/>
<path d="M9571.93 15914.4C9581.53 15914.4 9588.57 17586.1 9588.57 19647.5C9588.57 21709 9581.53 23380.7 9571.93 23380.7C9562.33 23380.7 9555.29 21709.6 9555.29 19647.5C9555.29 17585.5 9562.97 15914.4 9571.93 15914.4Z" fill="#1F292D"/>
<path d="M5572.57 25646.3C5560.47 25632.4 5549.75 25617.4 5540.57 25601.5C5529.69 25586.1 5517.53 25567.5 5503.45 25546.4C5486.52 25521.4 5471.13 25495.3 5457.37 25468.3C5363.53 25299 5295.17 25116.8 5254.49 24927.5C5195.46 24646.3 5182.06 24357.4 5214.81 24071.9C5254.86 23722.3 5348.55 23381 5492.57 23060C5568.77 22894.3 5666.23 22739.2 5782.49 22598.6C5808.97 22563.7 5837.39 22530.4 5867.61 22498.7C5897.05 22466.7 5925.21 22434.7 5954.65 22404C6018.65 22345.8 6074.33 22286.3 6137.69 22235.7C6254.45 22136.4 6378.78 22046.3 6509.53 21966.3C6573.53 21931.7 6631.77 21895.2 6691.93 21866.4C6752.09 21837.6 6809.05 21806.9 6866.65 21786.4C7044.53 21710.2 7232.51 21660.2 7424.73 21637.9C7476.69 21630.9 7529.1 21627.6 7581.53 21628.3C7599.85 21626.8 7618.26 21626.8 7636.57 21628.3C7618.58 21631.4 7600.41 21633.4 7582.17 21634.1C7530.07 21636.5 7478.15 21641.8 7426.65 21650.1C7236.64 21677.1 7051.22 21730.1 6875.61 21807.5C6818.65 21828.7 6763.61 21860.7 6703.45 21888.2C6643.29 21915.7 6585.69 21952.2 6523.61 21989.3C6394.85 22069.6 6272.46 22159.7 6157.53 22258.7C6093.53 22308.7 6037.85 22368.2 5977.05 22425.8C5948.25 22455.9 5920.09 22489.8 5891.29 22519.2C5861.85 22550.8 5834.08 22583.9 5808.09 22618.4C5693.68 22757.1 5597.73 22910.1 5522.65 23073.5C5380.02 23391.1 5286.58 23728.6 5245.53 24074.4C5211.56 24356.8 5222.36 24642.8 5277.53 24921.8C5316.21 25109.7 5380.83 25291.2 5469.53 25461.3C5482.26 25488.7 5496.8 25515.2 5513.05 25540.7L5546.97 25597.6C5556.58 25613.3 5565.13 25629.5 5572.57 25646.3V25646.3Z" fill="#1F292D"/>
<path d="M4310.78 9564.81C5554.55 9748.83 6711.93 8889.7 6895.81 7645.91C7079.83 6402.14 6220.7 5244.77 4976.91 5060.89C3733.14 4876.86 2575.77 5736 2391.89 6979.78C2207.86 8223.55 3067 9380.93 4310.78 9564.81Z" fill="#E6FDFF"/>
<path d="M9379.44 10469.7C9819.35 10541.1 10223.7 10240.9 10282.8 9799.16C10341.9 9357.5 10033.1 8941.57 9593.26 8870.3C9153.34 8798.95 8748.98 9099.11 8689.93 9540.85C8630.83 9982.5 8939.58 10398.4 9379.44 10469.7Z" fill="#E6FDFF"/>
</svg>
