<svg width="758" height="449" viewBox="0 0 758 449" fill="none" xmlns="http://www.w3.org/2000/svg">
<g clip-path="url(#clip0_2918_19455)">
<path d="M757.43 -0.399902H5.36011V422.6H757.43V-0.399902Z" fill="#262D50"/>
<path d="M558.631 158.744C469.699 151.262 384.927 187.109 300.245 211.372C271.146 219.714 240.272 226.819 209.994 222.416C161.577 215.376 125.286 180.434 102.517 143.501C79.7482 106.568 66.2264 65.6731 40.2737 30.2899C29.7074 15.8761 16.0461 2.11896 1.52588e-05 -7.99976V449H757.931C775.563 388.04 776.273 323.044 743.839 267.412C709.083 207.83 636.616 165.299 558.631 158.744Z" fill="#242B4C"/>
<path opacity="0.1" d="M561.375 -7.63682C582.225 9.54793 608.865 20.0955 635.025 30.1544C661.184 40.2132 687.937 50.3687 709.36 67.0117C730.784 83.6485 746.325 108.265 742.748 132.846C735.735 180.993 672.474 208.579 653.204 252.686C646.998 266.883 646.506 283.948 656.24 296.803C669.855 314.787 699.748 318.818 722.194 310.706C744.641 302.594 760.794 285.241 773.729 267.3C783.665 253.52 792.279 239.001 799.466 223.94C808.513 204.96 815.972 184.229 833.647 170.752C856.055 153.669 872.346 158.596 887.044 169.815L901.109 -36.4278L540.784 -61.0009L538.845 -32.5739C544.957 -23.3951 552.512 -14.9423 561.375 -7.63682Z" fill="#00AEBF"/>
<g opacity="0.1">
<g opacity="0.7">
<path opacity="0.7" d="M506.4 195.799C507.173 195.799 507.8 195.172 507.8 194.399C507.8 193.626 507.173 192.999 506.4 192.999C505.627 192.999 505 193.626 505 194.399C505 195.172 505.627 195.799 506.4 195.799Z" fill="white"/>
<path opacity="0.7" d="M518.96 195.799C519.733 195.799 520.36 195.172 520.36 194.399C520.36 193.626 519.733 192.999 518.96 192.999C518.187 192.999 517.56 193.626 517.56 194.399C517.56 195.172 518.187 195.799 518.96 195.799Z" fill="white"/>
<path opacity="0.7" d="M531.53 195.799C532.303 195.799 532.93 195.172 532.93 194.399C532.93 193.626 532.303 192.999 531.53 192.999C530.757 192.999 530.13 193.626 530.13 194.399C530.13 195.172 530.757 195.799 531.53 195.799Z" fill="white"/>
<path opacity="0.7" d="M544.09 195.799C544.863 195.799 545.49 195.172 545.49 194.399C545.49 193.626 544.863 192.999 544.09 192.999C543.317 192.999 542.69 193.626 542.69 194.399C542.69 195.172 543.317 195.799 544.09 195.799Z" fill="white"/>
<path opacity="0.7" d="M556.66 195.799C557.433 195.799 558.06 195.172 558.06 194.399C558.06 193.626 557.433 192.999 556.66 192.999C555.887 192.999 555.26 193.626 555.26 194.399C555.26 195.172 555.887 195.799 556.66 195.799Z" fill="white"/>
<path opacity="0.7" d="M570.62 194.399C570.62 195.169 569.99 195.799 569.22 195.799C568.45 195.799 567.82 195.179 567.82 194.399C567.82 193.629 568.45 192.999 569.22 192.999C569.99 192.999 570.62 193.619 570.62 194.399Z" fill="white"/>
<path opacity="0.7" d="M581.78 195.799C582.553 195.799 583.18 195.172 583.18 194.399C583.18 193.626 582.553 192.999 581.78 192.999C581.007 192.999 580.38 193.626 580.38 194.399C580.38 195.172 581.007 195.799 581.78 195.799Z" fill="white"/>
<path opacity="0.7" d="M595.74 194.399C595.74 195.169 595.11 195.799 594.34 195.799C593.57 195.799 592.94 195.179 592.94 194.399C592.94 193.629 593.57 192.999 594.34 192.999C595.12 192.999 595.74 193.619 595.74 194.399Z" fill="white"/>
<path opacity="0.7" d="M606.91 195.799C607.683 195.799 608.31 195.172 608.31 194.399C608.31 193.626 607.683 192.999 606.91 192.999C606.137 192.999 605.51 193.626 605.51 194.399C605.51 195.172 606.137 195.799 606.91 195.799Z" fill="white"/>
<path opacity="0.7" d="M620.87 194.399C620.87 195.169 620.24 195.799 619.47 195.799C618.7 195.799 618.07 195.179 618.07 194.399C618.07 193.629 618.7 192.999 619.47 192.999C620.25 192.999 620.87 193.619 620.87 194.399Z" fill="white"/>
<path opacity="0.7" d="M632.04 195.799C632.813 195.799 633.44 195.172 633.44 194.399C633.44 193.626 632.813 192.999 632.04 192.999C631.267 192.999 630.64 193.626 630.64 194.399C630.64 195.172 631.267 195.799 632.04 195.799Z" fill="white"/>
</g>
<g opacity="0.7">
<path opacity="0.7" d="M506.4 206.959C507.173 206.959 507.8 206.332 507.8 205.559C507.8 204.786 507.173 204.159 506.4 204.159C505.627 204.159 505 204.786 505 205.559C505 206.332 505.627 206.959 506.4 206.959Z" fill="white"/>
<path opacity="0.7" d="M518.96 206.959C519.733 206.959 520.36 206.332 520.36 205.559C520.36 204.786 519.733 204.159 518.96 204.159C518.187 204.159 517.56 204.786 517.56 205.559C517.56 206.332 518.187 206.959 518.96 206.959Z" fill="white"/>
<path opacity="0.7" d="M531.53 206.959C532.303 206.959 532.93 206.332 532.93 205.559C532.93 204.786 532.303 204.159 531.53 204.159C530.757 204.159 530.13 204.786 530.13 205.559C530.13 206.332 530.757 206.959 531.53 206.959Z" fill="white"/>
<path opacity="0.7" d="M544.09 206.959C544.863 206.959 545.49 206.332 545.49 205.559C545.49 204.786 544.863 204.159 544.09 204.159C543.317 204.159 542.69 204.786 542.69 205.559C542.69 206.332 543.317 206.959 544.09 206.959Z" fill="white"/>
<path opacity="0.7" d="M556.66 206.959C557.433 206.959 558.06 206.332 558.06 205.559C558.06 204.786 557.433 204.159 556.66 204.159C555.887 204.159 555.26 204.786 555.26 205.559C555.26 206.332 555.887 206.959 556.66 206.959Z" fill="white"/>
<path opacity="0.7" d="M570.62 205.559C570.62 206.329 569.99 206.959 569.22 206.959C568.45 206.959 567.82 206.339 567.82 205.559C567.82 204.789 568.45 204.159 569.22 204.159C569.99 204.169 570.62 204.789 570.62 205.559Z" fill="white"/>
<path opacity="0.7" d="M581.78 206.959C582.553 206.959 583.18 206.332 583.18 205.559C583.18 204.786 582.553 204.159 581.78 204.159C581.007 204.159 580.38 204.786 580.38 205.559C580.38 206.332 581.007 206.959 581.78 206.959Z" fill="white"/>
<path opacity="0.7" d="M595.74 205.559C595.74 206.329 595.11 206.959 594.34 206.959C593.57 206.959 592.94 206.339 592.94 205.559C592.94 204.789 593.57 204.159 594.34 204.159C595.12 204.169 595.74 204.789 595.74 205.559Z" fill="white"/>
<path opacity="0.7" d="M606.91 206.959C607.683 206.959 608.31 206.332 608.31 205.559C608.31 204.786 607.683 204.159 606.91 204.159C606.137 204.159 605.51 204.786 605.51 205.559C605.51 206.332 606.137 206.959 606.91 206.959Z" fill="white"/>
<path opacity="0.7" d="M620.87 205.559C620.87 206.329 620.24 206.959 619.47 206.959C618.7 206.959 618.07 206.339 618.07 205.559C618.07 204.789 618.7 204.159 619.47 204.159C620.25 204.169 620.87 204.789 620.87 205.559Z" fill="white"/>
<path opacity="0.7" d="M632.04 206.959C632.813 206.959 633.44 206.332 633.44 205.559C633.44 204.786 632.813 204.159 632.04 204.159C631.267 204.159 630.64 204.786 630.64 205.559C630.64 206.332 631.267 206.959 632.04 206.959Z" fill="white"/>
</g>
<g opacity="0.7">
<path opacity="0.7" d="M507.8 216.729C507.8 217.499 507.17 218.129 506.4 218.129C505.63 218.129 505 217.499 505 216.729C505 215.959 505.62 215.329 506.4 215.329C507.17 215.339 507.8 215.959 507.8 216.729Z" fill="white"/>
<path opacity="0.7" d="M520.36 216.729C520.36 217.499 519.74 218.129 518.96 218.129C518.19 218.129 517.56 217.499 517.56 216.729C517.56 215.959 518.19 215.329 518.96 215.329C519.74 215.339 520.36 215.959 520.36 216.729Z" fill="white"/>
<path opacity="0.7" d="M532.92 216.729C532.92 217.499 532.29 218.129 531.52 218.129C530.75 218.129 530.12 217.499 530.12 216.729C530.12 215.959 530.74 215.329 531.52 215.329C532.3 215.339 532.92 215.959 532.92 216.729Z" fill="white"/>
<path opacity="0.7" d="M545.49 216.729C545.49 217.499 544.87 218.129 544.09 218.129C543.32 218.129 542.69 217.499 542.69 216.729C542.69 215.959 543.32 215.329 544.09 215.329C544.86 215.339 545.49 215.959 545.49 216.729Z" fill="white"/>
<path opacity="0.7" d="M558.05 216.729C558.05 217.499 557.42 218.129 556.65 218.129C555.88 218.129 555.25 217.499 555.25 216.729C555.25 215.959 555.87 215.329 556.65 215.329C557.43 215.339 558.05 215.959 558.05 216.729Z" fill="white"/>
<path opacity="0.7" d="M570.62 216.729C570.62 217.499 569.99 218.129 569.22 218.129C568.45 218.129 567.82 217.499 567.82 216.729C567.82 215.959 568.45 215.329 569.22 215.329C569.99 215.339 570.62 215.959 570.62 216.729Z" fill="white"/>
<path opacity="0.7" d="M583.18 216.729C583.18 217.499 582.55 218.129 581.78 218.129C581.01 218.129 580.38 217.499 580.38 216.729C580.38 215.959 581 215.329 581.78 215.329C582.55 215.339 583.18 215.959 583.18 216.729Z" fill="white"/>
<path opacity="0.7" d="M595.74 216.729C595.74 217.499 595.11 218.129 594.34 218.129C593.57 218.129 592.94 217.499 592.94 216.729C592.94 215.959 593.57 215.329 594.34 215.329C595.12 215.339 595.74 215.959 595.74 216.729Z" fill="white"/>
<path opacity="0.7" d="M608.31 216.729C608.31 217.499 607.68 218.129 606.91 218.129C606.14 218.129 605.51 217.499 605.51 216.729C605.51 215.959 606.13 215.329 606.91 215.329C607.68 215.339 608.31 215.959 608.31 216.729Z" fill="white"/>
<path opacity="0.7" d="M620.87 216.729C620.87 217.499 620.24 218.129 619.47 218.129C618.7 218.129 618.07 217.499 618.07 216.729C618.07 215.959 618.7 215.329 619.47 215.329C620.25 215.339 620.87 215.959 620.87 216.729Z" fill="white"/>
<path opacity="0.7" d="M633.44 216.729C633.44 217.499 632.82 218.129 632.04 218.129C631.26 218.129 630.64 217.499 630.64 216.729C630.64 215.959 631.26 215.329 632.04 215.329C632.82 215.329 633.44 215.959 633.44 216.729Z" fill="white"/>
</g>
<g opacity="0.7">
<path opacity="0.7" d="M507.8 227.899C507.8 228.669 507.17 229.299 506.4 229.299C505.63 229.299 505 228.679 505 227.899C505 227.129 505.62 226.499 506.4 226.499C507.17 226.499 507.8 227.129 507.8 227.899Z" fill="white"/>
<path opacity="0.7" d="M520.36 227.899C520.36 228.669 519.74 229.299 518.96 229.299C518.19 229.299 517.56 228.679 517.56 227.899C517.56 227.129 518.19 226.499 518.96 226.499C519.74 226.499 520.36 227.129 520.36 227.899Z" fill="white"/>
<path opacity="0.7" d="M532.92 227.899C532.92 228.669 532.29 229.299 531.52 229.299C530.75 229.299 530.12 228.679 530.12 227.899C530.12 227.129 530.74 226.499 531.52 226.499C532.3 226.499 532.92 227.129 532.92 227.899Z" fill="white"/>
<path opacity="0.7" d="M545.49 227.899C545.49 228.669 544.87 229.299 544.09 229.299C543.32 229.299 542.69 228.679 542.69 227.899C542.69 227.129 543.32 226.499 544.09 226.499C544.86 226.499 545.49 227.129 545.49 227.899Z" fill="white"/>
<path opacity="0.7" d="M558.05 227.899C558.05 228.669 557.42 229.299 556.65 229.299C555.88 229.299 555.25 228.679 555.25 227.899C555.25 227.129 555.87 226.499 556.65 226.499C557.43 226.499 558.05 227.129 558.05 227.899Z" fill="white"/>
<path opacity="0.7" d="M570.62 227.899C570.62 228.669 569.99 229.299 569.22 229.299C568.45 229.299 567.82 228.679 567.82 227.899C567.82 227.129 568.45 226.499 569.22 226.499C569.99 226.499 570.62 227.129 570.62 227.899Z" fill="white"/>
<path opacity="0.7" d="M583.18 227.899C583.18 228.669 582.55 229.299 581.78 229.299C581.01 229.299 580.38 228.679 580.38 227.899C580.38 227.129 581 226.499 581.78 226.499C582.55 226.499 583.18 227.129 583.18 227.899Z" fill="white"/>
<path opacity="0.7" d="M595.74 227.899C595.74 228.669 595.11 229.299 594.34 229.299C593.57 229.299 592.94 228.679 592.94 227.899C592.94 227.129 593.57 226.499 594.34 226.499C595.12 226.499 595.74 227.129 595.74 227.899Z" fill="white"/>
<path opacity="0.7" d="M608.31 227.899C608.31 228.669 607.68 229.299 606.91 229.299C606.14 229.299 605.51 228.679 605.51 227.899C605.51 227.129 606.13 226.499 606.91 226.499C607.68 226.499 608.31 227.129 608.31 227.899Z" fill="white"/>
<path opacity="0.7" d="M620.87 227.899C620.87 228.669 620.24 229.299 619.47 229.299C618.7 229.299 618.07 228.679 618.07 227.899C618.07 227.129 618.7 226.499 619.47 226.499C620.25 226.499 620.87 227.129 620.87 227.899Z" fill="white"/>
<path opacity="0.7" d="M633.44 227.899C633.44 228.669 632.82 229.299 632.04 229.299C631.26 229.299 630.64 228.679 630.64 227.899C630.64 227.129 631.26 226.499 632.04 226.499C632.82 226.499 633.44 227.129 633.44 227.899Z" fill="white"/>
</g>
<g opacity="0.7">
<path opacity="0.7" d="M506.4 240.469C507.173 240.469 507.8 239.842 507.8 239.069C507.8 238.296 507.173 237.669 506.4 237.669C505.627 237.669 505 238.296 505 239.069C505 239.842 505.627 240.469 506.4 240.469Z" fill="white"/>
<path opacity="0.7" d="M518.96 240.469C519.733 240.469 520.36 239.842 520.36 239.069C520.36 238.296 519.733 237.669 518.96 237.669C518.187 237.669 517.56 238.296 517.56 239.069C517.56 239.842 518.187 240.469 518.96 240.469Z" fill="white"/>
<path opacity="0.7" d="M531.53 240.469C532.303 240.469 532.93 239.842 532.93 239.069C532.93 238.296 532.303 237.669 531.53 237.669C530.757 237.669 530.13 238.296 530.13 239.069C530.13 239.842 530.757 240.469 531.53 240.469Z" fill="white"/>
<path opacity="0.7" d="M544.09 240.469C544.863 240.469 545.49 239.842 545.49 239.069C545.49 238.296 544.863 237.669 544.09 237.669C543.317 237.669 542.69 238.296 542.69 239.069C542.69 239.842 543.317 240.469 544.09 240.469Z" fill="white"/>
<path opacity="0.7" d="M556.66 240.469C557.433 240.469 558.06 239.842 558.06 239.069C558.06 238.296 557.433 237.669 556.66 237.669C555.887 237.669 555.26 238.296 555.26 239.069C555.26 239.842 555.887 240.469 556.66 240.469Z" fill="white"/>
<path opacity="0.7" d="M570.62 239.069C570.62 239.839 569.99 240.469 569.22 240.469C568.45 240.469 567.82 239.849 567.82 239.069C567.82 238.289 568.45 237.669 569.22 237.669C569.99 237.669 570.62 238.299 570.62 239.069Z" fill="white"/>
<path opacity="0.7" d="M581.78 240.469C582.553 240.469 583.18 239.842 583.18 239.069C583.18 238.296 582.553 237.669 581.78 237.669C581.007 237.669 580.38 238.296 580.38 239.069C580.38 239.842 581.007 240.469 581.78 240.469Z" fill="white"/>
<path opacity="0.7" d="M595.74 239.069C595.74 239.839 595.11 240.469 594.34 240.469C593.57 240.469 592.94 239.849 592.94 239.069C592.94 238.289 593.57 237.669 594.34 237.669C595.12 237.669 595.74 238.299 595.74 239.069Z" fill="white"/>
<path opacity="0.7" d="M606.91 240.469C607.683 240.469 608.31 239.842 608.31 239.069C608.31 238.296 607.683 237.669 606.91 237.669C606.137 237.669 605.51 238.296 605.51 239.069C605.51 239.842 606.137 240.469 606.91 240.469Z" fill="white"/>
<path opacity="0.7" d="M620.87 239.069C620.87 239.839 620.24 240.469 619.47 240.469C618.7 240.469 618.07 239.849 618.07 239.069C618.07 238.289 618.7 237.669 619.47 237.669C620.25 237.669 620.87 238.299 620.87 239.069Z" fill="white"/>
<path opacity="0.7" d="M632.04 240.469C632.813 240.469 633.44 239.842 633.44 239.069C633.44 238.296 632.813 237.669 632.04 237.669C631.267 237.669 630.64 238.296 630.64 239.069C630.64 239.842 631.267 240.469 632.04 240.469Z" fill="white"/>
</g>
<g opacity="0.7">
<path opacity="0.7" d="M506.4 251.639C507.173 251.639 507.8 251.012 507.8 250.239C507.8 249.466 507.173 248.839 506.4 248.839C505.627 248.839 505 249.466 505 250.239C505 251.012 505.627 251.639 506.4 251.639Z" fill="white"/>
<path opacity="0.7" d="M518.96 251.639C519.733 251.639 520.36 251.012 520.36 250.239C520.36 249.466 519.733 248.839 518.96 248.839C518.187 248.839 517.56 249.466 517.56 250.239C517.56 251.012 518.187 251.639 518.96 251.639Z" fill="white"/>
<path opacity="0.7" d="M531.53 251.639C532.303 251.639 532.93 251.012 532.93 250.239C532.93 249.466 532.303 248.839 531.53 248.839C530.757 248.839 530.13 249.466 530.13 250.239C530.13 251.012 530.757 251.639 531.53 251.639Z" fill="white"/>
<path opacity="0.7" d="M544.09 251.639C544.863 251.639 545.49 251.012 545.49 250.239C545.49 249.466 544.863 248.839 544.09 248.839C543.317 248.839 542.69 249.466 542.69 250.239C542.69 251.012 543.317 251.639 544.09 251.639Z" fill="white"/>
<path opacity="0.7" d="M556.66 251.639C557.433 251.639 558.06 251.012 558.06 250.239C558.06 249.466 557.433 248.839 556.66 248.839C555.887 248.839 555.26 249.466 555.26 250.239C555.26 251.012 555.887 251.639 556.66 251.639Z" fill="white"/>
<path opacity="0.7" d="M570.62 250.239C570.62 251.009 569.99 251.639 569.22 251.639C568.45 251.639 567.82 251.009 567.82 250.239C567.82 249.469 568.45 248.839 569.22 248.839C569.99 248.839 570.62 249.459 570.62 250.239Z" fill="white"/>
<path opacity="0.7" d="M581.78 251.639C582.553 251.639 583.18 251.012 583.18 250.239C583.18 249.466 582.553 248.839 581.78 248.839C581.007 248.839 580.38 249.466 580.38 250.239C580.38 251.012 581.007 251.639 581.78 251.639Z" fill="white"/>
<path opacity="0.7" d="M595.74 250.239C595.74 251.009 595.11 251.639 594.34 251.639C593.57 251.639 592.94 251.009 592.94 250.239C592.94 249.469 593.57 248.839 594.34 248.839C595.12 248.839 595.74 249.459 595.74 250.239Z" fill="white"/>
<path opacity="0.7" d="M606.91 251.639C607.683 251.639 608.31 251.012 608.31 250.239C608.31 249.466 607.683 248.839 606.91 248.839C606.137 248.839 605.51 249.466 605.51 250.239C605.51 251.012 606.137 251.639 606.91 251.639Z" fill="white"/>
<path opacity="0.7" d="M620.87 250.239C620.87 251.009 620.24 251.639 619.47 251.639C618.7 251.639 618.07 251.009 618.07 250.239C618.07 249.469 618.7 248.839 619.47 248.839C620.25 248.839 620.87 249.459 620.87 250.239Z" fill="white"/>
<path opacity="0.7" d="M632.04 251.639C632.813 251.639 633.44 251.012 633.44 250.239C633.44 249.466 632.813 248.839 632.04 248.839C631.267 248.839 630.64 249.466 630.64 250.239C630.64 251.012 631.267 251.639 632.04 251.639Z" fill="white"/>
</g>
<g opacity="0.7">
<path opacity="0.7" d="M506.4 262.799C507.173 262.799 507.8 262.172 507.8 261.399C507.8 260.626 507.173 259.999 506.4 259.999C505.627 259.999 505 260.626 505 261.399C505 262.172 505.627 262.799 506.4 262.799Z" fill="white"/>
<path opacity="0.7" d="M518.96 262.799C519.733 262.799 520.36 262.172 520.36 261.399C520.36 260.626 519.733 259.999 518.96 259.999C518.187 259.999 517.56 260.626 517.56 261.399C517.56 262.172 518.187 262.799 518.96 262.799Z" fill="white"/>
<path opacity="0.7" d="M531.53 262.799C532.303 262.799 532.93 262.172 532.93 261.399C532.93 260.626 532.303 259.999 531.53 259.999C530.757 259.999 530.13 260.626 530.13 261.399C530.13 262.172 530.757 262.799 531.53 262.799Z" fill="white"/>
<path opacity="0.7" d="M544.09 262.799C544.863 262.799 545.49 262.172 545.49 261.399C545.49 260.626 544.863 259.999 544.09 259.999C543.317 259.999 542.69 260.626 542.69 261.399C542.69 262.172 543.317 262.799 544.09 262.799Z" fill="white"/>
<path opacity="0.7" d="M556.66 262.799C557.433 262.799 558.06 262.172 558.06 261.399C558.06 260.626 557.433 259.999 556.66 259.999C555.887 259.999 555.26 260.626 555.26 261.399C555.26 262.172 555.887 262.799 556.66 262.799Z" fill="white"/>
<path opacity="0.7" d="M570.62 261.399C570.62 262.169 569.99 262.799 569.22 262.799C568.45 262.799 567.82 262.179 567.82 261.399C567.82 260.619 568.45 259.999 569.22 259.999C569.99 260.009 570.62 260.629 570.62 261.399Z" fill="white"/>
<path opacity="0.7" d="M581.78 262.799C582.553 262.799 583.18 262.172 583.18 261.399C583.18 260.626 582.553 259.999 581.78 259.999C581.007 259.999 580.38 260.626 580.38 261.399C580.38 262.172 581.007 262.799 581.78 262.799Z" fill="white"/>
<path opacity="0.7" d="M595.74 261.399C595.74 262.169 595.11 262.799 594.34 262.799C593.57 262.799 592.94 262.179 592.94 261.399C592.94 260.619 593.57 259.999 594.34 259.999C595.12 260.009 595.74 260.629 595.74 261.399Z" fill="white"/>
<path opacity="0.7" d="M606.91 262.799C607.683 262.799 608.31 262.172 608.31 261.399C608.31 260.626 607.683 259.999 606.91 259.999C606.137 259.999 605.51 260.626 605.51 261.399C605.51 262.172 606.137 262.799 606.91 262.799Z" fill="white"/>
<path opacity="0.7" d="M620.87 261.399C620.87 262.169 620.24 262.799 619.47 262.799C618.7 262.799 618.07 262.179 618.07 261.399C618.07 260.619 618.7 259.999 619.47 259.999C620.25 260.009 620.87 260.629 620.87 261.399Z" fill="white"/>
<path opacity="0.7" d="M632.04 262.799C632.813 262.799 633.44 262.172 633.44 261.399C633.44 260.626 632.813 259.999 632.04 259.999C631.267 259.999 630.64 260.626 630.64 261.399C630.64 262.172 631.267 262.799 632.04 262.799Z" fill="white"/>
</g>
<g opacity="0.7">
<path opacity="0.7" d="M507.8 272.569C507.8 273.339 507.17 273.969 506.4 273.969C505.63 273.969 505 273.349 505 272.569C505 271.799 505.62 271.169 506.4 271.169C507.17 271.179 507.8 271.799 507.8 272.569Z" fill="white"/>
<path opacity="0.7" d="M520.36 272.569C520.36 273.339 519.74 273.969 518.96 273.969C518.19 273.969 517.56 273.349 517.56 272.569C517.56 271.799 518.19 271.169 518.96 271.169C519.74 271.179 520.36 271.799 520.36 272.569Z" fill="white"/>
<path opacity="0.7" d="M532.92 272.569C532.92 273.339 532.29 273.969 531.52 273.969C530.75 273.969 530.12 273.349 530.12 272.569C530.12 271.799 530.74 271.169 531.52 271.169C532.3 271.179 532.92 271.799 532.92 272.569Z" fill="white"/>
<path opacity="0.7" d="M545.49 272.569C545.49 273.339 544.87 273.969 544.09 273.969C543.32 273.969 542.69 273.349 542.69 272.569C542.69 271.799 543.32 271.169 544.09 271.169C544.86 271.179 545.49 271.799 545.49 272.569Z" fill="white"/>
<path opacity="0.7" d="M558.05 272.569C558.05 273.339 557.42 273.969 556.65 273.969C555.88 273.969 555.25 273.349 555.25 272.569C555.25 271.799 555.87 271.169 556.65 271.169C557.43 271.179 558.05 271.799 558.05 272.569Z" fill="white"/>
<path opacity="0.7" d="M570.62 272.569C570.62 273.339 569.99 273.969 569.22 273.969C568.45 273.969 567.82 273.349 567.82 272.569C567.82 271.799 568.45 271.169 569.22 271.169C569.99 271.179 570.62 271.799 570.62 272.569Z" fill="white"/>
<path opacity="0.7" d="M583.18 272.569C583.18 273.339 582.55 273.969 581.78 273.969C581.01 273.969 580.38 273.349 580.38 272.569C580.38 271.799 581 271.169 581.78 271.169C582.55 271.179 583.18 271.799 583.18 272.569Z" fill="white"/>
<path opacity="0.7" d="M595.74 272.569C595.74 273.339 595.11 273.969 594.34 273.969C593.57 273.969 592.94 273.349 592.94 272.569C592.94 271.799 593.57 271.169 594.34 271.169C595.12 271.179 595.74 271.799 595.74 272.569Z" fill="white"/>
<path opacity="0.7" d="M608.31 272.569C608.31 273.339 607.68 273.969 606.91 273.969C606.14 273.969 605.51 273.349 605.51 272.569C605.51 271.799 606.13 271.169 606.91 271.169C607.68 271.179 608.31 271.799 608.31 272.569Z" fill="white"/>
<path opacity="0.7" d="M620.87 272.569C620.87 273.339 620.24 273.969 619.47 273.969C618.7 273.969 618.07 273.349 618.07 272.569C618.07 271.799 618.7 271.169 619.47 271.169C620.25 271.179 620.87 271.799 620.87 272.569Z" fill="white"/>
<path opacity="0.7" d="M633.44 272.569C633.44 273.339 632.82 273.969 632.04 273.969C631.26 273.969 630.64 273.349 630.64 272.569C630.64 271.799 631.26 271.169 632.04 271.169C632.82 271.169 633.44 271.799 633.44 272.569Z" fill="white"/>
</g>
<g opacity="0.7">
<path opacity="0.7" d="M507.8 283.739C507.8 284.509 507.17 285.139 506.4 285.139C505.63 285.139 505 284.519 505 283.739C505 282.969 505.62 282.339 506.4 282.339C507.17 282.339 507.8 282.969 507.8 283.739Z" fill="white"/>
<path opacity="0.7" d="M520.36 283.739C520.36 284.509 519.74 285.139 518.96 285.139C518.19 285.139 517.56 284.519 517.56 283.739C517.56 282.969 518.19 282.339 518.96 282.339C519.74 282.339 520.36 282.969 520.36 283.739Z" fill="white"/>
<path opacity="0.7" d="M532.92 283.739C532.92 284.509 532.29 285.139 531.52 285.139C530.75 285.139 530.12 284.519 530.12 283.739C530.12 282.969 530.74 282.339 531.52 282.339C532.3 282.339 532.92 282.969 532.92 283.739Z" fill="white"/>
<path opacity="0.7" d="M545.49 283.739C545.49 284.509 544.87 285.139 544.09 285.139C543.32 285.139 542.69 284.519 542.69 283.739C542.69 282.969 543.32 282.339 544.09 282.339C544.86 282.339 545.49 282.969 545.49 283.739Z" fill="white"/>
<path opacity="0.7" d="M558.05 283.739C558.05 284.509 557.42 285.139 556.65 285.139C555.88 285.139 555.25 284.519 555.25 283.739C555.25 282.969 555.87 282.339 556.65 282.339C557.43 282.339 558.05 282.969 558.05 283.739Z" fill="white"/>
<path opacity="0.7" d="M570.62 283.739C570.62 284.509 569.99 285.139 569.22 285.139C568.45 285.139 567.82 284.519 567.82 283.739C567.82 282.969 568.45 282.339 569.22 282.339C569.99 282.339 570.62 282.969 570.62 283.739Z" fill="white"/>
<path opacity="0.7" d="M583.18 283.739C583.18 284.509 582.55 285.139 581.78 285.139C581.01 285.139 580.38 284.519 580.38 283.739C580.38 282.969 581 282.339 581.78 282.339C582.55 282.339 583.18 282.969 583.18 283.739Z" fill="white"/>
<path opacity="0.7" d="M595.74 283.739C595.74 284.509 595.11 285.139 594.34 285.139C593.57 285.139 592.94 284.519 592.94 283.739C592.94 282.969 593.57 282.339 594.34 282.339C595.12 282.339 595.74 282.969 595.74 283.739Z" fill="white"/>
<path opacity="0.7" d="M608.31 283.739C608.31 284.509 607.68 285.139 606.91 285.139C606.14 285.139 605.51 284.519 605.51 283.739C605.51 282.969 606.13 282.339 606.91 282.339C607.68 282.339 608.31 282.969 608.31 283.739Z" fill="white"/>
<path opacity="0.7" d="M620.87 283.739C620.87 284.509 620.24 285.139 619.47 285.139C618.7 285.139 618.07 284.519 618.07 283.739C618.07 282.969 618.7 282.339 619.47 282.339C620.25 282.339 620.87 282.969 620.87 283.739Z" fill="white"/>
<path opacity="0.7" d="M633.44 283.739C633.44 284.509 632.82 285.139 632.04 285.139C631.26 285.139 630.64 284.519 630.64 283.739C630.64 282.969 631.26 282.339 632.04 282.339C632.82 282.339 633.44 282.969 633.44 283.739Z" fill="white"/>
</g>
<g opacity="0.7">
<path opacity="0.7" d="M506.4 296.309C507.173 296.309 507.8 295.682 507.8 294.909C507.8 294.136 507.173 293.509 506.4 293.509C505.627 293.509 505 294.136 505 294.909C505 295.682 505.627 296.309 506.4 296.309Z" fill="white"/>
<path opacity="0.7" d="M518.96 296.309C519.733 296.309 520.36 295.682 520.36 294.909C520.36 294.136 519.733 293.509 518.96 293.509C518.187 293.509 517.56 294.136 517.56 294.909C517.56 295.682 518.187 296.309 518.96 296.309Z" fill="white"/>
<path opacity="0.7" d="M531.53 296.309C532.303 296.309 532.93 295.682 532.93 294.909C532.93 294.136 532.303 293.509 531.53 293.509C530.757 293.509 530.13 294.136 530.13 294.909C530.13 295.682 530.757 296.309 531.53 296.309Z" fill="white"/>
<path opacity="0.7" d="M544.09 296.309C544.863 296.309 545.49 295.682 545.49 294.909C545.49 294.136 544.863 293.509 544.09 293.509C543.317 293.509 542.69 294.136 542.69 294.909C542.69 295.682 543.317 296.309 544.09 296.309Z" fill="white"/>
<path opacity="0.7" d="M556.66 296.309C557.433 296.309 558.06 295.682 558.06 294.909C558.06 294.136 557.433 293.509 556.66 293.509C555.887 293.509 555.26 294.136 555.26 294.909C555.26 295.682 555.887 296.309 556.66 296.309Z" fill="white"/>
<path opacity="0.7" d="M570.62 294.909C570.62 295.679 569.99 296.309 569.22 296.309C568.45 296.309 567.82 295.689 567.82 294.909C567.82 294.129 568.45 293.509 569.22 293.509C569.99 293.509 570.62 294.139 570.62 294.909Z" fill="white"/>
<path opacity="0.7" d="M581.78 296.309C582.553 296.309 583.18 295.682 583.18 294.909C583.18 294.136 582.553 293.509 581.78 293.509C581.007 293.509 580.38 294.136 580.38 294.909C580.38 295.682 581.007 296.309 581.78 296.309Z" fill="white"/>
<path opacity="0.7" d="M595.74 294.909C595.74 295.679 595.11 296.309 594.34 296.309C593.57 296.309 592.94 295.689 592.94 294.909C592.94 294.129 593.57 293.509 594.34 293.509C595.12 293.509 595.74 294.139 595.74 294.909Z" fill="white"/>
<path opacity="0.7" d="M606.91 296.309C607.683 296.309 608.31 295.682 608.31 294.909C608.31 294.136 607.683 293.509 606.91 293.509C606.137 293.509 605.51 294.136 605.51 294.909C605.51 295.682 606.137 296.309 606.91 296.309Z" fill="white"/>
<path opacity="0.7" d="M620.87 294.909C620.87 295.679 620.24 296.309 619.47 296.309C618.7 296.309 618.07 295.689 618.07 294.909C618.07 294.129 618.7 293.509 619.47 293.509C620.25 293.509 620.87 294.139 620.87 294.909Z" fill="white"/>
<path opacity="0.7" d="M632.04 296.309C632.813 296.309 633.44 295.682 633.44 294.909C633.44 294.136 632.813 293.509 632.04 293.509C631.267 293.509 630.64 294.136 630.64 294.909C630.64 295.682 631.267 296.309 632.04 296.309Z" fill="white"/>
</g>
<g opacity="0.7">
<path opacity="0.7" d="M507.8 306.069C507.8 306.839 507.17 307.469 506.4 307.469C505.63 307.469 505 306.839 505 306.069C505 305.299 505.62 304.669 506.4 304.669C507.17 304.679 507.8 305.299 507.8 306.069Z" fill="white"/>
<path opacity="0.7" d="M520.36 306.069C520.36 306.839 519.74 307.469 518.96 307.469C518.19 307.469 517.56 306.839 517.56 306.069C517.56 305.299 518.19 304.669 518.96 304.669C519.74 304.679 520.36 305.299 520.36 306.069Z" fill="white"/>
<path opacity="0.7" d="M532.92 306.069C532.92 306.839 532.29 307.469 531.52 307.469C530.75 307.469 530.12 306.839 530.12 306.069C530.12 305.299 530.74 304.669 531.52 304.669C532.3 304.679 532.92 305.299 532.92 306.069Z" fill="white"/>
<path opacity="0.7" d="M545.49 306.069C545.49 306.839 544.87 307.469 544.09 307.469C543.32 307.469 542.69 306.839 542.69 306.069C542.69 305.299 543.32 304.669 544.09 304.669C544.86 304.679 545.49 305.299 545.49 306.069Z" fill="white"/>
<path opacity="0.7" d="M558.05 306.069C558.05 306.839 557.42 307.469 556.65 307.469C555.88 307.469 555.25 306.839 555.25 306.069C555.25 305.299 555.87 304.669 556.65 304.669C557.43 304.679 558.05 305.299 558.05 306.069Z" fill="white"/>
<path opacity="0.7" d="M570.62 306.069C570.62 306.839 569.99 307.469 569.22 307.469C568.45 307.469 567.82 306.839 567.82 306.069C567.82 305.299 568.45 304.669 569.22 304.669C569.99 304.679 570.62 305.299 570.62 306.069Z" fill="white"/>
<path opacity="0.7" d="M583.18 306.069C583.18 306.839 582.55 307.469 581.78 307.469C581.01 307.469 580.38 306.839 580.38 306.069C580.38 305.299 581 304.669 581.78 304.669C582.55 304.679 583.18 305.299 583.18 306.069Z" fill="white"/>
<path opacity="0.7" d="M595.74 306.069C595.74 306.839 595.11 307.469 594.34 307.469C593.57 307.469 592.94 306.839 592.94 306.069C592.94 305.299 593.57 304.669 594.34 304.669C595.12 304.679 595.74 305.299 595.74 306.069Z" fill="white"/>
<path opacity="0.7" d="M608.31 306.069C608.31 306.839 607.68 307.469 606.91 307.469C606.14 307.469 605.51 306.839 605.51 306.069C605.51 305.299 606.13 304.669 606.91 304.669C607.68 304.679 608.31 305.299 608.31 306.069Z" fill="white"/>
<path opacity="0.7" d="M620.87 306.069C620.87 306.839 620.24 307.469 619.47 307.469C618.7 307.469 618.07 306.839 618.07 306.069C618.07 305.299 618.7 304.669 619.47 304.669C620.25 304.679 620.87 305.299 620.87 306.069Z" fill="white"/>
<path opacity="0.7" d="M633.44 306.069C633.44 306.839 632.82 307.469 632.04 307.469C631.26 307.469 630.64 306.839 630.64 306.069C630.64 305.299 631.26 304.669 632.04 304.669C632.82 304.669 633.44 305.299 633.44 306.069Z" fill="white"/>
</g>
<g opacity="0.7">
<path opacity="0.7" d="M506.4 318.639C507.173 318.639 507.8 318.012 507.8 317.239C507.8 316.466 507.173 315.839 506.4 315.839C505.627 315.839 505 316.466 505 317.239C505 318.012 505.627 318.639 506.4 318.639Z" fill="white"/>
<path opacity="0.7" d="M518.96 318.639C519.733 318.639 520.36 318.012 520.36 317.239C520.36 316.466 519.733 315.839 518.96 315.839C518.187 315.839 517.56 316.466 517.56 317.239C517.56 318.012 518.187 318.639 518.96 318.639Z" fill="white"/>
<path opacity="0.7" d="M531.53 318.639C532.303 318.639 532.93 318.012 532.93 317.239C532.93 316.466 532.303 315.839 531.53 315.839C530.757 315.839 530.13 316.466 530.13 317.239C530.13 318.012 530.757 318.639 531.53 318.639Z" fill="white"/>
<path opacity="0.7" d="M544.09 318.639C544.863 318.639 545.49 318.012 545.49 317.239C545.49 316.466 544.863 315.839 544.09 315.839C543.317 315.839 542.69 316.466 542.69 317.239C542.69 318.012 543.317 318.639 544.09 318.639Z" fill="white"/>
<path opacity="0.7" d="M556.66 318.639C557.433 318.639 558.06 318.012 558.06 317.239C558.06 316.466 557.433 315.839 556.66 315.839C555.887 315.839 555.26 316.466 555.26 317.239C555.26 318.012 555.887 318.639 556.66 318.639Z" fill="white"/>
<path opacity="0.7" d="M570.62 317.239C570.62 318.009 569.99 318.639 569.22 318.639C568.45 318.639 567.82 318.009 567.82 317.239C567.82 316.469 568.45 315.839 569.22 315.839C569.99 315.849 570.62 316.469 570.62 317.239Z" fill="white"/>
<path opacity="0.7" d="M581.78 318.639C582.553 318.639 583.18 318.012 583.18 317.239C583.18 316.466 582.553 315.839 581.78 315.839C581.007 315.839 580.38 316.466 580.38 317.239C580.38 318.012 581.007 318.639 581.78 318.639Z" fill="white"/>
<path opacity="0.7" d="M595.74 317.239C595.74 318.009 595.11 318.639 594.34 318.639C593.57 318.639 592.94 318.009 592.94 317.239C592.94 316.469 593.57 315.839 594.34 315.839C595.12 315.849 595.74 316.469 595.74 317.239Z" fill="white"/>
<path opacity="0.7" d="M606.91 318.639C607.683 318.639 608.31 318.012 608.31 317.239C608.31 316.466 607.683 315.839 606.91 315.839C606.137 315.839 605.51 316.466 605.51 317.239C605.51 318.012 606.137 318.639 606.91 318.639Z" fill="white"/>
<path opacity="0.7" d="M620.87 317.239C620.87 318.009 620.24 318.639 619.47 318.639C618.7 318.639 618.07 318.009 618.07 317.239C618.07 316.469 618.7 315.839 619.47 315.839C620.25 315.849 620.87 316.469 620.87 317.239Z" fill="white"/>
<path opacity="0.7" d="M632.04 318.639C632.813 318.639 633.44 318.012 633.44 317.239C633.44 316.466 632.813 315.839 632.04 315.839C631.267 315.839 630.64 316.466 630.64 317.239C630.64 318.012 631.267 318.639 632.04 318.639Z" fill="white"/>
</g>
</g>
<g opacity="0.1">
<path d="M456.135 194.277C469.835 191.7 478.852 178.506 476.276 164.806C473.7 151.106 460.506 142.089 446.806 144.665C433.106 147.241 424.089 160.435 426.665 174.135C429.241 187.835 442.435 196.853 456.135 194.277Z" fill="#FF914D"/>
</g>
<g opacity="0.1">
<path d="M232.9 160.172C233.91 169.506 227.162 177.89 217.828 178.9C208.494 179.91 200.11 173.163 199.1 163.829C198.09 154.495 204.838 146.111 214.171 145.101C223.505 144.09 231.889 150.838 232.9 160.172Z" fill="#00AEBF"/>
</g>
<g opacity="0.5">
<path opacity="0.2" d="M282.589 305.231C292.323 284.807 283.656 260.358 263.231 250.625C242.807 240.891 218.358 249.557 208.625 269.982C198.891 290.407 207.558 314.855 227.982 324.589C248.407 334.323 272.855 325.656 282.589 305.231Z" fill="#00AEBF"/>
</g>
<g opacity="0.1">
<path d="M153.887 401.887C167.674 388.101 167.674 365.749 153.887 351.962C140.101 338.176 117.749 338.176 103.962 351.962C90.1761 365.749 90.1761 388.101 103.962 401.887C117.749 415.674 140.101 415.674 153.887 401.887Z" fill="#FF914D"/>
</g>
<g opacity="0.04">
<g opacity="0.7">
<path d="M368.5 355C330.728 355 300 324.272 300 286.5C300 248.728 330.728 218 368.5 218C406.272 218 437 248.728 437 286.5C436.993 324.272 406.264 355 368.5 355ZM368.5 220.302C331.998 220.302 302.302 249.998 302.302 286.5C302.302 323.002 331.998 352.698 368.5 352.698C405.002 352.698 434.698 323.002 434.698 286.5C434.698 249.998 405.002 220.302 368.5 220.302Z" fill="white"/>
</g>
<g opacity="0.7">
<path d="M368.5 347.516C334.856 347.516 307.484 320.144 307.484 286.5C307.484 252.856 334.856 225.484 368.5 225.484C402.144 225.484 429.516 252.856 429.516 286.5C429.509 320.144 402.137 347.516 368.5 347.516ZM368.5 227.786C336.126 227.786 309.786 254.126 309.786 286.5C309.786 318.874 336.126 345.214 368.5 345.214C400.874 345.214 427.214 318.874 427.214 286.5C427.214 254.126 400.874 227.786 368.5 227.786Z" fill="white"/>
</g>
<g opacity="0.7">
<path d="M368.5 340.033C338.984 340.033 314.967 316.016 314.967 286.5C314.967 256.984 338.984 232.967 368.5 232.967C398.016 232.967 422.033 256.984 422.033 286.5C422.026 316.016 398.016 340.033 368.5 340.033ZM368.5 235.269C340.247 235.269 317.269 258.254 317.269 286.5C317.269 314.753 340.254 337.731 368.5 337.731C396.746 337.731 419.731 314.746 419.731 286.5C419.731 258.254 396.746 235.269 368.5 235.269Z" fill="white"/>
</g>
<g opacity="0.7">
<path d="M368.5 332.549C343.112 332.549 322.451 311.895 322.451 286.5C322.451 261.112 343.105 240.451 368.5 240.451C393.888 240.451 414.549 261.105 414.549 286.5C414.542 311.895 393.888 332.549 368.5 332.549ZM368.5 242.753C344.375 242.753 324.753 262.382 324.753 286.5C324.753 310.625 344.382 330.247 368.5 330.247C392.618 330.247 412.247 310.618 412.247 286.5C412.247 262.382 392.618 242.753 368.5 242.753Z" fill="white"/>
</g>
<g opacity="0.7">
<path d="M368.5 325.066C347.233 325.066 329.934 307.767 329.934 286.5C329.934 265.233 347.233 247.935 368.5 247.935C389.767 247.935 407.065 265.233 407.065 286.5C407.058 307.767 389.76 325.066 368.5 325.066ZM368.5 250.237C348.503 250.237 332.237 266.503 332.237 286.5C332.237 306.497 348.503 322.771 368.5 322.771C388.497 322.771 404.763 306.505 404.763 286.5C404.763 266.503 388.497 250.237 368.5 250.237Z" fill="white"/>
</g>
<g opacity="0.7">
<path d="M368.5 317.582C351.361 317.582 337.418 303.64 337.418 286.5C337.418 269.361 351.361 255.418 368.5 255.418C385.639 255.418 399.582 269.361 399.582 286.5C399.582 303.64 385.632 317.582 368.5 317.582ZM368.5 257.72C352.631 257.72 339.713 270.631 339.713 286.507C339.713 302.377 352.623 315.294 368.5 315.294C384.377 315.294 397.287 302.384 397.287 286.507C397.28 270.631 384.369 257.72 368.5 257.72Z" fill="white"/>
</g>
</g>
<g opacity="0.2">
<path d="M723.96 20.93C725.48 21.98 727.06 23.08 728.54 24.1C729.41 24.69 730.21 25.23 730.83 25.64C731.12 25.91 731.57 26.21 731.89 26.46C731.72 26.31 731.81 26.32 731.95 26.42C732.96 27.14 732.04 26.43 733.09 27.13C733.67 27.5 734.99 28.43 736.32 29.38C738.2 30.73 740.1 32.09 741 32.74C741.06 32.53 741.1 32.4 741.13 32.29C741.26 31.62 741.43 30.96 741.61 30.3C741.7 29.97 741.78 29.64 741.87 29.32C741.9 29.19 741.93 29.06 741.96 28.94C741.98 28.85 741.99 28.77 742.01 28.68V28.75C742.16 28.04 743.3 24.08 743.49 23.26L743.45 23.37C743.59 22.64 743.65 22.77 743.83 22.21C743.71 22.26 743.82 21.63 743.88 21.4L743.9 21.41C743.98 21.05 744.11 20.24 744.25 19.65L744.3 19.69C744.37 19.19 744.64 18.29 744.72 17.94C744.95 17.15 745.37 15.95 745.58 14.87L745.91 14.22L745.92 14.12L746.26 11.72C746.33 11.17 744.05 12.44 744.02 12.38C744.18 12.31 744.35 12.25 744.4 12.24C744.35 12.23 744.02 12.35 743.85 12.44V12.52C743.47 12.71 743.74 12.52 743.36 12.68C743.32 12.63 743.66 12.47 743.97 12.33C743.69 12.44 743.39 12.52 743.3 12.63C743.03 12.72 743.3 12.55 742.97 12.66C742.75 12.77 742.48 12.95 742.2 13.03V13.02C741.54 13.23 741.27 13.52 740.67 13.7L740.72 13.65C740.5 13.7 740.12 13.92 739.74 14.04C739.85 14.01 739.96 14.01 739.74 14.11C739.3 14.25 739.03 14.41 738.7 14.5L738.43 14.68C736.95 15.29 731.16 17.83 729.69 18.47L729.74 18.44C728.29 19.08 726.21 19.97 723.96 20.93Z" fill="white"/>
<path d="M719.54 2.41011C721.05 1.34011 722.62 0.220105 724.08 -0.809895C724.93 -1.41989 725.71 -1.9899 726.31 -2.4399C726.66 -2.6199 727.1 -2.9399 727.44 -3.1599C727.24 -3.0499 727.28 -3.1299 727.43 -3.2299C728.45 -3.9399 727.47 -3.30989 728.49 -4.05989C729.04 -4.47989 730.36 -5.40989 731.71 -6.33989C733.62 -7.64989 735.55 -8.9699 736.46 -9.5999C736.28 -9.7299 736.17 -9.7999 736.08 -9.8699C735.5 -10.2199 734.93 -10.5999 734.37 -10.9999C734.09 -11.1899 733.81 -11.3899 733.53 -11.5699C733.42 -11.6399 733.31 -11.7199 733.2 -11.7899C733.12 -11.8399 733.05 -11.8799 732.97 -11.9299L733.04 -11.9099C732.42 -12.2999 729.09 -14.7099 728.38 -15.1699L728.47 -15.0899C727.83 -15.4699 727.97 -15.4899 727.51 -15.8399C727.52 -15.7199 726.97 -16.0299 726.76 -16.1599L726.78 -16.1699C726.47 -16.3599 725.75 -16.7599 725.25 -17.0899L725.3 -17.1199C724.86 -17.3599 724.1 -17.9099 723.8 -18.1099C723.14 -18.5999 722.15 -19.3999 721.21 -19.9699L720.72 -20.4999L720.63 -20.5499L718.49 -21.6799C718 -21.9299 718.42 -19.3599 718.35 -19.3499C718.34 -19.5299 718.34 -19.6999 718.34 -19.7599C718.31 -19.7099 718.31 -19.3599 718.34 -19.1799L718.42 -19.1499C718.47 -18.7199 718.38 -19.0499 718.41 -18.6299C718.35 -18.5999 718.32 -18.9899 718.29 -19.3299C718.3 -19.0299 718.27 -18.7199 718.34 -18.5999C718.33 -18.3099 718.26 -18.6299 718.25 -18.2799C718.28 -18.0399 718.36 -17.7199 718.34 -17.4299H718.33C718.3 -16.7399 718.48 -16.3899 718.45 -15.7599L718.43 -15.8299C718.41 -15.6099 718.48 -15.1699 718.46 -14.7699C718.47 -14.8899 718.51 -14.9899 718.53 -14.7499C718.52 -14.2899 718.57 -13.9799 718.54 -13.6399L718.62 -13.3199C718.69 -11.7199 719.11 -5.40989 719.21 -3.80989L719.2 -3.8699C719.27 -2.2899 719.4 -0.0298934 719.54 2.41011Z" fill="white"/>
<path d="M717.88 66.1902C719.66 66.6602 721.53 67.1502 723.26 67.6102C724.28 67.8702 725.21 68.1002 725.94 68.2702C726.3 68.4302 726.83 68.5602 727.22 68.6802C727.01 68.6002 727.09 68.5702 727.26 68.6202C728.46 68.9502 727.35 68.6002 728.57 68.9002C729.24 69.0502 730.8 69.4702 732.38 69.9102C734.6 70.5402 736.86 71.1702 737.93 71.4702C737.91 71.2502 737.91 71.1202 737.9 71.0102C737.8 70.3402 737.73 69.6602 737.67 68.9702C737.64 68.6302 737.61 68.2902 737.58 67.9602C737.57 67.8302 737.55 67.7002 737.54 67.5702C737.53 67.4802 737.51 67.4002 737.5 67.3102L737.53 67.3802C737.43 66.6602 737.15 62.5502 737.04 61.7102V61.8202C736.92 61.0902 737.03 61.1802 737 60.6002C736.91 60.6902 736.8 60.0602 736.77 59.8202L736.79 59.8302C736.74 59.4702 736.58 58.6602 736.52 58.0602L736.58 58.0802C736.48 57.5902 736.42 56.6502 736.38 56.2902C736.33 55.4702 736.31 54.2002 736.14 53.1102L736.23 52.3902L736.21 52.2902L735.71 49.9202C735.59 49.3802 733.88 51.3502 733.83 51.3002C733.96 51.1802 734.09 51.0602 734.14 51.0302C734.08 51.0402 733.82 51.2602 733.69 51.4002L733.72 51.4802C733.42 51.7902 733.62 51.5102 733.31 51.8002C733.25 51.7702 733.52 51.5002 733.77 51.2602C733.54 51.4602 733.29 51.6402 733.24 51.7702C733.01 51.9402 733.21 51.6902 732.94 51.9102C732.77 52.0902 732.58 52.3502 732.35 52.5202V52.5102C731.8 52.9302 731.64 53.2902 731.14 53.6702L731.18 53.6102C730.99 53.7302 730.71 54.0702 730.39 54.3102C730.48 54.2402 730.59 54.2102 730.41 54.3702C730.05 54.6502 729.84 54.9002 729.56 55.0902L729.36 55.3502C728.18 56.4302 723.6 60.7902 722.43 61.8902L722.47 61.8402C721.32 62.9702 719.66 64.5202 717.88 66.1902Z" fill="white"/>
<path d="M749.48 0.910055C751.28 1.31006 753.17 1.72005 754.92 2.11005C755.95 2.33005 756.89 2.52005 757.62 2.67005C757.99 2.81005 758.52 2.92005 758.91 3.03005C758.69 2.95005 758.78 2.93005 758.95 2.97005C760.16 3.25005 759.04 2.95005 760.27 3.20005C760.95 3.33005 762.52 3.68005 764.12 4.06005C766.37 4.59005 768.65 5.14005 769.73 5.39005C769.71 5.17005 769.69 5.04004 769.68 4.93004C769.55 4.26004 769.45 3.59006 769.37 2.91006C769.32 2.57006 769.28 2.23005 769.24 1.90005C769.22 1.77005 769.2 1.64005 769.18 1.51005C769.16 1.42005 769.15 1.34005 769.13 1.25005L769.16 1.32006C769.03 0.600059 768.59 -3.48995 768.44 -4.31995V-4.19995C768.29 -4.91995 768.4 -4.83995 768.36 -5.41995C768.27 -5.32995 768.13 -5.94995 768.1 -6.18995L768.12 -6.17995C768.06 -6.53995 767.86 -7.33995 767.77 -7.93995L767.83 -7.91995C767.71 -8.40995 767.61 -9.33995 767.56 -9.69995C767.48 -10.5199 767.41 -11.79 767.19 -12.87L767.25 -13.5899L767.22 -13.69L766.62 -16.0299C766.48 -16.5599 764.85 -14.5199 764.8 -14.5699C764.93 -14.6999 765.05 -14.8199 765.1 -14.8499C765.04 -14.8399 764.79 -14.5999 764.67 -14.4599L764.7 -14.3799C764.42 -14.0599 764.6 -14.3399 764.31 -14.0399C764.25 -14.0699 764.51 -14.3499 764.75 -14.5899C764.53 -14.3799 764.28 -14.1999 764.24 -14.0599C764.02 -13.8699 764.21 -14.14 763.95 -13.91C763.79 -13.72 763.61 -13.4499 763.38 -13.2799V-13.2899C762.85 -12.8499 762.71 -12.48 762.22 -12.08L762.25 -12.1399C762.07 -12.0099 761.79 -11.66 761.49 -11.41C761.58 -11.48 761.68 -11.5199 761.52 -11.3399C761.17 -11.0399 760.98 -10.7899 760.7 -10.5899L760.52 -10.3199C759.38 -9.18995 754.99 -4.64995 753.86 -3.49995L753.9 -3.54995C752.78 -2.44995 751.19 -0.829945 749.48 0.910055Z" fill="white"/>
<path d="M697.69 44.2002C699.53 44.3702 701.45 44.5502 703.23 44.7102C704.27 44.8002 705.24 44.8802 705.98 44.9202C706.36 45.0202 706.9 45.0602 707.31 45.1102C707.09 45.0602 707.17 45.0302 707.34 45.0502C708.58 45.1802 707.43 45.0202 708.68 45.1102C709.37 45.1502 710.97 45.3102 712.6 45.4802C714.9 45.7302 717.23 45.9802 718.33 46.1002C718.28 45.8902 718.25 45.7602 718.22 45.6502C718.01 45.0102 717.83 44.3502 717.66 43.6802C717.57 43.3502 717.48 43.0202 717.4 42.7002C717.36 42.5702 717.33 42.4502 717.29 42.3202C717.26 42.2402 717.24 42.1502 717.21 42.0702L717.25 42.1302C717.03 41.4302 716.08 37.4302 715.84 36.6202L715.86 36.7302C715.62 36.0302 715.74 36.1002 715.62 35.5302C715.54 35.6302 715.33 35.0302 715.26 34.8002H715.28C715.17 34.4502 714.88 33.6802 714.72 33.1002L714.78 33.1102C714.6 32.6402 714.38 31.7202 714.29 31.3802C714.11 30.5802 713.88 29.3302 713.53 28.2802L713.5 27.5502L713.46 27.4502L712.57 25.2002C712.36 24.6902 711 26.9102 710.95 26.8702C711.06 26.7302 711.17 26.5902 711.21 26.5602C711.16 26.5802 710.93 26.8402 710.83 27.0002L710.87 27.0702C710.63 27.4302 710.77 27.1202 710.52 27.4602C710.46 27.4402 710.68 27.1302 710.88 26.8602C710.69 27.1002 710.47 27.3102 710.44 27.4502C710.25 27.6602 710.4 27.3802 710.17 27.6302C710.04 27.8402 709.89 28.1302 709.68 28.3302L709.67 28.3202C709.2 28.8202 709.1 29.2102 708.67 29.6702L708.69 29.6002C708.53 29.7502 708.3 30.1302 708.02 30.4202C708.1 30.3402 708.2 30.2902 708.06 30.4802C707.75 30.8202 707.59 31.0902 707.34 31.3302L707.19 31.6202C706.2 32.8802 702.41 37.9402 701.44 39.2102L701.47 39.1602C700.55 40.4602 699.18 42.2602 697.69 44.2002Z" fill="white"/>
<path d="M679.08 68.5902C679.96 66.9702 680.88 65.2702 681.74 63.7002C682.23 62.7802 682.68 61.9202 683.02 61.2602C683.26 60.9502 683.51 60.4702 683.72 60.1202C683.59 60.3102 683.59 60.2202 683.68 60.0602C684.29 58.9702 683.68 59.9702 684.27 58.8502C684.58 58.2302 685.36 56.8202 686.16 55.3902C687.3 53.3802 688.45 51.3402 688.99 50.3702C688.77 50.3302 688.64 50.3102 688.53 50.2902C687.85 50.2302 687.18 50.1402 686.5 50.0302C686.16 49.9802 685.82 49.9302 685.5 49.8802C685.37 49.8602 685.24 49.8502 685.11 49.8302C685.02 49.8202 684.93 49.8102 684.85 49.8102L684.92 49.8002C684.19 49.7202 680.14 49.0202 679.3 48.9202L679.41 48.9502C678.67 48.8902 678.79 48.8102 678.22 48.7002C678.28 48.8102 677.65 48.7702 677.41 48.7402L677.42 48.7202C677.06 48.6802 676.23 48.6402 675.64 48.5702L675.67 48.5202C675.17 48.5002 674.24 48.3402 673.88 48.2902C673.07 48.1402 671.83 47.8602 670.74 47.7602L670.06 47.5002H669.95L667.53 47.4302C666.98 47.4202 668.49 49.5502 668.43 49.5802C668.34 49.4202 668.26 49.2702 668.25 49.2202C668.24 49.2702 668.4 49.5902 668.51 49.7402L668.59 49.7302C668.82 50.0902 668.6 49.8402 668.81 50.2002C668.77 50.2502 668.57 49.9202 668.4 49.6302C668.54 49.9002 668.65 50.1902 668.77 50.2602C668.89 50.5202 668.69 50.2702 668.83 50.5802C668.97 50.7902 669.18 51.0402 669.28 51.3002H669.27C669.55 51.9302 669.86 52.1702 670.11 52.7502L670.06 52.7002C670.14 52.9102 670.39 53.2702 670.55 53.6402C670.5 53.5302 670.5 53.4302 670.62 53.6302C670.81 54.0502 671 54.3102 671.12 54.6202L671.33 54.8702C672.1 56.2702 675.25 61.7502 676.04 63.1502L676 63.1002C676.78 64.4802 677.89 66.4602 679.08 68.5902Z" fill="white"/>
<path d="M697.54 21.8601C696.55 20.3001 695.51 18.6701 694.55 17.1601C693.98 16.2801 693.45 15.4701 693.03 14.8501C692.87 14.4901 692.57 14.0401 692.37 13.6801C692.47 13.8901 692.39 13.8401 692.3 13.6901C691.64 12.6301 692.22 13.6401 691.53 12.5901C691.14 12.0201 690.28 10.6601 689.42 9.26009C688.21 7.29009 686.98 5.3001 686.4 4.3501C686.26 4.5201 686.18 4.6201 686.11 4.7101C685.73 5.2801 685.32 5.82009 684.9 6.36009C684.69 6.63009 684.49 6.90009 684.28 7.17009C684.2 7.28009 684.12 7.38009 684.05 7.48009C684 7.55009 683.95 7.63009 683.9 7.70009L683.93 7.6301C683.51 8.2301 680.93 11.4401 680.44 12.1201L680.52 12.0401C680.11 12.6601 680.1 12.5201 679.72 12.9601C679.84 12.9601 679.5 13.4901 679.36 13.6901L679.35 13.6701C679.14 13.9701 678.71 14.6701 678.35 15.1501L678.32 15.1001C678.06 15.5301 677.47 16.2601 677.25 16.5501C676.73 17.1901 675.88 18.1301 675.27 19.0501L674.71 19.5201L674.66 19.6101L673.42 21.6901C673.14 22.1701 675.74 21.8801 675.74 21.9401C675.56 21.9401 675.38 21.9401 675.33 21.9301C675.37 21.9601 675.72 21.9801 675.91 21.9601L675.94 21.8801C676.37 21.8501 676.04 21.9301 676.46 21.9201C676.48 21.9801 676.1 22.0001 675.76 22.0001C676.06 22.0001 676.37 22.0501 676.49 21.9801C676.78 22.0001 676.46 22.0601 676.8 22.0801C677.04 22.0601 677.37 22.0001 677.65 22.0401L677.64 22.0501C678.33 22.1101 678.69 21.9501 679.32 22.0101L679.25 22.0301C679.47 22.0701 679.91 22.0201 680.31 22.0501C680.2 22.0401 680.1 21.9901 680.34 21.9801C680.8 22.0201 681.11 21.9801 681.45 22.0201L681.77 21.9601C683.37 21.9701 689.69 21.8701 691.3 21.8501L691.24 21.8601C692.83 21.8901 695.1 21.8801 697.54 21.8601Z" fill="white"/>
</g>
<path opacity="0.1" d="M23.8415 163.683C22.0182 138.489 30.452 113.791 47.4892 91.0373C54.6773 81.4299 62.9179 72.3468 67.2529 61.0776C71.5945 49.8018 71.0812 35.3904 62.232 26.4828C51.3643 15.5547 33.1923 17.5855 20.2044 24.6088C-7.10613 39.3807 -31.0191 64.5236 -31.0937 98.162C-31.1561 124.358 -17.8362 150.67 -20.555 176.516C-23.1828 201.54 -40.6129 222.809 -39.9288 248.213C-39.5695 261.594 -34.1024 274.765 -27.0783 286.669C-17.1215 303.519 -3.34942 318.916 14.1305 327.531C31.6174 336.154 53.1223 336.987 68.2049 326.645C107.742 299.535 66.5209 248.862 46.1885 220.894C32.4387 201.971 25.2241 182.684 23.8415 163.683Z" fill="#FF914D"/>
<path opacity="0.1" d="M790.779 495.106C752.989 491.79 717.26 473.132 685.536 442C672.151 428.866 659.658 414.275 643.416 405.024C627.173 395.773 605.618 393.082 591.2 404.264C573.499 417.995 574.204 445.854 582.999 467.1C601.503 511.786 635.899 553.842 686.032 562.064C725.067 568.463 766.007 554.746 804.193 565.057C841.163 575.044 870.612 606.402 908.568 611.491C928.57 614.168 948.907 609.111 967.55 601.386C993.952 590.446 1018.67 573.422 1033.78 549.155C1048.87 524.894 1052.89 492.704 1039.43 467.5C1004.11 401.426 923.263 451.312 878.95 475.197C848.952 491.383 819.279 497.607 790.779 495.106Z" fill="#FF914D"/>
</g>
<defs>
<clipPath id="clip0_2918_19455">
<rect width="758" height="449" fill="white"/>
</clipPath>
</defs>
</svg>
