<svg width="750" height="497" viewBox="0 0 750 497" fill="none" xmlns="http://www.w3.org/2000/svg">
<g clip-path="url(#clip0_2925_19457)">
<rect x="-13" width="784" height="536" fill="#333D6B"/>
<g opacity="0.5">
<path opacity="0.5" d="M29.0198 20.6198C29.0198 21.5998 28.2198 22.3998 27.2398 22.3998C26.2598 22.3998 25.4598 21.5998 25.4598 20.6198C25.4598 19.6398 26.2598 18.8398 27.2398 18.8398C28.2198 18.8398 29.0198 19.6398 29.0198 20.6198Z" fill="white"/>
<path opacity="0.5" d="M42.5498 22.3998C43.5328 22.3998 44.3298 21.6029 44.3298 20.6198C44.3298 19.6368 43.5328 18.8398 42.5498 18.8398C41.5667 18.8398 40.7698 19.6368 40.7698 20.6198C40.7698 21.6029 41.5667 22.3998 42.5498 22.3998Z" fill="white"/>
<path opacity="0.5" d="M57.8498 22.3998C58.8329 22.3998 59.6298 21.6029 59.6298 20.6198C59.6298 19.6368 58.8329 18.8398 57.8498 18.8398C56.8668 18.8398 56.0698 19.6368 56.0698 20.6198C56.0698 21.6029 56.8668 22.3998 57.8498 22.3998Z" fill="white"/>
<path opacity="0.5" d="M74.9399 20.6198C74.9399 21.5998 74.1399 22.3998 73.1599 22.3998C72.1799 22.3998 71.3799 21.5998 71.3799 20.6198C71.3799 19.6398 72.1799 18.8398 73.1599 18.8398C74.1399 18.8398 74.9399 19.6398 74.9399 20.6198Z" fill="white"/>
<path opacity="0.5" d="M88.4598 22.3998C89.4429 22.3998 90.2398 21.6029 90.2398 20.6198C90.2398 19.6368 89.4429 18.8398 88.4598 18.8398C87.4767 18.8398 86.6798 19.6368 86.6798 20.6198C86.6798 21.6029 87.4767 22.3998 88.4598 22.3998Z" fill="white"/>
<path opacity="0.5" d="M103.77 22.3998C104.753 22.3998 105.55 21.6029 105.55 20.6198C105.55 19.6368 104.753 18.8398 103.77 18.8398C102.787 18.8398 101.99 19.6368 101.99 20.6198C101.99 21.6029 102.787 22.3998 103.77 22.3998Z" fill="white"/>
<path opacity="0.5" d="M119.07 22.3998C120.053 22.3998 120.85 21.6029 120.85 20.6198C120.85 19.6368 120.053 18.8398 119.07 18.8398C118.087 18.8398 117.29 19.6368 117.29 20.6198C117.29 21.6029 118.087 22.3998 119.07 22.3998Z" fill="white"/>
<path opacity="0.5" d="M134.38 22.3998C135.363 22.3998 136.16 21.6029 136.16 20.6198C136.16 19.6368 135.363 18.8398 134.38 18.8398C133.397 18.8398 132.6 19.6368 132.6 20.6198C132.6 21.6029 133.397 22.3998 134.38 22.3998Z" fill="white"/>
<path opacity="0.5" d="M29.0198 35.9199C29.0198 36.8999 28.2198 37.6999 27.2398 37.6999C26.2598 37.6999 25.4598 36.8999 25.4598 35.9199C25.4598 34.9399 26.2598 34.1399 27.2398 34.1399C28.2198 34.1499 29.0198 34.9399 29.0198 35.9199Z" fill="white"/>
<path opacity="0.5" d="M42.5498 37.6999C43.5328 37.6999 44.3298 36.903 44.3298 35.9199C44.3298 34.9368 43.5328 34.1399 42.5498 34.1399C41.5667 34.1399 40.7698 34.9368 40.7698 35.9199C40.7698 36.903 41.5667 37.6999 42.5498 37.6999Z" fill="white"/>
<path opacity="0.5" d="M57.8498 37.6999C58.8329 37.6999 59.6298 36.903 59.6298 35.9199C59.6298 34.9368 58.8329 34.1399 57.8498 34.1399C56.8668 34.1399 56.0698 34.9368 56.0698 35.9199C56.0698 36.903 56.8668 37.6999 57.8498 37.6999Z" fill="white"/>
<path opacity="0.5" d="M74.9399 35.9199C74.9399 36.8999 74.1399 37.6999 73.1599 37.6999C72.1799 37.6999 71.3799 36.8999 71.3799 35.9199C71.3799 34.9399 72.1799 34.1399 73.1599 34.1399C74.1399 34.1499 74.9399 34.9399 74.9399 35.9199Z" fill="white"/>
<path opacity="0.5" d="M88.4598 37.6999C89.4429 37.6999 90.2398 36.903 90.2398 35.9199C90.2398 34.9368 89.4429 34.1399 88.4598 34.1399C87.4767 34.1399 86.6798 34.9368 86.6798 35.9199C86.6798 36.903 87.4767 37.6999 88.4598 37.6999Z" fill="white"/>
<path opacity="0.5" d="M103.77 37.6999C104.753 37.6999 105.55 36.903 105.55 35.9199C105.55 34.9368 104.753 34.1399 103.77 34.1399C102.787 34.1399 101.99 34.9368 101.99 35.9199C101.99 36.903 102.787 37.6999 103.77 37.6999Z" fill="white"/>
<path opacity="0.5" d="M119.07 37.6999C120.053 37.6999 120.85 36.903 120.85 35.9199C120.85 34.9368 120.053 34.1399 119.07 34.1399C118.087 34.1399 117.29 34.9368 117.29 35.9199C117.29 36.903 118.087 37.6999 119.07 37.6999Z" fill="white"/>
<path opacity="0.5" d="M134.38 37.6999C135.363 37.6999 136.16 36.903 136.16 35.9199C136.16 34.9368 135.363 34.1399 134.38 34.1399C133.397 34.1399 132.6 34.9368 132.6 35.9199C132.6 36.903 133.397 37.6999 134.38 37.6999Z" fill="white"/>
<path opacity="0.5" d="M29.0198 51.2299C29.0198 52.2099 28.2198 53.0099 27.2398 53.0099C26.2598 53.0099 25.4598 52.2099 25.4598 51.2299C25.4598 50.2499 26.2598 49.45 27.2398 49.45C28.2198 49.45 29.0198 50.2499 29.0198 51.2299Z" fill="white"/>
<path opacity="0.5" d="M42.5498 53.0099C43.5328 53.0099 44.3298 52.213 44.3298 51.2299C44.3298 50.2469 43.5328 49.45 42.5498 49.45C41.5667 49.45 40.7698 50.2469 40.7698 51.2299C40.7698 52.213 41.5667 53.0099 42.5498 53.0099Z" fill="white"/>
<path opacity="0.5" d="M57.8498 53.0099C58.8329 53.0099 59.6298 52.213 59.6298 51.2299C59.6298 50.2469 58.8329 49.45 57.8498 49.45C56.8668 49.45 56.0698 50.2469 56.0698 51.2299C56.0698 52.213 56.8668 53.0099 57.8498 53.0099Z" fill="white"/>
<path opacity="0.5" d="M74.9399 51.2299C74.9399 52.2099 74.1399 53.0099 73.1599 53.0099C72.1799 53.0099 71.3799 52.2099 71.3799 51.2299C71.3799 50.2499 72.1799 49.45 73.1599 49.45C74.1399 49.45 74.9399 50.2499 74.9399 51.2299Z" fill="white"/>
<path opacity="0.5" d="M88.4598 53.0099C89.4429 53.0099 90.2398 52.213 90.2398 51.2299C90.2398 50.2469 89.4429 49.45 88.4598 49.45C87.4767 49.45 86.6798 50.2469 86.6798 51.2299C86.6798 52.213 87.4767 53.0099 88.4598 53.0099Z" fill="white"/>
<path opacity="0.5" d="M103.77 53.0099C104.753 53.0099 105.55 52.213 105.55 51.2299C105.55 50.2469 104.753 49.45 103.77 49.45C102.787 49.45 101.99 50.2469 101.99 51.2299C101.99 52.213 102.787 53.0099 103.77 53.0099Z" fill="white"/>
<path opacity="0.5" d="M119.07 53.0099C120.053 53.0099 120.85 52.213 120.85 51.2299C120.85 50.2469 120.053 49.45 119.07 49.45C118.087 49.45 117.29 50.2469 117.29 51.2299C117.29 52.213 118.087 53.0099 119.07 53.0099Z" fill="white"/>
<path opacity="0.5" d="M134.38 53.0099C135.363 53.0099 136.16 52.213 136.16 51.2299C136.16 50.2469 135.363 49.45 134.38 49.45C133.397 49.45 132.6 50.2469 132.6 51.2299C132.6 52.213 133.397 53.0099 134.38 53.0099Z" fill="white"/>
<path opacity="0.5" d="M29.0198 66.5298C29.0198 67.5098 28.2198 68.3098 27.2398 68.3098C26.2598 68.3098 25.4598 67.5098 25.4598 66.5298C25.4598 65.5498 26.2598 64.7498 27.2398 64.7498C28.2198 64.7598 29.0198 65.5498 29.0198 66.5298Z" fill="white"/>
<path opacity="0.5" d="M42.5498 68.3098C43.5328 68.3098 44.3298 67.5128 44.3298 66.5298C44.3298 65.5467 43.5328 64.7498 42.5498 64.7498C41.5667 64.7498 40.7698 65.5467 40.7698 66.5298C40.7698 67.5128 41.5667 68.3098 42.5498 68.3098Z" fill="white"/>
<path opacity="0.5" d="M57.8498 68.3098C58.8329 68.3098 59.6298 67.5128 59.6298 66.5298C59.6298 65.5467 58.8329 64.7498 57.8498 64.7498C56.8668 64.7498 56.0698 65.5467 56.0698 66.5298C56.0698 67.5128 56.8668 68.3098 57.8498 68.3098Z" fill="white"/>
<path opacity="0.5" d="M74.9399 66.5298C74.9399 67.5098 74.1399 68.3098 73.1599 68.3098C72.1799 68.3098 71.3799 67.5098 71.3799 66.5298C71.3799 65.5498 72.1799 64.7498 73.1599 64.7498C74.1399 64.7598 74.9399 65.5498 74.9399 66.5298Z" fill="white"/>
<path opacity="0.5" d="M88.4598 68.3098C89.4429 68.3098 90.2398 67.5128 90.2398 66.5298C90.2398 65.5467 89.4429 64.7498 88.4598 64.7498C87.4767 64.7498 86.6798 65.5467 86.6798 66.5298C86.6798 67.5128 87.4767 68.3098 88.4598 68.3098Z" fill="white"/>
<path opacity="0.5" d="M103.77 68.3098C104.753 68.3098 105.55 67.5128 105.55 66.5298C105.55 65.5467 104.753 64.7498 103.77 64.7498C102.787 64.7498 101.99 65.5467 101.99 66.5298C101.99 67.5128 102.787 68.3098 103.77 68.3098Z" fill="white"/>
<path opacity="0.5" d="M119.07 68.3098C120.053 68.3098 120.85 67.5128 120.85 66.5298C120.85 65.5467 120.053 64.7498 119.07 64.7498C118.087 64.7498 117.29 65.5467 117.29 66.5298C117.29 67.5128 118.087 68.3098 119.07 68.3098Z" fill="white"/>
<path opacity="0.5" d="M134.38 68.3098C135.363 68.3098 136.16 67.5128 136.16 66.5298C136.16 65.5467 135.363 64.7498 134.38 64.7498C133.397 64.7498 132.6 65.5467 132.6 66.5298C132.6 67.5128 133.397 68.3098 134.38 68.3098Z" fill="white"/>
<path opacity="0.5" d="M29.0198 81.8398C29.0198 82.8198 28.2198 83.6198 27.2398 83.6198C26.2598 83.6198 25.4598 82.8198 25.4598 81.8398C25.4598 80.8598 26.2598 80.0598 27.2398 80.0598C28.2198 80.0598 29.0198 80.8598 29.0198 81.8398Z" fill="white"/>
<path opacity="0.5" d="M42.5498 83.6198C43.5328 83.6198 44.3298 82.8229 44.3298 81.8398C44.3298 80.8567 43.5328 80.0598 42.5498 80.0598C41.5667 80.0598 40.7698 80.8567 40.7698 81.8398C40.7698 82.8229 41.5667 83.6198 42.5498 83.6198Z" fill="white"/>
<path opacity="0.5" d="M57.8498 83.6198C58.8329 83.6198 59.6298 82.8229 59.6298 81.8398C59.6298 80.8567 58.8329 80.0598 57.8498 80.0598C56.8668 80.0598 56.0698 80.8567 56.0698 81.8398C56.0698 82.8229 56.8668 83.6198 57.8498 83.6198Z" fill="white"/>
<path opacity="0.5" d="M74.9399 81.8398C74.9399 82.8198 74.1399 83.6198 73.1599 83.6198C72.1799 83.6198 71.3799 82.8198 71.3799 81.8398C71.3799 80.8598 72.1799 80.0598 73.1599 80.0598C74.1399 80.0598 74.9399 80.8598 74.9399 81.8398Z" fill="white"/>
<path opacity="0.5" d="M88.4598 83.6198C89.4429 83.6198 90.2398 82.8229 90.2398 81.8398C90.2398 80.8567 89.4429 80.0598 88.4598 80.0598C87.4767 80.0598 86.6798 80.8567 86.6798 81.8398C86.6798 82.8229 87.4767 83.6198 88.4598 83.6198Z" fill="white"/>
<path opacity="0.5" d="M103.77 83.6198C104.753 83.6198 105.55 82.8229 105.55 81.8398C105.55 80.8567 104.753 80.0598 103.77 80.0598C102.787 80.0598 101.99 80.8567 101.99 81.8398C101.99 82.8229 102.787 83.6198 103.77 83.6198Z" fill="white"/>
<path opacity="0.5" d="M119.07 83.6198C120.053 83.6198 120.85 82.8229 120.85 81.8398C120.85 80.8567 120.053 80.0598 119.07 80.0598C118.087 80.0598 117.29 80.8567 117.29 81.8398C117.29 82.8229 118.087 83.6198 119.07 83.6198Z" fill="white"/>
<path opacity="0.5" d="M134.38 83.6198C135.363 83.6198 136.16 82.8229 136.16 81.8398C136.16 80.8567 135.363 80.0598 134.38 80.0598C133.397 80.0598 132.6 80.8567 132.6 81.8398C132.6 82.8229 133.397 83.6198 134.38 83.6198Z" fill="white"/>
<path opacity="0.5" d="M29.0198 97.1499C29.0198 98.1299 28.2198 98.9299 27.2398 98.9299C26.2598 98.9299 25.4598 98.1299 25.4598 97.1499C25.4598 96.1699 26.2598 95.3699 27.2398 95.3699C28.2198 95.3699 29.0198 96.1599 29.0198 97.1499Z" fill="white"/>
<path opacity="0.5" d="M42.5498 98.9299C43.5328 98.9299 44.3298 98.1329 44.3298 97.1499C44.3298 96.1668 43.5328 95.3699 42.5498 95.3699C41.5667 95.3699 40.7698 96.1668 40.7698 97.1499C40.7698 98.1329 41.5667 98.9299 42.5498 98.9299Z" fill="white"/>
<path opacity="0.5" d="M57.8498 98.9299C58.8329 98.9299 59.6298 98.1329 59.6298 97.1499C59.6298 96.1668 58.8329 95.3699 57.8498 95.3699C56.8668 95.3699 56.0698 96.1668 56.0698 97.1499C56.0698 98.1329 56.8668 98.9299 57.8498 98.9299Z" fill="white"/>
<path opacity="0.5" d="M74.9399 97.1499C74.9399 98.1299 74.1399 98.9299 73.1599 98.9299C72.1799 98.9299 71.3799 98.1299 71.3799 97.1499C71.3799 96.1699 72.1799 95.3699 73.1599 95.3699C74.1399 95.3699 74.9399 96.1599 74.9399 97.1499Z" fill="white"/>
<path opacity="0.5" d="M88.4598 98.9299C89.4429 98.9299 90.2398 98.1329 90.2398 97.1499C90.2398 96.1668 89.4429 95.3699 88.4598 95.3699C87.4767 95.3699 86.6798 96.1668 86.6798 97.1499C86.6798 98.1329 87.4767 98.9299 88.4598 98.9299Z" fill="white"/>
<path opacity="0.5" d="M103.77 98.9299C104.753 98.9299 105.55 98.1329 105.55 97.1499C105.55 96.1668 104.753 95.3699 103.77 95.3699C102.787 95.3699 101.99 96.1668 101.99 97.1499C101.99 98.1329 102.787 98.9299 103.77 98.9299Z" fill="white"/>
<path opacity="0.5" d="M119.07 98.9299C120.053 98.9299 120.85 98.1329 120.85 97.1499C120.85 96.1668 120.053 95.3699 119.07 95.3699C118.087 95.3699 117.29 96.1668 117.29 97.1499C117.29 98.1329 118.087 98.9299 119.07 98.9299Z" fill="white"/>
<path opacity="0.5" d="M134.38 98.9299C135.363 98.9299 136.16 98.1329 136.16 97.1499C136.16 96.1668 135.363 95.3699 134.38 95.3699C133.397 95.3699 132.6 96.1668 132.6 97.1499C132.6 98.1329 133.397 98.9299 134.38 98.9299Z" fill="white"/>
</g>
<g opacity="0.5">
<path opacity="0.5" d="M636.91 288.48C637.893 288.48 638.69 287.683 638.69 286.7C638.69 285.717 637.893 284.92 636.91 284.92C635.927 284.92 635.13 285.717 635.13 286.7C635.13 287.683 635.927 288.48 636.91 288.48Z" fill="white"/>
<path opacity="0.5" d="M636.91 303.79C637.893 303.79 638.69 302.993 638.69 302.01C638.69 301.027 637.893 300.23 636.91 300.23C635.927 300.23 635.13 301.027 635.13 302.01C635.13 302.993 635.927 303.79 636.91 303.79Z" fill="white"/>
<path opacity="0.5" d="M636.91 319.09C637.893 319.09 638.69 318.293 638.69 317.31C638.69 316.327 637.893 315.53 636.91 315.53C635.927 315.53 635.13 316.327 635.13 317.31C635.13 318.293 635.927 319.09 636.91 319.09Z" fill="white"/>
<path opacity="0.5" d="M636.91 334.4C637.893 334.4 638.69 333.603 638.69 332.62C638.69 331.637 637.893 330.84 636.91 330.84C635.927 330.84 635.13 331.637 635.13 332.62C635.13 333.603 635.927 334.4 636.91 334.4Z" fill="white"/>
<path opacity="0.5" d="M636.91 349.7C637.893 349.7 638.69 348.903 638.69 347.92C638.69 346.937 637.893 346.14 636.91 346.14C635.927 346.14 635.13 346.937 635.13 347.92C635.13 348.903 635.927 349.7 636.91 349.7Z" fill="white"/>
<path opacity="0.5" d="M636.91 365.01C637.893 365.01 638.69 364.213 638.69 363.23C638.69 362.247 637.893 361.45 636.91 361.45C635.927 361.45 635.13 362.247 635.13 363.23C635.13 364.213 635.927 365.01 636.91 365.01Z" fill="white"/>
<path opacity="0.5" d="M636.91 380.31C637.893 380.31 638.69 379.513 638.69 378.53C638.69 377.547 637.893 376.75 636.91 376.75C635.927 376.75 635.13 377.547 635.13 378.53C635.13 379.513 635.927 380.31 636.91 380.31Z" fill="white"/>
<path opacity="0.5" d="M636.91 395.61C635.93 395.61 635.13 394.81 635.13 393.83C635.13 392.85 635.93 392.05 636.91 392.05C637.89 392.05 638.69 392.85 638.69 393.83C638.69 394.82 637.89 395.61 636.91 395.61Z" fill="white"/>
<path opacity="0.5" d="M621.61 288.48C620.63 288.48 619.83 287.68 619.83 286.7C619.83 285.72 620.63 284.92 621.61 284.92C622.59 284.92 623.39 285.72 623.39 286.7C623.38 287.68 622.59 288.48 621.61 288.48Z" fill="white"/>
<path opacity="0.5" d="M621.61 303.78C620.63 303.78 619.83 302.98 619.83 302C619.83 301.02 620.63 300.22 621.61 300.22C622.59 300.22 623.39 301.02 623.39 302C623.38 302.99 622.59 303.78 621.61 303.78Z" fill="white"/>
<path opacity="0.5" d="M621.61 319.09C620.63 319.09 619.83 318.29 619.83 317.31C619.83 316.33 620.63 315.53 621.61 315.53C622.59 315.53 623.39 316.33 623.39 317.31C623.38 318.29 622.59 319.09 621.61 319.09Z" fill="white"/>
<path opacity="0.5" d="M621.61 334.39C620.63 334.39 619.83 333.59 619.83 332.61C619.83 331.63 620.63 330.83 621.61 330.83C622.59 330.83 623.39 331.63 623.39 332.61C623.38 333.6 622.59 334.39 621.61 334.39Z" fill="white"/>
<path opacity="0.5" d="M621.61 349.7C620.63 349.7 619.83 348.9 619.83 347.92C619.83 346.94 620.63 346.14 621.61 346.14C622.59 346.14 623.39 346.94 623.39 347.92C623.38 348.9 622.59 349.7 621.61 349.7Z" fill="white"/>
<path opacity="0.5" d="M621.61 365C620.63 365 619.83 364.2 619.83 363.22C619.83 362.24 620.63 361.44 621.61 361.44C622.59 361.44 623.39 362.24 623.39 363.22C623.39 364.2 622.59 365 621.61 365Z" fill="white"/>
<path opacity="0.5" d="M621.61 380.31C620.63 380.31 619.83 379.51 619.83 378.53C619.83 377.55 620.63 376.75 621.61 376.75C622.59 376.75 623.39 377.55 623.39 378.53C623.39 379.51 622.59 380.31 621.61 380.31Z" fill="white"/>
<path opacity="0.5" d="M621.61 395.61C620.63 395.61 619.83 394.81 619.83 393.83C619.83 392.85 620.63 392.05 621.61 392.05C622.59 392.05 623.39 392.85 623.39 393.83C623.38 394.82 622.59 395.61 621.61 395.61Z" fill="white"/>
<path opacity="0.5" d="M606.3 288.48C607.283 288.48 608.08 287.683 608.08 286.7C608.08 285.717 607.283 284.92 606.3 284.92C605.317 284.92 604.52 285.717 604.52 286.7C604.52 287.683 605.317 288.48 606.3 288.48Z" fill="white"/>
<path opacity="0.5" d="M606.3 303.79C607.283 303.79 608.08 302.993 608.08 302.01C608.08 301.027 607.283 300.23 606.3 300.23C605.317 300.23 604.52 301.027 604.52 302.01C604.52 302.993 605.317 303.79 606.3 303.79Z" fill="white"/>
<path opacity="0.5" d="M606.3 319.09C607.283 319.09 608.08 318.293 608.08 317.31C608.08 316.327 607.283 315.53 606.3 315.53C605.317 315.53 604.52 316.327 604.52 317.31C604.52 318.293 605.317 319.09 606.3 319.09Z" fill="white"/>
<path opacity="0.5" d="M606.3 334.4C607.283 334.4 608.08 333.603 608.08 332.62C608.08 331.637 607.283 330.84 606.3 330.84C605.317 330.84 604.52 331.637 604.52 332.62C604.52 333.603 605.317 334.4 606.3 334.4Z" fill="white"/>
<path opacity="0.5" d="M606.3 349.7C607.283 349.7 608.08 348.903 608.08 347.92C608.08 346.937 607.283 346.14 606.3 346.14C605.317 346.14 604.52 346.937 604.52 347.92C604.52 348.903 605.317 349.7 606.3 349.7Z" fill="white"/>
<path opacity="0.5" d="M606.3 365.01C607.283 365.01 608.08 364.213 608.08 363.23C608.08 362.247 607.283 361.45 606.3 361.45C605.317 361.45 604.52 362.247 604.52 363.23C604.52 364.213 605.317 365.01 606.3 365.01Z" fill="white"/>
<path opacity="0.5" d="M606.3 380.31C607.283 380.31 608.08 379.513 608.08 378.53C608.08 377.547 607.283 376.75 606.3 376.75C605.317 376.75 604.52 377.547 604.52 378.53C604.52 379.513 605.317 380.31 606.3 380.31Z" fill="white"/>
<path opacity="0.5" d="M606.3 395.61C605.32 395.61 604.52 394.81 604.52 393.83C604.52 392.85 605.32 392.05 606.3 392.05C607.28 392.05 608.08 392.85 608.08 393.83C608.08 394.82 607.28 395.61 606.3 395.61Z" fill="white"/>
<path opacity="0.5" d="M590.99 288.48C591.973 288.48 592.77 287.683 592.77 286.7C592.77 285.717 591.973 284.92 590.99 284.92C590.007 284.92 589.21 285.717 589.21 286.7C589.21 287.683 590.007 288.48 590.99 288.48Z" fill="white"/>
<path opacity="0.5" d="M590.99 303.79C591.973 303.79 592.77 302.993 592.77 302.01C592.77 301.027 591.973 300.23 590.99 300.23C590.007 300.23 589.21 301.027 589.21 302.01C589.21 302.993 590.007 303.79 590.99 303.79Z" fill="white"/>
<path opacity="0.5" d="M590.99 319.09C591.973 319.09 592.77 318.293 592.77 317.31C592.77 316.327 591.973 315.53 590.99 315.53C590.007 315.53 589.21 316.327 589.21 317.31C589.21 318.293 590.007 319.09 590.99 319.09Z" fill="white"/>
<path opacity="0.5" d="M590.99 334.4C591.973 334.4 592.77 333.603 592.77 332.62C592.77 331.637 591.973 330.84 590.99 330.84C590.007 330.84 589.21 331.637 589.21 332.62C589.21 333.603 590.007 334.4 590.99 334.4Z" fill="white"/>
<path opacity="0.5" d="M590.99 349.7C591.973 349.7 592.77 348.903 592.77 347.92C592.77 346.937 591.973 346.14 590.99 346.14C590.007 346.14 589.21 346.937 589.21 347.92C589.21 348.903 590.007 349.7 590.99 349.7Z" fill="white"/>
<path opacity="0.5" d="M590.99 365.01C591.973 365.01 592.77 364.213 592.77 363.23C592.77 362.247 591.973 361.45 590.99 361.45C590.007 361.45 589.21 362.247 589.21 363.23C589.21 364.213 590.007 365.01 590.99 365.01Z" fill="white"/>
<path opacity="0.5" d="M590.99 380.31C591.973 380.31 592.77 379.513 592.77 378.53C592.77 377.547 591.973 376.75 590.99 376.75C590.007 376.75 589.21 377.547 589.21 378.53C589.21 379.513 590.007 380.31 590.99 380.31Z" fill="white"/>
<path opacity="0.5" d="M590.99 395.61C590.01 395.61 589.21 394.81 589.21 393.83C589.21 392.85 590.01 392.05 590.99 392.05C591.97 392.05 592.77 392.85 592.77 393.83C592.77 394.82 591.98 395.61 590.99 395.61Z" fill="white"/>
<path opacity="0.5" d="M575.69 288.48C576.673 288.48 577.47 287.683 577.47 286.7C577.47 285.717 576.673 284.92 575.69 284.92C574.707 284.92 573.91 285.717 573.91 286.7C573.91 287.683 574.707 288.48 575.69 288.48Z" fill="white"/>
<path opacity="0.5" d="M575.69 303.79C576.673 303.79 577.47 302.993 577.47 302.01C577.47 301.027 576.673 300.23 575.69 300.23C574.707 300.23 573.91 301.027 573.91 302.01C573.91 302.993 574.707 303.79 575.69 303.79Z" fill="white"/>
<path opacity="0.5" d="M575.69 319.09C576.673 319.09 577.47 318.293 577.47 317.31C577.47 316.327 576.673 315.53 575.69 315.53C574.707 315.53 573.91 316.327 573.91 317.31C573.91 318.293 574.707 319.09 575.69 319.09Z" fill="white"/>
<path opacity="0.5" d="M575.69 334.4C576.673 334.4 577.47 333.603 577.47 332.62C577.47 331.637 576.673 330.84 575.69 330.84C574.707 330.84 573.91 331.637 573.91 332.62C573.91 333.603 574.707 334.4 575.69 334.4Z" fill="white"/>
<path opacity="0.5" d="M575.69 349.7C576.673 349.7 577.47 348.903 577.47 347.92C577.47 346.937 576.673 346.14 575.69 346.14C574.707 346.14 573.91 346.937 573.91 347.92C573.91 348.903 574.707 349.7 575.69 349.7Z" fill="white"/>
<path opacity="0.5" d="M575.69 365.01C576.673 365.01 577.47 364.213 577.47 363.23C577.47 362.247 576.673 361.45 575.69 361.45C574.707 361.45 573.91 362.247 573.91 363.23C573.91 364.213 574.707 365.01 575.69 365.01Z" fill="white"/>
<path opacity="0.5" d="M575.69 380.31C576.673 380.31 577.47 379.513 577.47 378.53C577.47 377.547 576.673 376.75 575.69 376.75C574.707 376.75 573.91 377.547 573.91 378.53C573.91 379.513 574.707 380.31 575.69 380.31Z" fill="white"/>
<path opacity="0.5" d="M575.69 395.61C574.71 395.61 573.91 394.81 573.91 393.83C573.91 392.85 574.71 392.05 575.69 392.05C576.67 392.05 577.47 392.85 577.47 393.83C577.47 394.82 576.67 395.61 575.69 395.61Z" fill="white"/>
<path opacity="0.5" d="M560.38 288.48C561.363 288.48 562.16 287.683 562.16 286.7C562.16 285.717 561.363 284.92 560.38 284.92C559.397 284.92 558.6 285.717 558.6 286.7C558.6 287.683 559.397 288.48 560.38 288.48Z" fill="white"/>
<path opacity="0.5" d="M560.38 303.79C561.363 303.79 562.16 302.993 562.16 302.01C562.16 301.027 561.363 300.23 560.38 300.23C559.397 300.23 558.6 301.027 558.6 302.01C558.6 302.993 559.397 303.79 560.38 303.79Z" fill="white"/>
<path opacity="0.5" d="M560.38 319.09C561.363 319.09 562.16 318.293 562.16 317.31C562.16 316.327 561.363 315.53 560.38 315.53C559.397 315.53 558.6 316.327 558.6 317.31C558.6 318.293 559.397 319.09 560.38 319.09Z" fill="white"/>
<path opacity="0.5" d="M560.38 334.4C561.363 334.4 562.16 333.603 562.16 332.62C562.16 331.637 561.363 330.84 560.38 330.84C559.397 330.84 558.6 331.637 558.6 332.62C558.6 333.603 559.397 334.4 560.38 334.4Z" fill="white"/>
<path opacity="0.5" d="M560.38 349.7C561.363 349.7 562.16 348.903 562.16 347.92C562.16 346.937 561.363 346.14 560.38 346.14C559.397 346.14 558.6 346.937 558.6 347.92C558.6 348.903 559.397 349.7 560.38 349.7Z" fill="white"/>
<path opacity="0.5" d="M560.38 365.01C561.363 365.01 562.16 364.213 562.16 363.23C562.16 362.247 561.363 361.45 560.38 361.45C559.397 361.45 558.6 362.247 558.6 363.23C558.6 364.213 559.397 365.01 560.38 365.01Z" fill="white"/>
<path opacity="0.5" d="M560.38 380.31C561.363 380.31 562.16 379.513 562.16 378.53C562.16 377.547 561.363 376.75 560.38 376.75C559.397 376.75 558.6 377.547 558.6 378.53C558.6 379.513 559.397 380.31 560.38 380.31Z" fill="white"/>
<path opacity="0.5" d="M560.38 395.61C559.4 395.61 558.6 394.81 558.6 393.83C558.6 392.85 559.4 392.05 560.38 392.05C561.36 392.05 562.16 392.85 562.16 393.83C562.16 394.82 561.36 395.61 560.38 395.61Z" fill="white"/>
</g>
<g opacity="0.5">
<path opacity="0.5" d="M441.52 57.5398C441.52 58.5198 440.72 59.3198 439.74 59.3198C438.76 59.3198 437.96 58.5198 437.96 57.5398C437.96 56.5598 438.76 55.7598 439.74 55.7598C440.72 55.7598 441.52 56.5598 441.52 57.5398Z" fill="white"/>
<path opacity="0.5" d="M456.83 57.5398C456.83 58.5198 456.03 59.3198 455.05 59.3198C454.07 59.3198 453.27 58.5198 453.27 57.5398C453.27 56.5598 454.07 55.7598 455.05 55.7598C456.03 55.7698 456.83 56.5598 456.83 57.5398Z" fill="white"/>
<path opacity="0.5" d="M472.13 57.5398C472.13 58.5198 471.33 59.3198 470.35 59.3198C469.37 59.3198 468.57 58.5198 468.57 57.5398C468.57 56.5598 469.37 55.7598 470.35 55.7598C471.33 55.7598 472.13 56.5598 472.13 57.5398Z" fill="white"/>
<path opacity="0.5" d="M441.52 72.8498C441.52 73.8298 440.72 74.6298 439.74 74.6298C438.76 74.6298 437.96 73.8298 437.96 72.8498C437.96 71.8698 438.76 71.0698 439.74 71.0698C440.72 71.0698 441.52 71.8698 441.52 72.8498Z" fill="white"/>
<path opacity="0.5" d="M456.83 72.8498C456.83 73.8298 456.03 74.6298 455.05 74.6298C454.07 74.6298 453.27 73.8298 453.27 72.8498C453.27 71.8698 454.07 71.0698 455.05 71.0698C456.03 71.0698 456.83 71.8698 456.83 72.8498Z" fill="white"/>
<path opacity="0.5" d="M472.13 72.8498C472.13 73.8298 471.33 74.6298 470.35 74.6298C469.37 74.6298 468.57 73.8298 468.57 72.8498C468.57 71.8698 469.37 71.0698 470.35 71.0698C471.33 71.0698 472.13 71.8698 472.13 72.8498Z" fill="white"/>
<path opacity="0.5" d="M441.52 88.1499C441.52 89.1299 440.72 89.9299 439.74 89.9299C438.76 89.9299 437.96 89.1299 437.96 88.1499C437.96 87.1699 438.76 86.3699 439.74 86.3699C440.72 86.3699 441.52 87.1699 441.52 88.1499Z" fill="white"/>
<path opacity="0.5" d="M456.83 88.1499C456.83 89.1299 456.03 89.9299 455.05 89.9299C454.07 89.9299 453.27 89.1299 453.27 88.1499C453.27 87.1699 454.07 86.3699 455.05 86.3699C456.03 86.3799 456.83 87.1699 456.83 88.1499Z" fill="white"/>
<path opacity="0.5" d="M472.13 88.1499C472.13 89.1299 471.33 89.9299 470.35 89.9299C469.37 89.9299 468.57 89.1299 468.57 88.1499C468.57 87.1699 469.37 86.3699 470.35 86.3699C471.33 86.3699 472.13 87.1699 472.13 88.1499Z" fill="white"/>
</g>
<g opacity="0.5">
<path opacity="0.5" d="M298.62 193.53C298.62 194.51 297.82 195.31 296.84 195.31C295.86 195.31 295.06 194.51 295.06 193.53C295.06 192.55 295.86 191.75 296.84 191.75C297.83 191.75 298.62 192.54 298.62 193.53Z" fill="white"/>
<path opacity="0.5" d="M312.15 195.31C313.133 195.31 313.93 194.513 313.93 193.53C313.93 192.547 313.133 191.75 312.15 191.75C311.167 191.75 310.37 192.547 310.37 193.53C310.37 194.513 311.167 195.31 312.15 195.31Z" fill="white"/>
<path opacity="0.5" d="M327.45 195.31C328.433 195.31 329.23 194.513 329.23 193.53C329.23 192.547 328.433 191.75 327.45 191.75C326.467 191.75 325.67 192.547 325.67 193.53C325.67 194.513 326.467 195.31 327.45 195.31Z" fill="white"/>
<path opacity="0.5" d="M298.62 208.83C298.62 209.81 297.82 210.61 296.84 210.61C295.86 210.61 295.06 209.81 295.06 208.83C295.06 207.85 295.86 207.05 296.84 207.05C297.83 207.05 298.62 207.85 298.62 208.83Z" fill="white"/>
<path opacity="0.5" d="M312.15 210.61C313.133 210.61 313.93 209.813 313.93 208.83C313.93 207.847 313.133 207.05 312.15 207.05C311.167 207.05 310.37 207.847 310.37 208.83C310.37 209.813 311.167 210.61 312.15 210.61Z" fill="white"/>
<path opacity="0.5" d="M327.45 210.61C328.433 210.61 329.23 209.813 329.23 208.83C329.23 207.847 328.433 207.05 327.45 207.05C326.467 207.05 325.67 207.847 325.67 208.83C325.67 209.813 326.467 210.61 327.45 210.61Z" fill="white"/>
<path opacity="0.5" d="M298.62 224.14C298.62 225.12 297.82 225.92 296.84 225.92C295.86 225.92 295.06 225.12 295.06 224.14C295.06 223.16 295.86 222.36 296.84 222.36C297.83 222.36 298.62 223.16 298.62 224.14Z" fill="white"/>
<path opacity="0.5" d="M313.93 224.14C313.93 225.12 313.13 225.92 312.15 225.92C311.17 225.92 310.37 225.12 310.37 224.14C310.37 223.16 311.17 222.36 312.15 222.36C313.13 222.36 313.93 223.16 313.93 224.14Z" fill="white"/>
<path opacity="0.5" d="M329.23 224.14C329.23 225.12 328.43 225.92 327.45 225.92C326.47 225.92 325.67 225.12 325.67 224.14C325.67 223.16 326.47 222.36 327.45 222.36C328.44 222.36 329.23 223.16 329.23 224.14Z" fill="white"/>
</g>
<g opacity="0.5">
<path opacity="0.5" d="M585.12 -1.44019L520.64 63.0398" stroke="white" stroke-width="2.1221" stroke-miterlimit="10"/>
<path opacity="0.5" d="M580.93 -5.63013L516.45 58.8499" stroke="white" stroke-width="2.1221" stroke-miterlimit="10"/>
<path opacity="0.5" d="M576.74 -9.82031L512.26 54.6597" stroke="white" stroke-width="2.1221" stroke-miterlimit="10"/>
<path opacity="0.5" d="M572.55 -14.0103L508.07 50.4697" stroke="white" stroke-width="2.1221" stroke-miterlimit="10"/>
<path opacity="0.5" d="M568.36 -18.2002L503.88 46.2798" stroke="white" stroke-width="2.1221" stroke-miterlimit="10"/>
<path opacity="0.5" d="M564.17 -22.3901L499.69 42.0899" stroke="white" stroke-width="2.1221" stroke-miterlimit="10"/>
<path opacity="0.5" d="M559.98 -26.5803L495.5 37.8997" stroke="white" stroke-width="2.1221" stroke-miterlimit="10"/>
<path opacity="0.5" d="M555.79 -30.7703L491.31 33.7097" stroke="white" stroke-width="2.1221" stroke-miterlimit="10"/>
<path opacity="0.5" d="M551.6 -34.9602L487.12 29.5198" stroke="white" stroke-width="2.1221" stroke-miterlimit="10"/>
<path opacity="0.5" d="M547.41 -39.1501L482.93 25.3299" stroke="white" stroke-width="2.1221" stroke-miterlimit="10"/>
<path opacity="0.5" d="M543.22 -43.3403L478.74 21.1397" stroke="white" stroke-width="2.1221" stroke-miterlimit="10"/>
<path opacity="0.5" d="M539.03 -47.5203L474.56 16.9497" stroke="white" stroke-width="2.1221" stroke-miterlimit="10"/>
<path opacity="0.5" d="M534.85 -51.7102L470.37 12.7698" stroke="white" stroke-width="2.1221" stroke-miterlimit="10"/>
<path opacity="0.5" d="M530.66 -55.9001L466.18 8.57986" stroke="white" stroke-width="2.1221" stroke-miterlimit="10"/>
<path opacity="0.5" d="M526.47 -60.0903L461.99 4.38966" stroke="white" stroke-width="2.1221" stroke-miterlimit="10"/>
<path opacity="0.5" d="M522.28 -64.2803L457.8 0.199722" stroke="white" stroke-width="2.1221" stroke-miterlimit="10"/>
</g>
<g opacity="0.5">
<path opacity="0.5" d="M433.51 495.39L369.03 559.87" stroke="white" stroke-width="2.1221" stroke-miterlimit="10"/>
<path opacity="0.5" d="M429.32 491.2L364.84 555.68" stroke="white" stroke-width="2.1221" stroke-miterlimit="10"/>
<path opacity="0.5" d="M425.13 487.01L360.65 551.49" stroke="white" stroke-width="2.1221" stroke-miterlimit="10"/>
<path opacity="0.5" d="M420.94 482.82L356.46 547.3" stroke="white" stroke-width="2.1221" stroke-miterlimit="10"/>
<path opacity="0.5" d="M416.75 478.63L352.27 543.11" stroke="white" stroke-width="2.1221" stroke-miterlimit="10"/>
<path opacity="0.5" d="M412.56 474.44L348.08 538.92" stroke="white" stroke-width="2.1221" stroke-miterlimit="10"/>
<path opacity="0.5" d="M408.37 470.25L343.89 534.73" stroke="white" stroke-width="2.1221" stroke-miterlimit="10"/>
<path opacity="0.5" d="M404.18 466.06L339.7 530.54" stroke="white" stroke-width="2.1221" stroke-miterlimit="10"/>
<path opacity="0.5" d="M399.99 461.87L335.51 526.35" stroke="white" stroke-width="2.1221" stroke-miterlimit="10"/>
<path opacity="0.5" d="M395.8 457.68L331.32 522.16" stroke="white" stroke-width="2.1221" stroke-miterlimit="10"/>
<path opacity="0.5" d="M391.61 453.49L327.13 517.97" stroke="white" stroke-width="2.1221" stroke-miterlimit="10"/>
<path opacity="0.5" d="M387.42 449.3L322.95 513.78" stroke="white" stroke-width="2.1221" stroke-miterlimit="10"/>
<path opacity="0.5" d="M383.24 445.12L318.76 509.59" stroke="white" stroke-width="2.1221" stroke-miterlimit="10"/>
<path opacity="0.5" d="M379.05 440.93L314.57 505.4" stroke="white" stroke-width="2.1221" stroke-miterlimit="10"/>
<path opacity="0.5" d="M374.86 436.74L310.38 501.22" stroke="white" stroke-width="2.1221" stroke-miterlimit="10"/>
</g>
<g opacity="0.8">
<path opacity="0.8" d="M392.971 78.8847C448.019 23.837 448.019 -65.4131 392.971 -120.461C337.924 -175.509 248.673 -175.509 193.626 -120.461C138.578 -65.4131 138.578 23.837 193.626 78.8847C248.673 133.933 337.924 133.933 392.971 78.8847Z" stroke="white" stroke-width="0.5" stroke-miterlimit="10"/>
<path opacity="0.8" d="M387.951 73.8643C440.226 21.5893 440.226 -63.1654 387.951 -115.44C335.676 -167.716 250.921 -167.716 198.646 -115.44C146.371 -63.1654 146.371 21.5892 198.646 73.8643C250.921 126.139 335.676 126.139 387.951 73.8643Z" stroke="white" stroke-width="0.6562" stroke-miterlimit="10"/>
<path opacity="0.8" d="M293.3 105.96C363.302 105.96 420.05 49.2121 420.05 -20.79C420.05 -90.7921 363.302 -147.54 293.3 -147.54C223.298 -147.54 166.55 -90.7921 166.55 -20.79C166.55 49.2121 223.298 105.96 293.3 105.96Z" stroke="white" stroke-width="0.8125" stroke-miterlimit="10"/>
<path opacity="0.8" d="M293.3 98.8598C359.381 98.8598 412.95 45.2907 412.95 -20.7902C412.95 -86.871 359.381 -140.44 293.3 -140.44C227.219 -140.44 173.65 -86.871 173.65 -20.7902C173.65 45.2907 227.219 98.8598 293.3 98.8598Z" stroke="white" stroke-width="0.9688" stroke-miterlimit="10"/>
<path opacity="0.8" d="M372.883 58.796C416.836 14.8429 416.836 -56.4191 372.883 -100.372C328.93 -144.325 257.668 -144.325 213.714 -100.372C169.761 -56.4191 169.761 14.8429 213.714 58.796C257.668 102.749 328.93 102.749 372.883 58.796Z" stroke="white" stroke-width="1.125" stroke-miterlimit="10"/>
<path opacity="0.8" d="M367.862 53.7756C409.043 12.5952 409.043 -54.1714 367.862 -95.3518C326.682 -136.532 259.915 -136.532 218.735 -95.3518C177.554 -54.1714 177.554 12.5952 218.735 53.7756C259.915 94.956 326.682 94.956 367.862 53.7756Z" stroke="white" stroke-width="1.2812" stroke-miterlimit="10"/>
<path opacity="0.8" d="M362.842 48.7552C401.249 10.3475 401.249 -51.9237 362.842 -90.3314C324.434 -128.739 262.163 -128.739 223.755 -90.3314C185.347 -51.9237 185.348 10.3475 223.755 48.7552C262.163 87.1629 324.434 87.1629 362.842 48.7552Z" stroke="white" stroke-width="1.4375" stroke-miterlimit="10"/>
<path opacity="0.8" d="M357.821 43.7348C393.456 8.09979 393.456 -49.676 357.821 -85.311C322.186 -120.946 264.411 -120.946 228.776 -85.311C193.141 -49.676 193.141 8.09979 228.776 43.7348C264.411 79.3698 322.186 79.3698 357.821 43.7348Z" stroke="white" stroke-width="1.5938" stroke-miterlimit="10"/>
<path opacity="0.8" d="M376.391 -7.36376C383.795 -53.2436 352.603 -96.4383 306.723 -103.842C260.844 -111.245 217.649 -80.0538 210.245 -34.174C202.842 11.7059 234.033 54.9006 279.913 62.304C325.793 69.7075 368.988 38.5161 376.391 -7.36376Z" stroke="white" stroke-width="1.75" stroke-miterlimit="10"/>
<path opacity="0.8" d="M293.3 56.2599C335.853 56.2599 370.35 21.7635 370.35 -20.7901C370.35 -63.3436 335.853 -97.8401 293.3 -97.8401C250.746 -97.8401 216.25 -63.3436 216.25 -20.7901C216.25 21.7635 250.746 56.2599 293.3 56.2599Z" stroke="white" stroke-width="1.9062" stroke-miterlimit="10"/>
<path opacity="0.8" d="M342.76 28.6736C370.077 1.35666 370.077 -42.9328 342.76 -70.2497C315.443 -97.5666 271.154 -97.5666 243.837 -70.2497C216.52 -42.9328 216.52 1.35665 243.837 28.6736C271.154 55.9905 315.443 55.9905 342.76 28.6736Z" stroke="white" stroke-width="2.0625" stroke-miterlimit="10"/>
<path opacity="0.8" d="M337.733 23.6461C362.273 -0.894231 362.273 -40.682 337.733 -65.2223C313.192 -89.7626 273.405 -89.7626 248.864 -65.2222C224.324 -40.6819 224.324 -0.894231 248.864 23.6461C273.405 48.1864 313.192 48.1864 337.733 23.6461Z" stroke="white" stroke-width="2.2188" stroke-miterlimit="10"/>
<path opacity="0.8" d="M332.712 18.6257C354.48 -3.14194 354.48 -38.4342 332.712 -60.2018C310.945 -81.9694 275.652 -81.9694 253.885 -60.2018C232.117 -38.4342 232.117 -3.14194 253.885 18.6257C275.652 40.3933 310.945 40.3933 332.712 18.6257Z" stroke="white" stroke-width="2.375" stroke-miterlimit="10"/>
<path opacity="0.8" d="M327.692 13.6053C346.687 -5.38965 346.687 -36.1865 327.692 -55.1814C308.697 -74.1763 277.9 -74.1763 258.905 -55.1814C239.91 -36.1865 239.91 -5.38966 258.905 13.6053C277.9 32.6002 308.697 32.6002 327.692 13.6053Z" stroke="white" stroke-width="2.5312" stroke-miterlimit="10"/>
<path opacity="0.8" d="M334.54 -15.9265C337.229 -38.7101 320.939 -59.3596 298.155 -62.0484C275.372 -64.7372 254.722 -48.4471 252.033 -25.6635C249.345 -2.8799 265.635 17.7695 288.418 20.4583C311.202 23.1471 331.851 6.85708 334.54 -15.9265Z" stroke="white" stroke-width="2.6875" stroke-miterlimit="10"/>
<path opacity="0.8" d="M293.3 13.6498C312.321 13.6498 327.74 -1.76953 327.74 -20.7902C327.74 -39.8109 312.321 -55.2302 293.3 -55.2302C274.279 -55.2302 258.86 -39.8109 258.86 -20.7902C258.86 -1.76953 274.279 13.6498 293.3 13.6498Z" stroke="white" stroke-width="2.8438" stroke-miterlimit="10"/>
<path opacity="0.8" d="M320.574 -18.5921C321.773 -33.6432 310.543 -46.8165 295.492 -48.0154C280.441 -49.2143 267.268 -37.9848 266.069 -22.9337C264.87 -7.88251 276.099 5.29075 291.151 6.48964C306.202 7.68854 319.375 -3.54092 320.574 -18.5921Z" stroke="white" stroke-width="3" stroke-miterlimit="10"/>
</g>
<g opacity="0.79">
<path opacity="0.79" d="M515.162 298.757C551.18 262.739 551.18 204.343 515.162 168.325C479.144 132.308 420.748 132.308 384.73 168.325C348.712 204.343 348.712 262.739 384.73 298.757C420.748 334.775 479.144 334.775 515.162 298.757Z" stroke="white" stroke-width="0.5" stroke-miterlimit="10"/>
<path opacity="0.79" d="M510.566 294.161C544.045 260.682 544.045 206.401 510.566 172.922C477.086 139.442 422.806 139.442 389.326 172.922C355.847 206.401 355.847 260.682 389.326 294.161C422.806 327.64 477.086 327.64 510.566 294.161Z" stroke="white" stroke-width="0.7273" stroke-miterlimit="10"/>
<path opacity="0.79" d="M449.95 312.77C493.707 312.77 529.18 277.298 529.18 233.54C529.18 189.783 493.707 154.31 449.95 154.31C406.192 154.31 370.72 189.783 370.72 233.54C370.72 277.298 406.192 312.77 449.95 312.77Z" stroke="white" stroke-width="0.9545" stroke-miterlimit="10"/>
<path opacity="0.79" d="M449.95 306.28C490.123 306.28 522.69 273.713 522.69 233.54C522.69 193.367 490.123 160.8 449.95 160.8C409.777 160.8 377.21 193.367 377.21 233.54C377.21 273.713 409.777 306.28 449.95 306.28Z" stroke="white" stroke-width="1.1818" stroke-miterlimit="10"/>
<path opacity="0.79" d="M449.95 299.78C486.533 299.78 516.19 270.123 516.19 233.54C516.19 196.957 486.533 167.3 449.95 167.3C413.367 167.3 383.71 196.957 383.71 233.54C383.71 270.123 413.367 299.78 449.95 299.78Z" stroke="white" stroke-width="1.4091" stroke-miterlimit="10"/>
<path opacity="0.79" d="M449.95 293.28C482.943 293.28 509.69 266.534 509.69 233.54C509.69 200.547 482.943 173.8 449.95 173.8C416.956 173.8 390.21 200.547 390.21 233.54C390.21 266.534 416.956 293.28 449.95 293.28Z" stroke="white" stroke-width="1.6364" stroke-miterlimit="10"/>
<path opacity="0.79" d="M449.95 286.78C479.354 286.78 503.19 262.944 503.19 233.54C503.19 204.136 479.354 180.3 449.95 180.3C420.546 180.3 396.71 204.136 396.71 233.54C396.71 262.944 420.546 286.78 449.95 286.78Z" stroke="white" stroke-width="1.8636" stroke-miterlimit="10"/>
<path opacity="0.79" d="M449.95 280.28C475.764 280.28 496.69 259.354 496.69 233.54C496.69 207.726 475.764 186.8 449.95 186.8C424.136 186.8 403.21 207.726 403.21 233.54C403.21 259.354 424.136 280.28 449.95 280.28Z" stroke="white" stroke-width="2.0909" stroke-miterlimit="10"/>
<path opacity="0.79" d="M449.95 273.78C472.174 273.78 490.19 255.764 490.19 233.54C490.19 211.316 472.174 193.3 449.95 193.3C427.726 193.3 409.71 211.316 409.71 233.54C409.71 255.764 427.726 273.78 449.95 273.78Z" stroke="white" stroke-width="2.3182" stroke-miterlimit="10"/>
<path opacity="0.79" d="M449.95 267.28C468.584 267.28 483.69 252.174 483.69 233.54C483.69 214.906 468.584 199.8 449.95 199.8C431.316 199.8 416.21 214.906 416.21 233.54C416.21 252.174 431.316 267.28 449.95 267.28Z" stroke="white" stroke-width="2.5454" stroke-miterlimit="10"/>
<path opacity="0.79" d="M449.95 260.78C464.994 260.78 477.19 248.584 477.19 233.54C477.19 218.496 464.994 206.3 449.95 206.3C434.906 206.3 422.71 218.496 422.71 233.54C422.71 248.584 434.906 260.78 449.95 260.78Z" stroke="white" stroke-width="2.7727" stroke-miterlimit="10"/>
<path opacity="0.79" d="M449.95 254.28C461.404 254.28 470.69 244.994 470.69 233.54C470.69 222.086 461.404 212.8 449.95 212.8C438.496 212.8 429.21 222.086 429.21 233.54C429.21 244.994 438.496 254.28 449.95 254.28Z" stroke="white" stroke-width="3" stroke-miterlimit="10"/>
</g>
<g opacity="0.89">
<g opacity="0.89">
<path opacity="0.89" d="M180.79 273.61C225.47 273.61 261.69 237.39 261.69 192.71C261.69 148.03 225.47 111.81 180.79 111.81C136.11 111.81 99.8899 148.03 99.8899 192.71C99.8899 237.39 136.11 273.61 180.79 273.61Z" stroke="white" stroke-width="0.8127" stroke-linecap="round" stroke-linejoin="round"/>
</g>
<g opacity="0.89">
<path opacity="0.89" d="M180.79 267.71C222.211 267.71 255.79 234.131 255.79 192.71C255.79 151.288 222.211 117.71 180.79 117.71C139.369 117.71 105.79 151.288 105.79 192.71C105.79 234.131 139.369 267.71 180.79 267.71Z" stroke="white" stroke-width="0.9493" stroke-linecap="round" stroke-linejoin="round"/>
</g>
<g opacity="0.89">
<path opacity="0.89" d="M180.79 261.81C218.953 261.81 249.89 230.873 249.89 192.71C249.89 154.547 218.953 123.61 180.79 123.61C142.627 123.61 111.69 154.547 111.69 192.71C111.69 230.873 142.627 261.81 180.79 261.81Z" stroke="white" stroke-width="1.0859" stroke-linecap="round" stroke-linejoin="round"/>
</g>
<g opacity="0.89">
<path opacity="0.89" d="M180.79 255.91C215.694 255.91 243.99 227.614 243.99 192.71C243.99 157.805 215.694 129.51 180.79 129.51C145.885 129.51 117.59 157.805 117.59 192.71C117.59 227.614 145.885 255.91 180.79 255.91Z" stroke="white" stroke-width="1.2225" stroke-linecap="round" stroke-linejoin="round"/>
</g>
<g opacity="0.89">
<path opacity="0.89" d="M180.79 250.01C212.436 250.01 238.09 224.356 238.09 192.71C238.09 161.064 212.436 135.41 180.79 135.41C149.144 135.41 123.49 161.064 123.49 192.71C123.49 224.356 149.144 250.01 180.79 250.01Z" stroke="white" stroke-width="1.3591" stroke-linecap="round" stroke-linejoin="round"/>
</g>
<g opacity="0.89">
<path opacity="0.89" d="M180.79 244.11C209.177 244.11 232.19 221.097 232.19 192.71C232.19 164.322 209.177 141.31 180.79 141.31C152.402 141.31 129.39 164.322 129.39 192.71C129.39 221.097 152.402 244.11 180.79 244.11Z" stroke="white" stroke-width="1.4956" stroke-linecap="round" stroke-linejoin="round"/>
</g>
<g opacity="0.89">
<path opacity="0.89" d="M180.79 238.21C205.919 238.21 226.29 217.839 226.29 192.71C226.29 167.581 205.919 147.21 180.79 147.21C155.661 147.21 135.29 167.581 135.29 192.71C135.29 217.839 155.661 238.21 180.79 238.21Z" stroke="white" stroke-width="1.6322" stroke-linecap="round" stroke-linejoin="round"/>
</g>
<g opacity="0.89">
<path opacity="0.89" d="M180.79 232.31C202.66 232.31 220.39 214.58 220.39 192.71C220.39 170.839 202.66 153.11 180.79 153.11C158.919 153.11 141.19 170.839 141.19 192.71C141.19 214.58 158.919 232.31 180.79 232.31Z" stroke="white" stroke-width="1.7688" stroke-linecap="round" stroke-linejoin="round"/>
</g>
<g opacity="0.89">
<path opacity="0.89" d="M180.79 226.42C199.407 226.42 214.5 211.327 214.5 192.71C214.5 174.092 199.407 159 180.79 159C162.172 159 147.08 174.092 147.08 192.71C147.08 211.327 162.172 226.42 180.79 226.42Z" stroke="white" stroke-width="1.9054" stroke-linecap="round" stroke-linejoin="round"/>
</g>
<g opacity="0.89">
<path opacity="0.89" d="M180.79 220.52C196.149 220.52 208.6 208.069 208.6 192.71C208.6 177.351 196.149 164.9 180.79 164.9C165.431 164.9 152.98 177.351 152.98 192.71C152.98 208.069 165.431 220.52 180.79 220.52Z" stroke="white" stroke-width="2.042" stroke-linecap="round" stroke-linejoin="round"/>
</g>
<g opacity="0.89">
<path opacity="0.89" d="M180.79 214.62C192.89 214.62 202.7 204.81 202.7 192.71C202.7 180.609 192.89 170.8 180.79 170.8C168.689 170.8 158.88 180.609 158.88 192.71C158.88 204.81 168.689 214.62 180.79 214.62Z" stroke="white" stroke-width="2.1786" stroke-linecap="round" stroke-linejoin="round"/>
</g>
<g opacity="0.89">
<path opacity="0.89" d="M180.79 208.72C189.632 208.72 196.8 201.552 196.8 192.71C196.8 183.868 189.632 176.7 180.79 176.7C171.948 176.7 164.78 183.868 164.78 192.71C164.78 201.552 171.948 208.72 180.79 208.72Z" stroke="white" stroke-width="2.3152" stroke-linecap="round" stroke-linejoin="round"/>
</g>
</g>
<g opacity="0.81">
<g opacity="0.81">
<path opacity="0.81" d="M856.325 104.568C914.868 46.0255 914.868 -48.8913 856.325 -107.434C797.782 -165.977 702.866 -165.977 644.323 -107.434C585.78 -48.8913 585.78 46.0256 644.323 104.568C702.866 163.111 797.782 163.111 856.325 104.568Z" stroke="white" stroke-width="1.0531" stroke-linecap="round" stroke-linejoin="round"/>
</g>
<g opacity="0.81">
<path opacity="0.81" d="M750.33 142.74C829.958 142.74 894.51 78.1883 894.51 -1.44012C894.51 -81.0685 829.958 -145.62 750.33 -145.62C670.701 -145.62 606.15 -81.0685 606.15 -1.44012C606.15 78.1883 670.701 142.74 750.33 142.74Z" stroke="white" stroke-width="1.1458" stroke-linecap="round" stroke-linejoin="round"/>
</g>
<g opacity="0.81">
<path opacity="0.81" d="M848.229 96.4722C902.301 42.4007 902.301 -45.2665 848.229 -99.338C794.158 -153.409 706.49 -153.409 652.419 -99.3379C598.348 -45.2665 598.348 42.4007 652.419 96.4722C706.49 150.544 794.158 150.544 848.229 96.4722Z" stroke="white" stroke-width="1.2385" stroke-linecap="round" stroke-linejoin="round"/>
</g>
<g opacity="0.81">
<path opacity="0.81" d="M750.33 131.29C823.635 131.29 883.06 71.8646 883.06 -1.44017C883.06 -74.7449 823.635 -134.17 750.33 -134.17C677.025 -134.17 617.6 -74.7449 617.6 -1.44017C617.6 71.8646 677.025 131.29 750.33 131.29Z" stroke="white" stroke-width="1.3312" stroke-linecap="round" stroke-linejoin="round"/>
</g>
<g opacity="0.81">
<path opacity="0.81" d="M750.33 125.57C820.476 125.57 877.34 68.7055 877.34 -1.4402C877.34 -71.5859 820.476 -128.45 750.33 -128.45C680.184 -128.45 623.32 -71.5859 623.32 -1.4402C623.32 68.7055 680.184 125.57 750.33 125.57Z" stroke="white" stroke-width="1.4239" stroke-linecap="round" stroke-linejoin="round"/>
</g>
<g opacity="0.81">
<path opacity="0.81" d="M750.33 119.84C817.311 119.84 871.61 65.5411 871.61 -1.43997C871.61 -68.4211 817.311 -122.72 750.33 -122.72C683.349 -122.72 629.05 -68.4211 629.05 -1.43997C629.05 65.5411 683.349 119.84 750.33 119.84Z" stroke="white" stroke-width="1.5166" stroke-linecap="round" stroke-linejoin="round"/>
</g>
<g opacity="0.81">
<path opacity="0.81" d="M750.33 114.11C814.146 114.11 865.88 62.3765 865.88 -1.43999C865.88 -65.2565 814.146 -116.99 750.33 -116.99C686.513 -116.99 634.78 -65.2565 634.78 -1.43999C634.78 62.3765 686.513 114.11 750.33 114.11Z" stroke="white" stroke-width="1.6093" stroke-linecap="round" stroke-linejoin="round"/>
</g>
<g opacity="0.81">
<path opacity="0.81" d="M750.33 108.39C810.987 108.39 860.16 59.2174 860.16 -1.44002C860.16 -62.0975 810.987 -111.27 750.33 -111.27C689.672 -111.27 640.5 -62.0975 640.5 -1.44002C640.5 59.2174 689.672 108.39 750.33 108.39Z" stroke="white" stroke-width="1.702" stroke-linecap="round" stroke-linejoin="round"/>
</g>
<g opacity="0.81">
<path opacity="0.81" d="M750.33 102.66C807.823 102.66 854.43 56.0528 854.43 -1.44004C854.43 -58.9329 807.823 -105.54 750.33 -105.54C692.837 -105.54 646.23 -58.9329 646.23 -1.44004C646.23 56.0528 692.837 102.66 750.33 102.66Z" stroke="white" stroke-width="1.7948" stroke-linecap="round" stroke-linejoin="round"/>
</g>
<g opacity="0.81">
<path opacity="0.81" d="M750.33 96.9399C804.664 96.9399 848.71 52.8937 848.71 -1.44007C848.71 -55.7738 804.664 -99.8201 750.33 -99.8201C695.996 -99.8201 651.95 -55.7738 651.95 -1.44007C651.95 52.8937 695.996 96.9399 750.33 96.9399Z" stroke="white" stroke-width="1.8875" stroke-linecap="round" stroke-linejoin="round"/>
</g>
<g opacity="0.81">
<path opacity="0.81" d="M750.33 91.2099C801.499 91.2099 842.98 49.7291 842.98 -1.44009C842.98 -52.6093 801.499 -94.0901 750.33 -94.0901C699.161 -94.0901 657.68 -52.6093 657.68 -1.44009C657.68 49.7291 699.161 91.2099 750.33 91.2099Z" stroke="white" stroke-width="1.9802" stroke-linecap="round" stroke-linejoin="round"/>
</g>
<g opacity="0.81">
<path opacity="0.81" d="M750.33 85.4799C798.335 85.4799 837.25 46.5645 837.25 -1.44011C837.25 -49.4447 798.335 -88.3601 750.33 -88.3601C702.325 -88.3601 663.41 -49.4447 663.41 -1.44011C663.41 46.5645 702.325 85.4799 750.33 85.4799Z" stroke="white" stroke-width="2.0729" stroke-linecap="round" stroke-linejoin="round"/>
</g>
<g opacity="0.81">
<path opacity="0.81" d="M753.247 79.7614C798.066 78.1649 833.104 40.5381 831.508 -4.28055C829.911 -49.0992 792.284 -84.1376 747.466 -82.5411C702.647 -80.9446 667.609 -43.3177 669.205 1.50089C670.802 46.3195 708.429 81.3579 753.247 79.7614Z" stroke="white" stroke-width="2.1656" stroke-linecap="round" stroke-linejoin="round"/>
</g>
<g opacity="0.81">
<path opacity="0.81" d="M750.33 74.0298C792.011 74.0298 825.8 40.2408 825.8 -1.44016C825.8 -43.1211 792.011 -76.9102 750.33 -76.9102C708.649 -76.9102 674.86 -43.1211 674.86 -1.44016C674.86 40.2408 708.649 74.0298 750.33 74.0298Z" stroke="white" stroke-width="2.2583" stroke-linecap="round" stroke-linejoin="round"/>
</g>
<g opacity="0.81">
<path opacity="0.81" d="M752.84 68.3182C791.338 66.9468 821.436 34.6257 820.065 -3.87304C818.693 -42.3718 786.372 -72.4695 747.873 -71.0981C709.375 -69.7267 679.277 -37.4056 680.648 1.09316C682.02 39.5919 714.341 69.6896 752.84 68.3182Z" stroke="white" stroke-width="2.351" stroke-linecap="round" stroke-linejoin="round"/>
</g>
<g opacity="0.81">
<path opacity="0.81" d="M750.33 62.58C785.687 62.58 814.35 33.9173 814.35 -1.43996C814.35 -36.7972 785.687 -65.46 750.33 -65.46C714.973 -65.46 686.31 -36.7972 686.31 -1.43996C686.31 33.9173 714.973 62.58 750.33 62.58Z" stroke="white" stroke-width="2.4437" stroke-linecap="round" stroke-linejoin="round"/>
</g>
<g opacity="0.81">
<path opacity="0.81" d="M752.432 56.8649C784.605 55.7188 809.758 28.7081 808.612 -3.46529C807.466 -35.6387 780.455 -60.7913 748.281 -59.6452C716.108 -58.4991 690.955 -31.4884 692.101 0.68496C693.248 32.8583 720.258 58.0109 752.432 56.8649Z" stroke="white" stroke-width="2.5364" stroke-linecap="round" stroke-linejoin="round"/>
</g>
<g opacity="0.81">
<path opacity="0.81" d="M750.33 51.13C779.364 51.13 802.9 27.5936 802.9 -1.44001C802.9 -30.4736 779.364 -54.01 750.33 -54.01C721.296 -54.01 697.76 -30.4736 697.76 -1.44001C697.76 27.5936 721.296 51.13 750.33 51.13Z" stroke="white" stroke-width="2.6292" stroke-linecap="round" stroke-linejoin="round"/>
</g>
<g opacity="0.81">
<path opacity="0.81" d="M752.024 45.4219C777.878 44.5009 798.089 22.796 797.168 -3.05754C796.248 -28.911 774.543 -49.1229 748.689 -48.2019C722.836 -47.281 702.624 -25.576 703.545 0.277469C704.466 26.131 726.171 46.3428 752.024 45.4219Z" stroke="white" stroke-width="2.7219" stroke-linecap="round" stroke-linejoin="round"/>
</g>
<g opacity="0.81">
<path opacity="0.81" d="M750.33 39.6799C773.04 39.6799 791.45 21.2699 791.45 -1.44006C791.45 -24.15 773.04 -42.5601 750.33 -42.5601C727.62 -42.5601 709.21 -24.15 709.21 -1.44006C709.21 21.2699 727.62 39.6799 750.33 39.6799Z" stroke="white" stroke-width="2.8146" stroke-linecap="round" stroke-linejoin="round"/>
</g>
<g opacity="0.81">
<path opacity="0.81" d="M751.616 33.9789C771.15 33.2831 786.421 16.8838 785.725 -2.64978C785.029 -22.1834 768.63 -37.4545 749.097 -36.7587C729.563 -36.0628 714.292 -19.6636 714.988 -0.130013C715.683 19.4036 732.083 34.6747 751.616 33.9789Z" stroke="white" stroke-width="2.9073" stroke-linecap="round" stroke-linejoin="round"/>
</g>
<g opacity="0.81">
<path opacity="0.81" d="M750.33 28.2199C766.711 28.2199 779.99 14.9407 779.99 -1.44009C779.99 -17.8209 766.711 -31.1001 750.33 -31.1001C733.949 -31.1001 720.67 -17.8209 720.67 -1.44009C720.67 14.9407 733.949 28.2199 750.33 28.2199Z" stroke="white" stroke-width="3" stroke-linecap="round" stroke-linejoin="round"/>
</g>
</g>
<g opacity="0.77">
<g opacity="0.77">
<path opacity="0.77" d="M5.52002 372L-133.98 511.5" stroke="white" stroke-width="2" stroke-miterlimit="10"/>
<path opacity="0.77" d="M13.53 372L-125.97 511.5" stroke="white" stroke-width="2" stroke-miterlimit="10"/>
<path opacity="0.77" d="M21.55 372L-117.95 511.5" stroke="white" stroke-width="2" stroke-miterlimit="10"/>
<path opacity="0.77" d="M29.57 372L-109.93 511.5" stroke="white" stroke-width="2" stroke-miterlimit="10"/>
<path opacity="0.77" d="M37.5899 372L-101.91 511.5" stroke="white" stroke-width="2" stroke-miterlimit="10"/>
<path opacity="0.77" d="M45.6 372L-93.9 511.5" stroke="white" stroke-width="2" stroke-miterlimit="10"/>
<path opacity="0.77" d="M53.62 372L-85.88 511.5" stroke="white" stroke-width="2" stroke-miterlimit="10"/>
<path opacity="0.77" d="M61.64 372L-77.86 511.5" stroke="white" stroke-width="2" stroke-miterlimit="10"/>
<path opacity="0.77" d="M69.6599 372L-69.8401 511.5" stroke="white" stroke-width="2" stroke-miterlimit="10"/>
<path opacity="0.77" d="M77.6699 372L-61.8301 511.5" stroke="white" stroke-width="2" stroke-miterlimit="10"/>
<path opacity="0.77" d="M85.69 372L-53.8101 511.5" stroke="white" stroke-width="2" stroke-miterlimit="10"/>
<path opacity="0.77" d="M93.7099 372L-45.79 511.5" stroke="white" stroke-width="2" stroke-miterlimit="10"/>
<path opacity="0.77" d="M101.72 372L-37.78 511.5" stroke="white" stroke-width="2" stroke-miterlimit="10"/>
<path opacity="0.77" d="M109.74 372L-29.76 511.5" stroke="white" stroke-width="2" stroke-miterlimit="10"/>
<path opacity="0.77" d="M117.76 372L-21.74 511.5" stroke="white" stroke-width="2" stroke-miterlimit="10"/>
<path opacity="0.77" d="M125.78 372L-13.72 511.5" stroke="white" stroke-width="2" stroke-miterlimit="10"/>
<path opacity="0.77" d="M133.79 372L-5.70996 511.5" stroke="white" stroke-width="2" stroke-miterlimit="10"/>
<path opacity="0.77" d="M141.81 372L2.31006 511.5" stroke="white" stroke-width="2" stroke-miterlimit="10"/>
<path opacity="0.77" d="M149.83 372L10.33 511.5" stroke="white" stroke-width="2" stroke-miterlimit="10"/>
<path opacity="0.77" d="M157.84 372L18.34 511.5" stroke="white" stroke-width="2" stroke-miterlimit="10"/>
<path opacity="0.77" d="M165.86 372L26.36 511.5" stroke="white" stroke-width="2" stroke-miterlimit="10"/>
<path opacity="0.77" d="M173.88 372L34.38 511.5" stroke="white" stroke-width="2" stroke-miterlimit="10"/>
<path opacity="0.77" d="M181.9 372L42.3999 511.5" stroke="white" stroke-width="2" stroke-miterlimit="10"/>
<path opacity="0.77" d="M189.91 372L50.4099 511.5" stroke="white" stroke-width="2" stroke-miterlimit="10"/>
<path opacity="0.77" d="M197.93 372L58.4299 511.5" stroke="white" stroke-width="2" stroke-miterlimit="10"/>
<path opacity="0.77" d="M205.95 372L66.45 511.5" stroke="white" stroke-width="2" stroke-miterlimit="10"/>
<path opacity="0.77" d="M213.97 372L74.47 511.5" stroke="white" stroke-width="2" stroke-miterlimit="10"/>
<path opacity="0.77" d="M221.98 372L82.48 511.5" stroke="white" stroke-width="2" stroke-miterlimit="10"/>
<path opacity="0.77" d="M230 372L90.5 511.5" stroke="white" stroke-width="2" stroke-miterlimit="10"/>
</g>
</g>
<g opacity="0.81">
<g opacity="0.81">
<path opacity="0.81" d="M659.08 340.3L328.01 671.37" stroke="white" stroke-width="2" stroke-miterlimit="10"/>
<path opacity="0.81" d="M667 340.3L335.93 671.37" stroke="white" stroke-width="2" stroke-miterlimit="10"/>
<path opacity="0.81" d="M674.93 340.3L343.85 671.37" stroke="white" stroke-width="2" stroke-miterlimit="10"/>
<path opacity="0.81" d="M682.85 340.3L351.78 671.37" stroke="white" stroke-width="2" stroke-miterlimit="10"/>
<path opacity="0.81" d="M690.77 340.3L359.7 671.37" stroke="white" stroke-width="2" stroke-miterlimit="10"/>
<path opacity="0.81" d="M698.7 340.3L367.62 671.37" stroke="white" stroke-width="2" stroke-miterlimit="10"/>
<path opacity="0.81" d="M706.62 340.3L375.55 671.37" stroke="white" stroke-width="2" stroke-miterlimit="10"/>
<path opacity="0.81" d="M714.54 340.3L383.47 671.37" stroke="white" stroke-width="2" stroke-miterlimit="10"/>
<path opacity="0.81" d="M722.47 340.3L391.4 671.37" stroke="white" stroke-width="2" stroke-miterlimit="10"/>
<path opacity="0.81" d="M730.39 340.3L399.32 671.37" stroke="white" stroke-width="2" stroke-miterlimit="10"/>
<path opacity="0.81" d="M738.32 340.3L407.24 671.37" stroke="white" stroke-width="2" stroke-miterlimit="10"/>
<path opacity="0.81" d="M746.24 340.3L415.17 671.37" stroke="white" stroke-width="2" stroke-miterlimit="10"/>
<path opacity="0.81" d="M754.16 340.3L423.09 671.37" stroke="white" stroke-width="2" stroke-miterlimit="10"/>
<path opacity="0.81" d="M762.09 340.3L431.01 671.37" stroke="white" stroke-width="2" stroke-miterlimit="10"/>
<path opacity="0.81" d="M770.01 340.3L438.94 671.37" stroke="white" stroke-width="2" stroke-miterlimit="10"/>
<path opacity="0.81" d="M777.93 340.3L446.86 671.37" stroke="white" stroke-width="2" stroke-miterlimit="10"/>
<path opacity="0.81" d="M785.86 340.3L454.78 671.37" stroke="white" stroke-width="2" stroke-miterlimit="10"/>
<path opacity="0.81" d="M793.78 340.3L462.71 671.37" stroke="white" stroke-width="2" stroke-miterlimit="10"/>
<path opacity="0.81" d="M801.7 340.3L470.63 671.37" stroke="white" stroke-width="2" stroke-miterlimit="10"/>
<path opacity="0.81" d="M809.63 340.3L478.56 671.37" stroke="white" stroke-width="2" stroke-miterlimit="10"/>
<path opacity="0.81" d="M817.55 340.3L486.48 671.37" stroke="white" stroke-width="2" stroke-miterlimit="10"/>
<path opacity="0.81" d="M825.48 340.3L494.4 671.37" stroke="white" stroke-width="2" stroke-miterlimit="10"/>
<path opacity="0.81" d="M833.4 340.3L502.33 671.37" stroke="white" stroke-width="2" stroke-miterlimit="10"/>
<path opacity="0.81" d="M841.32 340.3L510.25 671.37" stroke="white" stroke-width="2" stroke-miterlimit="10"/>
<path opacity="0.81" d="M849.25 340.3L518.17 671.37" stroke="white" stroke-width="2" stroke-miterlimit="10"/>
<path opacity="0.81" d="M857.17 340.3L526.1 671.37" stroke="white" stroke-width="2" stroke-miterlimit="10"/>
<path opacity="0.81" d="M865.09 340.3L534.02 671.37" stroke="white" stroke-width="2" stroke-miterlimit="10"/>
<path opacity="0.81" d="M873.02 340.3L541.94 671.37" stroke="white" stroke-width="2" stroke-miterlimit="10"/>
<path opacity="0.81" d="M880.94 340.3L549.87 671.37" stroke="white" stroke-width="2" stroke-miterlimit="10"/>
<path opacity="0.81" d="M888.86 340.3L557.79 671.37" stroke="white" stroke-width="2" stroke-miterlimit="10"/>
<path opacity="0.81" d="M896.79 340.3L565.72 671.37" stroke="white" stroke-width="2" stroke-miterlimit="10"/>
<path opacity="0.81" d="M904.71 340.3L573.64 671.37" stroke="white" stroke-width="2" stroke-miterlimit="10"/>
<path opacity="0.81" d="M912.64 340.3L581.56 671.37" stroke="white" stroke-width="2" stroke-miterlimit="10"/>
<path opacity="0.81" d="M920.56 340.3L589.49 671.37" stroke="white" stroke-width="2" stroke-miterlimit="10"/>
<path opacity="0.81" d="M928.48 340.3L597.41 671.37" stroke="white" stroke-width="2" stroke-miterlimit="10"/>
<path opacity="0.81" d="M936.41 340.3L605.33 671.37" stroke="white" stroke-width="2" stroke-miterlimit="10"/>
<path opacity="0.81" d="M944.33 340.3L613.26 671.37" stroke="white" stroke-width="2" stroke-miterlimit="10"/>
<path opacity="0.81" d="M952.25 340.3L621.18 671.37" stroke="white" stroke-width="2" stroke-miterlimit="10"/>
<path opacity="0.81" d="M960.18 340.3L629.1 671.37" stroke="white" stroke-width="2" stroke-miterlimit="10"/>
<path opacity="0.81" d="M968.1 340.3L637.03 671.37" stroke="white" stroke-width="2" stroke-miterlimit="10"/>
<path opacity="0.81" d="M976.02 340.3L644.95 671.37" stroke="white" stroke-width="2" stroke-miterlimit="10"/>
<path opacity="0.81" d="M983.95 340.3L652.88 671.37" stroke="white" stroke-width="2" stroke-miterlimit="10"/>
<path opacity="0.81" d="M991.87 340.3L660.8 671.37" stroke="white" stroke-width="2" stroke-miterlimit="10"/>
<path opacity="0.81" d="M999.8 340.3L668.72 671.37" stroke="white" stroke-width="2" stroke-miterlimit="10"/>
<path opacity="0.81" d="M1007.72 340.3L676.65 671.37" stroke="white" stroke-width="2" stroke-miterlimit="10"/>
</g>
</g>
<g opacity="0.72">
<path opacity="0.5" d="M-84.0238 94.9999L-241 251.976L-84.0238 408.952L72.9524 251.976L-84.0238 94.9999Z" stroke="white" stroke-width="50" stroke-miterlimit="10"/>
<path opacity="0.5" d="M750.322 11.8205L593.345 168.797L750.322 325.773L907.298 168.797L750.322 11.8205Z" stroke="white" stroke-width="50" stroke-miterlimit="10"/>
<path opacity="0.5" d="M375.321 384.615L218.345 541.591L375.321 698.568L532.298 541.591L375.321 384.615Z" stroke="white" stroke-width="30" stroke-miterlimit="10"/>
</g>
<path opacity="0.5" d="M197.352 296.182C212.262 311.092 212.262 335.273 197.352 350.193L31.1925 516.353C16.2825 531.263 -7.8975 531.263 -22.8175 516.353C-37.7275 501.443 -37.7275 477.263 -22.8175 462.343L143.342 296.182C158.262 281.273 182.442 281.273 197.352 296.182Z" fill="url(#paint0_linear_2925_19457)"/>
<path opacity="0.5" d="M320.137 260.157C336.347 276.367 336.347 302.637 320.137 318.847L148.847 490.128C132.637 506.338 106.367 506.338 90.1575 490.128C73.9475 473.918 73.9475 447.647 90.1575 431.438L261.437 260.157C277.647 243.948 303.927 243.948 320.137 260.157Z" fill="url(#paint1_linear_2925_19457)"/>
<path opacity="0.5" d="M236.37 416.783C244.09 424.503 244.09 437.013 236.37 444.723L158.73 522.363C151.01 530.083 138.5 530.083 130.79 522.363C123.07 514.643 123.07 502.133 130.79 494.423L208.43 416.783C216.15 409.073 228.66 409.073 236.37 416.783Z" fill="url(#paint2_linear_2925_19457)"/>
<path opacity="0.5" d="M586.157 300.127C569.948 283.917 569.948 257.647 586.157 241.437L757.437 70.1575C773.647 53.9475 799.917 53.9475 816.127 70.1575C832.337 86.3675 832.337 112.638 816.127 128.848L644.848 300.127C628.638 316.327 602.367 316.327 586.157 300.127Z" fill="url(#paint3_linear_2925_19457)"/>
<path opacity="0.5" d="M581.17 88.32C573.45 80.6 573.45 68.09 581.17 60.38L658.81 -17.26C666.53 -24.98 679.04 -24.98 686.75 -17.26C694.47 -9.54005 694.47 2.96994 686.75 10.6799L609.11 88.32C601.4 96.03 588.89 96.03 581.17 88.32Z" fill="url(#paint4_linear_2925_19457)"/>
<path opacity="0.5" d="M707.58 231.62C699.86 223.9 699.86 211.39 707.58 203.68L785.22 126.04C792.94 118.32 805.45 118.32 813.16 126.04C820.88 133.76 820.88 146.27 813.16 153.98L735.52 231.62C727.8 239.34 715.29 239.34 707.58 231.62Z" fill="url(#paint5_linear_2925_19457)"/>
<g opacity="0.49">
<path opacity="0.49" d="M165.14 87.9598C167.393 87.9598 169.22 86.1331 169.22 83.8798C169.22 81.6265 167.393 79.7998 165.14 79.7998C162.887 79.7998 161.06 81.6265 161.06 83.8798C161.06 86.1331 162.887 87.9598 165.14 87.9598Z" stroke="white" stroke-width="2" stroke-miterlimit="10" stroke-linecap="round" stroke-linejoin="round"/>
<path opacity="0.49" d="M444.28 360.92C444.28 363.17 442.45 365 440.2 365C437.95 365 436.12 363.17 436.12 360.92C436.12 358.67 437.95 356.84 440.2 356.84C442.45 356.84 444.28 358.67 444.28 360.92Z" stroke="white" stroke-width="2" stroke-miterlimit="10" stroke-linecap="round" stroke-linejoin="round"/>
<path opacity="0.49" d="M316.7 159.35C316.7 161.6 314.87 163.43 312.62 163.43C310.37 163.43 308.54 161.6 308.54 159.35C308.54 157.1 310.37 155.27 312.62 155.27C314.88 155.27 316.7 157.09 316.7 159.35Z" stroke="white" stroke-width="2" stroke-miterlimit="10" stroke-linecap="round" stroke-linejoin="round"/>
<path opacity="0.49" d="M102.16 297.08C102.16 299.33 100.33 301.16 98.08 301.16C95.83 301.16 94 299.33 94 297.08C94 294.83 95.83 293 98.08 293C100.34 293 102.16 294.83 102.16 297.08Z" stroke="white" stroke-width="2" stroke-miterlimit="10" stroke-linecap="round" stroke-linejoin="round"/>
<path opacity="0.49" d="M71.2398 172.72C71.2398 174.97 69.4099 176.8 67.1599 176.8C64.9099 176.8 63.0798 174.97 63.0798 172.72C63.0798 170.47 64.9099 168.64 67.1599 168.64C69.4099 168.64 71.2398 170.47 71.2398 172.72Z" stroke="white" stroke-width="2" stroke-miterlimit="10" stroke-linecap="round" stroke-linejoin="round"/>
<g opacity="0.49">
<path opacity="0.49" d="M392.86 118.83V125.97" stroke="white" stroke-width="2" stroke-miterlimit="10" stroke-linecap="round" stroke-linejoin="round"/>
<path opacity="0.49" d="M396.43 122.4H389.3" stroke="white" stroke-width="2" stroke-miterlimit="10" stroke-linecap="round" stroke-linejoin="round"/>
</g>
<g opacity="0.49">
<path opacity="0.49" d="M692.9 357.36V364.49" stroke="white" stroke-width="2" stroke-miterlimit="10" stroke-linecap="round" stroke-linejoin="round"/>
<path opacity="0.49" d="M696.47 360.92H689.34" stroke="white" stroke-width="2" stroke-miterlimit="10" stroke-linecap="round" stroke-linejoin="round"/>
</g>
<g opacity="0.49">
<path opacity="0.49" d="M189.61 292.76V299.89" stroke="white" stroke-width="2" stroke-miterlimit="10" stroke-linecap="round" stroke-linejoin="round"/>
<path opacity="0.49" d="M193.18 296.32H186.05" stroke="white" stroke-width="2" stroke-miterlimit="10" stroke-linecap="round" stroke-linejoin="round"/>
</g>
<g opacity="0.49">
<g opacity="0.49">
<path opacity="0.49" d="M554.25 442.64V449.77" stroke="white" stroke-width="2" stroke-miterlimit="10" stroke-linecap="round" stroke-linejoin="round"/>
<path opacity="0.49" d="M557.81 446.2H550.68" stroke="white" stroke-width="2" stroke-miterlimit="10" stroke-linecap="round" stroke-linejoin="round"/>
</g>
<g opacity="0.49">
<path opacity="0.49" d="M532.69 442.64V449.77" stroke="white" stroke-width="2" stroke-miterlimit="10" stroke-linecap="round" stroke-linejoin="round"/>
<path opacity="0.49" d="M536.25 446.2H529.12" stroke="white" stroke-width="2" stroke-miterlimit="10" stroke-linecap="round" stroke-linejoin="round"/>
</g>
<g opacity="0.49">
<path opacity="0.49" d="M511.13 442.64V449.77" stroke="white" stroke-width="2" stroke-miterlimit="10" stroke-linecap="round" stroke-linejoin="round"/>
<path opacity="0.49" d="M514.69 446.2H507.56" stroke="white" stroke-width="2" stroke-miterlimit="10" stroke-linecap="round" stroke-linejoin="round"/>
</g>
</g>
<g opacity="0.49">
<g opacity="0.49">
<path opacity="0.49" d="M71.2397 123.64V130.77" stroke="white" stroke-width="2" stroke-miterlimit="10" stroke-linecap="round" stroke-linejoin="round"/>
<path opacity="0.49" d="M74.7998 127.21H67.6698" stroke="white" stroke-width="2" stroke-miterlimit="10" stroke-linecap="round" stroke-linejoin="round"/>
</g>
<g opacity="0.49">
<path opacity="0.49" d="M49.6798 123.64V130.77" stroke="white" stroke-width="2" stroke-miterlimit="10" stroke-linecap="round" stroke-linejoin="round"/>
<path opacity="0.49" d="M53.2499 127.21H46.1099" stroke="white" stroke-width="2" stroke-miterlimit="10" stroke-linecap="round" stroke-linejoin="round"/>
</g>
<g opacity="0.49">
<path opacity="0.49" d="M28.1199 123.64V130.77" stroke="white" stroke-width="2" stroke-miterlimit="10" stroke-linecap="round" stroke-linejoin="round"/>
<path opacity="0.49" d="M31.6898 127.21H24.5598" stroke="white" stroke-width="2" stroke-miterlimit="10" stroke-linecap="round" stroke-linejoin="round"/>
</g>
</g>
<path opacity="0.49" d="M338.55 263.61L344.1 254H333L338.55 263.61Z" stroke="white" stroke-width="2" stroke-miterlimit="10" stroke-linecap="round" stroke-linejoin="round"/>
<path opacity="0.49" d="M539.82 125.97L534.27 135.58H545.37L539.82 125.97Z" stroke="white" stroke-width="2" stroke-miterlimit="10" stroke-linecap="round" stroke-linejoin="round"/>
<path opacity="0.49" d="M265.78 417.73C268.2 415.31 272.44 419.55 274.86 417.13C277.28 414.71 273.04 410.47 275.46 408.05C277.88 405.63 282.12 409.87 284.54 407.45C286.96 405.03 282.72 400.79 285.13 398.37C287.55 395.95 291.79 400.19 294.21 397.77C296.63 395.35 292.39 391.11 294.81 388.68C297.23 386.26 301.47 390.5 303.9 388.08" stroke="white" stroke-width="2" stroke-miterlimit="10" stroke-linecap="round" stroke-linejoin="round"/>
<path opacity="0.49" d="M476.57 397.96C478.99 395.54 483.23 399.78 485.65 397.36C488.07 394.94 483.83 390.7 486.25 388.28C488.67 385.86 492.91 390.1 495.33 387.68C497.75 385.26 493.51 381.02 495.92 378.6C498.34 376.18 502.58 380.42 505 378C507.42 375.58 503.18 371.34 505.6 368.91C508.02 366.49 512.26 370.73 514.69 368.31" stroke="white" stroke-width="2" stroke-miterlimit="10" stroke-linecap="round" stroke-linejoin="round"/>
<path opacity="0.49" d="M488.5 123.46C490.92 121.04 495.16 125.28 497.58 122.86C500 120.44 495.76 116.2 498.18 113.78C500.6 111.36 504.84 115.6 507.26 113.18C509.68 110.76 505.44 106.52 507.85 104.1C510.27 101.68 514.51 105.92 516.93 103.5C519.35 101.08 515.11 96.8397 517.53 94.4097C519.95 91.9897 524.19 96.2297 526.62 93.8097" stroke="white" stroke-width="2" stroke-miterlimit="10" stroke-linecap="round" stroke-linejoin="round"/>
</g>
<rect opacity="0.9" x="-13" width="784" height="536" fill="#212745"/>
</g>
<defs>
<linearGradient id="paint0_linear_2925_19457" x1="197.358" y1="296.185" x2="-22.8118" y2="516.355" gradientUnits="userSpaceOnUse">
<stop stop-color="white"/>
<stop offset="1" stop-opacity="0"/>
</linearGradient>
<linearGradient id="paint1_linear_2925_19457" x1="320.133" y1="260.155" x2="90.1611" y2="490.126" gradientUnits="userSpaceOnUse">
<stop stop-color="white"/>
<stop offset="1" stop-opacity="0"/>
</linearGradient>
<linearGradient id="paint2_linear_2925_19457" x1="236.373" y1="416.785" x2="130.787" y2="522.371" gradientUnits="userSpaceOnUse">
<stop stop-color="white"/>
<stop offset="1" stop-opacity="0"/>
</linearGradient>
<linearGradient id="paint3_linear_2925_19457" x1="586.157" y1="300.123" x2="816.128" y2="70.1511" gradientUnits="userSpaceOnUse">
<stop stop-color="white"/>
<stop offset="1" stop-opacity="0"/>
</linearGradient>
<linearGradient id="paint4_linear_2925_19457" x1="581.17" y1="88.3151" x2="686.756" y2="-17.2708" gradientUnits="userSpaceOnUse">
<stop stop-color="white"/>
<stop offset="1" stop-opacity="0"/>
</linearGradient>
<linearGradient id="paint5_linear_2925_19457" x1="707.575" y1="231.619" x2="813.161" y2="126.033" gradientUnits="userSpaceOnUse">
<stop stop-color="white"/>
<stop offset="1" stop-opacity="0"/>
</linearGradient>
<clipPath id="clip0_2925_19457">
<rect width="750" height="497" fill="white"/>
</clipPath>
</defs>
</svg>
