<svg width="125" height="125" viewBox="0 0 125 125" fill="none" xmlns="http://www.w3.org/2000/svg">
<rect x="0.449219" width="124.099" height="124.099" rx="14" fill="#2D8DFE" fill-opacity="0.1"/>
<path d="M87.8652 90.5862V84.2446C87.8652 80.8809 86.529 77.6549 84.1504 75.2763C81.7719 72.8978 78.5459 71.5615 75.1821 71.5615H49.8159C46.4521 71.5615 43.2262 72.8978 40.8476 75.2763C38.4691 77.6549 37.1328 80.8809 37.1328 84.2446V90.5862" stroke="#2D8DFE" stroke-width="6.34155" stroke-linecap="round" stroke-linejoin="round"/>
<path d="M62.4995 58.8784C69.5042 58.8784 75.1826 53.2 75.1826 46.1953C75.1826 39.1906 69.5042 33.5122 62.4995 33.5122C55.4948 33.5122 49.8164 39.1906 49.8164 46.1953C49.8164 53.2 55.4948 58.8784 62.4995 58.8784Z" stroke="#2D8DFE" stroke-width="6.34155" stroke-linecap="round" stroke-linejoin="round"/>
</svg>
