<svg width="124" height="124" viewBox="0 0 124 124" fill="none" xmlns="http://www.w3.org/2000/svg">
<rect width="124" height="124" rx="14" fill="#2CE30E" fill-opacity="0.1"/>
<path d="M74.668 90.5V84.1667C74.668 80.8073 73.3335 77.5854 70.958 75.21C68.5825 72.8345 65.3607 71.5 62.0013 71.5H39.8346C36.4752 71.5 33.2534 72.8345 30.8779 75.21C28.5025 77.5854 27.168 80.8073 27.168 84.1667V90.5" stroke="#2CE30E" stroke-width="6.33333" stroke-linecap="round" stroke-linejoin="round"/>
<path d="M50.9167 58.8333C57.9123 58.8333 63.5833 53.1623 63.5833 46.1667C63.5833 39.1711 57.9123 33.5 50.9167 33.5C43.9211 33.5 38.25 39.1711 38.25 46.1667C38.25 53.1623 43.9211 58.8333 50.9167 58.8333Z" stroke="#2CE30E" stroke-width="6.33333" stroke-linecap="round" stroke-linejoin="round"/>
<path d="M87.332 49.3333V68.3333" stroke="#2CE30E" stroke-width="6.33333" stroke-linecap="round" stroke-linejoin="round"/>
<path d="M96.832 58.8333H77.832" stroke="#2CE30E" stroke-width="6.33333" stroke-linecap="round" stroke-linejoin="round"/>
</svg>
