<svg width="148" height="28" viewBox="0 0 148 28" fill="none" xmlns="http://www.w3.org/2000/svg">
<path d="M15.8457 20.4604L19.7674 24.3821C20.7592 23.9153 21.6626 23.2801 22.4374 22.5047C23.2366 21.7203 23.8785 20.7905 24.3287 19.7651L24.287 19.7234L18.1403 13.5628C17.5282 12.9556 16.7009 12.6149 15.8388 12.6149C14.9766 12.6149 14.1493 12.9556 13.5372 13.5628L7.36278 19.7512H7.33496C8.27239 21.7865 9.89733 23.4263 11.9241 24.3821L15.8457 20.4604Z" fill="#005ADD"/>
<path style="mix-blend-mode:multiply" d="M11.9241 24.3821C9.89733 23.4263 8.27239 21.7865 7.33496 19.7512H7.36278L13.5372 13.5628C14.1493 12.9556 14.9766 12.6149 15.8388 12.6149C16.7009 12.6149 17.5282 12.9556 18.1403 13.5628L24.287 19.7234L24.3287 19.7651C23.8785 20.7905 23.2366 21.7203 22.4374 22.5047C21.6626 23.2801 20.7592 23.9153 19.7674 24.3821L15.8457 20.4604L11.9241 24.3821Z" fill="url(#paint0_linear_724_14298)"/>
<path style="mix-blend-mode:multiply" d="M19.7534 24.3821C20.7453 23.9153 21.6486 23.2801 22.4235 22.5047C23.2196 21.7094 23.8651 20.7766 24.3287 19.7512H24.3148L18.1264 13.5628C17.5166 12.9565 16.6917 12.6161 15.8318 12.6161C14.9719 12.6161 14.147 12.9565 13.5372 13.5628L7.37668 19.7234L7.33496 19.7651C8.2676 21.7957 9.8882 23.431 11.9102 24.3821L15.8318 20.4604L19.7534 24.3821Z" fill="url(#paint1_linear_724_14298)"/>
<path d="M9.25476 27.0521C8.64266 27.6593 7.81542 28 6.95325 28C6.09107 28 5.26382 27.6593 4.65173 27.0521C2.43302 24.8383 0.920958 22.0161 0.306937 18.9425C-0.307085 15.869 0.00453463 12.6824 1.20235 9.78609C2.40017 6.88976 4.43034 4.41389 7.03589 2.67187C9.64144 0.929855 12.7052 0 15.8395 0C18.9737 0 22.0375 0.929855 24.6431 2.67187C27.2486 4.41389 29.2788 6.88976 30.4766 9.78609C31.6744 12.6824 31.986 15.869 31.372 18.9425C30.758 22.0161 29.2459 24.8383 27.0272 27.0521C26.4175 27.6584 25.5926 27.9988 24.7327 27.9988C23.8728 27.9988 23.0478 27.6584 22.4381 27.0521L19.7542 24.3821C20.7499 23.9221 21.6545 23.2861 22.4242 22.5047C23.2203 21.7094 23.8658 20.7765 24.3294 19.7512C24.9799 18.3308 25.2629 16.7697 25.1522 15.2113C25.0416 13.653 24.5409 12.1475 23.6961 10.8333C22.8514 9.51909 21.6898 8.43841 20.3181 7.69062C18.9464 6.94284 17.4087 6.55196 15.8464 6.55396C14.2837 6.55453 12.7461 6.94759 11.3748 7.69706C10.0034 8.44654 8.84231 9.52842 7.99793 10.8434C7.15355 12.1584 6.65297 13.6645 6.54212 15.2233C6.43126 16.7821 6.71369 18.3438 7.36349 19.7651H7.33567C8.26832 21.7957 9.88891 23.431 11.9109 24.3821L9.25476 27.0521Z" fill="#03D9CD"/>
<path d="M63.0587 15.913V24.5767C63.0607 24.6393 63.0497 24.7017 63.0267 24.7599C63.0036 24.8181 62.9688 24.871 62.9245 24.9153C62.8802 24.9596 62.8273 24.9944 62.7691 25.0175C62.7109 25.0405 62.6485 25.0515 62.5859 25.0495H59.4152C59.3532 25.0516 59.2915 25.0407 59.2339 25.0174C59.1764 24.9942 59.1243 24.9592 59.0811 24.9147C59.0379 24.8702 59.0045 24.8171 58.983 24.7589C58.9615 24.7007 58.9524 24.6386 58.9563 24.5767V16.65C58.9563 14.1329 57.5935 13.2707 56.1333 13.2707C53.8248 13.2707 52.7679 15.1064 52.7679 16.1911V24.5767C52.7719 24.6386 52.7628 24.7007 52.7413 24.7589C52.7198 24.8171 52.6864 24.8702 52.6431 24.9147C52.5999 24.9592 52.5479 24.9942 52.4903 25.0174C52.4328 25.0407 52.371 25.0516 52.309 25.0495H49.1383C49.0757 25.0515 49.0134 25.0405 48.9552 25.0175C48.8969 24.9944 48.844 24.9596 48.7997 24.9153C48.7554 24.871 48.7207 24.8181 48.6976 24.7599C48.6745 24.7017 48.6636 24.6393 48.6655 24.5767V16.65C48.6655 14.1329 47.3027 13.2707 45.8147 13.2707C43.5062 13.2707 42.4493 15.5375 42.4493 16.2467V24.5767C42.4532 24.6386 42.4442 24.7007 42.4227 24.7589C42.4012 24.8171 42.3678 24.8702 42.3245 24.9147C42.2813 24.9592 42.2293 24.9942 42.1717 25.0174C42.1142 25.0407 42.0524 25.0516 41.9904 25.0495H38.8197C38.7571 25.0515 38.6948 25.0405 38.6365 25.0175C38.5783 24.9944 38.5254 24.9596 38.4811 24.9153C38.4368 24.871 38.4021 24.8181 38.379 24.7599C38.3559 24.7017 38.345 24.6393 38.3469 24.5767V10.2809C38.3449 10.2188 38.3558 10.1571 38.379 10.0995C38.4022 10.042 38.4372 9.98994 38.4817 9.94673C38.5263 9.90351 38.5793 9.87009 38.6376 9.8486C38.6958 9.8271 38.7578 9.81802 38.8197 9.82194H41.8653C42.1434 9.82194 42.2964 10.0027 42.3242 10.2809L42.4493 12.2695V12.3112C43.4506 10.6841 45.0638 9.47427 47.2749 9.47427C49.486 9.47427 51.0018 10.4755 51.9614 12.3112C53.0461 10.6563 54.8539 9.47427 57.3432 9.47427C60.6668 9.47427 63.0587 11.8384 63.0587 15.913Z" fill="#004BBB"/>
<path d="M79.1768 18.8612H69.4144C69.8455 20.822 71.4031 21.9345 73.7672 21.9345C74.977 21.9345 75.9366 21.6286 76.9935 20.8776C77.2716 20.6968 77.4663 20.6968 77.6749 20.9194L79.0516 22.2544C79.2602 22.463 79.2602 22.6855 79.0099 22.9358C78.269 23.6769 77.3886 24.2637 76.4194 24.6623C75.4503 25.061 74.4118 25.2635 73.3639 25.2582C68.6079 25.2582 65.3398 21.7537 65.3398 17.3732C65.3398 12.9927 68.6079 9.50214 73.0162 9.50214C77.4246 9.50214 80.2615 12.9927 80.2615 17.0255C80.2615 18.2354 80.1085 18.8612 79.1768 18.8612ZM69.3449 16.1912H76.618C76.3121 14.133 74.8519 13.0205 73.044 13.0205C71.2362 13.0205 69.7204 14.133 69.3449 16.1912Z" fill="#004BBB"/>
<path d="M97.6722 2.82706V24.5768C97.6742 24.6394 97.6633 24.7017 97.6402 24.76C97.6171 24.8182 97.5823 24.8711 97.5381 24.9154C97.4938 24.9597 97.4409 24.9945 97.3826 25.0175C97.3244 25.0406 97.262 25.0515 97.1994 25.0496H94.5016C94.2234 25.0496 94.0566 24.8549 94.0288 24.5768L93.848 23.0888C92.8467 24.3682 91.3309 25.2582 89.2449 25.2582C84.9617 25.2582 81.8467 21.8094 81.8467 17.4567C81.8467 13.1039 84.9617 9.50217 89.2449 9.50217C90.066 9.48861 90.8798 9.65745 91.6277 9.99654C92.3756 10.3356 93.039 10.8365 93.5698 11.463V2.82706C93.5657 2.76574 93.5748 2.70424 93.5964 2.64671C93.618 2.58917 93.6517 2.53692 93.6951 2.49345C93.7386 2.44999 93.7909 2.41633 93.8484 2.39472C93.9059 2.37311 93.9674 2.36405 94.0288 2.36815H97.1994C97.2613 2.36424 97.3234 2.37332 97.3816 2.39481C97.4398 2.4163 97.4929 2.44973 97.5374 2.49295C97.5819 2.53616 97.6169 2.58821 97.6402 2.64575C97.6634 2.70329 97.6743 2.76505 97.6722 2.82706ZM93.5977 17.4289C93.5977 15.1343 92.0123 13.243 89.7177 13.243C87.4232 13.243 85.7961 14.9813 85.7961 17.4289C85.7961 19.8764 87.451 21.5313 89.7177 21.5313C91.9845 21.5313 93.5977 19.7651 93.5977 17.4289Z" fill="#004BBB"/>
<path d="M113.789 18.8612H104.027C104.472 20.822 106.016 21.9345 108.38 21.9345C109.59 21.9345 110.563 21.6286 111.62 20.8776C111.898 20.6968 112.079 20.6968 112.301 20.9194L113.664 22.2544C113.887 22.463 113.887 22.6855 113.636 22.9358C112.894 23.6785 112.011 24.2663 111.039 24.665C110.068 25.0637 109.027 25.2653 107.976 25.2582C103.22 25.2582 99.9663 21.7537 99.9663 17.3732C99.9663 12.9927 103.22 9.50214 107.643 9.50214C112.065 9.50214 114.874 12.9927 114.874 17.0255C114.874 18.2354 114.721 18.8612 113.789 18.8612ZM103.971 16.1912H111.244C110.939 14.133 109.464 13.0205 107.67 13.0205C105.877 13.0205 104.347 14.133 103.971 16.1912Z" fill="#03D9CD"/>
<path d="M127.501 9.82198H130.699C131.047 9.82198 131.2 10.0028 131.075 10.3504L125.387 24.6741C125.348 24.7887 125.272 24.8874 125.172 24.9552C125.072 25.0229 124.952 25.0561 124.831 25.0496H121.66C121.54 25.0539 121.421 25.0198 121.321 24.9523C121.221 24.8849 121.145 24.7875 121.104 24.6741L115.388 10.3504C115.263 10.0028 115.416 9.82198 115.764 9.82198H118.962C119.083 9.8177 119.202 9.85175 119.302 9.91921C119.402 9.98668 119.478 10.0841 119.519 10.1975L123.246 20.2657L126.945 10.1975C126.986 10.0841 127.062 9.98668 127.162 9.91921C127.262 9.85175 127.38 9.8177 127.501 9.82198Z" fill="#03D9CD"/>
<path d="M131.535 17.4288C131.526 16.3863 131.723 15.3524 132.116 14.3868C132.509 13.4212 133.09 12.5431 133.824 11.8033C134.559 11.0636 135.433 10.4768 136.396 10.0771C137.359 9.67728 138.391 9.47241 139.434 9.47429C143.814 9.47429 147.319 12.9926 147.319 17.4288C147.363 18.493 147.192 19.5553 146.816 20.5518C146.439 21.5482 145.865 22.4582 145.128 23.2271C144.391 23.9959 143.506 24.6077 142.526 25.0256C141.546 25.4436 140.492 25.659 139.427 25.659C138.362 25.659 137.307 25.4436 136.328 25.0256C135.348 24.6077 134.463 23.9959 133.725 23.2271C132.988 22.4582 132.414 21.5482 132.038 20.5518C131.661 19.5553 131.49 18.493 131.535 17.4288ZM143.369 17.4288C143.369 15.0091 141.603 13.2708 139.434 13.2708C137.264 13.2708 135.484 15.0091 135.484 17.4288C135.484 19.8485 137.223 21.559 139.434 21.559C141.645 21.559 143.369 19.8207 143.369 17.4288Z" fill="#03D9CD"/>
<defs>
<linearGradient id="paint0_linear_724_14298" x1="30.2361" y1="34.9955" x2="17.0778" y2="21.4311" gradientUnits="userSpaceOnUse">
<stop stop-color="#231F20"/>
<stop offset="0.46" stop-color="#2A2627" stop-opacity="0.7"/>
<stop offset="0.47" stop-color="#2D292A" stop-opacity="0.7"/>
<stop offset="0.73" stop-color="#9D9B9C" stop-opacity="0.86"/>
<stop offset="0.92" stop-color="#E3E3E3" stop-opacity="0.96"/>
<stop offset="1" stop-color="white"/>
</linearGradient>
<linearGradient id="paint1_linear_724_14298" x1="-53292.6" y1="104821" x2="-51771.2" y2="103735" gradientUnits="userSpaceOnUse">
<stop stop-color="#231F20"/>
<stop offset="0.46" stop-color="#2A2627" stop-opacity="0.7"/>
<stop offset="0.47" stop-color="#2D292A" stop-opacity="0.7"/>
<stop offset="0.73" stop-color="#9D9B9C" stop-opacity="0.86"/>
<stop offset="0.92" stop-color="#E3E3E3" stop-opacity="0.96"/>
<stop offset="1" stop-color="white"/>
</linearGradient>
</defs>
</svg>
