<svg width="243" height="47" viewBox="0 0 243 47" fill="none" xmlns="http://www.w3.org/2000/svg">
<path d="M26.0323 33.8373L32.4749 40.28C34.1043 39.5131 35.5885 38.4696 36.8614 37.1957C38.1744 35.9071 39.229 34.3795 39.9685 32.695L39.9 32.6264L29.8019 22.5055C28.7963 21.508 27.4373 20.9482 26.0208 20.9482C24.6044 20.9482 23.2453 21.508 22.2398 22.5055L12.096 32.6721H12.0503C13.5904 36.0159 16.2599 38.7097 19.5896 40.28L26.0323 33.8373Z" fill="white"/>
<g style="mix-blend-mode:multiply">
<path d="M19.5896 40.28C16.2599 38.7097 13.5904 36.0159 12.0503 32.6721H12.096L22.2398 22.5055C23.2453 21.508 24.6044 20.9482 26.0208 20.9482C27.4373 20.9482 28.7963 21.508 29.8019 22.5055L39.9 32.6264L39.9685 32.695C39.229 34.3795 38.1744 35.9071 36.8614 37.1957C35.5885 38.4696 34.1043 39.5131 32.4749 40.28L26.0323 33.8373L19.5896 40.28Z" fill="white"/>
</g>
<g style="mix-blend-mode:multiply">
<path d="M32.4521 40.2799C34.0815 39.513 35.5656 38.4695 36.8386 37.1957C38.1465 35.8892 39.2069 34.3566 39.9685 32.6721H39.9457L29.7791 22.5055C28.7773 21.5093 27.4221 20.9502 26.0094 20.9502C24.5967 20.9502 23.2415 21.5093 22.2398 22.5055L12.1188 32.6264L12.0503 32.6949C13.5825 36.0308 16.2449 38.7175 19.5667 40.2799L26.0094 33.8373L32.4521 40.2799Z" fill="white"/>
</g>
<path d="M15.2043 44.6664C14.1987 45.6639 12.8396 46.2236 11.4232 46.2236C10.0068 46.2236 8.64771 45.6639 7.64212 44.6664C3.9971 41.0294 1.513 36.3929 0.504253 31.3435C-0.504496 26.2942 0.00744975 21.059 1.97529 16.3008C3.94314 11.5425 7.27841 7.47503 11.559 4.61314C15.8395 1.75125 20.8729 0.223633 26.022 0.223633C31.1711 0.223633 36.2045 1.75125 40.4851 4.61314C44.7656 7.47503 48.1009 11.5425 50.0687 16.3008C52.0366 21.059 52.5485 26.2942 51.5398 31.3435C50.531 36.3929 48.0469 41.0294 44.4019 44.6664C43.4002 45.6625 42.0449 46.2216 40.6322 46.2216C39.2196 46.2216 37.8643 45.6625 36.8626 44.6664L32.4533 40.2799C34.0892 39.5243 35.5752 38.4794 36.8398 37.1956C38.1477 35.8891 39.2081 34.3565 39.9697 32.672C41.0385 30.3386 41.5033 27.7738 41.3216 25.2137C41.1398 22.6535 40.3171 20.1802 38.9293 18.0212C37.5416 15.8621 35.6332 14.0867 33.3797 12.8582C31.1262 11.6297 28.6 10.9876 26.0334 10.9908C23.466 10.9918 20.94 11.6375 18.6871 12.8688C16.4342 14.1001 14.5266 15.8775 13.1395 18.0378C11.7523 20.1982 10.9299 22.6724 10.7478 25.2333C10.5656 27.7943 11.0296 30.3599 12.0972 32.6949H12.0515C13.5837 36.0308 16.2461 38.7174 19.5679 40.2799L15.2043 44.6664Z" fill="white"/>
<path d="M103.596 26.3664V40.5997C103.6 40.7026 103.582 40.805 103.544 40.9007C103.506 40.9963 103.449 41.0832 103.376 41.156C103.303 41.2288 103.216 41.2859 103.121 41.3238C103.025 41.3617 102.922 41.3797 102.82 41.3765H97.6107C97.5088 41.3799 97.4073 41.3619 97.3128 41.3238C97.2183 41.2856 97.1327 41.2281 97.0617 41.155C96.9907 41.0818 96.9358 40.9946 96.9005 40.899C96.8652 40.8034 96.8503 40.7014 96.8567 40.5997V27.5773C96.8567 23.4421 94.6178 22.0256 92.2189 22.0256C88.4264 22.0256 86.6901 25.0413 86.6901 26.8234V40.5997C86.6965 40.7014 86.6816 40.8034 86.6463 40.899C86.611 40.9946 86.5561 41.0818 86.4851 41.155C86.4141 41.2281 86.3286 41.2856 86.2341 41.3238C86.1395 41.3619 86.0381 41.3799 85.9362 41.3765H80.7272C80.6243 41.3797 80.5219 41.3617 80.4262 41.3238C80.3306 41.2859 80.2437 41.2288 80.1709 41.156C80.0981 41.0832 80.041 40.9963 80.0031 40.9007C79.9652 40.805 79.9473 40.7026 79.9504 40.5997V27.5773C79.9504 23.4421 77.7115 22.0256 75.2669 22.0256C71.4744 22.0256 69.7381 25.7496 69.7381 26.9147V40.5997C69.7445 40.7014 69.7296 40.8034 69.6943 40.899C69.659 40.9946 69.6041 41.0818 69.5331 41.155C69.4621 41.2281 69.3766 41.2856 69.2821 41.3238C69.1875 41.3619 69.0861 41.3799 68.9842 41.3765H63.7752C63.6724 41.3797 63.5699 41.3617 63.4743 41.3238C63.3786 41.2859 63.2917 41.2288 63.2189 41.156C63.1461 41.0832 63.089 40.9963 63.0511 40.9007C63.0132 40.805 62.9953 40.7026 62.9985 40.5997V17.1137C62.9951 17.0118 63.013 16.9103 63.0512 16.8158C63.0893 16.7213 63.1468 16.6357 63.2199 16.5647C63.2931 16.4938 63.3803 16.4388 63.4759 16.4035C63.5715 16.3682 63.6735 16.3533 63.7752 16.3597H68.7786C69.2355 16.3597 69.4868 16.6567 69.5325 17.1137L69.7381 20.3807V20.4492C71.3831 17.7762 74.0332 15.7886 77.6658 15.7886C81.2984 15.7886 83.7886 17.4335 85.365 20.4492C87.147 17.7305 90.1171 15.7886 94.2066 15.7886C99.6668 15.7886 103.596 19.6725 103.596 26.3664Z" fill="white"/>
<path d="M130.076 31.2096H114.038C114.746 34.4309 117.305 36.2586 121.189 36.2586C123.177 36.2586 124.753 35.756 126.489 34.5223C126.946 34.2253 127.266 34.2253 127.609 34.5908L129.871 36.7841C130.213 37.1268 130.213 37.4923 129.802 37.9036C128.585 39.1211 127.139 40.0851 125.546 40.74C123.954 41.3949 122.248 41.7276 120.527 41.7189C112.713 41.7189 107.344 35.9616 107.344 28.765C107.344 21.5684 112.713 15.834 119.955 15.834C127.198 15.834 131.858 21.5684 131.858 28.1939C131.858 30.1815 131.607 31.2096 130.076 31.2096ZM113.924 26.8231H125.873C125.37 23.4418 122.971 21.6141 120.001 21.6141C117.031 21.6141 114.541 23.4418 113.924 26.8231Z" fill="white"/>
<path d="M160.462 4.86831V40.6C160.465 40.7029 160.447 40.8053 160.409 40.901C160.371 40.9966 160.314 41.0835 160.241 41.1563C160.168 41.2291 160.081 41.2862 159.986 41.3241C159.89 41.362 159.788 41.3799 159.685 41.3768H155.253C154.796 41.3768 154.522 41.0569 154.476 40.6L154.179 38.1554C152.534 40.2573 150.044 41.7195 146.617 41.7195C139.58 41.7195 134.462 36.0536 134.462 28.9027C134.462 21.7518 139.58 15.8346 146.617 15.8346C147.966 15.8123 149.303 16.0897 150.531 16.6467C151.76 17.2038 152.85 18.0266 153.722 19.0559V4.86831C153.715 4.76756 153.73 4.66653 153.766 4.572C153.801 4.47748 153.856 4.39163 153.928 4.32023C153.999 4.24883 154.085 4.19353 154.179 4.15802C154.274 4.12252 154.375 4.10763 154.476 4.11437H159.685C159.786 4.10794 159.888 4.12286 159.984 4.15817C160.08 4.19348 160.167 4.2484 160.24 4.3194C160.313 4.39039 160.371 4.4759 160.409 4.57043C160.447 4.66496 160.465 4.76642 160.462 4.86831ZM153.768 28.857C153.768 25.0873 151.163 21.9802 147.393 21.9802C143.624 21.9802 140.951 24.836 140.951 28.857C140.951 32.8779 143.669 35.5966 147.393 35.5966C151.117 35.5966 153.768 32.6951 153.768 28.857Z" fill="white"/>
<path d="M186.939 31.2096H170.901C171.632 34.4309 174.168 36.2586 178.052 36.2586C180.04 36.2586 181.639 35.756 183.375 34.5223C183.832 34.2253 184.129 34.2253 184.495 34.5908L186.734 36.7841C187.099 37.1268 187.099 37.4923 186.688 37.9036C185.468 39.1238 184.018 40.0895 182.422 40.7444C180.825 41.3994 179.115 41.7307 177.389 41.7189C169.576 41.7189 164.23 35.9616 164.23 28.765C164.23 21.5684 169.576 15.834 176.841 15.834C184.106 15.834 188.721 21.5684 188.721 28.1939C188.721 30.1815 188.47 31.2096 186.939 31.2096ZM170.81 26.8231H182.758C182.256 23.4418 179.834 21.6141 176.887 21.6141C173.94 21.6141 171.427 23.4418 170.81 26.8231Z" fill="white"/>
<path d="M209.466 16.3605H214.721C215.292 16.3605 215.543 16.6575 215.338 17.2286L205.994 40.7604C205.929 40.9487 205.805 41.1108 205.64 41.2221C205.475 41.3335 205.279 41.3879 205.08 41.3772H199.871C199.673 41.3842 199.478 41.3283 199.314 41.2175C199.149 41.1066 199.025 40.9466 198.957 40.7604L189.567 17.2286C189.362 16.6575 189.613 16.3605 190.184 16.3605H195.439C195.637 16.3534 195.832 16.4093 195.996 16.5202C196.16 16.631 196.285 16.7911 196.352 16.9773L202.475 33.5181L208.552 16.9773C208.62 16.7911 208.745 16.631 208.909 16.5202C209.073 16.4093 209.268 16.3534 209.466 16.3605Z" fill="white"/>
<path d="M216.092 28.8567C216.077 27.1441 216.402 25.4454 217.048 23.8591C217.693 22.2727 218.647 20.8302 219.854 19.6149C221.061 18.3996 222.497 17.4356 224.078 16.7789C225.66 16.1221 227.357 15.7855 229.069 15.7886C236.266 15.7886 242.023 21.5687 242.023 28.8567C242.096 30.6051 241.816 32.3503 241.197 33.9874C240.579 35.6244 239.635 37.1194 238.424 38.3825C237.213 39.6456 235.759 40.6507 234.149 41.3373C232.54 42.0239 230.808 42.3778 229.058 42.3778C227.308 42.3778 225.576 42.0239 223.966 41.3373C222.357 40.6507 220.903 39.6456 219.691 38.3825C218.48 37.1194 217.537 35.6244 216.919 33.9874C216.3 32.3503 216.019 30.6051 216.092 28.8567ZM235.535 28.8567C235.535 24.8814 232.633 22.0257 229.069 22.0257C225.505 22.0257 222.581 24.8814 222.581 28.8567C222.581 32.832 225.437 35.6421 229.069 35.6421C232.702 35.6421 235.535 32.7863 235.535 28.8567Z" fill="white"/>
</svg>
