<svg width="111" height="56" viewBox="0 0 111 56" fill="none" xmlns="http://www.w3.org/2000/svg">
<path d="M104.179 22.4787C103.024 22.6058 100.577 22.902 99.6332 23.8741C98.7509 24.7828 99.4533 26.1285 100.281 27.2482C101.733 29.1971 103.429 30.9849 104.97 32.8594C103.116 31.2981 101.345 29.5878 99.4114 28.1243C98.3074 27.2868 96.974 26.5767 96.0732 27.4715C95.1103 28.4234 94.8173 30.895 94.6902 32.0594C94.5676 29.7088 94.4172 27.4559 94.7334 25.0975C94.7892 24.6836 94.8731 24.2681 95.0359 23.9098C95.1414 23.6803 95.2932 23.4664 95.4808 23.2772C95.6685 23.0881 95.8825 22.9361 96.1072 22.8276C96.4655 22.6648 96.8764 22.5794 97.2857 22.5206C99.6177 22.2027 101.849 22.3562 104.179 22.4787" fill="#EEBF0E"/>
<path d="M78.2575 15.4652C79.4127 15.3381 81.8595 15.0388 82.8051 14.0713C83.6844 13.1627 82.9835 11.8169 82.1556 10.6974C80.709 8.74517 79.0111 6.95912 77.4668 5.08458C79.3212 6.64428 81.0918 8.35616 83.0224 9.81969C84.1324 10.6571 85.4643 11.3672 86.3637 10.4741C87.3266 9.52051 87.6195 7.05055 87.7468 5.88292C87.8692 8.23824 88.0196 10.4881 87.7033 12.8479C87.646 13.2557 87.5621 13.6744 87.401 14.0325C87.2971 14.2636 87.1404 14.4761 86.956 14.6652C86.7668 14.8559 86.5574 15.0094 86.3296 15.1164C85.9729 15.2792 85.5605 15.366 85.1543 15.4203C82.8191 15.7444 80.5879 15.5923 78.2575 15.4652" fill="#EEBF0E"/>
<path d="M94.6895 32.059C94.0041 31.1131 92.5249 29.1239 91.2224 28.7828C90.0021 28.4665 89.1974 29.7518 88.6562 31.0357C87.7059 33.2777 87.022 35.6547 86.1847 37.9434C86.5956 35.5431 87.1785 33.1383 87.4639 30.7163C87.6315 29.3271 87.5724 27.8091 86.3585 27.4664C85.0606 27.1035 82.7906 28.082 81.7285 28.5549C83.6868 27.268 85.5444 26.012 87.7245 25.1112C88.1027 24.9514 88.5043 24.8181 88.8904 24.7809C89.1446 24.7561 89.4021 24.7839 89.6596 24.8522C89.9138 24.9235 90.1541 25.0336 90.3572 25.1762C90.6751 25.4073 90.9541 25.7252 91.2069 26.0523C92.6474 27.9347 93.6335 29.9597 94.6895 32.059" fill="#41AFBE"/>
<path d="M87.7461 5.8834C88.4314 6.82929 89.9106 8.82332 91.213 9.16128C92.4364 9.47917 93.2396 8.1907 93.7822 6.90685C94.7311 4.66482 95.4181 2.29089 96.2521 0.000840483C95.8444 2.40565 95.2598 4.80888 94.9715 7.23094C94.8055 8.61545 94.8629 10.135 96.0816 10.4761C97.381 10.8422 99.6432 9.86368 100.705 9.39079C98.747 10.6761 96.8956 11.9305 94.7141 12.836C94.331 12.9926 93.9343 13.1244 93.5434 13.1648C93.2985 13.188 93.0365 13.1602 92.7822 13.0934C92.5216 13.0206 92.2844 12.9136 92.0782 12.7678C91.7619 12.5398 91.4829 12.2205 91.2316 11.8918C89.7896 10.011 88.8051 7.98452 87.7461 5.8834Z" fill="#41AFBE"/>
<path d="M100.705 9.39093C100.238 10.467 99.2708 12.754 99.6275 14.0643C99.9686 15.2907 101.473 15.3512 102.846 15.1822C105.246 14.8922 107.627 14.3014 110.005 13.8905C107.738 14.7325 105.385 15.4241 103.166 16.3838C101.896 16.9327 100.621 17.7405 100.935 18.9762C101.271 20.2912 103.243 21.7874 104.18 22.4805C102.099 21.4106 100.094 20.4152 98.2305 18.9592C97.9017 18.7081 97.5901 18.4243 97.3637 18.1002C97.2165 17.8956 97.1141 17.6537 97.0396 17.3962C96.973 17.1389 96.9466 16.8753 96.973 16.6242C97.007 16.2303 97.1405 15.8288 97.2985 15.4426C98.1902 13.2424 99.4352 11.3664 100.705 9.39093" fill="#E5591C"/>
<path d="M81.7281 28.5547C82.1979 27.4802 83.1685 25.1917 82.8041 23.8799C82.4661 22.6535 80.9621 22.5962 79.5884 22.7604C77.1944 23.0503 74.8142 23.6411 72.4297 24.0536C74.6949 23.2132 77.0487 22.5201 79.2705 21.5635C80.5436 21.013 81.8165 20.2006 81.5018 18.971C81.1653 17.6531 79.196 16.1583 78.2549 15.4653C80.3373 16.5336 82.3436 17.5305 84.2074 18.9849C84.5346 19.2361 84.8477 19.5214 85.0726 19.8425C85.2184 20.0501 85.3269 20.2889 85.3966 20.5495C85.4633 20.8099 85.4896 21.0688 85.4633 21.32C85.4292 21.7154 85.2959 22.117 85.1408 22.5032C84.2461 24.7017 82.9996 26.5747 81.7281 28.5547" fill="#E5591C"/>
<path d="M97.6329 44.8232L96.2498 50.002H90.8091C87.5684 49.9616 85.531 47.2219 86.3777 44.0821C87.156 41.1749 90.1191 38.8925 93.1099 38.8925C96.3754 38.8925 98.4857 41.6463 97.6329 44.8232ZM94.0449 47.2235L94.9008 44.034C95.2744 42.651 94.5163 41.6695 93.0853 41.6695C91.3517 41.6695 89.4879 43.1052 89.0306 44.783C88.6631 46.1473 89.3965 47.2079 90.8091 47.2235H94.0449" fill="#41AFBE"/>
<path d="M33.2946 47.2234L33.9334 44.8185C34.3815 43.1362 36.1723 41.6772 37.8624 41.6695C38.3477 41.6695 38.8347 41.7516 39.2331 42.0539C39.4315 42.2013 39.5804 42.3904 39.6827 42.6121L41.9357 40.9129C41.1278 39.6847 39.709 38.8909 37.9538 38.8909C37.7383 38.8939 37.5213 38.9001 37.3026 38.9235C36.5568 38.9995 35.8189 39.2103 35.1273 39.5374C34.1876 39.9778 33.321 40.626 32.6372 41.4244C31.7999 42.3998 31.3332 43.5641 31.0091 44.7952L28.1406 55.5605L31.8108 52.7867L32.5442 50.0019H33.6279L37.3026 47.2234H33.2946" fill="#41AFBE"/>
<path d="M17.2369 35.2131C18.0106 35.2131 18.4727 35.8241 18.2741 36.5807C18.0695 37.3327 17.2788 37.9451 16.5082 37.9451C15.7328 37.9451 15.2709 37.3327 15.4739 36.5807C15.6756 35.8241 16.4662 35.2131 17.2369 35.2131ZM17.6477 38.8925L14.6909 50.002H11.8906L14.8491 38.8925H17.6477Z" fill="#41AFBE"/>
<path d="M52.5655 44.8232L51.1839 50.002H45.74C42.501 49.9616 40.4636 47.2219 41.3087 44.0821C42.0933 41.1749 45.0547 38.8925 48.0426 38.8925C51.3095 38.8925 53.4198 41.6463 52.5655 44.8232V44.8232ZM48.9791 47.2235L49.8349 44.034C50.2087 42.651 49.4504 41.6695 48.0193 41.6695C46.289 41.6695 44.4189 43.1052 43.9678 44.783C43.5972 46.1473 44.3306 47.2079 45.7431 47.2235H48.9791Z" fill="#41AFBE"/>
<path d="M74.5178 50.002H71.5579L72.9346 44.8062C73.3114 43.3858 73.4044 41.6695 71.3733 41.6695C69.68 41.6695 67.8459 43.1673 67.3978 44.8154L66.0147 50.002H63.0625L64.447 44.8092C64.8115 43.5563 65.2363 42.409 66.1573 41.3701C67.4893 39.877 69.4336 38.8925 71.3873 38.8925C73.0633 38.8925 74.4295 39.6165 75.2373 40.7608C76.524 39.6057 78.1971 38.8925 79.8749 38.8925C82.7557 38.8925 84.7141 41.0261 84.5326 43.7208C84.4954 44.3331 84.3233 44.9177 84.1714 45.507L82.9713 50.002H80.0237L81.4146 44.8232C81.7944 43.4075 81.9153 41.6695 79.8609 41.6695C78.1739 41.6695 76.3489 43.1564 75.9024 44.803L74.5178 50.002Z" fill="#41AFBE"/>
<path d="M57.3051 44.8185C57.7548 43.1362 59.5455 41.6773 61.2357 41.6695C61.7195 41.6695 62.2094 41.7517 62.6062 42.0555C62.8017 42.2029 62.9535 42.3904 63.0574 42.6137L65.3088 40.9129C64.501 39.6848 63.0822 38.8925 61.3272 38.8925C61.1085 38.8939 60.893 38.9033 60.6744 38.9235C59.9302 38.9979 59.1936 39.212 58.5036 39.5391C57.5593 39.9794 56.6958 40.629 56.0119 41.426C55.1715 42.3998 54.7048 43.5658 54.3777 44.7937L52.9961 50.002H55.9189L57.3051 44.8185Z" fill="#41AFBE"/>
<path d="M5.99922 33.3354L4.52002 38.8909H7.01948C10.2569 38.9329 12.2928 41.671 11.4493 44.8155C10.6679 47.7196 7.70478 50.002 4.7169 50.002C1.51201 50.002 -0.582775 47.3505 0.144447 44.2495L2.31519 36.114L5.99922 33.3354ZM3.78038 41.6695L2.923 44.8605C2.55241 46.2481 3.30745 47.225 4.73711 47.225C6.47214 47.225 8.3405 45.7891 8.79326 44.1101C9.16068 42.7487 8.42893 41.685 7.01481 41.6695H3.78038Z" fill="#41AFBE"/>
<path d="M24.7954 38.8909C28.0686 38.8909 30.1494 41.6417 29.2826 44.8187C28.4872 47.7196 25.5117 50.002 22.5192 50.002C19.2492 50.002 17.1684 47.2546 18.0382 44.0775C18.8306 41.1733 21.806 38.8909 24.7954 38.8909ZM24.8155 41.6695C23.0541 41.6695 21.1532 43.1255 20.6881 44.8295C20.3004 46.2327 21.0555 47.225 22.5068 47.225C24.262 47.225 26.163 45.769 26.6312 44.0682C27.0173 42.6617 26.2638 41.6695 24.8155 41.6695Z" fill="#41AFBE"/>
</svg>
