<svg width="111" height="64" viewBox="0 0 111 64" fill="none" xmlns="http://www.w3.org/2000/svg">
<path d="M104.181 22.4777C103.026 22.6048 100.579 22.901 99.6352 23.8731C98.7529 24.7818 99.4553 26.1276 100.283 27.2472C101.734 29.1961 103.431 30.984 104.972 32.8584C103.118 31.2971 101.347 29.5868 99.4133 28.1233C98.3094 27.2858 96.9759 26.5758 96.0751 27.4705C95.1122 28.4225 94.8193 30.894 94.6921 32.0584C94.5696 29.7078 94.4192 27.4549 94.7354 25.0966C94.7912 24.6826 94.8751 24.2671 95.0378 23.9089C95.1433 23.6794 95.2952 23.4654 95.4828 23.2762C95.6705 23.0871 95.8844 22.9351 96.1092 22.8266C96.4674 22.6638 96.8783 22.5785 97.2876 22.5196C99.6196 22.2017 101.851 22.3553 104.181 22.4777" fill="#EEBF0E"/>
<path d="M78.2555 15.4646C79.4107 15.3375 81.8575 15.0382 82.8032 14.0707C83.6824 13.1621 82.9815 11.8163 82.1536 10.6968C80.707 8.74456 79.0091 6.95851 77.4648 5.08397C79.3192 6.64367 81.0898 8.35554 83.0204 9.81908C84.1304 10.6565 85.4623 11.3666 86.3618 10.4735C87.3247 9.5199 87.6175 7.04994 87.7448 5.88231C87.8672 8.23763 88.0176 10.4874 87.7013 12.8473C87.644 13.2551 87.5602 13.6738 87.3991 14.0319C87.2951 14.263 87.1385 14.4755 86.954 14.6645C86.7649 14.8553 86.5554 15.0088 86.3276 15.1158C85.9709 15.2786 85.5586 15.3654 85.1523 15.4197C82.8172 15.7438 80.5859 15.5917 78.2555 15.4646" fill="#EEBF0E"/>
<path d="M94.6875 32.0586C94.0021 31.1127 92.5229 29.1236 91.2205 28.7824C90.0002 28.4661 89.1954 29.7514 88.6542 31.0353C87.7039 33.2773 87.02 35.6543 86.1828 37.943C86.5937 35.5427 87.1766 33.1379 87.4619 30.7159C87.6295 29.3267 87.5705 27.8087 86.3565 27.466C85.0587 27.1031 82.7887 28.0816 81.7266 28.5545C83.6849 27.2676 85.5425 26.0116 87.7225 25.1108C88.1007 24.9511 88.5024 24.8177 88.8885 24.7805C89.1427 24.7557 89.4001 24.7836 89.6576 24.8519C89.9118 24.9231 90.1521 25.0332 90.3553 25.1758C90.6732 25.4069 90.9522 25.7248 91.2049 26.052C92.6454 27.9343 93.6316 29.9593 94.6875 32.0586" fill="#41AFBE"/>
<path d="M87.7461 5.88254C88.4314 6.82844 89.9106 8.82247 91.213 9.16042C92.4364 9.47831 93.2396 8.18984 93.7822 6.90599C94.7311 4.66396 95.4181 2.29004 96.2521 -1.40087e-05C95.8444 2.40479 95.2598 4.80803 94.9715 7.23008C94.8055 8.6146 94.8629 10.1342 96.0816 10.4753C97.381 10.8413 99.6432 9.86283 100.705 9.38994C98.747 10.6752 96.8956 11.9297 94.7141 12.8351C94.331 12.9918 93.9343 13.1236 93.5434 13.1639C93.2985 13.1871 93.0365 13.1593 92.7822 13.0926C92.5216 13.0197 92.2844 12.9128 92.0782 12.7669C91.7619 12.539 91.4829 12.2196 91.2316 11.8909C89.7896 10.0102 88.8051 7.98366 87.7461 5.88254Z" fill="#41AFBE"/>
<path d="M100.703 9.39007C100.236 10.4662 99.2689 12.7532 99.6255 14.0634C99.9667 15.2899 101.471 15.3503 102.844 15.1813C105.245 14.8914 107.625 14.3006 110.003 13.8897C107.736 14.7317 105.383 15.4232 103.164 16.383C101.894 16.9319 100.619 17.7397 100.933 18.9754C101.269 20.2903 103.241 21.7866 104.178 22.4796C102.097 21.4097 100.092 20.4143 98.2285 18.9584C97.8998 18.7072 97.5881 18.4235 97.3617 18.0994C97.2145 17.8948 97.1122 17.6529 97.0377 17.3954C96.971 17.138 96.9447 16.8745 96.971 16.6233C97.0051 16.2295 97.1385 15.8279 97.2966 15.4417C98.1883 13.2415 99.4332 11.3655 100.703 9.39007" fill="#E5591C"/>
<path d="M81.7281 28.5547C82.1979 27.4802 83.1685 25.1917 82.8041 23.8799C82.4661 22.6535 80.9621 22.5962 79.5884 22.7604C77.1944 23.0503 74.8142 23.6411 72.4297 24.0536C74.6949 23.2132 77.0487 22.5201 79.2705 21.5635C80.5436 21.013 81.8165 20.2006 81.5018 18.971C81.1653 17.6531 79.196 16.1583 78.2549 15.4653C80.3373 16.5336 82.3436 17.5305 84.2074 18.9849C84.5346 19.2361 84.8477 19.5214 85.0726 19.8425C85.2184 20.0501 85.3269 20.2889 85.3966 20.5495C85.4633 20.8099 85.4896 21.0688 85.4633 21.32C85.4292 21.7154 85.2959 22.117 85.1408 22.5032C84.2461 24.7017 82.9996 26.5747 81.7281 28.5547" fill="#E5591C"/>
<path d="M97.6309 44.8229L96.2479 50.0017H90.8071C87.5664 49.9614 85.529 47.2217 86.3757 44.0819C87.1541 41.1746 90.1171 38.8922 93.108 38.8922C96.3735 38.8922 98.4837 41.6461 97.6309 44.8229ZM94.0429 47.2232L94.8989 44.0337C95.2725 42.6508 94.5144 41.6693 93.0833 41.6693C91.3498 41.6693 89.486 43.105 89.0286 44.7828C88.6611 46.147 89.3945 47.2077 90.8071 47.2232H94.0429" fill="#41AFBE"/>
<path d="M33.2946 47.2229L33.9334 44.818C34.3815 43.1357 36.1723 41.6767 37.8624 41.669C38.3477 41.669 38.8347 41.7511 39.2331 42.0534C39.4315 42.2008 39.5804 42.3899 39.6827 42.6117L41.9357 40.9124C41.1278 39.6842 39.709 38.8904 37.9538 38.8904C37.7383 38.8935 37.5213 38.8997 37.3026 38.923C36.5568 38.999 35.8189 39.2098 35.1273 39.5369C34.1876 39.9773 33.321 40.6255 32.6372 41.424C31.7999 42.3993 31.3332 43.5636 31.0091 44.7947L28.1406 55.5601L31.8108 52.7862L32.5442 50.0015H33.6279L37.3026 47.2229H33.2946" fill="#41AFBE"/>
<path d="M17.2369 35.2128C18.0106 35.2128 18.4727 35.8238 18.2741 36.5804C18.0695 37.3324 17.2788 37.9449 16.5082 37.9449C15.7328 37.9449 15.2709 37.3324 15.4739 36.5804C15.6756 35.8238 16.4662 35.2128 17.2369 35.2128ZM17.6477 38.8922L14.6909 50.0017H11.8906L14.8491 38.8922H17.6477Z" fill="#41AFBE"/>
<path d="M52.5655 44.8229L51.1839 50.0017H45.74C42.501 49.9614 40.4636 47.2217 41.3087 44.0819C42.0933 41.1746 45.0547 38.8922 48.0426 38.8922C51.3095 38.8922 53.4198 41.6461 52.5655 44.8229V44.8229ZM48.9791 47.2232L49.8349 44.0337C50.2087 42.6508 49.4504 41.6693 48.0193 41.6693C46.289 41.6693 44.4189 43.105 43.9678 44.7828C43.5972 46.147 44.3306 47.2077 45.7431 47.2232H48.9791Z" fill="#41AFBE"/>
<path d="M74.5178 50.0017H71.5579L72.9346 44.8059C73.3114 43.3855 73.4044 41.6693 71.3733 41.6693C69.68 41.6693 67.8459 43.1671 67.3978 44.8152L66.0147 50.0017H63.0625L64.447 44.809C64.8115 43.5561 65.2363 42.4088 66.1573 41.3699C67.4893 39.8768 69.4336 38.8922 71.3873 38.8922C73.0633 38.8922 74.4295 39.6163 75.2373 40.7606C76.524 39.6055 78.1971 38.8922 79.8749 38.8922C82.7557 38.8922 84.7141 41.0258 84.5326 43.7206C84.4954 44.3329 84.3233 44.9175 84.1714 45.5067L82.9713 50.0017H80.0237L81.4146 44.8229C81.7944 43.4073 81.9153 41.6693 79.8609 41.6693C78.1739 41.6693 76.3489 43.1561 75.9024 44.8027L74.5178 50.0017Z" fill="#41AFBE"/>
<path d="M57.3051 44.8183C57.7548 43.136 59.5455 41.6771 61.2357 41.6693C61.7195 41.6693 62.2094 41.7515 62.6062 42.0553C62.8017 42.2027 62.9535 42.3902 63.0574 42.6135L65.3088 40.9126C64.501 39.6846 63.0822 38.8922 61.3272 38.8922C61.1085 38.8937 60.893 38.9031 60.6744 38.9232C59.9302 38.9976 59.1936 39.2117 58.5036 39.5388C57.5593 39.9792 56.6958 40.6288 56.0119 41.4258C55.1715 42.3995 54.7048 43.5656 54.3777 44.7935L52.9961 50.0017H55.9189L57.3051 44.8183Z" fill="#41AFBE"/>
<path d="M5.99922 33.3351L4.52002 38.8907H7.01948C10.2569 38.9326 12.2928 41.6707 11.4493 44.8153C10.6679 47.7193 7.70478 50.0017 4.7169 50.0017C1.51201 50.0017 -0.582775 47.3503 0.144447 44.2493L2.31519 36.1138L5.99922 33.3351ZM3.78038 41.6693L2.923 44.8603C2.55241 46.2479 3.30745 47.2247 4.73711 47.2247C6.47214 47.2247 8.3405 45.7889 8.79326 44.1098C9.16068 42.7484 8.42893 41.6847 7.01481 41.6693H3.78038Z" fill="#41AFBE"/>
<path d="M24.7954 38.8907C28.0686 38.8907 30.1494 41.6414 29.2826 44.8184C28.4872 47.7193 25.5117 50.0017 22.5192 50.0017C19.2492 50.0017 17.1684 47.2543 18.0382 44.0772C18.8306 41.173 21.806 38.8907 24.7954 38.8907ZM24.8155 41.6693C23.0541 41.6693 21.1532 43.1253 20.6881 44.8293C20.3004 46.2325 21.0555 47.2247 22.5068 47.2247C24.262 47.2247 26.163 45.7688 26.6312 44.068C27.0173 42.6615 26.2638 41.6693 24.8155 41.6693Z" fill="#41AFBE"/>
</svg>
